<svg xmlns="http://www.w3.org/2000/svg" width="45" height="39.497" viewBox="0 0 45 39.497"><g transform="translate(19931 -2039)"><path d="M-19917.193,2060.656s-5.568,9.946-12.531,16.966c.813.348,24.018,0,24.018,0s-2.2-1.2-1.23-2.434c-1.3-1.562-9.547-12.88-9.766-13.752S-19917.193,2060.656-19917.193,2060.656Z" fill="#fccb54"/><g transform="translate(-19931 2039)"><path d="M40.562,34.039V23.832A5.052,5.052,0,0,0,45,18.861a15.463,15.463,0,0,0-1.38-4.7.666.666,0,1,0-1.234.5,13.926,13.926,0,0,1,1.283,4.2,3.714,3.714,0,0,1-3.106,3.625V20.71L42.124,20a.666.666,0,1,0-.551-1.212l-1.011.46V18.24a.666.666,0,1,0-1.331,0v1.008l-1.011-.46A.666.666,0,1,0,37.668,20l1.562.71v1.776a3.715,3.715,0,0,1-3.107-3.625c0-1.6,2.347-6.8,3.771-9.759.318.66.733,1.537,1.17,2.5a.666.666,0,0,0,1.212-.55C41.34,8.985,40.5,7.307,40.491,7.29a.665.665,0,0,0-1.19,0c-.461.921-4.509,9.066-4.509,11.571a5.052,5.052,0,0,0,4.438,4.971v8.645A49.709,49.709,0,0,1,31.818,20.66a.666.666,0,0,0-.62-.423H28.091a.666.666,0,0,0,0,1.331h2.664a43.691,43.691,0,0,0,2.866,5.37,59.191,59.191,0,0,0,9.037,11.228H36.211a2.437,2.437,0,0,0-1.559-3.47,2.437,2.437,0,0,0-2.212-1.412h0a3.639,3.639,0,0,0-5.145,0h0A2.438,2.438,0,0,0,25.081,34.7a2.433,2.433,0,0,0-.907.457,54.282,54.282,0,0,1-9.352-13.585H24.985a.666.666,0,1,0,0-1.331H19.527V16.909a5.052,5.052,0,0,0,4.438-4.971c0-2.5-4.047-10.65-4.509-11.571a.666.666,0,0,0-1.19,0c-.461.92-4.509,9.066-4.509,11.571A5.052,5.052,0,0,0,18.2,16.909v3.328h-4.4a.651.651,0,0,0-.068,0h-.011q-.033,0-.066.012l-.027.008-.043.013-.029.011-.041.019-.025.012a.68.68,0,0,0-.061.037l-.007.005a.651.651,0,0,0-.051.041l-.016.015c-.013.012-.026.025-.039.039l-.015.017c-.012.015-.024.03-.036.046l-.008.01,0,0a.659.659,0,0,0-.068.128A48.52,48.52,0,0,1,6.657,31.37V24.1a6,6,0,0,0,5.326-5.953c0-3.01-4.843-12.852-5.395-13.965a.666.666,0,0,0-1.192,0C4.842,5.3,0,15.14,0,18.151A6,6,0,0,0,5.325,24.1V33.01A57.326,57.326,0,0,1,.216,38.34.666.666,0,0,0,.666,39.5H44.334a.666.666,0,0,0,.45-1.157,57.078,57.078,0,0,1-4.222-4.3Zm-25.473-22.1c0-1.6,2.348-6.807,3.772-9.761,1.424,2.954,3.772,8.16,3.772,9.761a3.714,3.714,0,0,1-3.106,3.625V13.787l1.562-.71a.666.666,0,1,0-.551-1.212l-1.012.46V11.317a.666.666,0,0,0-1.331,0v1.008l-1.011-.46a.666.666,0,1,0-.551,1.212l1.562.71v1.776a3.714,3.714,0,0,1-3.106-3.625ZM1.331,18.151c0-2.018,2.961-8.609,4.66-12.149,1.7,3.54,4.66,10.131,4.66,12.149a4.667,4.667,0,0,1-3.994,4.612V20.976l1.562-.71a.666.666,0,0,0-.551-1.212l-1.012.46V18.506a.666.666,0,0,0-1.331,0v1.008l-1.011-.46a.666.666,0,1,0-.551,1.212l1.562.71v1.786a4.667,4.667,0,0,1-3.994-4.612Zm10.047,8.787a47.6,47.6,0,0,0,2.422-4.4,55.458,55.458,0,0,0,9.588,13.724,2.427,2.427,0,0,0,.134,1.9H20.1a24.757,24.757,0,0,1-5.679-7.749A.666.666,0,0,0,13.8,30h0a.666.666,0,0,0-.617.415,24.747,24.747,0,0,1-5.679,7.75H2.341a59.209,59.209,0,0,0,9.037-11.228ZM9.4,38.166a26.99,26.99,0,0,0,4.4-5.971,27,27,0,0,0,4.4,5.971Zm17.533,0H25.7a1.111,1.111,0,0,1-1.11-1.11,1.1,1.1,0,0,1,.129-.516.669.669,0,0,0,.069-.112,1.108,1.108,0,0,1,.835-.476.666.666,0,0,0,.6-.5,1.093,1.093,0,0,1,1.246-.82.665.665,0,0,0,.617-.236,2.308,2.308,0,0,1,3.57,0,.665.665,0,0,0,.617.236,1.093,1.093,0,0,1,1.246.82.665.665,0,0,0,.6.5,1.108,1.108,0,0,1-.076,2.214Zm0,0" transform="translate(0)" fill="#404040"/><path d="M311.957,52.333a3.95,3.95,0,1,0-3.95-3.95A3.954,3.954,0,0,0,311.957,52.333Zm0-6.568a2.618,2.618,0,1,1-2.618,2.618A2.621,2.621,0,0,1,311.957,45.765Zm0,0" transform="translate(-280.937 -40.528)" fill="#404040"/></g></g></svg>