<svg xmlns="http://www.w3.org/2000/svg" width="45" height="45" viewBox="0 0 45 45"><g transform="translate(-215 -2978)"><path d="M-11440.5,12271.283l2.03,5.813h6.442l-5.111,4.132,2.03,6.162-5.392-3.922-4.9,3.642,1.61-6.162-5.042-3.852h6.092Z" transform="translate(11678 -9287)" fill="#fcb300"/><g transform="translate(215 2978)"><path d="M44.25,3.75H37.5v-3A.75.75,0,0,0,36.75,0H8.25A.75.75,0,0,0,7.5.75v3H.75A.75.75,0,0,0,0,4.5v9a6.758,6.758,0,0,0,6.75,6.75h.785A14.925,14.925,0,0,0,20.25,34.311V39h-7.5A5.257,5.257,0,0,0,7.5,44.25a.75.75,0,0,0,.75.75h28.5a.75.75,0,0,0,.75-.75A5.256,5.256,0,0,0,32.25,39h-7.5V34.31A14.925,14.925,0,0,0,37.465,20.25h.785A6.758,6.758,0,0,0,45,13.5v-9A.75.75,0,0,0,44.25,3.75ZM7.5,18.75H6.75A5.256,5.256,0,0,1,1.5,13.5V5.25h6ZM32.25,40.5a3.756,3.756,0,0,1,3.675,3H9.075a3.764,3.764,0,0,1,3.675-3ZM21.75,39V34.48h.04c.239.012.476.02.71.02s.471-.007.71-.02h.04V39ZM36,19.5A13.5,13.5,0,0,1,22.5,33c-.231,0-.462-.007-.7-.02s-.475-.033-.723-.059A13.46,13.46,0,0,1,9,19.5V1.5H36Zm7.5-6a5.256,5.256,0,0,1-5.25,5.25H37.5V5.25h6Z"/><g transform="translate(12.517 4.544)"><path d="M153.342,55.488a.75.75,0,0,0-.608-.31h-6.508l-2.012-6.19a.75.75,0,0,0-1.425,0l-2.013,6.19h-6.508a.75.75,0,0,0-.44,1.357l5.265,3.825-2.012,6.19a.75.75,0,0,0,1.154.838l5.266-3.824,5.266,3.825a.75.75,0,0,0,1.154-.838l-2.012-6.19,5.265-3.825A.75.75,0,0,0,153.342,55.488Zm-6.758,3.98a.75.75,0,0,0-.272.838l1.466,4.513-3.839-2.788a.75.75,0,0,0-.882,0l-3.839,2.788,1.466-4.513a.75.75,0,0,0-.272-.838l-3.837-2.79h4.745a.75.75,0,0,0,.713-.518l1.466-4.513,1.466,4.513a.75.75,0,0,0,.713.518h4.745Z" transform="translate(-133.518 -48.472)"/></g></g></g></svg>