<svg xmlns="http://www.w3.org/2000/svg" width="31.134" height="33.102" viewBox="0 0 31.134 33.102">
  <g id="headphones" transform="translate(-14.15)" opacity="0.75">
    <path id="Path_178" data-name="Path 178" d="M41.042,12.587V11.314A11.626,11.626,0,0,0,38.01,3.338,10.458,10.458,0,0,0,30.249,0H29.2a10.458,10.458,0,0,0-7.761,3.338,11.626,11.626,0,0,0-3.032,7.976v1.273a4.567,4.567,0,0,0-4.256,4.548v1.989A4.562,4.562,0,0,0,18.7,23.679h2.566a.837.837,0,0,0,.835-.835V13.408a.837.837,0,0,0-.835-.835h-1.2V11.314c0-5.5,3.922-9.645,9.117-9.645h1.05c5.2,0,9.117,4.145,9.117,9.645v1.259h-1.2a.837.837,0,0,0-.835.835v9.43a.837.837,0,0,0,.835.835h1.168c-.341,4.353-3.338,5.362-4.729,5.591a2.934,2.934,0,0,0-2.789-2.024H29.727a2.931,2.931,0,0,0,0,5.862h2.093a2.935,2.935,0,0,0,2.823-2.156,7.893,7.893,0,0,0,2.83-.967c1.509-.883,3.3-2.684,3.533-6.314a4.56,4.56,0,0,0,4.277-4.548V17.128A4.543,4.543,0,0,0,41.042,12.587ZM20.45,22H18.719a2.888,2.888,0,0,1-2.886-2.886V17.128a2.888,2.888,0,0,1,2.886-2.886H20.45Zm11.37,9.43H29.727a1.259,1.259,0,0,1,0-2.517h2.093a1.259,1.259,0,0,1,0,2.517Zm11.8-12.316A2.888,2.888,0,0,1,40.736,22H39V14.242h1.732a2.888,2.888,0,0,1,2.886,2.886Z" fill="#fff"/>
  </g>
</svg>
