<svg xmlns="http://www.w3.org/2000/svg" width="38.5" height="38.499" viewBox="0 0 38.5 38.499">
  <g id="testimonial" transform="translate(0 -0.005)" opacity="0.75">
    <g id="Group_199" data-name="Group 199" transform="translate(4.061 0.005)">
      <g id="Group_198" data-name="Group 198">
        <path id="Path_222" data-name="Path 222" d="M59.253,5.391H57.885c.206-1.524,1.048-1.6,1.436-1.635A.752.752,0,0,0,60,3.007V.757A.752.752,0,0,0,59.21.006C56.833.14,54,1.34,54,6.3v3.913A1.186,1.186,0,0,0,55.185,11.4h4.068a1.186,1.186,0,0,0,1.185-1.185V6.576A1.186,1.186,0,0,0,59.253,5.391Zm-.319,4.5H55.5V6.3c0-3.46,1.539-4.426,3-4.7V2.39C57.494,2.7,56.335,3.6,56.335,6.143a.752.752,0,0,0,.752.752h1.847Z" transform="translate(-54 -0.005)" fill="#fff"/>
      </g>
    </g>
    <g id="Group_201" data-name="Group 201" transform="translate(11.748 0.005)">
      <g id="Group_200" data-name="Group 200">
        <path id="Path_223" data-name="Path 223" d="M161.487,5.391h-1.368c.206-1.524,1.048-1.6,1.436-1.635a.752.752,0,0,0,.684-.749V.757a.752.752,0,0,0-.794-.751c-2.377.134-5.21,1.334-5.21,6.292v3.913a1.186,1.186,0,0,0,1.185,1.185h4.068a1.186,1.186,0,0,0,1.185-1.185V6.576A1.186,1.186,0,0,0,161.487,5.391Zm-.319,4.5h-3.43V6.3c0-3.46,1.539-4.426,3-4.7V2.39c-1.007.306-2.166,1.212-2.166,3.753a.752.752,0,0,0,.752.752h1.847Z" transform="translate(-156.234 -0.005)" fill="#fff"/>
      </g>
    </g>
    <g id="Group_203" data-name="Group 203" transform="translate(20.152 5.86)">
      <g id="Group_202" data-name="Group 202">
        <path id="Path_224" data-name="Path 224" d="M269.284,78.085a.752.752,0,1,0,.22.532A.758.758,0,0,0,269.284,78.085Z" transform="translate(-268 -77.865)" fill="#fff"/>
      </g>
    </g>
    <g id="Group_205" data-name="Group 205" transform="translate(0 5.859)">
      <g id="Group_204" data-name="Group 204">
        <path id="Path_225" data-name="Path 225" d="M25.135,77.864h-.948a.752.752,0,0,0,0,1.5h.948a11.862,11.862,0,0,1,2.447,23.468.752.752,0,0,0-.6.736v4.369l-4.632-4.632a.752.752,0,0,0-.532-.22H13.365A11.864,11.864,0,0,1,2.992,85.473a.752.752,0,1,0-1.314-.731,13.368,13.368,0,0,0,11.687,19.852H21.51l5.695,5.695a.752.752,0,0,0,1.284-.532v-5.589a13.366,13.366,0,0,0-3.354-26.3Z" transform="translate(0 -77.864)" fill="#fff"/>
      </g>
    </g>
    <g id="Group_207" data-name="Group 207" transform="translate(9.244 13.351)">
      <g id="Group_206" data-name="Group 206">
        <path id="Path_226" data-name="Path 226" d="M142.2,177.492H123.689a.752.752,0,1,0,0,1.5H142.2a.752.752,0,1,0,0-1.5Z" transform="translate(-122.937 -177.492)" fill="#fff"/>
      </g>
    </g>
    <g id="Group_209" data-name="Group 209" transform="translate(9.244 17.361)">
      <g id="Group_208" data-name="Group 208">
        <path id="Path_227" data-name="Path 227" d="M142.2,230.825H123.689a.752.752,0,0,0,0,1.5H142.2a.752.752,0,1,0,0-1.5Z" transform="translate(-122.937 -230.825)" fill="#fff"/>
      </g>
    </g>
    <g id="Group_211" data-name="Group 211" transform="translate(9.244 21.372)">
      <g id="Group_210" data-name="Group 210">
        <path id="Path_228" data-name="Path 228" d="M142.2,284.158H123.689a.752.752,0,1,0,0,1.5H142.2a.752.752,0,1,0,0-1.5Z" transform="translate(-122.937 -284.158)" fill="#fff"/>
      </g>
    </g>
    <g id="Group_213" data-name="Group 213" transform="translate(17.887 25.382)">
      <g id="Group_212" data-name="Group 212">
        <path id="Path_229" data-name="Path 229" d="M248.488,337.492h-9.865a.752.752,0,1,0,0,1.5h9.865a.752.752,0,0,0,0-1.5Z" transform="translate(-237.871 -337.492)" fill="#fff"/>
      </g>
    </g>
    <g id="Group_215" data-name="Group 215" transform="translate(13.644 25.382)">
      <g id="Group_214" data-name="Group 214">
        <path id="Path_230" data-name="Path 230" d="M182.21,337.491H182.2a.752.752,0,1,0,0,1.5h.012a.752.752,0,1,0,0-1.5Z" transform="translate(-181.446 -337.491)" fill="#fff"/>
      </g>
    </g>
  </g>
</svg>
