<svg xmlns="http://www.w3.org/2000/svg" width="45" height="34.808" viewBox="0 0 45 34.808"><g transform="translate(-631 -6383)"><path d="M-188.977,6395.128h35.834l-4.055-10.844h-28.1Z" transform="translate(825)" fill="#fcb300" opacity="0.65"/><g transform="translate(631 6330)"><g transform="translate(0 53)"><g transform="translate(0 0)"><path d="M43.279,65.933,42.3,64.894l-3.442-9.279A4.037,4.037,0,0,0,35.1,53H10.51a4.024,4.024,0,0,0-3.76,2.615L3.356,64.779,1.942,66.087A5.525,5.525,0,0,0,0,70.288V83.808a4.02,4.02,0,0,0,4.019,4H6.558a4.02,4.02,0,0,0,4.019-4V81.846H34.423v1.962a4.02,4.02,0,0,0,4.019,4h2.538a4.02,4.02,0,0,0,4.019-4V69.933A5.576,5.576,0,0,0,43.279,65.933ZM8.558,56.269a2.08,2.08,0,0,1,1.952-1.346h24.6a2.093,2.093,0,0,1,1.952,1.346l3,8.077h-2.24a6.6,6.6,0,0,0-13.048,0H5.558Zm27.3,8.077H26.712a4.671,4.671,0,0,1,9.144,0ZM8.654,83.808a2.091,2.091,0,0,1-2.1,2.077H4.019a2.091,2.091,0,0,1-2.1-2.077V81.288a3.9,3.9,0,0,0,2.1.558H8.654Zm34.423,0a2.091,2.091,0,0,1-2.1,2.077H38.442a2.1,2.1,0,0,1-2.1-2.077V81.846h4.635a3.9,3.9,0,0,0,2.1-.558v2.519Zm-2.1-3.885H4.019a2.074,2.074,0,0,1-2.1-2.058V70.288A3.61,3.61,0,0,1,3.2,67.538L3.24,67.5l1.308-1.231H40.962l.923.99c.01.019.038.029.048.048a3.624,3.624,0,0,1,1.135,2.625v7.933h.01A2.081,2.081,0,0,1,40.981,79.923Z" transform="translate(0 -53)" fill="#404040"/></g></g><g transform="translate(4.519 70.115)"><g transform="translate(0 0)"><path d="M55.173,231H47.962a.964.964,0,0,0-.962.962v5a.964.964,0,0,0,.962.962h7.212a.964.964,0,0,0,.962-.962v-5A.964.964,0,0,0,55.173,231Zm-.962,5H48.923v-3.077h5.288Z" transform="translate(-47 -231)" fill="#404040"/></g></g><g transform="translate(31.346 70.115)"><g transform="translate(0 0)"><path d="M334.173,231h-7.212a.964.964,0,0,0-.962.962v5a.964.964,0,0,0,.962.962h7.212a.964.964,0,0,0,.962-.962v-5A.964.964,0,0,0,334.173,231Zm-.962,5h-5.288v-3.077h5.288Z" transform="translate(-326 -231)" fill="#404040"/></g></g><g transform="translate(16.894 74.154)"><path d="M185.95,273h-9.288a.962.962,0,0,0,0,1.923h9.288a.962.962,0,1,0,0-1.923Z" transform="translate(-175.7 -273)" fill="#404040"/></g><g transform="translate(16.894 71.173)"><g transform="translate(0 0)"><path d="M185.95,242h-9.288a.962.962,0,1,0,0,1.923h9.288a.962.962,0,1,0,0-1.923Z" transform="translate(-175.7 -242)" fill="#404040"/></g></g></g></g></svg>