<svg xmlns="http://www.w3.org/2000/svg" width="55" height="55" viewBox="0 0 55 55"><g transform="translate(26.552 15.172)"><path d="M236.328,131.793h-2.845v-2.845a.947.947,0,0,0-.948-.948h-3.793a.947.947,0,0,0-.948.948v2.845h-2.845a.948.948,0,0,0-.948.948v2.845a1.9,1.9,0,0,0,1.9,1.9h9.483a1.9,1.9,0,0,0,1.9-1.9v-2.845A.947.947,0,0,0,236.328,131.793Zm-6.638-1.9h1.9v1.9h-1.9Zm5.69,5.69H225.9v-1.9h9.483Z" transform="translate(-224 -128)" fill="#fcb300"/></g><g transform="translate(26.552 26.552)"><path d="M236.328,227.793h-2.845v-2.845a.947.947,0,0,0-.948-.948h-3.793a.947.947,0,0,0-.948.948v2.845h-2.845a.948.948,0,0,0-.948.948v2.845a1.9,1.9,0,0,0,1.9,1.9h9.483a1.9,1.9,0,0,0,1.9-1.9v-2.845A.947.947,0,0,0,236.328,227.793Zm-6.638-1.9h1.9v1.9h-1.9Zm5.69,5.69H225.9v-1.9h9.483Z" transform="translate(-224 -224)" fill="#fcb300"/></g><path d="M54.052,53.1H51.207V43.525A4.75,4.75,0,0,0,55,38.879c0-.842-1.32-12.328-4.741-12.328s-4.741,11.486-4.741,12.328a4.75,4.75,0,0,0,3.793,4.646V53.1h-5.69V14.224a2.848,2.848,0,0,0-2.845-2.845H36.034v-1.9h.948a2.848,2.848,0,0,0,2.845-2.845V2.845A2.848,2.848,0,0,0,36.983,0H18.017a2.848,2.848,0,0,0-2.845,2.845V6.638a2.848,2.848,0,0,0,2.845,2.845h.948v1.9H14.224a2.848,2.848,0,0,0-2.845,2.845V53.1H5.69V43.525a4.749,4.749,0,0,0,3.793-4.646c0-.842-1.32-12.328-4.741-12.328S0,38.037,0,38.879a4.75,4.75,0,0,0,3.793,4.646V53.1H.948a.948.948,0,0,0,0,1.9h53.1a.948.948,0,0,0,0-1.9ZM1.9,38.879c0-2.61,1.689-9.666,2.845-10.406,1.156.74,2.845,7.8,2.845,10.406a2.845,2.845,0,1,1-5.69,0ZM18.017,7.586a.949.949,0,0,1-.948-.948V2.845a.949.949,0,0,1,.948-.948H36.983a.949.949,0,0,1,.948.948V6.638a.949.949,0,0,1-.948.948Zm16.121,1.9v1.9H20.862v-1.9ZM26.552,53.1h-1.9v-5.69h1.9Zm3.793,0h-1.9v-5.69h1.9Zm11.379,0h-1.9V42.672a.948.948,0,1,0-1.9,0V53.1h-5.69V46.466a.947.947,0,0,0-.948-.948H23.707a.948.948,0,0,0-.948.948V53.1h-5.69V42.672a.948.948,0,1,0-1.9,0V53.1h-1.9V14.224a.949.949,0,0,1,.948-.948H40.776a.949.949,0,0,1,.948.948Zm5.69-14.224c0-2.61,1.688-9.666,2.845-10.406,1.157.74,2.845,7.8,2.845,10.406a2.845,2.845,0,1,1-5.69,0Z" fill="#fcb300"/><g transform="translate(15.172 15.172)"><path d="M136.534,128h-3.793a.948.948,0,0,0-.948.948v2.845h-2.845a.948.948,0,0,0-.948.948v2.845a1.9,1.9,0,0,0,1.9,1.9h5.69a1.9,1.9,0,0,0,1.9-1.9v-6.638A.948.948,0,0,0,136.534,128Zm-.948,7.586H129.9v-1.9h5.69Zm0-3.793h-1.9v-1.9h1.9Z" transform="translate(-128 -128)" fill="#fcb300"/></g><g transform="translate(15.172 26.552)"><path d="M136.534,224h-3.793a.948.948,0,0,0-.948.948v2.845h-2.845a.948.948,0,0,0-.948.948v2.845a1.9,1.9,0,0,0,1.9,1.9h5.69a1.9,1.9,0,0,0,1.9-1.9v-6.638A.948.948,0,0,0,136.534,224Zm-.948,7.586H129.9v-1.9h5.69Zm0-3.793h-1.9v-1.9h1.9Z" transform="translate(-128 -224)" fill="#fcb300"/></g></svg>