<svg xmlns="http://www.w3.org/2000/svg" width="55" height="55.156" viewBox="0 0 55 55.156"><g transform="translate(-12.999 -12.312)"><path d="M168.846,32a9.8,9.8,0,0,0,3.212-.542l5.051.884a.792.792,0,0,0,.865-1.09l-1.321-3.106a9.746,9.746,0,0,0,2.038-5.99A9.846,9.846,0,1,0,168.846,32Zm0-18.107a8.246,8.246,0,0,1,6.289,13.61.792.792,0,0,0-.126.824l.937,2.2-3.821-.668a.794.794,0,0,0-.412.038A8.26,8.26,0,1,1,168.846,13.9Z" transform="translate(-129.479)" fill="#fcb300"/><path d="M209.817,77.779a.792.792,0,0,0,1.12,0l5.1-5.1a.792.792,0,0,0-1.12-1.12L210.378,76.1l-1.45-1.45a.792.792,0,0,0-1.12,1.12Z" transform="translate(-172.557 -52.333)" fill="#fcb300"/><path d="M13.791,208.14h24.9a.792.792,0,0,0,.792-.792V203.3a4.731,4.731,0,0,0-.117-1.086c-.015-.063-.031-.126-.048-.188a4.99,4.99,0,0,0-3.308-3.409l-5.389-1.747v-2.222a8.3,8.3,0,0,0,3.777-5.482l.288-.99a2.822,2.822,0,0,0,1.745-3.311,2.293,2.293,0,0,0-1.331-1.578v-3.5a8.855,8.855,0,1,0-17.71,0v3.493a2.293,2.293,0,0,0-1.335,1.58,2.822,2.822,0,0,0,1.745,3.311l.288.99a8.3,8.3,0,0,0,3.777,5.482v2.222l-5.389,1.747a4.989,4.989,0,0,0-3.308,3.408q-.026.094-.048.189A4.732,4.732,0,0,0,13,203.3v4.048A.792.792,0,0,0,13.791,208.14ZM26.86,180.22a10.743,10.743,0,0,0,4.885,2.737,17.185,17.185,0,0,1-6.895-2.34Q25.905,180.456,26.86,180.22Zm-7.889-.429a7.271,7.271,0,1,1,14.542,0V181.7a9.849,9.849,0,0,1-4.879-2.007,12.437,12.437,0,0,0,3.414-1.8.792.792,0,1,0-.965-1.257c-3.946,3.026-11.032,2.707-11.1,2.7a.792.792,0,0,0-.832.755l-.133,2.928a.283.283,0,0,1-.045.145Zm.663,9.043c0-.025-.011-.05-.018-.075l-.4-1.376a.792.792,0,0,0-.642-.631,1.231,1.231,0,0,1-1.02-1.216,1.244,1.244,0,0,1,.035-.3.709.709,0,0,1,.428-.5,1.873,1.873,0,0,0,2.58-1.648l.1-2.157c.456,0,1.084-.014,1.827-.064,4.792,4.05,11.522,3.842,11.811,3.83h.007a.721.721,0,0,1,.548.54,1.236,1.236,0,0,1-.985,1.51.792.792,0,0,0-.642.631l-.4,1.376c-.007.025-.013.05-.018.075a6.721,6.721,0,0,1-13.211,0ZM26.24,195.9a8.279,8.279,0,0,0,2.794-.485v1.547a6.823,6.823,0,0,1-5.588,0v-1.547a8.279,8.279,0,0,0,2.794.485Zm-11.656,7.4a3.167,3.167,0,0,1,.076-.724c.01-.043.021-.087.033-.13a3.41,3.41,0,0,1,2.269-2.321l5.617-1.821a8.408,8.408,0,0,0,7.325,0l5.617,1.821a3.411,3.411,0,0,1,2.269,2.322c.011.043.023.086.033.129a3.166,3.166,0,0,1,.076.725v3.256H14.583Z" transform="translate(0 -140.673)" fill="#fcb300"/><path d="M392.262,462.7h-.777a.792.792,0,1,0,0,1.584h.777a.792.792,0,1,0,0-1.584Z" transform="translate(-334.95 -399.423)" fill="#fcb300"/><path d="M269.3,182.737l.008,2.786v.018l.007.306a2.16,2.16,0,0,0-1.208,1.467,2.642,2.642,0,0,0,1.238,2.912l-.752,2.825a5.862,5.862,0,0,0,2.709,6.57l-3.125,1.059A4.68,4.68,0,0,0,265,205.114v4.8a.792.792,0,0,0,.792.792h24.9a.792.792,0,0,0,.792-.792v-4.8a4.68,4.68,0,0,0-3.179-4.435l-3.317-1.124a5.855,5.855,0,0,0,3.005-6.363l-.64-3.1a2.643,2.643,0,0,0,1.022-2.773,2.16,2.16,0,0,0-1.219-1.472l.011-3.052a8.931,8.931,0,1,0-17.862-.053Zm1.458,14.28a4.269,4.269,0,0,1-.634-3.559l.1-.376a8.913,8.913,0,0,0,1.626,2.588,8.179,8.179,0,0,0,2.33,1.8v1.171l-.446.151A4.242,4.242,0,0,1,270.76,197.017Zm12.245,3.54-3.979,3.87v-1.62l2.693-2.686Zm-8.241-.436,2.678,2.67v1.62l-3.964-3.854Zm5.952-1.237-2.475,2.467-2.474-2.467v-.814a7.263,7.263,0,0,0,1.765.22h1.417a7.264,7.264,0,0,0,1.765-.22Zm-14.131,6.23a3.1,3.1,0,0,1,2.1-2.934l3.1-1.052,5.649,5.493v2.5H266.584Zm23.313,0v4.01H279.025v-2.488l5.665-5.508,3.1,1.052A3.1,3.1,0,0,1,289.9,205.114Zm-4.3-8.073a4.26,4.26,0,0,1-3.254,1.606v.012l-.039-.013v-1.171a8.181,8.181,0,0,0,2.33-1.8,8.917,8.917,0,0,0,1.688-2.746l.121.587A4.261,4.261,0,0,1,285.592,197.041Zm1.241-9.35a1.063,1.063,0,0,1,.03.252,1.052,1.052,0,0,1-.871,1.039.8.8,0,0,0-.656.792,7.3,7.3,0,0,1-1.882,4.834,6.064,6.064,0,0,1-4.505,2.1h-1.417a6.064,6.064,0,0,1-4.505-2.1,7.307,7.307,0,0,1-1.882-4.845.792.792,0,0,0-.656-.78,1.052,1.052,0,0,1-.871-1.039,1.069,1.069,0,0,1,.03-.252.6.6,0,0,1,.548-.459.792.792,0,0,0,.588-.353,2.031,2.031,0,0,0,2.273-1.092.43.43,0,0,1,.112-.148,12.156,12.156,0,0,0,5.9-1.618,10.676,10.676,0,0,0,6.589,2.8.791.791,0,0,0,.622.411A.6.6,0,0,1,286.833,187.691Zm-8.6-12.3a7.346,7.346,0,0,1,7.346,7.394l-.009,2.442a9.085,9.085,0,0,1-5.177-2.15,12.75,12.75,0,0,0,2.878-3.547.792.792,0,0,0-1.379-.779,9.721,9.721,0,0,1-8.813,5.309l-.029,0a1.74,1.74,0,0,0-1.418,1.041.436.436,0,0,1-.207.2.451.451,0,0,1-.511-.088l-.019-.019-.007-2.459A7.355,7.355,0,0,1,278.233,175.388Z" transform="translate(-223.483 -143.241)" fill="#fcb300"/></g></svg>