<svg xmlns="http://www.w3.org/2000/svg" width="55" height="55" viewBox="0 0 55 55"><g transform="translate(37.931)"><path d="M336.121,7.586H333.18a4.7,4.7,0,0,0-.694-1.662l2.083-2.083A.948.948,0,0,0,333.228,2.5l-2.083,2.083a4.7,4.7,0,0,0-1.662-.694V.948a.948.948,0,1,0-1.9,0V3.889a4.7,4.7,0,0,0-1.662.694L323.841,2.5A.948.948,0,1,0,322.5,3.841l2.083,2.083a4.7,4.7,0,0,0-.694,1.662h-2.941a.948.948,0,0,0,0,1.9h2.941a4.7,4.7,0,0,0,.694,1.662L322.5,13.228a.948.948,0,1,0,1.341,1.341l2.083-2.083a4.7,4.7,0,0,0,1.662.694v2.941a.948.948,0,1,0,1.9,0V13.18a4.7,4.7,0,0,0,1.662-.694l2.083,2.083a.948.948,0,0,0,1.341-1.341l-2.083-2.083a4.7,4.7,0,0,0,.694-1.662h2.941a.948.948,0,0,0,0-1.9Zm-7.586,3.793a2.845,2.845,0,1,1,2.845-2.845A2.848,2.848,0,0,1,328.534,11.379Z" transform="translate(-320)" fill="#fcb300"/></g><g transform="translate(0 8.233)"><path d="M54.052,114.328H50.777c-1.272-1.8-6.727-7.586-23.345-7.586-.943,0-1.829.024-2.778.059v0L19.928,88.907A4.443,4.443,0,0,1,25.8,87.583c.013.008.037.009.051.017a.9.9,0,0,0,.13.049.968.968,0,0,0,.142.041c.014,0,.027.009.042.011a.922.922,0,0,0,.124.009.325.325,0,0,0,.032,0,.829.829,0,0,0,.107-.014.907.907,0,0,0,.151-.032,1,1,0,0,0,.1-.041,1.029,1.029,0,0,0,.141-.079c.015-.01.032-.015.046-.026a.428.428,0,0,0,.035-.037,1.211,1.211,0,0,0,.178-.2c.009-.014.022-.025.03-.04a4.414,4.414,0,0,1,6.032-1.616.948.948,0,0,0,1.389-1.067,16.086,16.086,0,0,0-18.817-11.6l-.748-2.792a.948.948,0,0,0-1.832.491l.748,2.792A16.086,16.086,0,0,0,3.39,92.9a.946.946,0,0,0,.792.694.922.922,0,0,0,.124.009.948.948,0,0,0,.821-.474,4.421,4.421,0,0,1,6.032-1.616c.013.008.029.009.043.017a.81.81,0,0,0,.126.049.913.913,0,0,0,.14.041c.014,0,.027.009.041.011a.922.922,0,0,0,.124.009c.011,0,.021,0,.032,0a.8.8,0,0,0,.106-.014.92.92,0,0,0,.152-.032.981.981,0,0,0,.1-.041.91.91,0,0,0,.142-.08c.014-.01.032-.014.046-.026s.022-.025.034-.036a.987.987,0,0,0,.116-.119.931.931,0,0,0,.064-.083c.009-.014.022-.025.03-.04A4.406,4.406,0,0,1,18.16,89.4l4.692,17.509c-13.04.95-17.5,5.795-18.634,7.42H.948a.948.948,0,1,0,0,1.9h53.1a.948.948,0,1,0,0-1.9ZM10.822,77.1c-.1.246-.192.513-.282.779-.044.13-.095.25-.136.385-.123.411-.233.841-.326,1.293-.078.382-.141.778-.2,1.179-.018.135-.029.274-.045.411-.03.272-.059.546-.079.827-.011.164-.019.331-.027.5-.012.262-.021.525-.025.793,0,.176,0,.353,0,.531,0,.27.011.542.024.817.008.175.014.35.026.526.019.3.046.607.077.913.015.153.026.3.044.456.052.457.114.916.19,1.38.01.062.024.124.034.187.062.362.126.725.2,1.09a6.341,6.341,0,0,0-5.449,1.367,14.265,14.265,0,0,1,5.991-13.5C10.837,77.058,10.83,77.082,10.822,77.1Zm15.256-.7a14.115,14.115,0,0,1,6.012,6.827,6.346,6.346,0,0,0-5.4,1.539c-.117-.354-.243-.7-.371-1.046-.021-.057-.04-.117-.062-.174q-.25-.663-.529-1.3c-.056-.129-.117-.253-.174-.38-.133-.293-.267-.584-.408-.868-.074-.15-.152-.3-.228-.442q-.2-.381-.4-.748-.125-.222-.254-.438-.211-.356-.431-.7c-.086-.135-.172-.269-.26-.4-.161-.239-.327-.469-.495-.7-.078-.105-.154-.214-.232-.317-.248-.322-.5-.633-.761-.926-.305-.345-.614-.662-.926-.955-.112-.105-.225-.192-.338-.29-.2-.176-.4-.356-.605-.509-.019-.014-.037-.033-.056-.047A14.167,14.167,0,0,1,26.078,76.407ZM12.132,88.615c-.046-.229-.09-.457-.131-.684-.023-.127-.048-.255-.068-.381-.069-.43-.13-.855-.178-1.278-.008-.063-.01-.123-.017-.186-.038-.359-.07-.717-.092-1.07-.009-.141-.013-.279-.019-.419-.012-.272-.022-.543-.025-.811,0-.153,0-.3,0-.454,0-.254.009-.5.022-.752.007-.146.013-.292.024-.436.018-.261.044-.516.072-.768.013-.12.024-.243.04-.361.048-.366.106-.726.177-1.073.064-.312.138-.608.219-.9.027-.093.056-.18.083-.271.059-.192.121-.378.188-.558.035-.095.072-.188.109-.279.069-.169.142-.331.217-.486.038-.079.075-.159.115-.235q.152-.289.32-.543c.018-.027.033-.058.051-.084a5.215,5.215,0,0,1,.41-.525c.046-.052.094-.1.141-.145a4.245,4.245,0,0,1,.311-.292c.058-.048.117-.093.176-.137.045-.033.092-.059.137-.089l3.16,11.79A6.35,6.35,0,0,0,12.132,88.615Zm5.763-7.549-1.649-6.155c.058,0,.115,0,.174.009s.136.016.2.028a3.933,3.933,0,0,1,.434.1c.06.017.119.03.179.05a5.185,5.185,0,0,1,.622.252c.025.012.049.028.074.041a6.337,6.337,0,0,1,.559.318c.071.046.143.1.215.145.144.1.288.2.432.313.078.061.156.123.234.188.147.121.294.252.441.389.069.064.138.125.207.192.213.209.427.428.637.666.235.266.465.547.689.84.074.1.145.2.218.3.15.2.3.41.443.625.082.121.162.247.242.371.133.207.263.417.39.633.079.133.156.266.232.4.129.229.254.465.377.7.066.128.134.253.2.384.155.312.3.633.448.958.028.062.057.12.084.183.168.387.328.784.482,1.187.049.129.094.263.141.394.076.209.149.42.22.633A6.325,6.325,0,0,0,19.4,86.7ZM6.742,114.328c2.154-2.058,7.793-5.69,20.758-5.69,12.91,0,18.573,3.632,20.744,5.69Z" transform="translate(0 -69.458)" fill="#fcb300"/></g></svg>