<svg xmlns="http://www.w3.org/2000/svg" width="42" height="40.676" viewBox="0 0 42 40.676">
  <g id="Group_1073" data-name="Group 1073" transform="translate(-933 -808)">
    <circle id="Ellipse_956" data-name="Ellipse 956" cx="8.4" cy="8.4" r="8.4" transform="translate(949.8 831.333)" fill="#fcb300" opacity="0.65"/>
    <g id="target" transform="translate(933 808)">
      <path id="Path_10588" data-name="Path 10588" d="M215.939,35.874V36.96a3.311,3.311,0,1,0,6.622,0V35.874a3.311,3.311,0,1,0-6.622,0Zm5.431,0V36.96a2.121,2.121,0,1,1-4.241,0V35.874a2.123,2.123,0,0,1,2.121-2.121h0A2.123,2.123,0,0,1,221.37,35.874Z" transform="translate(-198.345 -31.222)" fill="#404040"/>
      <path id="Path_10589" data-name="Path 10589" d="M393.621,23.682a2.975,2.975,0,0,0,2.971-2.971v-.951a2.971,2.971,0,1,0-5.943,0v.951A2.975,2.975,0,0,0,393.621,23.682Zm-1.781-3.922a1.781,1.781,0,1,1,3.562,0v.951a1.781,1.781,0,1,1-3.562,0Z" transform="translate(-358.201 -16.788)" fill="#404040"/>
      <path id="Path_10590" data-name="Path 10590" d="M195.247,97.266c-.036,0-.112-.011-2.2-.016h0a.6.6,0,0,0-.516.3l-1.013,1.765-.956-1.754a.6.6,0,0,0-.523-.31h-1.968a3.064,3.064,0,0,0-3.064,3.064c0,.083.012,5.835.013,6.078a1.908,1.908,0,0,0,1.906,1.905h.022a1.855,1.855,0,0,0,.733-.16l.1,3.888a.6.6,0,0,0,.025.155l-1.9,1.9a.6.6,0,0,0-.156.565l.025.1a7.014,7.014,0,0,0-4.025-1.354h-.21c-.087,0-.174,0-.261.008l.037-1.6a2.094,2.094,0,0,0,3.021-1.879V103.3a3.417,3.417,0,0,0-3.057-3.712c-.034,0-.124-.013-2.505-.018h0a.6.6,0,0,0-.516.3l-1.233,2.149-1.165-2.138a.6.6,0,0,0-.523-.31h-2.249a3.421,3.421,0,0,0-3.417,3.417c0,.095.014,6.668.014,6.946a2.093,2.093,0,0,0,2.093,2.093h.024a2.039,2.039,0,0,0,.912-.227l.163,8.9a.592.592,0,0,0,.043.209,8.842,8.842,0,0,0,8.69,10.181h.05a8.88,8.88,0,0,0,8.842-8.657c0-.072,0-.144,0-.216a6.829,6.829,0,0,0-.363-2.17h3.583a1.328,1.328,0,0,0,1.327-1.206c0-.013,0-.027,0-.04l.294-10.65a1.907,1.907,0,0,0,2.651-1.756v-5.8A3.068,3.068,0,0,0,195.247,97.266Zm-6.021,15.172.125,1.262-2.1,2.1-.277-1.109Zm-1.13,4.2,2.1-2.1,1.261.125-2.249,2.249Zm-14.226-6.173-.008-.585a.6.6,0,0,0-.6-.586h0a.6.6,0,0,0-.591.6.928.928,0,0,1-.893.944h-.01a.9.9,0,0,1-.9-.9c0-.069-.014-6.852-.014-6.945a2.229,2.229,0,0,1,2.227-2.227h1.9l1.5,2.762a.6.6,0,0,0,.516.31H177a.6.6,0,0,0,.516-.3l1.59-2.772c.831,0,1.9.007,2.055.012a2.226,2.226,0,0,1,1.978,2.438.58.58,0,0,0,0,.06v6.661a.9.9,0,1,1-1.808.034v-.044a.6.6,0,1,0-1.19.01c0,.021,0,.043,0,.064l.008.477-.07,3.068A8.882,8.882,0,0,0,174,117.812ZM189.3,122.4a7.684,7.684,0,0,1-7.652,7.49h-.044a7.653,7.653,0,1,1-.06-15.306h.182a5.87,5.87,0,0,1,4.075,1.757l.448.453-5.022,5.022a.6.6,0,0,0,.842.842l5.017-5.017.507.513a5.784,5.784,0,0,1,1.708,4.058C189.3,122.279,189.3,122.342,189.3,122.4Zm7.5-21.9a.571.571,0,0,0,0,.06v5.828a.717.717,0,1,1-1.433.028v-.038a.6.6,0,0,0-.6-.585h0a.6.6,0,0,0-.59.6q0,.029,0,.058l.007.414-.327,11.872a.142.142,0,0,1-.14.117H189.6a7.132,7.132,0,0,0-.471-.729l.115.029a.6.6,0,0,0,.565-.157l3.377-3.377a.6.6,0,0,0-.362-1.013l-2.308-.228-.228-2.308a.6.6,0,0,0-1.013-.362l-.332.332-.1-4.181-.008-.512a.6.6,0,0,0-.6-.586h0a.6.6,0,0,0-.591.6.736.736,0,0,1-.7.752h-.015a.717.717,0,0,1-.716-.716c0-.06-.013-6-.013-6.077a1.874,1.874,0,0,1,1.874-1.874h1.615l1.3,2.378a.6.6,0,0,0,1.039.011l1.37-2.388c.715,0,1.609.006,1.75.01A1.876,1.876,0,0,1,196.8,100.5Z" transform="translate(-156.001 -90.409)" fill="#404040"/>
      <path id="Path_10591" data-name="Path 10591" d="M49.493,19.759v.951a2.971,2.971,0,1,0,5.943,0v-.951a2.971,2.971,0,1,0-5.943,0Zm4.753,0v.951a1.781,1.781,0,1,1-3.562,0v-.951a1.781,1.781,0,1,1,3.562,0Z" transform="translate(-46.05 -16.788)" fill="#404040"/>
      <path id="Path_10592" data-name="Path 10592" d="M19.24,97.266c-.036,0-.112-.011-2.2-.016h0a.6.6,0,0,0-.516.3l-1.012,1.765-.956-1.754a.6.6,0,0,0-.523-.31H12.064A3.068,3.068,0,0,0,9,100.314c0,.083.012,5.834.012,6.078a1.908,1.908,0,0,0,1.906,1.905h.022a1.857,1.857,0,0,0,.739-.162l.315,10.664c0,.014,0,.027,0,.04a1.328,1.328,0,0,0,1.326,1.2h4.384a1.328,1.328,0,0,0,1.327-1.206c0-.014,0-.027,0-.04l.294-10.65a1.907,1.907,0,0,0,2.651-1.756v-5.8a3.064,3.064,0,0,0-2.742-3.326Zm1.555,3.237a.566.566,0,0,0,0,.06v5.828a.717.717,0,1,1-1.433.028v-.037a.6.6,0,0,0-.6-.585h0a.6.6,0,0,0-.59.6c0,.019,0,.038,0,.057l.007.415-.327,11.872a.142.142,0,0,1-.14.117H13.323a.142.142,0,0,1-.14-.116l-.351-11.883-.008-.507a.6.6,0,0,0-.6-.586h0a.6.6,0,0,0-.591.6.736.736,0,0,1-.7.752h-.015a.717.717,0,0,1-.716-.716c0-.06-.012-6-.012-6.077a1.876,1.876,0,0,1,1.874-1.874h1.615l1.3,2.378a.6.6,0,0,0,1.039.011l1.37-2.388c.715,0,1.609.006,1.75.01a1.874,1.874,0,0,1,1.661,2.052Z" transform="translate(-9 -90.409)" fill="#404040"/>
      <path id="Path_10593" data-name="Path 10593" d="M248.283,320.815a.6.6,0,0,0-.234.808,5.046,5.046,0,1,1-1.921-1.954.6.6,0,1,0,.592-1.033,6.235,6.235,0,1,0,2.372,2.413A.6.6,0,0,0,248.283,320.815Z" transform="translate(-217.973 -292.221)" fill="#404040"/>
      <path id="Path_10594" data-name="Path 10594" d="M285.777,363.97a2.315,2.315,0,1,0,2.315,2.315.6.6,0,0,0-1.19,0,1.125,1.125,0,1,1-1.125-1.124.6.6,0,0,0,0-1.19Z" transform="translate(-260.127 -334.452)" fill="#404040"/>
    </g>
  </g>
</svg>
