<svg xmlns="http://www.w3.org/2000/svg" width="42" height="42" viewBox="0 0 42 42">
  <g id="Group_1074" data-name="Group 1074" transform="translate(-1229 -804)">
    <path id="Path_10607" data-name="Path 10607" d="M13266.994,10726.965a2.432,2.432,0,0,0-.616-2,4.187,4.187,0,0,1,.177-6.188c3.4-1.5,4.519-1.261,6.366,1.584,1.232,1.906-1,4.987-1.145,5.046a2.663,2.663,0,0,0-.586,1.556C13271.248,10727.462,13266.994,10726.965,13266.994,10726.965Z" transform="translate(-12013.605 -9887.858)" fill="#fcb300" opacity="0.65"/>
    <g id="question" transform="translate(1229 804)">
      <g id="Group_810" data-name="Group 810">
        <g id="Group_809" data-name="Group 809">
          <path id="Path_10595" data-name="Path 10595" d="M316.544,341.35h0a.7.7,0,0,0,0,1.4h0a.7.7,0,0,1,.7.7.7.7,0,0,0,.7.7h0a.7.7,0,0,0,.7-.7A2.1,2.1,0,0,0,316.544,341.35Z" transform="translate(-289.933 -313.349)" fill="#404040"/>
          <path id="Path_10596" data-name="Path 10596" d="M214.029,359.8h1.4a.7.7,0,0,0,0-1.4h-1.4a.7.7,0,1,0,0,1.4Z" transform="translate(-195.828 -329)" fill="#404040"/>
          <path id="Path_10597" data-name="Path 10597" d="M220.091,324.844l1.316.478a.7.7,0,1,0,.478-1.316l-1.316-.478a.7.7,0,0,0-.478,1.316Z" transform="translate(-201.616 -296.951)" fill="#404040"/>
          <path id="Path_10598" data-name="Path 10598" d="M222.132,387.834a.7.7,0,0,0-.689-.121l-1.315.48a.7.7,0,1,0,.48,1.315l1.315-.48a.7.7,0,0,0,.21-1.194Z" transform="translate(-201.648 -355.87)" fill="#404040"/>
          <path id="Path_10599" data-name="Path 10599" d="M403.218,358.383h-1.4a.7.7,0,0,0,0,1.4h1.4a.7.7,0,0,0,0-1.4Z" transform="translate(-368.217 -328.984)" fill="#404040"/>
          <path id="Path_10600" data-name="Path 10600" d="M396.724,325.188h0a.7.7,0,0,0,.24-.043l1.315-.48a.7.7,0,1,0-.48-1.315l-1.315.48a.7.7,0,0,0,.24,1.358Z" transform="translate(-363.538 -296.786)" fill="#404040"/>
          <path id="Path_10601" data-name="Path 10601" d="M398.352,388.056l-1.316-.478a.7.7,0,0,0-.478,1.316l1.316.478a.7.7,0,0,0,.478-1.316Z" transform="translate(-363.607 -355.747)" fill="#404040"/>
          <path id="Path_10602" data-name="Path 10602" d="M124.132,34.132a4.9,4.9,0,0,0-4.666,4.895.7.7,0,0,0,1.4,0,3.489,3.489,0,0,1,1.294-2.717,3.538,3.538,0,0,1,2.967-.7,3.5,3.5,0,0,1-.259,6.885,1.4,1.4,0,0,0-1.2,1.381v.755a.7.7,0,0,0,1.4,0v-.75a4.9,4.9,0,0,0-.934-9.745Z" transform="translate(-109.666 -31.327)" fill="#404040"/>
          <path id="Path_10603" data-name="Path 10603" d="M171.864,187.974a.809.809,0,0,0-.231-.147.7.7,0,0,0-.532,0,.719.719,0,0,0-.231.147.807.807,0,0,0-.147.231.7.7,0,0,0-.056.266.919.919,0,0,0,.014.14.444.444,0,0,0,.042.126.532.532,0,0,0,.063.126l.084.1a.737.737,0,0,0,.5.2.587.587,0,0,0,.266-.056.815.815,0,0,0,.231-.147l.084-.1a.533.533,0,0,0,.063-.126.457.457,0,0,0,.042-.126.976.976,0,0,0,.014-.14.7.7,0,0,0-.056-.266A.819.819,0,0,0,171.864,187.974Z" transform="translate(-156.667 -172.371)" fill="#404040"/>
          <path id="Path_10604" data-name="Path 10604" d="M30.8,16.8V2.8A2.8,2.8,0,0,0,28,0H2.8A2.8,2.8,0,0,0,0,2.8v14a2.8,2.8,0,0,0,2.8,2.8h.7v4.2a1.4,1.4,0,0,0,2.39.99.558.558,0,0,0,.047-.052L10.132,19.6H28A2.8,2.8,0,0,0,30.8,16.8Zm-21,1.4c-.012,0-.022.006-.033.007a1.466,1.466,0,0,0-.264.065,1.458,1.458,0,0,0-.218.164c-.008.009-.019.012-.026.022L4.9,23.793V18.9a.7.7,0,0,0-.7-.7H2.8a1.4,1.4,0,0,1-1.4-1.4V2.8A1.4,1.4,0,0,1,2.8,1.4H28a1.4,1.4,0,0,1,1.4,1.4v14A1.4,1.4,0,0,1,28,18.2Z" fill="#404040"/>
          <path id="Path_10605" data-name="Path 10605" d="M164.534,210.417h-.7v-4.2a1.4,1.4,0,0,0-2.39-.99.557.557,0,0,0-.047.052l-4.195,5.136H139.334a2.8,2.8,0,0,0-2.8,2.8v14a2.8,2.8,0,0,0,2.8,2.8h25.2a2.8,2.8,0,0,0,2.8-2.8v-14A2.8,2.8,0,0,0,164.534,210.417Zm1.4,16.8a1.4,1.4,0,0,1-1.4,1.4h-25.2a1.4,1.4,0,0,1-1.4-1.4v-14a1.4,1.4,0,0,1,1.4-1.4h18.2a.692.692,0,0,0,.284-.063.714.714,0,0,0,.06-.041.692.692,0,0,0,.173-.135c.007-.008.018-.011.025-.019l4.358-5.335v4.893a.7.7,0,0,0,.7.7h1.4a1.4,1.4,0,0,1,1.4,1.4Z" transform="translate(-125.334 -188.017)" fill="#404040"/>
          <path id="Path_10606" data-name="Path 10606" d="M270.018,307.222a4.9,4.9,0,0,0-3.652,8.686.689.689,0,0,1,.263.539v.539a1.4,1.4,0,0,0,.7,1.2v.9a2.107,2.107,0,0,0,.874,1.7,2.082,2.082,0,0,0,1.225.4,2.189,2.189,0,0,0,.689-.112,2.129,2.129,0,0,0,1.413-2.058v-.823a1.4,1.4,0,0,0,.7-1.205v-.537a.72.72,0,0,1,.281-.556,4.868,4.868,0,0,0,1.758-4.593A4.951,4.951,0,0,0,270.018,307.222Zm-.341,12.523a.711.711,0,0,1-.654-.091.7.7,0,0,1-.294-.567v-.7h1.4v.63A.756.756,0,0,1,269.677,319.745Zm1.953-4.94a2.113,2.113,0,0,0-.8,1.645v.535h0l-2.8,0v-.539a2.082,2.082,0,0,0-.788-1.633,3.5,3.5,0,0,1,2.184-6.228,3.661,3.661,0,0,1,.43.025,3.528,3.528,0,0,1,3.029,2.906A3.483,3.483,0,0,1,271.63,314.805Z" transform="translate(-242.829 -281.987)" fill="#404040"/>
        </g>
      </g>
    </g>
  </g>
</svg>
