<svg xmlns="http://www.w3.org/2000/svg" width="35.28" height="42" viewBox="0 0 35.28 42">
  <g id="Group_1075" data-name="Group 1075" transform="translate(-934 -1035)">
    <path id="Path_10619" data-name="Path 10619" d="M12946.946,10936.411s10.88-.223,16.837,9.484,16.4,1.69,16.4,1.69-2.228,10.461-16.4,17.089c-7.205-2.205-13.777-10.209-14.982-12.854s-1.908-3.413-2.242-13.22A5.531,5.531,0,0,1,12946.946,10936.411Z" transform="translate(-12012.086 -9888.468)" fill="#fcb300" opacity="0.65"/>
    <path id="Path_10620" data-name="Path 10620" d="M12950.146,10950.184l31.052-19.4v9.842l-26.7,16.8s-4.07-3.393-4.691-6.448C12949.749,10950.637,12950.146,10950.184,12950.146,10950.184Z" transform="translate(-12012.61 -9887.563)" fill="#fdfaf2"/>
    <g id="shield_3_" data-name="shield (3)" transform="translate(934 1035)">
      <g id="Group_815" data-name="Group 815" transform="translate(0)">
        <path id="Path_10618" data-name="Path 10618" d="M66.213,3.371A28.659,28.659,0,0,0,59.785,1.3a.789.789,0,0,0-.937.613.811.811,0,0,0-.017.186V8.212H53.12V1.023a.8.8,0,0,0-.718-.8C50.423.04,49.106,0,49,0s-1.372.04-3.352.224a.8.8,0,0,0-.718.8v7.19H39.215V2.085a.794.794,0,0,0-.771-.817.776.776,0,0,0-.183.018,28.659,28.659,0,0,0-6.428,2.069.8.8,0,0,0-.45.719V21.281c.016.511.292,13.013,17.321,20.65a.78.78,0,0,0,.639,0c17.037-7.637,17.313-20.139,17.321-20.658V4.09A.8.8,0,0,0,66.213,3.371ZM65.086,21.265c0,.12-.284,11.823-16.059,19.061a34.8,34.8,0,0,1-8.487-5.368L65.086,19.524Zm0-3.627L39.333,33.831a23.592,23.592,0,0,1-4.078-5.3L65.086,9.81v7.829ZM65.109,7.9,34.562,27.073a15.717,15.717,0,0,1-1.577-5.832L32.968,4.6a26.655,26.655,0,0,1,4.669-1.518V9.011a.794.794,0,0,0,.789.8h7.3a.794.794,0,0,0,.789-.8V1.821c1.514-.2,2.516-.232,2.516-.232s1.017,0,2.54.152v7.19a.794.794,0,0,0,.789.8h7.3a.794.794,0,0,0,.789-.8V3.084A26.655,26.655,0,0,1,65.109,4.6Z" transform="translate(-31.383 0)" fill="#404040"/>
      </g>
    </g>
  </g>
</svg>
