<svg id="placeholder_1_" data-name="placeholder (1)" xmlns="http://www.w3.org/2000/svg" width="39.127" height="55" viewBox="0 0 39.127 55">
  <g id="Group_90" data-name="Group 90" transform="translate(0 0)">
    <g id="Group_89" data-name="Group 89" transform="translate(0 0)">
      <path id="Path_159" data-name="Path 159" d="M102.978,53.063,96.1,37.725a1.32,1.32,0,0,0-.66-.668L92.019,35.45l5.928-10.476c.014-.025.027-.051.04-.077a17.674,17.674,0,0,0,1.776-7.79A17.459,17.459,0,0,0,94.931,4.927a15.609,15.609,0,0,0-22.9.147A17.48,17.48,0,0,0,67.312,17,17.923,17.923,0,0,0,69.088,24.9q.019.039.04.077L75.055,35.45l-3.441,1.615a1.321,1.321,0,0,0-.64.66L64.1,53.063a1.412,1.412,0,0,0,.243,1.529,1.239,1.239,0,0,0,1.444.291L74.4,50.838l8.615,4.044a1.228,1.228,0,0,0,1.047,0l8.615-4.044,8.615,4.044a1.23,1.23,0,0,0,.523.117,1.255,1.255,0,0,0,.921-.409A1.413,1.413,0,0,0,102.978,53.063ZM71.36,23.623a14.87,14.87,0,0,1-1.474-6.6c.044-7.78,6.081-14.2,13.458-14.306a13.206,13.206,0,0,1,9.78,4.144A14.688,14.688,0,0,1,97.19,17.109a14.866,14.866,0,0,1-1.475,6.514L84.643,43.189a1.254,1.254,0,0,1-2.211,0ZM93.2,48.113a1.228,1.228,0,0,0-1.047,0l-8.615,4.044-8.615-4.044a1.228,1.228,0,0,0-1.047,0l-5.968,2.8L73.1,39.34,76.384,37.8l3.838,6.782a3.762,3.762,0,0,0,6.632,0L90.691,37.8l3.287,1.543,5.189,11.574Z" transform="translate(-63.974 0)" fill="#fcb300"/>
    </g>
  </g>
  <g id="Group_92" data-name="Group 92" transform="translate(11.944 10.184)">
    <g id="Group_91" data-name="Group 91" transform="translate(0)">
      <path id="Path_160" data-name="Path 160" d="M205.965,101.607a7.62,7.62,0,1,0,7.62,7.62A7.629,7.629,0,0,0,205.965,101.607Zm0,11.9a4.281,4.281,0,1,1,4.281-4.281A4.286,4.286,0,0,1,205.965,113.508Z" transform="translate(-198.345 -101.607)" fill="#fcb300"/>
    </g>
  </g>
</svg>
