<svg xmlns="http://www.w3.org/2000/svg" width="70.244" height="71.41" viewBox="0 0 70.244 71.41">
  <g id="start" transform="matrix(0.766, 0.643, -0.643, 0.766, 1.647, -28.282)">
    <g id="Group_320" data-name="Group 320" transform="translate(56.998 17.725)">
      <g id="Group_319" data-name="Group 319" transform="translate(0)">
        <path id="Path_3139" data-name="Path 3139" d="M174.779,165a9.77,9.77,0,0,0-8.291,14.946,1.068,1.068,0,0,0,.1.159A9.774,9.774,0,1,0,174.779,165Zm-7.059,12.658a7.623,7.623,0,0,1,13.292-7.27l-5.9,5.9-2.252-2.251a1.074,1.074,0,0,0-1.519,0Zm7.059,4.743a7.614,7.614,0,0,1-5.928-2.836l3.25-3.25,2.252,2.251a1.075,1.075,0,0,0,1.519,0l6.157-6.157a7.623,7.623,0,0,1-7.25,9.991Z" transform="translate(-165.004 -165.004)" fill="#fcb300"/>
      </g>
    </g>
    <g id="Group_322" data-name="Group 322" transform="translate(44 0)">
      <g id="Group_321" data-name="Group 321" transform="translate(0 0)">
        <path id="Path_3140" data-name="Path 3140" d="M83.3,26.759A31.857,31.857,0,0,0,67.308.142a1.074,1.074,0,0,0-1.069,0A31.857,31.857,0,0,0,50.247,26.759,10.322,10.322,0,0,0,44,36.239v7.589A1.074,1.074,0,0,0,45.074,44.9H60.859a13.5,13.5,0,0,0,3.962,8.608l1.2,1.181a1.075,1.075,0,0,0,1.508,0l1.2-1.181A13.5,13.5,0,0,0,72.688,44.9h3.324v5.544a1.074,1.074,0,0,0,2.148,0V44.9H88.473a1.074,1.074,0,0,0,1.074-1.074V36.239A10.322,10.322,0,0,0,83.3,26.759ZM66.773,2.32A29.649,29.649,0,0,1,75.321,10.1h-17.1A29.649,29.649,0,0,1,66.773,2.32ZM46.148,42.754V36.239a8.174,8.174,0,0,1,4.082-7.073V41.679a3.207,3.207,0,0,0,.185,1.074Zm21.07,9.226-.445.438-.445-.438A11.333,11.333,0,0,1,63.014,44.9h7.519A11.335,11.335,0,0,1,67.218,51.979Zm13.95-10.3a1.075,1.075,0,0,1-1.074,1.074H53.453a1.075,1.075,0,0,1-1.074-1.074v-13.9A29.632,29.632,0,0,1,54.573,16.6h4.864a1.074,1.074,0,1,0,0-2.148H55.549q.566-1.127,1.226-2.2h20a29.713,29.713,0,0,1,4.4,15.532Zm6.23,1.074H83.132a3.207,3.207,0,0,0,.185-1.074V29.166A8.174,8.174,0,0,1,87.4,36.239Z" transform="translate(-44 0)" fill="#fcb300"/>
      </g>
    </g>
    <g id="Group_324" data-name="Group 324" transform="translate(62.262 14.448)">
      <g id="Group_323" data-name="Group 323" transform="translate(0)">
        <path id="Path_3141" data-name="Path 3141" d="M215.834,134.815a1.073,1.073,0,1,0,.315.759A1.082,1.082,0,0,0,215.834,134.815Z" transform="translate(-214 -134.5)" fill="#fcb300"/>
      </g>
    </g>
    <g id="Group_326" data-name="Group 326" transform="translate(55.387 47.776)">
      <g id="Group_325" data-name="Group 325" transform="translate(0)">
        <path id="Path_3142" data-name="Path 3142" d="M151.074,444.751A1.074,1.074,0,0,0,150,445.825v3.309a1.074,1.074,0,0,0,2.148,0v-3.309A1.074,1.074,0,0,0,151.074,444.751Z" transform="translate(-150 -444.751)" fill="#fcb300"/>
      </g>
    </g>
    <g id="Group_328" data-name="Group 328" transform="translate(76.012 52.851)">
      <g id="Group_327" data-name="Group 327" transform="translate(0)">
        <path id="Path_3143" data-name="Path 3143" d="M343.834,492.315a1.073,1.073,0,1,0,.315.759A1.081,1.081,0,0,0,343.834,492.315Z" transform="translate(-342 -492)" fill="#fcb300"/>
      </g>
    </g>
  </g>
</svg>
