<svg xmlns="http://www.w3.org/2000/svg" width="55" height="54.989" viewBox="0 0 55 54.989">
  <g id="worldwide" transform="translate(0 -0.05)">
    <g id="Group_329" data-name="Group 329" transform="translate(0 0.05)">
      <path id="Path_3144" data-name="Path 3144" d="M27.51.05A27.494,27.494,0,0,0,2.231,16.723l-.343.114.133.4A27.492,27.492,0,1,0,27.51.05ZM49.076,41.406,47.664,40V36.709a.915.915,0,0,0-.092-.41L44,29.161v-3.45a.916.916,0,0,0-.408-.763l-2.749-1.833a.917.917,0,0,0-.733-.126l-3.367.841L31.085,21.4l-.778-5.451L32.463,13.8h4.629l1.558,2.342a.916.916,0,0,0,.612.4l5.5.916a.909.909,0,0,0,.44-.035l5.064-1.688A25.57,25.57,0,0,1,49.076,41.406ZM45.3,9.081l-1.49.993-4.154-.831-2.7-.9a.9.9,0,0,0-.511-.02l-3.407.851-1.494-.5L32.65,6.465h3.1a.916.916,0,0,0,.41-.1l3.171-1.586A25.756,25.756,0,0,1,45.3,9.081ZM17.463,3.929l2.2,1.466a.915.915,0,0,0,.358.141l4.441.741-.433,1.3-2.314.773a.917.917,0,0,0-.5.4L18.587,13.13l-4.228,2.537-6.232.89a.916.916,0,0,0-.788.906v2.749a.916.916,0,0,0,.269.648l1.564,1.564V24L5.36,21.457,3.977,17.308A25.809,25.809,0,0,1,17.463,3.929ZM14.854,33.978l-4.142-.829-1.54-3.071V27.924l3.415-3.415,1.264,2.529a.917.917,0,0,0,.82.507h5.9l2.483,4.138a.917.917,0,0,0,.785.444h2.548l-.642,3.214-3.47,3.47a.917.917,0,0,0-.269.648V41.75l-3.3,2.474a.917.917,0,0,0-.367.733v3.31L17.2,47.89l-1.609-4.025V34.876A.916.916,0,0,0,14.854,33.978ZM12.1,48.067a25.655,25.655,0,0,1-9.14-28.015l.762,2.284a.916.916,0,0,0,.36.473L8.65,25.853,7.608,26.9a.916.916,0,0,0-.269.648v2.749a.916.916,0,0,0,.1.41l1.833,3.666a.917.917,0,0,0,.642.488l3.849.769v8.414a.917.917,0,0,0,.065.34l1.833,4.582a.917.917,0,0,0,.562.529l2.749.916a.9.9,0,0,0,.285.048.917.917,0,0,0,.916-.916V45.416l3.3-2.474a.917.917,0,0,0,.367-.733v-2.37l3.4-3.4a.917.917,0,0,0,.25-.468L28.4,31.39a.916.916,0,0,0-.9-1.1H24.354l-2.483-4.138a.917.917,0,0,0-.785-.444H15.237l-1.575-3.159a.916.916,0,0,0-.674-.495.9.9,0,0,0-.795.257L11.005,23.5V22.045a.916.916,0,0,0-.269-.648L9.172,19.833V18.258l5.629-.8a.921.921,0,0,0,.342-.122l4.582-2.749a.916.916,0,0,0,.313-.313l2.575-4.292,2.428-.81a.907.907,0,0,0,.579-.579l.916-2.749a.917.917,0,0,0-.719-1.191l-5.3-.884-.932-.621A25.591,25.591,0,0,1,37.208,3.8l-1.674.836h-3.45a.916.916,0,0,0-.825.507L29.426,8.805a.917.917,0,0,0,.531,1.278L32.706,11a.9.9,0,0,0,.511.02l3.407-.851,2.5.831a.674.674,0,0,0,.11.029l4.582.916a.91.91,0,0,0,.688-.136l2.086-1.391A25.855,25.855,0,0,1,49.345,14.1l-4.509,1.5-4.882-.814-1.613-2.419a.916.916,0,0,0-.758-.408h-5.5a.916.916,0,0,0-.648.269l-2.749,2.749a.917.917,0,0,0-.259.778l.916,6.415a.916.916,0,0,0,.55.712l6.415,2.749a.906.906,0,0,0,.583.047l3.273-.818,2,1.336v3.176a.915.915,0,0,0,.092.41l3.574,7.138v3.45a.916.916,0,0,0,.269.648l1.917,1.918A25.655,25.655,0,0,1,12.1,48.067Z" transform="translate(0 -0.05)" fill="#fcb300"/>
    </g>
  </g>
</svg>
