<svg id="group_5_" data-name="group (5)" xmlns="http://www.w3.org/2000/svg" width="55" height="55" viewBox="0 0 55 55">
  <g id="Group_94" data-name="Group 94" transform="translate(26.398 52.852)">
    <g id="Group_93" data-name="Group 93">
      <path id="Path_161" data-name="Path 161" d="M247.574,492.315a1.073,1.073,0,1,0,.315.759A1.082,1.082,0,0,0,247.574,492.315Z" transform="translate(-245.74 -492)" fill="#fcb300"/>
    </g>
  </g>
  <g id="Group_96" data-name="Group 96" transform="translate(0 11.326)">
    <g id="Group_95" data-name="Group 95">
      <path id="Path_162" data-name="Path 162" d="M49.259,129.245l-3.583-.856v-1.421a7.09,7.09,0,0,0,3.314-6v-4a7.086,7.086,0,0,0-12.395-4.7,9.47,9.47,0,0,0-9.084-6.835h0a9.47,9.47,0,0,0-9.09,6.853,7.086,7.086,0,0,0-12.411,4.678v4a7.089,7.089,0,0,0,3.314,6v1.421l-3.583.856A7.454,7.454,0,0,0,0,136.519v7.221a1.074,1.074,0,0,0,1.074,1.074h8.59v3.223a1.074,1.074,0,0,0,1.074,1.074H22.523a1.074,1.074,0,1,0,0-2.148h-4.8v-4.728a1.074,1.074,0,0,0-2.148,0v4.728H11.812v-4.847a7.821,7.821,0,0,1,6.017-7.629l5.283-1.266,3.4,7.734a1.074,1.074,0,0,0,.983.642h0a1.074,1.074,0,0,0,.983-.642l3.4-7.723,5.268,1.258a7.82,7.82,0,0,1,6.023,7.631v1.2a1.076,1.076,0,0,0,0,.84v2.8H39.421v-4.728a1.074,1.074,0,1,0-2.148,0v4.728H32.012a1.074,1.074,0,1,0,0,2.148H44.24a1.074,1.074,0,0,0,1.074-1.074v-3.223h8.612A1.074,1.074,0,0,0,55,143.74v-7.221A7.454,7.454,0,0,0,49.259,129.245ZM41.9,112.027a4.947,4.947,0,0,1,4.942,4.941v.374H43.769a13.273,13.273,0,0,1-6.612-1.765A4.951,4.951,0,0,1,41.9,112.027ZM36.958,120.8c0-.11.006-2.888.006-2.888a15.422,15.422,0,0,0,6.8,1.583h3.073v1.481a4.942,4.942,0,0,1-9.883,0V120.8ZM20.206,114.89a7.3,7.3,0,0,1,14.61,0v.14l-3.987-2.342a1.074,1.074,0,0,0-1.367.236,8.112,8.112,0,0,1-6.233,2.909H20.206ZM8.159,117.235v-.266a4.942,4.942,0,0,1,9.684-1.39,13.274,13.274,0,0,1-6.612,1.765H8.159Zm0,3.737v-1.481h3.073a15.421,15.421,0,0,0,6.811-1.586v3.067a4.942,4.942,0,0,1-9.883,0Zm1.505,21.144v.55H6.445v-4.773a1.074,1.074,0,0,0-2.148,0v4.773H2.148v-6.147a5.312,5.312,0,0,1,4.091-5.184l3.405-.813,2.222,5.323A9.972,9.972,0,0,0,9.664,142.116Zm3.437-8.893-1.631-3.908c0-.026,0-.051,0-.077v-1.366a7.043,7.043,0,0,0,3.249,0v1.3c0,.02,0,.04,0,.061s0,.067.006.1Zm4.228-.825a10.1,10.1,0,0,0-1.816.624l1.046-2.505,3.406.816a5.326,5.326,0,0,1,.771.249Zm5.332-2.239a7.459,7.459,0,0,0-2.2-.915l-3.6-.862v-1.409a7.141,7.141,0,0,0,2.22-2.214,9.521,9.521,0,0,0,3.571,3.819Zm7.517,1.595-2.682,6.1-2.687-6.112v-2.215a9.46,9.46,0,0,0,5.369.01v2.217Zm-2.667-3.982a7.313,7.313,0,0,1-7.305-7.3v-2.485h3.023a10.252,10.252,0,0,0,7.26-3l4.321,2.538v3.2A7.312,7.312,0,0,1,27.511,127.771Zm4.816.827h0a9.52,9.52,0,0,0,3.6-3.82,7.145,7.145,0,0,0,2.208,2.195v1.409l-3.6.862a7.461,7.461,0,0,0-2.208.923V128.6Zm5.315,3.8-3.4-.812a5.333,5.333,0,0,1,.79-.257l3.4-.814,1.051,2.516A10.1,10.1,0,0,0,37.642,132.4Zm2.63-3.054a1.074,1.074,0,0,0,.007-.118c0-.01,0-.02,0-.03v-1.327a7.042,7.042,0,0,0,3.249,0v1.366c0,.02,0,.039,0,.058l-1.64,3.927Zm12.58,13.319H50.7v-4.773a1.074,1.074,0,0,0-2.148,0v4.773H45.314v-.545a9.972,9.972,0,0,0-2.2-6.263l2.229-5.338,3.413.815a5.312,5.312,0,0,1,4.091,5.184Z" transform="translate(0 -105.437)" fill="#fcb300"/>
    </g>
  </g>
  <g id="Group_98" data-name="Group 98" transform="translate(22.823 24.841)">
    <g id="Group_97" data-name="Group 97">
      <path id="Path_163" data-name="Path 163" d="M214.294,231.565a1.073,1.073,0,1,0,.315.759A1.082,1.082,0,0,0,214.294,231.565Z" transform="translate(-212.46 -231.25)" fill="#fcb300"/>
    </g>
  </g>
  <g id="Group_100" data-name="Group 100" transform="translate(30.006 24.841)">
    <g id="Group_99" data-name="Group 99">
      <path id="Path_164" data-name="Path 164" d="M281.164,231.565a1.073,1.073,0,1,0,.315.759A1.082,1.082,0,0,0,281.164,231.565Z" transform="translate(-279.33 -231.25)" fill="#fcb300"/>
    </g>
  </g>
  <g id="Group_102" data-name="Group 102" transform="translate(25.062 28.457)">
    <g id="Group_101" data-name="Group 101">
      <path id="Path_165" data-name="Path 165" d="M237.812,265.228a1.074,1.074,0,0,0-1.519,0,.816.816,0,0,1-1.152,0,1.074,1.074,0,1,0-1.519,1.519,2.967,2.967,0,0,0,4.191,0A1.074,1.074,0,0,0,237.812,265.228Z" transform="translate(-233.307 -264.913)" fill="#fcb300"/>
    </g>
  </g>
  <g id="Group_104" data-name="Group 104" transform="translate(42.606 5.801)">
    <g id="Group_103" data-name="Group 103">
      <path id="Path_166" data-name="Path 166" d="M398.431,54h-.737a1.074,1.074,0,0,0,0,2.148h.737a1.074,1.074,0,0,0,0-2.148Z" transform="translate(-396.62 -54)" fill="#fcb300"/>
    </g>
  </g>
  <g id="Group_106" data-name="Group 106" transform="translate(47.818 5.801)">
    <g id="Group_105" data-name="Group 105">
      <path id="Path_167" data-name="Path 167" d="M446.952,54h-.737a1.074,1.074,0,0,0,0,2.148h.737a1.074,1.074,0,1,0,0-2.148Z" transform="translate(-445.141 -54)" fill="#fcb300"/>
    </g>
  </g>
  <g id="Group_108" data-name="Group 108" transform="translate(45.58 8.038)">
    <g id="Group_107" data-name="Group 107">
      <path id="Path_168" data-name="Path 168" d="M425.385,74.831a1.074,1.074,0,0,0-1.074,1.074v.737a1.074,1.074,0,1,0,2.148,0v-.737A1.074,1.074,0,0,0,425.385,74.831Z" transform="translate(-424.311 -74.831)" fill="#fcb300"/>
    </g>
  </g>
  <g id="Group_110" data-name="Group 110" transform="translate(45.58 2.826)">
    <g id="Group_109" data-name="Group 109">
      <path id="Path_169" data-name="Path 169" d="M425.385,26.31a1.074,1.074,0,0,0-1.074,1.074v.737a1.074,1.074,0,1,0,2.148,0v-.737A1.074,1.074,0,0,0,425.385,26.31Z" transform="translate(-424.311 -26.31)" fill="#fcb300"/>
    </g>
  </g>
  <g id="Group_112" data-name="Group 112" transform="translate(4.237 5.801)">
    <g id="Group_111" data-name="Group 111">
      <path id="Path_170" data-name="Path 170" d="M41.255,54h-.737a1.074,1.074,0,0,0,0,2.148h.737a1.074,1.074,0,0,0,0-2.148Z" transform="translate(-39.444 -54)" fill="#fcb300"/>
    </g>
  </g>
  <g id="Group_114" data-name="Group 114" transform="translate(9.449 5.801)">
    <g id="Group_113" data-name="Group 113">
      <path id="Path_171" data-name="Path 171" d="M89.776,54h-.737a1.074,1.074,0,0,0,0,2.148h.737a1.074,1.074,0,1,0,0-2.148Z" transform="translate(-87.965 -54)" fill="#fcb300"/>
    </g>
  </g>
  <g id="Group_116" data-name="Group 116" transform="translate(7.212 8.038)">
    <g id="Group_115" data-name="Group 115">
      <path id="Path_172" data-name="Path 172" d="M68.208,74.831a1.074,1.074,0,0,0-1.074,1.074v.737a1.074,1.074,0,0,0,2.148,0v-.737A1.074,1.074,0,0,0,68.208,74.831Z" transform="translate(-67.134 -74.831)" fill="#fcb300"/>
    </g>
  </g>
  <g id="Group_118" data-name="Group 118" transform="translate(7.212 2.826)">
    <g id="Group_117" data-name="Group 117">
      <path id="Path_173" data-name="Path 173" d="M68.208,26.31a1.074,1.074,0,0,0-1.074,1.074v.737a1.074,1.074,0,1,0,2.148,0v-.737A1.074,1.074,0,0,0,68.208,26.31Z" transform="translate(-67.134 -26.31)" fill="#fcb300"/>
    </g>
  </g>
  <g id="Group_120" data-name="Group 120" transform="translate(26.426 4.091)">
    <g id="Group_119" data-name="Group 119">
      <path id="Path_174" data-name="Path 174" d="M247.074,38.087A1.074,1.074,0,0,0,246,39.161v2.826a1.074,1.074,0,0,0,2.148,0V39.161A1.074,1.074,0,0,0,247.074,38.087Z" transform="translate(-246 -38.087)" fill="#fcb300"/>
    </g>
  </g>
  <g id="Group_122" data-name="Group 122" transform="translate(26.426)">
    <g id="Group_121" data-name="Group 121">
      <path id="Path_175" data-name="Path 175" d="M247.834.315A1.074,1.074,0,0,0,246,1.074a1.074,1.074,0,1,0,1.834-.759Z" transform="translate(-246 0)" fill="#fcb300"/>
    </g>
  </g>
  <g id="Group_124" data-name="Group 124" transform="translate(20.33 2.423)">
    <g id="Group_123" data-name="Group 123">
      <path id="Path_176" data-name="Path 176" d="M192.655,24.443l-1.572-1.572a1.074,1.074,0,0,0-1.519,1.519l1.572,1.572a1.074,1.074,0,0,0,1.519-1.519Z" transform="translate(-189.249 -22.556)" fill="#fcb300"/>
    </g>
  </g>
  <g id="Group_126" data-name="Group 126" transform="translate(30.897 2.364)">
    <g id="Group_125" data-name="Group 125">
      <path id="Path_177" data-name="Path 177" d="M291.084,22.321a1.074,1.074,0,0,0-1.519,0l-1.625,1.625a1.074,1.074,0,0,0,1.519,1.519l1.625-1.625A1.074,1.074,0,0,0,291.084,22.321Z" transform="translate(-287.625 -22.006)" fill="#fcb300"/>
    </g>
  </g>
</svg>
