<svg xmlns="http://www.w3.org/2000/svg" width="45" height="37.141" viewBox="0 0 45 37.141"><g transform="translate(0.001)"><path d="M223.62,0h-4.231a.667.667,0,0,0,0,1.334h4.231a1.5,1.5,0,0,1,1.5,1.5V13.014a1.5,1.5,0,0,1-1.5,1.5H208.026a.668.668,0,0,0-.472.2l-3.841,3.841V15.184a.667.667,0,0,0-.667-.667h-1.27a1.5,1.5,0,0,1-1.5-1.5V2.836a1.5,1.5,0,0,1,1.5-1.5h15.388a.667.667,0,1,0,0-1.334H201.777a2.839,2.839,0,0,0-2.836,2.836V13.014a2.839,2.839,0,0,0,2.836,2.836h.6v4.312a.667.667,0,0,0,1.138.472l4.784-4.784H223.62a2.839,2.839,0,0,0,2.836-2.836V2.836A2.839,2.839,0,0,0,223.62,0Zm0,0" transform="translate(-181.457)" fill="#404040"/><path d="M249.922,53.938c.791-.541,1.775-1.215,1.775-2.367a1.669,1.669,0,0,0-.64-1.347,2.27,2.27,0,0,0-1.4-.466,1.819,1.819,0,0,0-1.979,1.683c0,.482.2.717.62.717.471,0,.725-.262.725-.507a.647.647,0,0,1,1.292-.035c0,.518-.611.966-1.258,1.441-.73.536-1.485,1.09-1.485,1.815v.845c0,.262.357.429.6.429h3.1c.224,0,.42-.286.42-.612s-.2-.594-.42-.594h-2.27v-.067c0-.306.424-.6.915-.932Zm0,0" transform="translate(-225.816 -45.385)" fill="#fcb300"/><path d="M303.45,56.144c.474,0,.69-.222.69-.429V54.8h.363c.217,0,.429-.316.429-.638,0-.438-.222-.638-.429-.638h-.363v-.6c0-.194-.181-.42-.69-.42s-.69.226-.69.42v.6h-.72l1.533-3.075a.438.438,0,0,0,.045-.17.475.475,0,0,0-.256-.384.885.885,0,0,0-.434-.141.623.623,0,0,0-.576.354l-2.011,3.943a.565.565,0,0,0-.071.266.448.448,0,0,0,.464.481h2.026v.912C302.76,55.922,302.975,56.144,303.45,56.144Zm0,0" transform="translate(-273.879 -45.385)" fill="#fcb300"/><path d="M363.5,45.92,360.44,52.2a.4.4,0,0,0-.045.17.493.493,0,0,0,.5.473.445.445,0,0,0,.4-.224l3.065-6.277a.389.389,0,0,0,.036-.17.509.509,0,0,0-.525-.473A.4.4,0,0,0,363.5,45.92Zm0,0" transform="translate(-328.72 -41.679)" fill="#fcb300"/><path d="M415.162,51.965c.379,0,.7-.2.7-.429v-.572H417.4v.6l-2.14,3.707a.456.456,0,0,0-.062.232c0,.412.46.7.873.7a.4.4,0,0,0,.393-.189l2.037-3.9a2.249,2.249,0,0,0,.28-.832V50.187c0-.187-.293-.429-.6-.429h-3.091c-.3,0-.6.213-.6.429v1.35c0,.237.306.429.681.429Zm0,0" transform="translate(-378.052 -45.385)" fill="#fcb300"/><path d="M27.577,48.985a1.838,1.838,0,0,0-2.6,0L20.9,53.061a23.5,23.5,0,0,1-4.613-2.988.667.667,0,0,0-.86,1.02,25.974,25.974,0,0,0,5.293,3.378.667.667,0,0,0,.778-.121l2.193-2.193,7.23,7.23c-2.335,2-5.643,2.7-9.4,1.964-4.223-.83-8.692-3.43-12.583-7.322s-6.492-8.36-7.322-12.583c-.738-3.755-.04-7.062,1.964-9.4l7.231,7.231L8.622,41.473a.667.667,0,0,0-.121.778,24.738,24.738,0,0,0,5.084,7.136.667.667,0,1,0,.943-.943,22.665,22.665,0,0,1-4.617-6.373l4.077-4.077a1.837,1.837,0,0,0,0-2.6L7.45,28.859a1.836,1.836,0,0,0-2.6,0L3.1,30.616C.421,33.291-.568,37.228.312,41.7S3.923,50.9,8,54.973s8.789,6.806,13.269,7.687a16.029,16.029,0,0,0,3.1.313,11.006,11.006,0,0,0,7.99-3.1l1.757-1.757a1.837,1.837,0,0,0,0-2.6ZM5.8,29.8a.5.5,0,0,1,.711,0l6.538,6.538a.5.5,0,0,1,0,.711l-1.286,1.286L4.51,31.087ZM33.171,57.177l-1.286,1.286-7.248-7.249,1.286-1.286a.5.5,0,0,1,.711,0l6.537,6.537a.5.5,0,0,1,0,.712Zm0,0" transform="translate(0 -25.832)" fill="#404040"/></g></svg>