<svg xmlns="http://www.w3.org/2000/svg" width="45" height="45" viewBox="0 0 45 45"><g transform="translate(20422 -2078)"><path d="M-20405.516,2084.811h-9.225a4.666,4.666,0,0,0-4.293,4.931c.115,4.583,4.814,4.873,4.814,4.873a3.9,3.9,0,0,1,2.553,2.378c.871-1.566,1.043-2.436,1.914-2.378s8.355,0,8.355,0l1.973,2.9s1.1-2.727,1.682-2.9a72.631,72.631,0,0,1,8.7,0,7.6,7.6,0,0,1,1.971,2.611c0,.348.93-2.437,1.857-2.611s4.176.406,5.395-4.351-4.352-5.975-6.787-5.8-7.193,0-7.193,0l-1.1,2.262-.289,1.392-.639,1.218-1.914-.348-1.045,1.276-1.566.232-.348-1.16-2.146-.348-1.045-.29v-1.45l-.637-1.16Z" fill="#fccb54"/><g transform="translate(-20422 2078)"><path d="M218.9,45.806a2.9,2.9,0,1,0-2.9-2.9A2.906,2.906,0,0,0,218.9,45.806Zm0-4.355a1.452,1.452,0,1,1-1.452,1.452A1.453,1.453,0,0,1,218.9,41.452Zm0,0" transform="translate(-196.403 -36.371)" fill="#404040"/><path d="M42.414,245.926l-4.672-1.4v-1.1a5.1,5.1,0,0,0,2.177-4.165v-2.177a5.081,5.081,0,0,0-10.161,0v2.177a5.1,5.1,0,0,0,2.177,4.165v1.1l-3.266.98-3.266-.98v-1.1a5.1,5.1,0,0,0,2.177-4.165v-2.177a5.081,5.081,0,0,0-10.161,0v2.177a5.1,5.1,0,0,0,2.177,4.165v1.1l-3.266.98-3.266-.98v-1.1a5.1,5.1,0,0,0,2.177-4.165v-2.177a5.081,5.081,0,0,0-10.161,0v2.177a5.1,5.1,0,0,0,2.177,4.165v1.1l-4.672,1.4A3.607,3.607,0,0,0,0,249.4v6.55H45V249.4A3.607,3.607,0,0,0,42.414,245.926Zm-7.575-12.474a3.636,3.636,0,0,1,3.556,2.9H36.461a6.178,6.178,0,0,1-2.75-.65l-.468-.234-.37.37a1.761,1.761,0,0,1-1.238.513h-.352a3.636,3.636,0,0,1,3.556-2.9Zm-3.629,5.806v-1.452h.425a3.178,3.178,0,0,0,1.868-.6,7.634,7.634,0,0,0,2.959.6h2.006v1.452a3.643,3.643,0,0,1-1.815,3.14l-.362.21v2.068l-1.452.968-1.452-.968v-2.068l-.362-.21a3.643,3.643,0,0,1-1.815-3.14Zm-8.71-5.806a3.636,3.636,0,0,1,3.556,2.9H24.123a6.178,6.178,0,0,1-2.75-.65l-.468-.234-.37.37a1.761,1.761,0,0,1-1.238.513h-.352a3.636,3.636,0,0,1,3.556-2.9Zm-3.629,5.806v-1.452H19.3a3.178,3.178,0,0,0,1.868-.6,7.634,7.634,0,0,0,2.959.6h2.006v1.452a3.643,3.643,0,0,1-1.815,3.14l-.362.21v2.068l-1.452.968-1.452-.968v-2.068l-.362-.21a3.643,3.643,0,0,1-1.815-3.14Zm1.333,6.6,2.3,1.531,2.3-1.531,4.862,1.458A2.164,2.164,0,0,1,31.21,249.4v5.1H13.79v-5.1a2.164,2.164,0,0,1,1.552-2.086ZM10.161,233.452a3.636,3.636,0,0,1,3.556,2.9h-.352a1.764,1.764,0,0,1-1.239-.513l-.37-.37-.468.234a6.17,6.17,0,0,1-2.749.65H6.606a3.636,3.636,0,0,1,3.556-2.9Zm-3.629,5.806v-1.452H8.538a7.634,7.634,0,0,0,2.959-.6,3.18,3.18,0,0,0,1.868.6h.425v1.452a3.643,3.643,0,0,1-1.815,3.14l-.362.21v2.068l-1.452.968-1.452-.968v-2.068l-.362-.21a3.643,3.643,0,0,1-1.815-3.14ZM1.452,249.4A2.164,2.164,0,0,1,3,247.316l4.862-1.459,2.3,1.532,2.3-1.531,1.587.476a3.6,3.6,0,0,0-1.706,3.068v5.1H1.452Zm42.1,5.1H32.661v-5.1a3.6,3.6,0,0,0-1.706-3.068l1.587-.476,2.3,1.531,2.3-1.531L42,247.316a2.164,2.164,0,0,1,1.552,2.086Zm0,0" transform="translate(0 -210.952)" fill="#404040"/><path d="M29.806,17.419a.631.631,0,0,1,.525.281l1.653,2.479L33.636,17.7a.631.631,0,0,1,.525-.281h7.984a.631.631,0,0,1,.525.281l1.653,2.479L45.975,17.7a.631.631,0,0,1,.525-.281h7.984a.631.631,0,0,1,.525.281l1.653,2.479L58.313,17.7a.631.631,0,0,1,.525-.281,5.806,5.806,0,0,0,0-11.613H50.854V5.283l-.939-.313a5.675,5.675,0,0,0-.534-1.287l.443-.886L48.058,1.03l-.886.443A5.754,5.754,0,0,0,45.885.939L45.571,0h-2.5L42.76.939a5.7,5.7,0,0,0-1.287.534l-.886-.443L38.82,2.8l.443.886A5.754,5.754,0,0,0,38.73,4.97l-.94.313v.523H29.806a5.806,5.806,0,0,0,0,11.613ZM39.242,6.33l.729-.242.083-.413A4.306,4.306,0,0,1,40.7,4.122l.234-.351-.344-.688.287-.287.688.344.351-.234a4.306,4.306,0,0,1,1.552-.644l.413-.083.242-.729h.405l.242.729.413.083a4.316,4.316,0,0,1,1.552.644l.351.234.688-.344.287.287-.344.688.234.351a4.293,4.293,0,0,1,.644,1.552l.083.413.728.242v.405l-.729.242-.083.413a4.316,4.316,0,0,1-.644,1.552l-.234.351.344.688-.287.287-.688-.344-.351.234a4.306,4.306,0,0,1-1.552.644l-.413.083-.242.728h-.405l-.242-.729-.413-.083a4.316,4.316,0,0,1-1.552-.644l-.351-.234-.688.344-.287-.287.344-.688L40.7,8.942a4.306,4.306,0,0,1-.644-1.552l-.083-.413-.728-.242Zm-9.435.928H37.79v.523l.939.313a5.689,5.689,0,0,0,.534,1.287l-.443.886,1.767,1.767.886-.443a5.754,5.754,0,0,0,1.287.534l.313.939h2.5l.313-.939a5.7,5.7,0,0,0,1.287-.534l.886.443,1.767-1.767-.443-.886a5.754,5.754,0,0,0,.534-1.287l.94-.313V7.258h7.984a4.355,4.355,0,0,1,0,8.71,2.08,2.08,0,0,0-1.733.927l-.445.668-.445-.668a2.08,2.08,0,0,0-1.733-.927H46.5a2.08,2.08,0,0,0-1.733.927l-.445.668-.445-.668a2.08,2.08,0,0,0-1.733-.927H34.161a2.08,2.08,0,0,0-1.733.927l-.445.668-.445-.668a2.08,2.08,0,0,0-1.733-.927,4.355,4.355,0,1,1,0-8.71Zm0,0" transform="translate(-21.822)" fill="#404040"/><path d="M72,120h1.452v1.452H72Zm0,0" transform="translate(-65.468 -109.113)" fill="#404040"/><path d="M104,120h1.452v1.452H104Zm0,0" transform="translate(-94.565 -109.113)" fill="#404040"/><path d="M136,120h1.452v1.452H136Zm0,0" transform="translate(-123.661 -109.113)" fill="#404040"/><path d="M344,120h1.452v1.452H344Zm0,0" transform="translate(-312.79 -109.113)" fill="#404040"/><path d="M376,120h1.452v1.452H376Zm0,0" transform="translate(-341.887 -109.113)" fill="#404040"/><path d="M408,120h1.452v1.452H408Zm0,0" transform="translate(-370.984 -109.113)" fill="#404040"/></g></g></svg>