<svg xmlns="http://www.w3.org/2000/svg" xmlns:xlink="http://www.w3.org/1999/xlink" width="1600" height="660.698" viewBox="0 0 1600 660.698">
  <defs>
    <clipPath id="clip-path">
      <path id="Path_3191" data-name="Path 3191" d="M0,0H642.5V552.482H402.1s-37.432,1.782-106.17,9-168.783,19.879-168.783,19.879L0,552.482Z" transform="translate(1029 4504)" fill="#fff" stroke="#707070" stroke-width="1"/>
    </clipPath>
  </defs>
  <g id="Group_659" data-name="Group 659" transform="translate(0 -750)">
    <path id="Path_3196" data-name="Path 3196" d="M0,120S198.6,29.05,472.512,21.6C686.1,17.35,950.209,71,1118.61,71,1518.61,71,1600,7.3,1600,7.3V668H0Z" transform="translate(1600 1418) rotate(180)" fill="#fdfaf2"/>
    <g id="Group_658" data-name="Group 658">
      <g id="Mask_Group_133" data-name="Mask Group 133" transform="translate(-1029 -3714.696)" opacity="0.03" clip-path="url(#clip-path)">
        <g id="Group_381" data-name="Group 381" transform="translate(918.294 4549.168)">
          <path id="Path_3182" data-name="Path 3182" d="M201.272,509.5c10.818-9.62,19.208-109.774,21.57-131.046.433-5.856-10.931-6.311-14.772-6.625-3.987-.325-15.178-1.723-15.628,4.371-1.013,13.645,1.712,132.715,8.83,133.3" transform="translate(169.3 -371.464)" fill="#fcb300"/>
          <path id="Path_3183" data-name="Path 3183" d="M256.809,464.084c-3.586-11.679-80.729-57.9-96.573-67.36-4.464-2.405-9.723,8.418-11.256,11.246-1.538,2.855-7.708,13.163-3.2,15.6,11.067,5.959,107.369,47.756,111.026,40.519" transform="translate(-43.052 -261.42)" fill="#fcb300"/>
          <path id="Path_3184" data-name="Path 3184" d="M251.926,435.161c-8.629-6.939-86.736-10.439-104.953-10.866-4.138.141-3.759,13.418-3.786,15.406s-.764,15.3,3.364,15.162c12.34-.412,105.495-13.494,105.376-19.7" transform="translate(-47.654 -138.112)" fill="#fcb300"/>
          <path id="Path_3185" data-name="Path 3185" d="M222.756,467.568c9.967,9.621,98.653-31.321,117.358-37.886,5.834-2.259,1.674-12.4.227-16.37-1.571-4.3-4.87-14.523-11.24-12.052-15.66,6.69-103.626,53.85-106.345,66.309" transform="translate(304.095 -241.535)" fill="#fcb300"/>
          <path id="Path_3186" data-name="Path 3186" d="M227.039,434.4c-1.56,10.151,93.784,26.121,105.034,27.231,5.937.59,6.6-10.736,6.988-14.626s1.956-15.124-3.987-15.709c-11-1.089-106.854-4.572-108.035,3.1" transform="translate(322.932 -114.851)" fill="#fcb300"/>
          <path id="Path_3187" data-name="Path 3187" d="M214.675,487.113c6.408,2.736,53.742-81.1,58.319-91.3,2.335-5.2-8.434-9.48-11.793-10.975-3.31-1.468-13.726-6.62-16.023-1.5-4.632,10.336-38.119,100.522-30.5,103.778" transform="translate(263.446 -328.819)" fill="#fcb300"/>
          <path id="Path_3188" data-name="Path 3188" d="M229.7,477.908c8.494-10.547-30.979-83.313-38.119-96.719-3.521-6.159-12.345-.72-16.587,1.723-4.2,2.416-13.358,7.329-9.87,13.423,6.869,11.2,51.8,89.553,64.575,81.574" transform="translate(46.114 -341.027)" fill="#fcb300"/>
          <path id="Path_3189" data-name="Path 3189" d="M559.452,507.851c-1.116.265-2.595.71-3.678.877a346.693,346.693,0,0,1-55.106,8.835c-60.67,3.451-92.505-15.53-146.734-36.4-34.891-12.3-79.483-22.41-116.638-22.247-2.053-.32-21.884.515-22.426-.991-1.175-3.255,20.384-5.677,21.516-6.343,37.556-6.972,86.72,1.9,123.4,11.3,53.026,16,81.8,31.472,139,27.253A318.735,318.735,0,0,0,549.355,482c.238.011,3.212-.769,3.711-.888,44.083-10.205,87.809-18.634,133.1-20.926,44.619-.72,86.184,7.763,128.7,20.563,4.236,1.316,39.69,12.681,40.134,18.136-1.766,1.441-39.013-7.318-42.6-8.017-41.889-7.41-82.034-13.423-124.725-9.778-44.636,5.65-84.84,16.083-128.214,26.765m-184.609,8.732q6.858,2.446,13.71,4.913c9.761,3.489,19.241,6.511,29.257,9.182,36.64,9.94,60.946,11.874,98.935,6.706,42.5-7.329,69.8-16.4,114.46-14.447,3.331.3,25.839,2.887,26.906,6.771-.959,1.295-23.9,1.945-26.83,2.2-43.238,4.02-69.8,15.5-110.413,25.92-39.587,9.122-70.724,9.333-110.056-.558-10.818-2.887-21.045-6.148-31.586-9.913q-6.785-2.446-13.586-4.865c-38.65-14.127-74.131-27.6-114.362-37.658-31.787-7.275-54.159-12.416-87.245-11.3-4.182.184-37.252,3.716-38.536,2.622,1.4-5.011,32.556-12.378,37.328-13.347,34.24-5.412,58.281-2.329,92.066,2.443C296.119,491.47,335.5,503.035,374.843,516.583Z" transform="translate(-125.496 -28.608)" fill="#fcb300"/>
          <path id="Path_3190" data-name="Path 3190" d="M178.7,577.166a121.689,121.689,0,0,0,44.712,50.275,133.963,133.963,0,0,0,24.642,8.624c30.042,6.354,53.27,3.478,82.1-6.587,16.17-6.3,27.421-13.4,39.782-25.59C381.3,592,388.043,581.327,393.958,566c5.422-15.471,7.226-28.017,6.582-44.392-1.219-17.177-4.686-29.95-11.9-45.573-11.955-23.282-26.873-37.474-50.67-48.314a96.268,96.268,0,0,0-24.777-6.852,95.553,95.553,0,0,1,23.986,8.543c21.879,12.031,35.232,26.413,45.156,49.375,5.742,14.924,8.212,27,8.347,43-.287,14.756-2.476,25.931-8.039,39.608a96.186,96.186,0,0,1-22.35,32.41c-11.089,10.238-20.936,16.153-35.058,21.467-26.007,8.781-46.607,11.5-73.762,6.739-24.16-5.428-40.633-14.219-59.18-30.541A171.526,171.526,0,0,1,178.7,577.166m109.374-173.4c-135.684,0-158.056,180.66-35.069,211.943,25.806,5.374,45.686,3.039,70.648-5.005,13.5-4.854,23.006-10.4,33.634-20.043a90.635,90.635,0,0,0,21.543-30.811c5.4-13.093,7.508-23.84,7.779-37.984-.125-15.411-2.535-27.041-8.1-41.4-9.523-21.863-22.334-35.551-43.249-46.911a88.762,88.762,0,0,0-30.649-9.241,80.429,80.429,0,0,0-32.383,2.919,75.114,75.114,0,0,0-28.065,15.514c-.016.022-.114.1-.141.125a74.911,74.911,0,0,0-16.841,25.66,81.571,81.571,0,0,0-3.321,10.487c.574-1.815,3.088-8.965,4.041-10.195a71,71,0,0,1,45.573-38,76.045,76.045,0,0,1,30.812-1.977,83.767,83.767,0,0,1,28.737,9.507c19.225,11.137,30.893,24.2,39.262,44.825,4.875,13.515,6.9,24.452,6.685,38.828a89.874,89.874,0,0,1-7.822,34.712,83.46,83.46,0,0,1-19.913,27.621c-9.691,8.586-18.325,13.537-30.519,17.87-23.2,7.432-41.624,9.712-65.659,5.092a104.51,104.51,0,0,1-34.847-14.555,88.854,88.854,0,0,1-14.4-14.166c-5.688-7.611-17.914-27.269-15.465-37.68a117.576,117.576,0,0,0,22.578,30.887c13.878,13.006,26.261,20.156,44.722,24.9,21.825,4.61,38.606,2.644,59.819-3.873a75.467,75.467,0,0,0,27.171-15.379,73.6,73.6,0,0,0,17.946-24.214,80.065,80.065,0,0,0,7.372-31.055c.358-13.12-1.4-23.092-5.737-35.47-7.3-18.613-17.648-30.411-34.777-40.632a75.841,75.841,0,0,0-25.741-8.884,68.073,68.073,0,0,0-27.545,1.371,63.174,63.174,0,0,0-41.082,33.189,69.311,69.311,0,0,0-7.253,27.507c-.536,11.587.867,20.341,4.588,31.315,5.834,15.151,14.268,24.793,28.233,33a60.671,60.671,0,0,0,21.094,7.047,55.91,55.91,0,0,0,22.887-1.506c.049-.027.347-.1.423-.119a52,52,0,0,0,19.55-10.92,51.261,51.261,0,0,0,12.979-18.028,54.083,54.083,0,0,0,4.426-22.275,58.73,58.73,0,0,0-5.314-23.6,34.993,34.993,0,0,0-13.857-15.65,34.994,34.994,0,0,1,15.113,15.1,60.069,60.069,0,0,1,6.928,24.095,56.637,56.637,0,0,1-3.532,23.867,54.791,54.791,0,0,1-13.239,20.151A55.855,55.855,0,0,1,313.078,572.1a50.41,50.41,0,0,1-6.587,2.421,61.7,61.7,0,0,1-25.189,2.188,66.687,66.687,0,0,1-23.39-7.286c-15.687-8.813-25.194-19.338-31.971-36.039a93.458,93.458,0,0,1-2.871-9.133,86.989,86.989,0,0,1-4.149-24.842,85.113,85.113,0,0,1,.536-11.083c-.32,1.988-1.295,9.463-1.013,11.094a88.414,88.414,0,0,0,6.143,34.555c7.112,16.906,16.858,27.529,32.892,36.375a68.338,68.338,0,0,0,23.759,7.269,63.061,63.061,0,0,0,25.541-2.281,59.469,59.469,0,0,0,37.268-32.659,63.214,63.214,0,0,0,5.6-25.059,69.19,69.19,0,0,0-4.935-26.96c-4.848-11.175-11.343-18.152-22.058-23.91a45.361,45.361,0,0,0-15.85-4.637,42.754,42.754,0,0,0-17.248,1.761,40.923,40.923,0,0,0-25.313,22.74,42.669,42.669,0,0,0-3.581,16.95,45.591,45.591,0,0,0,3.429,17.719,46.023,46.023,0,0,1-3.949-17.708,43.283,43.283,0,0,1,3.207-17.329,42.174,42.174,0,0,1,25.622-24.068,44.493,44.493,0,0,1,17.99-2.248,47.559,47.559,0,0,1,16.771,4.5c11.527,5.867,18.564,13.152,23.937,24.934a72.334,72.334,0,0,1,5.764,28.184,66.754,66.754,0,0,1-5.466,26.722,63.688,63.688,0,0,1-39.592,35.671,67.612,67.612,0,0,1-27.5,2.768,72.944,72.944,0,0,1-25.617-7.578c-17.361-9.4-27.913-20.79-35.66-38.98-4.783-12.735-6.739-23.027-6.6-36.635a84.6,84.6,0,0,1,7.66-33.645,79.375,79.375,0,0,1,49.933-43.357,85.036,85.036,0,0,1,30.568-3.331,36.422,36.422,0,0,1,3.8.179,94.126,94.126,0,0,1,32.951,8.472c23.206,11.354,37.61,25.73,48.877,49.007,6.69,15.406,9.821,28.038,10.677,44.82.341,15.9-1.571,27.968-6.977,42.929a104.322,104.322,0,0,1-23.282,36.429c-11.928,11.793-22.7,18.732-38.227,25.048-28.271,10.363-50.833,13.765-80.707,9.1a157.578,157.578,0,0,1-22.643-6.354,121.185,121.185,0,1,0,62.447-225.047Z" transform="translate(81.465 -228.791)" fill="#fcb300" fill-rule="evenodd"/>
        </g>
      </g>
    </g>
  </g>
</svg>
