<svg xmlns="http://www.w3.org/2000/svg" width="57" height="48.878" viewBox="0 0 57 48.878">
  <g id="Group_662" data-name="Group 662" transform="translate(-1291 -1075)">
    <g id="Group_618" data-name="Group 618" transform="translate(523 -2730)">
      <circle id="Ellipse_121" data-name="Ellipse 121" cx="18" cy="18" r="18" transform="translate(768 3805)" fill="#fcb300" opacity="0.15"/>
      <g id="suitcase" transform="translate(775 3774.851)">
        <g id="Group_539" data-name="Group 539" transform="translate(0 36.073)">
          <g id="Group_538" data-name="Group 538" transform="translate(0 0)">
            <path id="Path_3260" data-name="Path 3260" d="M46.136,43.118H33.416L32.25,37.873a2.284,2.284,0,0,0-2.243-1.8H19.993a2.285,2.285,0,0,0-2.243,1.8l-1.166,5.246H3.864A3.868,3.868,0,0,0,0,46.982V75.164a3.868,3.868,0,0,0,3.864,3.864H46.136A3.868,3.868,0,0,0,50,75.164V46.982A3.868,3.868,0,0,0,46.136,43.118ZM19.18,38.19a.829.829,0,0,1,.813-.652H30.007a.828.828,0,0,1,.813.652l.225,1.014H18.955Zm-.551,2.479H31.371l.544,2.449H18.085ZM9.293,44.583h1.666v7.929H9.293Zm1.666,32.98H9.293V76.73a.732.732,0,1,0-1.465,0v.833H3.864a2.4,2.4,0,0,1-2.4-2.4V46.982a2.4,2.4,0,0,1,2.4-2.4H7.828v8.049A2.3,2.3,0,0,0,6.263,54.81v3.131a2.3,2.3,0,0,0,1.566,2.178V73.6a.732.732,0,0,0,1.465,0V60.24h1.666Zm.732-18.788h-.833V57.159a.732.732,0,0,0-1.465,0v1.616H8.561a.834.834,0,0,1-.833-.833V54.81a.834.834,0,0,1,.833-.833h3.131a.834.834,0,0,1,.833.833v3.131A.834.834,0,0,1,11.692,58.775ZM37.576,77.563H12.424V60.119a2.3,2.3,0,0,0,1.566-2.178V54.81a2.3,2.3,0,0,0-1.566-2.178V44.583H37.576v8.049h0A2.3,2.3,0,0,0,36.01,54.81v3.131a2.3,2.3,0,0,0,1.566,2.178V77.563Zm3.131,0H39.041V60.24h1.666Zm.733-18.788h-.833V57.159a.732.732,0,1,0-1.465,0v1.616h-.833a.834.834,0,0,1-.833-.833V54.81a.834.834,0,0,1,.833-.833h3.131a.834.834,0,0,1,.833.833v3.131A.834.834,0,0,1,41.439,58.775Zm7.1,16.389a2.4,2.4,0,0,1-2.4,2.4H42.172V60.119a2.3,2.3,0,0,0,1.566-2.178V54.81a2.3,2.3,0,0,0-1.566-2.178V48.548a.732.732,0,0,0-1.465,0v3.965H39.041V44.583h1.666v.833a.732.732,0,0,0,1.465,0v-.833h3.965a2.4,2.4,0,0,1,2.4,2.4Z" transform="translate(0 -36.073)" fill="#404040"/>
          </g>
        </g>
        <g id="Group_541" data-name="Group 541" transform="translate(16.439 48.598)">
          <g id="Group_540" data-name="Group 540" transform="translate(0 0)">
            <path id="Path_3261" data-name="Path 3261" d="M173.768,164.329a5.429,5.429,0,1,0,5.429,5.429A5.436,5.436,0,0,0,173.768,164.329Zm0,9.394a3.965,3.965,0,1,1,3.965-3.965A3.969,3.969,0,0,1,173.768,173.723Z" transform="translate(-168.339 -164.329)" fill="#fcb300"/>
          </g>
        </g>
        <g id="Group_543" data-name="Group 543" transform="translate(19.571 51.73)">
          <g id="Group_542" data-name="Group 542">
            <path id="Path_3262" data-name="Path 3262" d="M202.7,196.4a2.3,2.3,0,1,0,2.3,2.3A2.3,2.3,0,0,0,202.7,196.4Zm0,3.131a.833.833,0,1,1,.833-.833A.834.834,0,0,1,202.7,199.527Z" transform="translate(-200.404 -196.396)" fill="#fcb300"/>
          </g>
        </g>
        <g id="Group_545" data-name="Group 545" transform="translate(25.029 59.161)">
          <g id="Group_544" data-name="Group 544" transform="translate(0 0)">
            <path id="Path_3263" data-name="Path 3263" d="M265.633,276.289l-1.654-.753-.317-1.79a1.517,1.517,0,0,0-2.613-.76l-1.227,1.34-1.8-.251a1.517,1.517,0,0,0-1.53,2.25l.9,1.582-.8,1.634a1.517,1.517,0,0,0,1.667,2.151l1.781-.363,1.308,1.261a1.509,1.509,0,0,0,1.049.426,1.528,1.528,0,0,0,.517-.091,1.508,1.508,0,0,0,.994-1.256l.205-1.806,1.6-.855a1.517,1.517,0,0,0-.085-2.72Zm-.6,1.427-1.944,1.036a.732.732,0,0,0-.383.564l-.249,2.188a.044.044,0,0,1-.034.044.045.045,0,0,1-.054-.012l-1.586-1.529a.732.732,0,0,0-.655-.19l-2.158.44a.053.053,0,0,1-.058-.075l.964-1.98a.732.732,0,0,0-.021-.681l-1.085-1.917a.045.045,0,0,1,0-.056.045.045,0,0,1,.051-.022l2.181.3a.732.732,0,0,0,.641-.231l1.487-1.624a.053.053,0,0,1,.091.026l.384,2.169a.732.732,0,0,0,.418.539l2,.913a.053.053,0,0,1,0,.094Z" transform="translate(-256.292 -272.492)" fill="#fcb300"/>
          </g>
        </g>
        <g id="Group_547" data-name="Group 547" transform="translate(15.567 64.779)">
          <g id="Group_546" data-name="Group 546" transform="translate(0 0)">
            <path id="Path_3264" data-name="Path 3264" d="M166.416,333.325l-.722-1.847a2.3,2.3,0,0,0-2.977-1.3l-1.847.722a2.3,2.3,0,0,0-1.3,2.977l.722,1.847a2.3,2.3,0,0,0,2.977,1.3l1.847-.722A2.3,2.3,0,0,0,166.416,333.325Zm-1.837,1.613-1.847.722a.834.834,0,0,1-1.08-.472l-.722-1.847a.833.833,0,0,1,.472-1.079l1.847-.723a.833.833,0,0,1,1.08.472l.722,1.847A.834.834,0,0,1,164.579,334.939Z" transform="translate(-159.407 -330.018)" fill="#fcb300"/>
          </g>
        </g>
      </g>
    </g>
  </g>
</svg>
