<svg xmlns="http://www.w3.org/2000/svg" width="66" height="53.101" viewBox="0 0 66 53.101">
  <g id="Group_612" data-name="Group 612" transform="translate(-340 -1285)">
    <circle id="Ellipse_122" data-name="Ellipse 122" cx="21.214" cy="21.214" r="21.214" transform="translate(340 1285)" fill="#fcb300" opacity="0.1"/>
    <g id="sunset" transform="translate(341.179 1295.607)">
      <g id="Group_549" data-name="Group 549" transform="translate(0 30.446)">
        <g id="Group_548" data-name="Group 548">
          <path id="Path_3265" data-name="Path 3265" d="M63.872,328.661a13.4,13.4,0,0,0-5.589,1.079,11.63,11.63,0,0,1-4.9.951,11.628,11.628,0,0,1-4.9-.951,13.4,13.4,0,0,0-5.589-1.079A13.38,13.38,0,0,0,37.3,329.74a11.615,11.615,0,0,1-4.9.951,11.622,11.622,0,0,1-4.9-.951,13.385,13.385,0,0,0-5.587-1.079,13.379,13.379,0,0,0-5.585,1.079,11.614,11.614,0,0,1-4.9.951,11.608,11.608,0,0,1-4.9-.951A13.372,13.372,0,0,0,.95,328.661a.95.95,0,0,0,0,1.9,11.609,11.609,0,0,1,4.9.951,13.372,13.372,0,0,0,5.584,1.079,13.38,13.38,0,0,0,5.585-1.079,11.614,11.614,0,0,1,4.9-.951,11.622,11.622,0,0,1,4.9.951A13.386,13.386,0,0,0,32.4,332.59a13.381,13.381,0,0,0,5.585-1.079,11.615,11.615,0,0,1,4.9-.951,11.63,11.63,0,0,1,4.9.951,13.4,13.4,0,0,0,5.589,1.079,13.4,13.4,0,0,0,5.589-1.079,11.631,11.631,0,0,1,4.9-.951.95.95,0,0,0,0-1.9Z" transform="translate(0 -328.661)" fill="#404040"/>
        </g>
      </g>
      <g id="Group_551" data-name="Group 551" transform="translate(55.818 35.454)">
        <g id="Group_550" data-name="Group 550">
          <path id="Path_3266" data-name="Path 3266" d="M444.749,368.824a.95.95,0,0,0-1.228-.544l-.173.067a15.424,15.424,0,0,1-1.754.6.95.95,0,1,0,.477,1.838,17.167,17.167,0,0,0,1.962-.664l.171-.066A.949.949,0,0,0,444.749,368.824Z" transform="translate(-440.883 -368.216)" fill="#404040"/>
        </g>
      </g>
      <g id="Group_553" data-name="Group 553" transform="translate(11.164 34.506)">
        <g id="Group_552" data-name="Group 552">
          <path id="Path_3267" data-name="Path 3267" d="M129.756,362.744a11.425,11.425,0,0,1-4.266-.94,15,15,0,0,0-11.174,0,13.1,13.1,0,0,1-9.8,0,15,15,0,0,0-11.172,0,11.405,11.405,0,0,1-4.252.939.95.95,0,0,0,.07,1.9,13.173,13.173,0,0,0,4.868-1.066,13.1,13.1,0,0,1,9.8,0,15,15,0,0,0,11.172,0,13.107,13.107,0,0,1,9.8,0,13.189,13.189,0,0,0,4.883,1.066.95.95,0,0,0,.068-1.9Z" transform="translate(-88.177 -360.725)" fill="#404040"/>
        </g>
      </g>
      <g id="Group_555" data-name="Group 555" transform="translate(20.966 38.565)">
        <g id="Group_554" data-name="Group 554">
          <path id="Path_3268" data-name="Path 3268" d="M187.525,392.791a13.379,13.379,0,0,0-5.585,1.079,13.1,13.1,0,0,1-9.8,0,13.384,13.384,0,0,0-5.587-1.079.95.95,0,0,0,0,1.9,11.623,11.623,0,0,1,4.9.951,15,15,0,0,0,11.172,0,11.615,11.615,0,0,1,4.9-.951.95.95,0,0,0,0-1.9Z" transform="translate(-165.603 -392.791)" fill="#404040"/>
        </g>
      </g>
      <g id="Group_557" data-name="Group 557" transform="translate(5.24 35.52)">
        <g id="Group_556" data-name="Group 556">
          <path id="Path_3269" data-name="Path 3269" d="M44.44,369.4a15.339,15.339,0,0,1-1.762-.6.95.95,0,0,0-.686,1.771,17.123,17.123,0,0,0,1.971.667.95.95,0,0,0,.477-1.838Z" transform="translate(-41.386 -368.737)" fill="#404040"/>
        </g>
      </g>
      <g id="Group_559" data-name="Group 559" transform="translate(17.253 11.164)">
        <g id="Group_558" data-name="Group 558">
          <path id="Path_3270" data-name="Path 3270" d="M163.876,182.853a15.159,15.159,0,0,0-27.6,8.659c0,.361.013.725.038,1.082a.95.95,0,0,0,.946.883l.068,0a.949.949,0,0,0,.88-1.014c-.022-.313-.033-.632-.033-.948a13.26,13.26,0,0,1,24.144-7.573.95.95,0,1,0,1.558-1.086Z" transform="translate(-136.275 -176.354)" fill="#fcb300"/>
        </g>
      </g>
      <g id="Group_561" data-name="Group 561" transform="translate(6.089 25.372)">
        <g id="Group_560" data-name="Group 560">
          <path id="Path_3271" data-name="Path 3271" d="M55.136,288.581H49.047a.95.95,0,0,0,0,1.9h6.089a.95.95,0,0,0,0-1.9Z" transform="translate(-48.097 -288.581)" fill="#fcb300"/>
        </g>
      </g>
      <g id="Group_563" data-name="Group 563" transform="translate(31.461 0)">
        <g id="Group_562" data-name="Group 562">
          <path id="Path_3272" data-name="Path 3272" d="M249.45,88.177a.95.95,0,0,0-.95.95v6.089a.95.95,0,0,0,1.9,0V89.127A.95.95,0,0,0,249.45,88.177Z" transform="translate(-248.5 -88.177)" fill="#fcb300"/>
        </g>
      </g>
      <g id="Group_565" data-name="Group 565" transform="translate(45.096 7.431)">
        <g id="Group_564" data-name="Group 564">
          <path id="Path_3273" data-name="Path 3273" d="M362.124,147.152a.949.949,0,0,0-1.343,0l-4.306,4.306a.949.949,0,1,0,1.343,1.343l4.306-4.306A.949.949,0,0,0,362.124,147.152Z" transform="translate(-356.197 -146.874)" fill="#fcb300"/>
        </g>
      </g>
      <g id="Group_567" data-name="Group 567" transform="translate(23.305 5.682)">
        <g id="Group_566" data-name="Group 566">
          <path id="Path_3274" data-name="Path 3274" d="M186.682,135.516l-.777-1.875a.95.95,0,1,0-1.755.727l.777,1.875a.95.95,0,1,0,1.754-.727Z" transform="translate(-184.078 -133.055)" fill="#fcb300"/>
        </g>
      </g>
      <g id="Group_569" data-name="Group 569" transform="translate(49.276 17.216)">
        <g id="Group_568" data-name="Group 568">
          <path id="Path_3275" data-name="Path 3275" d="M392.913,224.746a.95.95,0,0,0-1.241-.514l-1.875.777a.949.949,0,1,0,.727,1.754l1.875-.777A.95.95,0,0,0,392.913,224.746Z" transform="translate(-389.211 -224.159)" fill="#fcb300"/>
        </g>
      </g>
      <g id="Group_571" data-name="Group 571" transform="translate(38.84 5.682)">
        <g id="Group_570" data-name="Group 570">
          <path id="Path_3276" data-name="Path 3276" d="M308.873,133.127a.95.95,0,0,0-1.241.514l-.777,1.875a.95.95,0,1,0,1.754.727l.777-1.875A.949.949,0,0,0,308.873,133.127Z" transform="translate(-306.783 -133.054)" fill="#fcb300"/>
        </g>
      </g>
      <g id="Group_573" data-name="Group 573" transform="translate(11.771 17.216)">
        <g id="Group_572" data-name="Group 572">
          <path id="Path_3277" data-name="Path 3277" d="M96.162,225.007l-1.875-.777a.95.95,0,0,0-.727,1.755l1.875.777a.95.95,0,0,0,.727-1.755Z" transform="translate(-92.973 -224.158)" fill="#fcb300"/>
        </g>
      </g>
      <g id="Group_575" data-name="Group 575" transform="translate(4.059 6.089)">
        <g id="Group_574" data-name="Group 574">
          <path id="Path_3278" data-name="Path 3278" d="M42.8,136.275a6.335,6.335,0,0,0-3.873,1.327,5.218,5.218,0,0,0-1.564-.24,5.305,5.305,0,0,0-5.3,5.3.95.95,0,0,0,.95.95H48.237a.95.95,0,0,0,.95-.95A6.394,6.394,0,0,0,42.8,136.275Zm-8.7,5.437a3.406,3.406,0,0,1,3.265-2.45,3.369,3.369,0,0,1,1.368.293.949.949,0,0,0,1.029-.172,4.468,4.468,0,0,1,7.426,2.33Z" transform="translate(-32.064 -136.275)" fill="#404040"/>
        </g>
      </g>
      <g id="Group_577" data-name="Group 577" transform="translate(36.536 20.95)">
        <g id="Group_576" data-name="Group 576">
          <path id="Path_3279" data-name="Path 3279" d="M300.4,254.741a5.214,5.214,0,0,0-1.564.24,6.368,6.368,0,0,0-10.259,5.059.95.95,0,0,0,.95.95h15.223a.95.95,0,0,0,.95-.95A5.3,5.3,0,0,0,300.4,254.741Zm-9.823,4.349a4.468,4.468,0,0,1,7.426-2.33.95.95,0,0,0,1.029.172,3.368,3.368,0,0,1,1.368-.293,3.406,3.406,0,0,1,3.265,2.45Z" transform="translate(-288.581 -253.654)" fill="#404040"/>
        </g>
      </g>
    </g>
  </g>
</svg>
