<svg xmlns="http://www.w3.org/2000/svg" width="54.765" height="56" viewBox="0 0 54.765 56">
  <g id="Group_661" data-name="Group 661" transform="translate(-1058 -1103)">
    <g id="Group_616" data-name="Group 616" transform="translate(289 -1935)">
      <circle id="Ellipse_120" data-name="Ellipse 120" cx="18" cy="18" r="18" transform="translate(769 3038)" fill="#fcb300" opacity="0.1"/>
      <g id="hotel" transform="translate(760.434 3044)">
        <g id="Group_579" data-name="Group 579" transform="translate(36.789 43.682)">
          <g id="Group_578" data-name="Group 578">
            <path id="Path_3280" data-name="Path 3280" d="M224.383,447.3a.732.732,0,0,0-.732.732v.809a.732.732,0,0,0,1.465,0v-.809A.732.732,0,0,0,224.383,447.3Z" transform="translate(-223.651 -447.3)" fill="#404040"/>
          </g>
        </g>
        <g id="Group_581" data-name="Group 581" transform="translate(41.642 43.682)">
          <g id="Group_580" data-name="Group 580">
            <path id="Path_3281" data-name="Path 3281" d="M274.081,447.3a.732.732,0,0,0-.732.732v.809a.732.732,0,0,0,1.465,0v-.809A.732.732,0,0,0,274.081,447.3Z" transform="translate(-273.349 -447.3)" fill="#404040"/>
          </g>
        </g>
        <g id="Group_583" data-name="Group 583" transform="translate(37.598 2.022)">
          <g id="Group_582" data-name="Group 582">
            <path id="Path_3282" data-name="Path 3282" d="M235.9,20.709a.732.732,0,0,0-.732.732v1.29H233.4v-1.29a.732.732,0,0,0-1.465,0V23.46s0,0,0,0,0,0,0,0v2.019a.732.732,0,0,0,1.465,0V24.2h1.771v1.29a.732.732,0,1,0,1.465,0V21.441A.732.732,0,0,0,235.9,20.709Z" transform="translate(-231.932 -20.709)" fill="#404040"/>
          </g>
        </g>
        <g id="Group_585" data-name="Group 585" transform="translate(16.566)">
          <g id="Group_584" data-name="Group 584">
            <path id="Path_3283" data-name="Path 3283" d="M62.6,24.267H53.623V12.057a.732.732,0,0,0-.732-.732h-.077V9.554H53.7a.732.732,0,0,0,.732-.732V5.586a.732.732,0,0,0-.732-.732H44.725V.732A.732.732,0,0,0,43.993,0H35.9a.732.732,0,0,0-.732.732V4.853H26.2a.732.732,0,0,0-.732.732V8.822a.732.732,0,0,0,.732.732h.885v1.771h-.077a.732.732,0,0,0-.732.732v6.471a.732.732,0,0,0,1.465,0V12.79H52.159V48.535h-2.58V46.764h.481a.732.732,0,0,0,.732-.732V41.178a.732.732,0,0,0-.732-.732H47.633a.732.732,0,0,0-.732.732v4.853a.732.732,0,0,0,.732.732h.481v1.771h-2.58V40.293h.885a.732.732,0,0,0,.732-.732V36.325a.732.732,0,0,0-.732-.732H33.477a.732.732,0,0,0-.732.732v3.236a.732.732,0,0,0,.732.732h.885v8.242h-2.58V46.764h.481A.732.732,0,0,0,33,46.031V41.178a.732.732,0,0,0-.732-.732H29.837a.732.732,0,0,0-.732.732v4.853a.732.732,0,0,0,.732.732h.481v1.771h-2.58V21.455a.732.732,0,0,0-1.465,0v2.812H17.3a.732.732,0,0,0-.732.732V41.178a.732.732,0,0,0,.732.732h.885v7.357a.732.732,0,0,0,.732.732H60.98a.732.732,0,0,0,.732-.732V41.911H62.6a.732.732,0,0,0,.732-.732V25A.732.732,0,0,0,62.6,24.267ZM26.273,48.535H19.649V41.911h6.624Zm0-8.089H18.031V25.732h8.242ZM31.531,45.3h-.962V41.911h.962Zm7.659,3.236H35.827V40.293h3.363Zm4.879,0H40.655V40.293h3.414Zm-8.975-9.707h-.885V37.057H45.687v1.771H35.095ZM49.327,45.3h-.962V41.911h.962ZM36.636,1.465h6.625V8.089H36.636V1.465ZM27.814,8.089h-.885V6.318h8.242V8.089H27.814ZM51.35,11.325h-22.8V9.554h22.8Zm.736-3.236h-7.36V6.318h8.242V8.089Zm8.162,40.446H53.623V41.911h6.624Zm1.618-8.089H53.623V25.732h8.242Z" transform="translate(-16.566)" fill="#404040"/>
          </g>
        </g>
        <g id="Group_587" data-name="Group 587" transform="translate(19.802 27.503)">
          <g id="Group_586" data-name="Group 586">
            <path id="Path_3284" data-name="Path 3284" d="M53.667,281.632H50.431a.732.732,0,0,0-.732.732V285.6a.732.732,0,0,0,.732.732h3.236a.732.732,0,0,0,.732-.732v-3.236A.732.732,0,0,0,53.667,281.632Zm-.732,3.236H51.164V283.1h1.771Z" transform="translate(-49.699 -281.632)" fill="#fcb300"/>
          </g>
        </g>
        <g id="Group_589" data-name="Group 589" transform="translate(29.509 27.503)">
          <g id="Group_588" data-name="Group 588">
            <path id="Path_3285" data-name="Path 3285" d="M153.067,281.632h-3.236a.732.732,0,0,0-.732.732V285.6a.732.732,0,0,0,.732.732h3.236a.732.732,0,0,0,.732-.732v-3.236A.732.732,0,0,0,153.067,281.632Zm-.732,3.236h-1.771V283.1h1.771Z" transform="translate(-149.099 -281.632)" fill="#fcb300"/>
          </g>
        </g>
        <g id="Group_591" data-name="Group 591" transform="translate(45.687 27.503)">
          <g id="Group_590" data-name="Group 590">
            <path id="Path_3286" data-name="Path 3286" d="M318.734,281.632H315.5a.732.732,0,0,0-.732.732V285.6h0a.732.732,0,0,0,.732.732h3.236a.732.732,0,0,0,.732-.732v-3.236A.732.732,0,0,0,318.734,281.632ZM318,284.868h-1.771V283.1H318Z" transform="translate(-314.766 -281.632)" fill="#fcb300"/>
          </g>
        </g>
        <g id="Group_593" data-name="Group 593" transform="translate(37.573 27.503)">
          <g id="Group_592" data-name="Group 592">
            <path id="Path_3287" data-name="Path 3287" d="M235.643,281.632h-3.236a.732.732,0,0,0-.732.732V285.6a.732.732,0,0,0,.732.732h3.236a.732.732,0,0,0,.732-.732v-3.236A.732.732,0,0,0,235.643,281.632Zm-.732,3.236H233.14V283.1h1.771Z" transform="translate(-231.675 -281.632)" fill="#fcb300"/>
          </g>
        </g>
        <g id="Group_595" data-name="Group 595" transform="translate(29.509 21.032)">
          <g id="Group_594" data-name="Group 594">
            <path id="Path_3288" data-name="Path 3288" d="M153.067,215.365h-3.236a.732.732,0,0,0-.732.732v3.236a.732.732,0,0,0,.732.732h3.236a.732.732,0,0,0,.732-.732V216.1A.732.732,0,0,0,153.067,215.365Zm-.732,3.236h-1.771V216.83h1.771Z" transform="translate(-149.099 -215.365)" fill="#fcb300"/>
          </g>
        </g>
        <g id="Group_597" data-name="Group 597" transform="translate(45.687 21.032)">
          <g id="Group_596" data-name="Group 596">
            <path id="Path_3289" data-name="Path 3289" d="M318.734,215.365H315.5a.732.732,0,0,0-.732.732v3.236h0a.732.732,0,0,0,.732.732h3.236a.732.732,0,0,0,.732-.732V216.1A.732.732,0,0,0,318.734,215.365ZM318,218.6h-1.771V216.83H318Z" transform="translate(-314.766 -215.365)" fill="#fcb300"/>
          </g>
        </g>
        <g id="Group_599" data-name="Group 599" transform="translate(37.573 21.032)">
          <g id="Group_598" data-name="Group 598">
            <path id="Path_3290" data-name="Path 3290" d="M235.643,215.365h-3.236a.732.732,0,0,0-.732.732v3.236a.732.732,0,0,0,.732.732h3.236a.732.732,0,0,0,.732-.732V216.1A.732.732,0,0,0,235.643,215.365Zm-.732,3.236H233.14V216.83h1.771Z" transform="translate(-231.675 -215.365)" fill="#fcb300"/>
          </g>
        </g>
        <g id="Group_601" data-name="Group 601" transform="translate(29.509 14.56)">
          <g id="Group_600" data-name="Group 600">
            <path id="Path_3291" data-name="Path 3291" d="M153.067,149.1h-3.236a.732.732,0,0,0-.732.732v3.236a.732.732,0,0,0,.732.732h3.236a.732.732,0,0,0,.732-.732v-3.236A.732.732,0,0,0,153.067,149.1Zm-.732,3.236h-1.771v-1.771h1.771Z" transform="translate(-149.099 -149.097)" fill="#fcb300"/>
          </g>
        </g>
        <g id="Group_603" data-name="Group 603" transform="translate(45.687 14.56)">
          <g id="Group_602" data-name="Group 602">
            <path id="Path_3292" data-name="Path 3292" d="M318.735,149.1H315.5a.732.732,0,0,0-.732.732v3.236a.732.732,0,0,0,.732.732h3.236a.732.732,0,0,0,.732-.732v-3.236A.732.732,0,0,0,318.735,149.1ZM318,152.333h-1.771v-1.771H318Z" transform="translate(-314.767 -149.097)" fill="#fcb300"/>
          </g>
        </g>
        <g id="Group_605" data-name="Group 605" transform="translate(37.573 14.56)">
          <g id="Group_604" data-name="Group 604">
            <path id="Path_3293" data-name="Path 3293" d="M235.643,149.1h-3.236a.732.732,0,0,0-.732.732v3.236a.732.732,0,0,0,.732.732h3.236a.732.732,0,0,0,.732-.732v-3.236A.732.732,0,0,0,235.643,149.1Zm-.732,3.236H233.14v-1.771h1.771Z" transform="translate(-231.675 -149.097)" fill="#fcb300"/>
          </g>
        </g>
        <g id="Group_607" data-name="Group 607" transform="translate(55.394 27.503)">
          <g id="Group_606" data-name="Group 606">
            <path id="Path_3294" data-name="Path 3294" d="M418.135,281.632H414.9a.732.732,0,0,0-.732.732V285.6a.732.732,0,0,0,.732.732h3.236a.732.732,0,0,0,.732-.732v-3.236A.732.732,0,0,0,418.135,281.632Zm-.732,3.236h-1.771V283.1H417.4Z" transform="translate(-414.167 -281.632)" fill="#fcb300"/>
          </g>
        </g>
        <g id="Group_609" data-name="Group 609" transform="translate(19.802 33.974)">
          <g id="Group_608" data-name="Group 608">
            <path id="Path_3295" data-name="Path 3295" d="M53.667,347.9H50.431a.732.732,0,0,0-.732.732v3.236a.732.732,0,0,0,.732.732h3.236a.732.732,0,0,0,.732-.732V348.63A.732.732,0,0,0,53.667,347.9Zm-.732,3.236H51.164v-1.771h1.771Z" transform="translate(-49.699 -347.898)" fill="#fcb300"/>
          </g>
        </g>
        <g id="Group_611" data-name="Group 611" transform="translate(55.394 33.974)">
          <g id="Group_610" data-name="Group 610">
            <path id="Path_3296" data-name="Path 3296" d="M418.135,347.9H414.9a.732.732,0,0,0-.732.732v3.236a.732.732,0,0,0,.732.732h3.236a.732.732,0,0,0,.732-.732V348.63A.732.732,0,0,0,418.135,347.9Zm-.732,3.236h-1.771v-1.771H417.4Z" transform="translate(-414.167 -347.898)" fill="#fcb300"/>
          </g>
        </g>
      </g>
    </g>
  </g>
</svg>
