<svg id="feefo_logo" xmlns="http://www.w3.org/2000/svg" width="84.926" height="20" viewBox="0 0 84.926 20">
  <path id="Path_89" data-name="Path 89" d="M18.514,10.786H11.762c.3-1.4,1.571-2.293,3.355-2.293a3.291,3.291,0,0,1,3.4,2.293M22.76,13.8v-.425c0-5.435-3.142-8.747-7.686-8.747A7.406,7.406,0,0,0,9.766,6.921a7.445,7.445,0,0,0-2.208,5.35,7.717,7.717,0,0,0,2.123,5.393A7.073,7.073,0,0,0,15.117,20a7.164,7.164,0,0,0,6.964-4.544H17.41a3.153,3.153,0,0,1-2.208.807,3.062,3.062,0,0,1-3.355-2.335h10.87V13.8Zm11.72-3.015H27.771c.3-1.4,1.571-2.293,3.355-2.293a3.209,3.209,0,0,1,3.355,2.293M38.769,13.8v-.425c0-5.435-3.142-8.747-7.686-8.747a7.406,7.406,0,0,0-5.308,2.293,7.445,7.445,0,0,0-2.208,5.35,7.717,7.717,0,0,0,2.123,5.393A7.073,7.073,0,0,0,31.125,20a7.2,7.2,0,0,0,6.964-4.544H33.418a3.153,3.153,0,0,1-2.208.807,3.062,3.062,0,0,1-3.355-2.335h10.87V13.8ZM1.571,8.323v11.3H5.732V8.323H7.389V5.1H5.732V4.713c0-1.316.3-1.741,1.571-1.741h.085V.042C7.134.042,6.964,0,6.709,0c-3.524,0-5.18,1.4-5.18,4.5,0,.17.042.34.042.552H0V8.28H1.571Zm38.811,0v11.3h4.161V8.323H46.2V5.1H44.544V4.713c0-1.316.3-1.741,1.571-1.741H46.2V.042C45.945.042,45.775,0,45.52,0,42,0,40.34,1.4,40.34,4.5c0,.17.042.34.042.552H38.811V8.28h1.571ZM57.2,12.314a3.4,3.4,0,1,1-6.794,0,3.4,3.4,0,1,1,6.794,0m4.161-.085a7.738,7.738,0,0,0-2.335-5.435,7.536,7.536,0,0,0-10.658.17,7.445,7.445,0,0,0-2.208,5.35,7.543,7.543,0,0,0,2.123,5.35A7.073,7.073,0,0,0,53.716,20a7.339,7.339,0,0,0,5.435-2.293,7.5,7.5,0,0,0,2.208-5.478" fill="#494646"/>
  <path id="Path_90" data-name="Path 90" d="M152.132,9.909a4,4,0,0,1-3.779-3.822h8.875V6c0-3.524-2.251-5.9-5.35-5.9A5.331,5.331,0,0,0,146.4,5.663a5.473,5.473,0,0,0,5.435,5.563,5.356,5.356,0,0,0,5.053-3.609H156a4.035,4.035,0,0,1-3.652,2.335h-.212m11.3-.042a4,4,0,0,0,3.779-3.822h-8.875V6c0-3.524,2.251-5.9,5.35-5.9a5.33,5.33,0,0,1,5.478,5.563,5.473,5.473,0,0,1-5.435,5.563,5.356,5.356,0,0,1-5.053-3.609h.892a4.021,4.021,0,0,0,3.609,2.335h.255" transform="translate(-84.234 -0.058)" fill="#fedd00"/>
</svg>
