<svg xmlns="http://www.w3.org/2000/svg" width="45" height="45" viewBox="0 0 45 45"><g transform="translate(-1223 -5507)"><path d="M399.575,6378.747l9.43,4.185h27.62s5.691,1.34,5.636,3.906-5.636,3.738-5.636,3.738h-8.314l-2.12,2.678s3.906.5,3.348,2.009-3.013,1.228-3.013,1.228l-3.069.224-3.013,3.571h-6.305l4.91-9.709H408.67l-9.765-7.254v-4.575Z" transform="translate(825 -867)" fill="#fcb300" opacity="0.65"/><g transform="translate(1223 5507.003)"><g transform="translate(0 -0.004)"><path d="M17.109,37.252a5.4,5.4,0,0,0-2.5-1.823,14.835,14.835,0,0,1-4.293-2.755,3.45,3.45,0,0,0-4.1-.213L4.6,28.671A2.391,2.391,0,0,0,.221,30.6L3.16,37.067a7.965,7.965,0,0,0,1.628,2.35L9.41,44.04A1.491,1.491,0,0,0,9,45.06v6a1.5,1.5,0,0,0,1.5,1.5h8.249a1.5,1.5,0,0,0,1.5-1.5v-6a1.5,1.5,0,0,0-1.5-1.5v-1.4A7.858,7.858,0,0,0,17.109,37.252ZM18.753,51.06H10.5v-6h8.249Zm-7.7-7.5-5.2-5.2a6.487,6.487,0,0,1-1.324-1.91L1.586,29.982a.891.891,0,1,1,1.63-.72l1.678,3.913a8.85,8.85,0,0,0,1.891,2.794l3.426,3.427a.75.75,0,1,0,1.06-1.06L7.846,34.907a7.4,7.4,0,0,1-.925-1.125,1.95,1.95,0,0,1,2.429.04,15.988,15.988,0,0,0,4.785,3.03,3.94,3.94,0,0,1,1.8,1.337,6.363,6.363,0,0,1,1.315,3.975v1.4Z" transform="translate(-0.004 -7.56)" fill="#404040"/><path d="M21.5,54h-.75a.75.75,0,1,0,0,1.5h.75a.75.75,0,1,0,0-1.5Z" transform="translate(-5.001 -14.25)" fill="#404040"/><path d="M50.093,37.056l2.939-6.465a2.391,2.391,0,1,0-4.374-1.931L47.04,32.435a3.458,3.458,0,0,0-4.1.225,14.835,14.835,0,0,1-4.293,2.755,5.4,5.4,0,0,0-2.5,1.823A7.858,7.858,0,0,0,34.5,42.153v1.4a1.5,1.5,0,0,0-1.5,1.5v6a1.5,1.5,0,0,0,1.5,1.5h8.249a1.5,1.5,0,0,0,1.5-1.5v-6a1.491,1.491,0,0,0-.406-1.02l4.622-4.623A7.965,7.965,0,0,0,50.093,37.056ZM42.749,51.048H34.5v-6h8.249Zm-.548-7.5H36v-1.4a6.363,6.363,0,0,1,1.315-3.975,3.942,3.942,0,0,1,1.8-1.337,15.982,15.982,0,0,0,4.785-3.03,1.95,1.95,0,0,1,2.434-.047A7.353,7.353,0,0,1,45.4,34.9l-3.426,3.427a.75.75,0,0,0,1.06,1.06l3.426-3.427a8.849,8.849,0,0,0,1.891-2.794l1.678-3.913a.891.891,0,1,1,1.63.721l-2.939,6.465a6.486,6.486,0,0,1-1.324,1.91Z" transform="translate(-8.252 -7.548)" fill="#404040"/><path d="M38.5,54h-.75a.75.75,0,1,0,0,1.5h.75a.75.75,0,0,0,0-1.5Z" transform="translate(-9.252 -14.25)" fill="#404040"/><path d="M42.385,11.685A9.555,9.555,0,0,0,38.248,10.5H28.057L24.8,6.546A1.5,1.5,0,0,0,23.644,6H18.5a1.5,1.5,0,0,0-1.321,2.2l1.213,2.3H11.4L2.094,6.514A1.495,1.495,0,0,0,0,7.89v2.992a1.478,1.478,0,0,0,.585,1.186l9.251,7.116a1.487,1.487,0,0,0,.918.315h8.911l-3.991,7.542a1.5,1.5,0,0,0,1.32,2.207h5.152a1.5,1.5,0,0,0,1.156-.543l2.64-3.207H30A2.25,2.25,0,1,0,30,21h-.352l1.235-1.5h7.367C40.618,19.5,45,17.644,45,15,45,13.791,44.071,12.615,42.385,11.685ZM18.5,7.5h5.149l2.47,3H20.085ZM38.248,18H32.116l1.461-1.773a.75.75,0,0,0-1.158-.954l-4.942,6a.676.676,0,0,0-.047.089.723.723,0,0,0-.075.136.71.71,0,0,0-.031.15.635.635,0,0,0-.018.1c0,.013.007.022.007.035a1.607,1.607,0,0,0,.069.283.718.718,0,0,0,.075.112.736.736,0,0,0,.1.121c.009.008.014.019.022.028a.739.739,0,0,0,.116.065.661.661,0,0,0,.09.051.749.749,0,0,0,.271.055H30a.75.75,0,0,1,.75.75.73.73,0,0,1-.229.534A.718.718,0,0,1,30,24h-4.41c-.012,0-.022.007-.034.007a.763.763,0,0,0-.157.032.712.712,0,0,0-.125.037.746.746,0,0,0-.114.075.714.714,0,0,0-.12.1c-.008.009-.019.013-.028.022l-2.863,3.479H17L23.162,16.1a.75.75,0,1,0-1.326-.7L20.459,18H10.754L1.5,10.882V7.89l9.338,4a1.562,1.562,0,0,0,.568.11H38.248a8.077,8.077,0,0,1,3.418,1c1.147.633,1.832,1.38,1.832,2C43.5,16.457,40.083,18,38.248,18Z" transform="translate(0 -2.248)" fill="#404040"/><path d="M17.75,16a.75.75,0,0,0-.75.75v1.5a.75.75,0,0,0,1.5,0v-1.5A.75.75,0,0,0,17.75,16Z" transform="translate(-4.251 -4.748)" fill="#404040"/><path d="M21.75,16a.75.75,0,0,0-.75.75v1.5a.75.75,0,0,0,1.5,0v-1.5A.75.75,0,0,0,21.75,16Z" transform="translate(-5.251 -4.748)" fill="#404040"/><path d="M25.75,16a.75.75,0,0,0-.75.75v1.5a.75.75,0,1,0,1.5,0v-1.5A.75.75,0,0,0,25.75,16Z" transform="translate(-6.251 -4.748)" fill="#404040"/><path d="M47.75,16a.75.75,0,0,0-.75.75v1.5a.75.75,0,1,0,1.5,0v-1.5A.75.75,0,0,0,47.75,16Z" transform="translate(-11.752 -4.748)" fill="#404040"/><path d="M51.249,3.249a2.993,2.993,0,0,0-2.112.883,3.611,3.611,0,0,0-3.625-.658A4.5,4.5,0,0,0,37,5.5a.75.75,0,1,0,1.5,0,3,3,0,0,1,5.726-1.255A3.726,3.726,0,0,0,43,7a.75.75,0,1,0,1.5,0A2.25,2.25,0,1,1,49,7a.75.75,0,1,0,1.5,0,3.708,3.708,0,0,0-.414-1.677,1.484,1.484,0,0,1,1.164-.573,1.5,1.5,0,0,1,1.5,1.5.75.75,0,1,0,1.5,0,3,3,0,0,0-3-3Z" transform="translate(-9.252 -0.996)" fill="#404040"/><path d="M13.6,5.5a.75.75,0,0,0,.75-.75,1.5,1.5,0,0,1,2.632-.984.75.75,0,1,0,1.132-.984,2.972,2.972,0,0,0-4.194-.31,4.492,4.492,0,0,0-7.434,1.2.75.75,0,1,0,1.37.61,3,3,0,0,1,5.175-.535,2.958,2.958,0,0,0-.181,1A.75.75,0,0,0,13.6,5.5Z" transform="translate(-1.606 -0.997)" fill="#404040"/><path d="M33.75,16a.75.75,0,0,0-.75.75v1.5a.75.75,0,1,0,1.5,0v-1.5A.75.75,0,0,0,33.75,16Z" transform="translate(-8.252 -4.748)" fill="#404040"/><path d="M37.75,16a.75.75,0,0,0-.75.75v1.5a.75.75,0,1,0,1.5,0v-1.5A.75.75,0,0,0,37.75,16Z" transform="translate(-9.252 -4.748)" fill="#404040"/></g></g></g></svg>