<svg id="happiness_1_" data-name="happiness (1)" xmlns="http://www.w3.org/2000/svg" width="40" height="40" viewBox="0 0 40 40">
  <g id="Group_343" data-name="Group 343" transform="translate(22.902 12.257)">
    <g id="Group_342" data-name="Group 342">
      <path id="Path_3151" data-name="Path 3151" d="M294.392,157.028a.781.781,0,0,0-1.089.185l-.015.021a.781.781,0,1,0,1.274.9l.015-.021A.781.781,0,0,0,294.392,157.028Z" transform="translate(-293.144 -156.884)" fill="#404040"/>
    </g>
  </g>
  <g id="Group_345" data-name="Group 345" transform="translate(17.025 14.329)">
    <g id="Group_344" data-name="Group 344">
      <path id="Path_3152" data-name="Path 3152" d="M223.27,183.7a.781.781,0,0,0-1.1-.109,9.682,9.682,0,0,1-3.666,1.884.781.781,0,1,0,.4,1.51,11.235,11.235,0,0,0,4.254-2.185A.781.781,0,0,0,223.27,183.7Z" transform="translate(-217.925 -183.411)" fill="#404040"/>
    </g>
  </g>
  <g id="Group_347" data-name="Group 347" transform="translate(0 4.219)">
    <g id="Group_346" data-name="Group 346">
      <path id="Path_3153" data-name="Path 3153" d="M37.656,67.474a2.346,2.346,0,0,0-2.344,2.344v.391A6.65,6.65,0,0,1,29.8,76.751a3.745,3.745,0,0,0,.647-2.108V74.1a3.766,3.766,0,0,0-7.532,0v.543a3.743,3.743,0,0,0,.617,2.061,6.651,6.651,0,0,1-5.262-6.5v-.391a2.344,2.344,0,0,0-4.688,0v.391a11.235,11.235,0,0,0,.945,4.536H9.213V66.877a.781.781,0,0,0-.566-.751,9.811,9.811,0,0,1-7.084-9.391v-.391a.781.781,0,0,1,1.563,0v.391a8.212,8.212,0,0,0,8.2,8.2h3.76a8.212,8.212,0,0,0,8.2-8.2v-.391a.781.781,0,0,1,1.563,0v.391a9.7,9.7,0,0,1-.643,3.486.781.781,0,1,0,1.459.56,11.254,11.254,0,0,0,.747-4.046v-.391a2.344,2.344,0,0,0-4.688,0v.391a6.65,6.65,0,0,1-5.51,6.542,3.744,3.744,0,0,0,.647-2.108v-.543a3.766,3.766,0,1,0-7.532,0v.543A3.743,3.743,0,0,0,9.95,63.23a6.651,6.651,0,0,1-5.262-6.5v-.391a2.344,2.344,0,0,0-4.687,0v.391a11.215,11.215,0,0,0,2.332,6.878,11.447,11.447,0,0,0,5.319,3.837v8.076a.781.781,0,0,0,.781.781h.143V89a.781.781,0,1,0,1.562,0V76.307h5.231q.256.4.547.779c.052.068.106.133.159.2V89a.781.781,0,0,0,1.563,0V78.882a11.421,11.421,0,0,0,3.6,2.041V89A.781.781,0,0,0,22.8,89V80.351a.781.781,0,0,0-.566-.751,9.811,9.811,0,0,1-7.084-9.391v-.391a.781.781,0,0,1,1.563,0v.391a8.212,8.212,0,0,0,8.2,8.2h3.76a8.212,8.212,0,0,0,8.2-8.2v-.391a.781.781,0,0,1,1.563,0v.391a9.78,9.78,0,0,1-7.248,9.437.781.781,0,0,0-.58.755v5.657a.781.781,0,0,0,1.563,0V80.984A11.346,11.346,0,0,0,40,70.209v-.391A2.346,2.346,0,0,0,37.656,67.474ZM10.9,60.626a2.2,2.2,0,1,1,4.407,0v.543a2.2,2.2,0,0,1-4.407,0ZM28.886,74.643a2.2,2.2,0,0,1-4.407,0V74.1a2.2,2.2,0,0,1,4.407,0Z" transform="translate(0 -54)" fill="#404040"/>
    </g>
  </g>
  <g id="Group_349" data-name="Group 349" transform="translate(30.609 38.438)">
    <g id="Group_348" data-name="Group 348">
      <path id="Path_3154" data-name="Path 3154" d="M393.134,492.229a.781.781,0,1,0,.229.552A.787.787,0,0,0,393.134,492.229Z" transform="translate(-391.8 -492)" fill="#404040"/>
    </g>
  </g>
  <g id="Group_351" data-name="Group 351" transform="translate(12.318 29.219)">
    <g id="Group_350" data-name="Group 350">
      <path id="Path_3155" data-name="Path 3155" d="M158.448,374a.781.781,0,0,0-.781.781V384a.781.781,0,0,0,1.563,0v-9.219A.781.781,0,0,0,158.448,374Z" transform="translate(-157.667 -374)" fill="#404040"/>
    </g>
  </g>
  <g id="Group_353" data-name="Group 353" transform="translate(35.625 6.406)">
    <g id="Group_352" data-name="Group 352">
      <path id="Path_3156" data-name="Path 3156" d="M456.781,82a.781.781,0,0,0-.781.781v.971a.781.781,0,0,0,1.563,0v-.971A.781.781,0,0,0,456.781,82Z" transform="translate(-456 -82)" fill="#fcb300"/>
    </g>
  </g>
  <g id="Group_355" data-name="Group 355" transform="translate(35.625 11.06)">
    <g id="Group_354" data-name="Group 354">
      <path id="Path_3157" data-name="Path 3157" d="M456.781,141.57a.781.781,0,0,0-.781.781v.971a.781.781,0,0,0,1.563,0v-.971A.781.781,0,0,0,456.781,141.57Z" transform="translate(-456 -141.57)" fill="#fcb300"/>
    </g>
  </g>
  <g id="Group_357" data-name="Group 357" transform="translate(37.466 9.219)">
    <g id="Group_356" data-name="Group 356">
      <path id="Path_3158" data-name="Path 3158" d="M481.322,118h-.971a.781.781,0,1,0,0,1.563h.971a.781.781,0,0,0,0-1.562Z" transform="translate(-479.57 -118)" fill="#fcb300"/>
    </g>
  </g>
  <g id="Group_359" data-name="Group 359" transform="translate(32.813 9.219)">
    <g id="Group_358" data-name="Group 358">
      <path id="Path_3159" data-name="Path 3159" d="M421.752,118h-.971a.781.781,0,0,0,0,1.563h.971a.781.781,0,0,0,0-1.562Z" transform="translate(-420 -118)" fill="#fcb300"/>
    </g>
  </g>
  <g id="Group_361" data-name="Group 361" transform="translate(16.396)">
    <g id="Group_360" data-name="Group 360">
      <path id="Path_3160" data-name="Path 3160" d="M210.654,0a.781.781,0,0,0-.781.781v.971a.781.781,0,1,0,1.563,0V.781A.781.781,0,0,0,210.654,0Z" transform="translate(-209.873)" fill="#fcb300"/>
    </g>
  </g>
  <g id="Group_363" data-name="Group 363" transform="translate(16.396 4.654)">
    <g id="Group_362" data-name="Group 362">
      <path id="Path_3161" data-name="Path 3161" d="M210.654,59.57a.781.781,0,0,0-.781.781v.971a.781.781,0,0,0,1.563,0v-.971A.781.781,0,0,0,210.654,59.57Z" transform="translate(-209.873 -59.57)" fill="#fcb300"/>
    </g>
  </g>
  <g id="Group_365" data-name="Group 365" transform="translate(18.238 2.813)">
    <g id="Group_364" data-name="Group 364">
      <path id="Path_3162" data-name="Path 3162" d="M235.2,36h-.971a.781.781,0,1,0,0,1.563h.971a.781.781,0,1,0,0-1.562Z" transform="translate(-233.443 -36)" fill="#fcb300"/>
    </g>
  </g>
  <g id="Group_367" data-name="Group 367" transform="translate(13.584 2.813)">
    <g id="Group_366" data-name="Group 366">
      <path id="Path_3163" data-name="Path 3163" d="M175.625,36h-.971a.781.781,0,0,0,0,1.563h.971a.781.781,0,0,0,0-1.562Z" transform="translate(-173.873 -36)" fill="#fcb300"/>
    </g>
  </g>
</svg>
