<svg xmlns="http://www.w3.org/2000/svg" width="45" height="45.002" viewBox="0 0 45 45.002"><g transform="translate(-1226 -5318)"><circle cx="7" cy="7" r="7" transform="translate(1250 5339)" fill="#fcb300" opacity="0.58"/><g transform="translate(1225.822 5318)"><path d="M329.4,278.655a7.5,7.5,0,1,0,7.5-7.5A7.5,7.5,0,0,0,329.4,278.655Zm7.5-6a6,6,0,1,1-6,6A6,6,0,0,1,336.9,272.656Zm0,0" transform="translate(-303.72 -250.153)" fill="#404040"/><path d="M370.9,561.637h8.572v1.5H370.9Zm0,0" transform="translate(-342.005 -518.135)" fill="#404040"/><path d="M329.4,522.9h15v1.5h-15Zm0,0" transform="translate(-303.72 -482.4)" fill="#404040"/><path d="M116.379,522.9h1.5v1.5h-1.5Zm0,0" transform="translate(-107.2 -482.4)" fill="#404040"/><path d="M58.285,542.27h1.5v1.5h-1.5Zm0,0" transform="translate(-53.606 -500.268)" fill="#404040"/><path d="M9.254,36.282a56.8,56.8,0,0,0,7.216-22.2l6.975,6.934a.749.749,0,0,0,.525.218.708.708,0,0,0,.121-.01.749.749,0,0,0,.55-.4,7.322,7.322,0,0,0-1.374-8.462l-.613-.614h5.275a.751.751,0,0,0,.712-.988,7.323,7.323,0,0,0-6.956-5.012H20.71l3.745-3.767a.75.75,0,0,0-.2-1.2A7.324,7.324,0,0,0,15.792,2.15l-.716.716a7.335,7.335,0,0,0-.65.75,7.206,7.206,0,0,0-.644-.75l-.716-.716A7.321,7.321,0,0,0,4.6.777a.75.75,0,0,0-.2,1.2l3.75,3.767H7.173A7.322,7.322,0,0,0,.217,10.756a.75.75,0,0,0,.712.988H6.2l-.613.614A7.322,7.322,0,0,0,4.212,20.82a.75.75,0,0,0,.55.4.712.712,0,0,0,.122.01.749.749,0,0,0,.529-.218l6.5-6.457A40.65,40.65,0,0,1,4.065,34.38,27.984,27.984,0,0,0,1,33.756l-.469-.047L.385,35.2l.437.043c.75.107,1.5.259,2.237.431-.15.188-.3.379-.455.565l1.15.962a42.224,42.224,0,0,0,9.812-24.293l.863-.858.646.643a54.835,54.835,0,0,1-9.51,26.624l1.228.86c.59-.842,1.152-1.715,1.7-2.605a26.6,26.6,0,0,1,9.075,7.11l1.16-.95A28.013,28.013,0,0,0,13.745,39H45.178V37.5H11.523c-.735-.444-1.494-.846-2.269-1.22Zm14.44-17.134L15.77,11.269A5.785,5.785,0,0,1,21.5,12.7l.716.716a5.823,5.823,0,0,1,1.483,5.73Zm3.09-8.9h-6.21a7.314,7.314,0,0,0-4.646-.554A5.816,5.816,0,0,1,20.67,7.244h1.012a5.823,5.823,0,0,1,5.1,3ZM16.134,3.927l.716-.716a5.827,5.827,0,0,1,5.733-1.483L18.137,6.2A7.315,7.315,0,0,0,14.6,8.979a5.677,5.677,0,0,1,1.54-5.052ZM12,3.211l.716.716a5.692,5.692,0,0,1,.863,1.136,7.136,7.136,0,0,0-.573,2.493A7.316,7.316,0,0,0,10.721,6.2L6.274,1.728A5.825,5.825,0,0,1,12,3.211ZM7.17,7.244H8.183a5.818,5.818,0,0,1,4.746,2.445,7.317,7.317,0,0,0-4.643.555H2.073a5.824,5.824,0,0,1,5.1-3Zm-2.007,11.9a5.823,5.823,0,0,1,1.483-5.73l.716-.716a5.732,5.732,0,0,1,4.066-1.674,5.932,5.932,0,0,1,1.662.238Zm0,0" transform="translate(0 0)" fill="#404040"/></g></g></svg>