<svg xmlns="http://www.w3.org/2000/svg" width="43.793" height="40.1" viewBox="0 0 43.793 40.1">
  <g id="hiker" transform="translate(0 -20.238)">
    <g id="Group_221" data-name="Group 221" transform="translate(2.484 28.95)">
      <g id="Group_220" data-name="Group 220" transform="translate(0 0)">
        <path id="Path_239" data-name="Path 239" d="M66.974,125.586a.73.73,0,0,0-.99-.265h0l-5.569,3.215a.7.7,0,0,0-.119-.18l-5.109-5.109a.73.73,0,0,0-1-.034l-5.839,5.109a.73.73,0,0,0,.955,1.1l.006-.005,5.328-4.66,4.508,4.508-13.236,7.64V125.222h.1a2.2,2.2,0,0,0,0-4.4h-.1v-2.166a.73.73,0,1,0-1.46,0v2.166H41.559l-3.676-3.971v-.385a.73.73,0,0,0-.73-.73H32.774a.73.73,0,0,0-.73.73v8.74a21.756,21.756,0,0,1-4.375,13.054.749.749,0,0,0-.051.078,2.953,2.953,0,0,0,1.069,4.009,2.9,2.9,0,0,0,2.216.295,2.853,2.853,0,0,0,1.746-1.322l1.192-1.737a22.986,22.986,0,0,0,3.27-7.17l1.5.76v2.27a2.19,2.19,0,1,0,4.379,0v-4.927a.73.73,0,0,0-.365-.632l-4.767-2.746c.006-.208.023-.415.023-.623v-3.836l2.141,2.312a.73.73,0,0,0,.535.234h3.892V137.6a.685.685,0,0,0,.028.139l-13.9,8.022a.73.73,0,0,0,.721,1.269l.008,0,35.4-20.437A.73.73,0,0,0,66.974,125.586Zm-34.339,13.17-1.224,1.787a1.448,1.448,0,0,1-1.973.55l-.018-.01a1.489,1.489,0,0,1-.555-1.985,23.224,23.224,0,0,0,4.579-12.415h2.974A21.545,21.545,0,0,1,32.634,138.756Zm3.789-13.533H33.5v-8.029h2.92Zm5.109,5.713v4.506a.73.73,0,1,1-1.46,0v-2.72a.73.73,0,0,0-.4-.651l-2.226-1.123c.14-.72.248-1.448.319-2.183Zm-.657-7.175-2.993-3.232V119l2.822,3.047a.73.73,0,0,0,.536.234h3.708a.607.607,0,0,0,.467,0h.594a.751.751,0,0,1,0,1.483Z" transform="translate(-27.229 -115.734)" fill="#404040"/>
      </g>
    </g>
    <g id="Group_223" data-name="Group 223" transform="translate(7.304 20.238)">
      <g id="Group_222" data-name="Group 222" transform="translate(0 0)">
        <path id="Path_240" data-name="Path 240" d="M88.806,23.135H87.274a3.673,3.673,0,1,0,0,1.46h1.533a.73.73,0,1,0,0-1.46ZM83.7,26.078a2.19,2.19,0,0,1-2.058-1.483h4.115A2.19,2.19,0,0,1,83.7,26.078ZM81.64,23.135a2.169,2.169,0,0,1,4.115,0Z" transform="translate(-80.053 -20.238)" fill="#404040"/>
      </g>
    </g>
    <g id="Group_225" data-name="Group 225" transform="translate(0 25.301)">
      <g id="Group_224" data-name="Group 224">
        <path id="Path_241" data-name="Path 241" d="M2.92,75.734A2.92,2.92,0,0,0,0,78.653v6.569a5.116,5.116,0,0,0,5.109,5.109.73.73,0,0,0,.73-.73V78.654A2.92,2.92,0,0,0,2.92,75.734ZM4.379,88.8a3.655,3.655,0,0,1-2.92-3.576V78.654a1.46,1.46,0,0,1,2.92,0Z" transform="translate(0 -75.734)" fill="#404040"/>
      </g>
    </g>
    <g id="Group_227" data-name="Group 227" transform="translate(33.574 31.14)">
      <g id="Group_226" data-name="Group 226">
        <path id="Path_242" data-name="Path 242" d="M370.92,139.734a2.92,2.92,0,1,0,2.919,2.92A2.92,2.92,0,0,0,370.92,139.734Zm0,4.379a1.46,1.46,0,1,1,1.46-1.46A1.46,1.46,0,0,1,370.92,144.113Z" transform="translate(-368 -139.734)" fill="#fcb300"/>
      </g>
    </g>
    <g id="Group_229" data-name="Group 229" transform="translate(38.395 27.324)">
      <g id="Group_228" data-name="Group 228" transform="translate(0 0)">
        <path id="Path_243" data-name="Path 243" d="M422.7,98.014l0,0a.73.73,0,0,0-1,.255h0l-.75,1.268a.73.73,0,1,0,1.256.744l.75-1.265A.73.73,0,0,0,422.7,98.014Z" transform="translate(-420.841 -97.909)" fill="#fcb300"/>
      </g>
    </g>
    <g id="Group_231" data-name="Group 231" transform="translate(40.269 29.919)">
      <g id="Group_230" data-name="Group 230">
        <path id="Path_244" data-name="Path 244" d="M444.018,126.715a.73.73,0,0,0-.971-.273l-1.3.73a.73.73,0,0,0-.28.993h0a.73.73,0,0,0,.993.279l1.3-.73A.73.73,0,0,0,444.018,126.715Z" transform="translate(-441.374 -126.356)" fill="#fcb300"/>
      </g>
    </g>
    <g id="Group_233" data-name="Group 233" transform="translate(40.833 33.33)">
      <g id="Group_232" data-name="Group 232">
        <path id="Path_245" data-name="Path 245" d="M449.79,163.734h-1.5a.73.73,0,0,0,0,1.46h1.5a.73.73,0,1,0,0-1.46Z" transform="translate(-447.56 -163.734)" fill="#fcb300"/>
      </g>
    </g>
    <g id="Group_235" data-name="Group 235" transform="translate(29.155 33.33)">
      <g id="Group_234" data-name="Group 234">
        <path id="Path_246" data-name="Path 246" d="M321.79,163.734h-1.5a.73.73,0,1,0,0,1.46h1.5a.73.73,0,1,0,0-1.46Z" transform="translate(-319.56 -163.734)" fill="#fcb300"/>
      </g>
    </g>
    <g id="Group_237" data-name="Group 237" transform="translate(29.925 29.732)">
      <g id="Group_236" data-name="Group 236" transform="translate(0 0)">
        <path id="Path_247" data-name="Path 247" d="M330.384,125.13l-1.3-.73a.73.73,0,1,0-.715,1.273l1.3.73a.73.73,0,1,0,.716-1.273Z" transform="translate(-327.997 -124.307)" fill="#fcb300"/>
      </g>
    </g>
    <g id="Group_239" data-name="Group 239" transform="translate(32.395 27.324)">
      <g id="Group_238" data-name="Group 238" transform="translate(0 0)">
        <path id="Path_248" data-name="Path 248" d="M357.182,99.539l-.75-1.268a.73.73,0,0,0-1.256.744l.75,1.265a.73.73,0,0,0,1.255-.741Z" transform="translate(-355.075 -97.913)" fill="#fcb300"/>
      </g>
    </g>
    <g id="Group_241" data-name="Group 241" transform="translate(35.771 26.445)">
      <g id="Group_240" data-name="Group 240">
        <path id="Path_249" data-name="Path 249" d="M392.8,88.27a.73.73,0,0,0-.73.73v1.46a.73.73,0,0,0,1.46,0V89A.73.73,0,0,0,392.8,88.27Z" transform="translate(-392.072 -88.27)" fill="#fcb300"/>
      </g>
    </g>
  </g>
</svg>
