<svg xmlns="http://www.w3.org/2000/svg" width="45" height="37.72" viewBox="0 0 45 37.72"><g transform="translate(-327 -5507)"><path d="M-485.7,6385.079h21.331l9.317,22.8h-21.331Z" transform="translate(825 -867)" fill="#fcb300" opacity="0.65"/><g transform="translate(327 5465.584)"><g transform="translate(0 41.416)"><path d="M44.949,78.223l-1.213-2.911,0-.007-9.7-23.291a.659.659,0,0,0-.608-.406H30.213a.659.659,0,0,0,0,1.318h2.767l9.158,21.979H21.726L12.568,52.927H27.579a.659.659,0,0,0,0-1.318H12.239v-3.05h7.349a.659.659,0,0,0,.659-.659V42.8a.659.659,0,0,0-.659-.659H12.239v-.069a.659.659,0,0,0-1.318,0V52.136L3.31,70.4.184,73.652a.659.659,0,0,0,.009.923l.973.973L.051,78.223a.659.659,0,0,0,.608.913H44.341a.659.659,0,0,0,.608-.913ZM12.239,43.462h6.69V47.24h-6.69ZM1.648,77.817l.526-1.262,1.262,1.262Zm3.149-.5L2.416,74.933l0,0L1.582,74.1,9.62,65.74Zm1.219.5L11.58,64.465l5.563,13.352Zm12.555,0L12.188,62.5h0a.651.651,0,0,0-.041-.08l-.009-.015a.642.642,0,0,0-.045-.064l-.007-.009a.668.668,0,0,0-.049-.053l-.01-.009-.017-.015a.688.688,0,0,0-.055-.043l-.014-.01a.65.65,0,0,0-.075-.043l-.012-.005a.655.655,0,0,0-.072-.028l-.015-.005a.655.655,0,0,0-.084-.019l-.016,0a.661.661,0,0,0-.077-.006h-.016a.649.649,0,0,0-.086.006l-.019,0a.646.646,0,0,0-.077.017l-.008,0a.654.654,0,0,0-.081.031l-.015.007a.666.666,0,0,0-.069.039l-.008,0a.66.66,0,0,0-.068.052l-.016.015-.024.023L5.83,67.779l5.09-12.216v2.528a.659.659,0,1,0,1.318,0V55.563l8.439,20.254,0,.006.831,1.993Zm4.368,0-.664-1.594H42.688l.664,1.594Z" transform="translate(0 -41.416)" fill="#404040"/></g></g></g></svg>