<svg xmlns="http://www.w3.org/2000/svg" width="39" height="39" viewBox="0 0 39 39"><defs><style>.a{fill:#fff;}</style></defs><g transform="translate(-0.001)"><g transform="translate(0.001)"><g transform="translate(0)"><path class="a" d="M14.076,7.97l-.768-.661V6.991l.768-.661a.651.651,0,0,0,.212-.626A7.016,7.016,0,0,0,13.781,4.2a.65.65,0,0,0-.531-.374l-1-.091q-.1-.147-.211-.286l.216-.944a.651.651,0,0,0-.2-.63A7.34,7.34,0,0,0,10.748.936.65.65,0,0,0,10.1.941l-.862.5c-.116-.04-.235-.077-.359-.112l-.4-.934A.65.65,0,0,0,7.887,0H6.416a.65.65,0,0,0-.6.395l-.4.934c-.124.034-.243.072-.359.112L4.2.941A.654.654,0,0,0,3.555.936a7.365,7.365,0,0,0-1.307.936.65.65,0,0,0-.2.63l.216.943c-.073.093-.143.189-.211.286l-1,.091A.65.65,0,0,0,.521,4.2,7.01,7.01,0,0,0,.015,5.7a.651.651,0,0,0,.212.625L1,6.991v.317L.227,7.97A.651.651,0,0,0,.015,8.6,7.016,7.016,0,0,0,.521,10.1a.65.65,0,0,0,.531.374l1,.091q.1.147.211.286l-.216.944a.65.65,0,0,0,.2.63,7.281,7.281,0,0,0,1.307.935.648.648,0,0,0,.643-.005l.862-.5c.116.04.235.077.359.112l.4.934a.65.65,0,0,0,.6.395H7.887a.65.65,0,0,0,.6-.395l.4-.934c.124-.034.243-.072.359-.112l.861.5a.652.652,0,0,0,.7-.034L12,12.473a.65.65,0,0,0,.255-.674l-.216-.943c.073-.093.143-.189.211-.286l1-.091a.65.65,0,0,0,.531-.374A7.015,7.015,0,0,0,14.288,8.6.651.651,0,0,0,14.076,7.97ZM12.233,8.1l.692.6q-.075.262-.178.524l-.928.084a.651.651,0,0,0-.494.306,4.763,4.763,0,0,1-.479.648.65.65,0,0,0-.146.576l.191.835-.5.356-.766-.444a.654.654,0,0,0-.575-.038,4.849,4.849,0,0,1-.785.245.65.65,0,0,0-.454.379L7.458,13H6.845l-.356-.835a.647.647,0,0,0-.454-.379,4.867,4.867,0,0,1-.785-.245.649.649,0,0,0-.575.038l-.8.462q-.243-.156-.474-.338l.2-.87a.651.651,0,0,0-.146-.575,4.78,4.78,0,0,1-.48-.649A.651.651,0,0,0,2.484,9.3l-.928-.084q-.1-.263-.178-.524l.692-.6A.651.651,0,0,0,2.3,7.607V6.694A.651.651,0,0,0,2.07,6.2l-.692-.6q.075-.261.178-.524L2.484,5a.651.651,0,0,0,.494-.306,4.763,4.763,0,0,1,.479-.648A.65.65,0,0,0,3.6,3.467L3.4,2.6q.23-.182.474-.339l.8.463a.656.656,0,0,0,.575.038,4.848,4.848,0,0,1,.785-.245.65.65,0,0,0,.454-.379L6.845,1.3h.613l.356.835a.647.647,0,0,0,.454.379,4.859,4.859,0,0,1,.785.245.652.652,0,0,0,.575-.038l.8-.463q.244.157.474.339l-.2.87a.651.651,0,0,0,.146.575,4.78,4.78,0,0,1,.48.649A.651.651,0,0,0,11.819,5l.928.084q.1.263.178.524l-.692.6a.651.651,0,0,0-.226.493v.913A.651.651,0,0,0,12.233,8.1Z" transform="translate(-0.001)"/></g></g><g transform="translate(3.901 3.9)"><path class="a" d="M51.252,48a3.25,3.25,0,1,0,3.25,3.25A3.25,3.25,0,0,0,51.252,48Zm0,5.2a1.95,1.95,0,1,1,1.95-1.95A1.95,1.95,0,0,1,51.252,53.2Z" transform="translate(-48.002 -48)"/></g><g transform="translate(1.301 32.5)"><path class="a" d="M21.852,400h-5.2a.65.65,0,0,0-.65.65h0v5.2a.65.65,0,0,0,.65.65h5.2a.65.65,0,0,0,.65-.65h0v-5.2A.65.65,0,0,0,21.852,400Zm-.65,5.2H17.3v-3.9h3.9Z" transform="translate(-16.002 -400)"/></g><g transform="translate(11.051 30.55)"><path class="a" d="M141.852,376h-5.2a.65.65,0,0,0-.65.65h0v7.15a.65.65,0,0,0,.65.65h5.2a.65.65,0,0,0,.65-.65h0v-7.15A.65.65,0,0,0,141.852,376Zm-.65,7.15h-3.9V377.3h3.9Z" transform="translate(-136.002 -376)"/></g><g transform="translate(20.801 27.95)"><path class="a" d="M261.852,344h-5.2a.65.65,0,0,0-.65.65h0v9.75a.65.65,0,0,0,.65.65h5.2a.65.65,0,0,0,.65-.65h0v-9.75A.65.65,0,0,0,261.852,344Zm-.65,9.75h-3.9V345.3h3.9Z" transform="translate(-256.002 -344)"/></g><g transform="translate(30.551 22.1)"><path class="a" d="M381.852,272h-5.2a.65.65,0,0,0-.65.65h0v15.6a.65.65,0,0,0,.65.65h5.2a.65.65,0,0,0,.65-.65h0v-15.6A.65.65,0,0,0,381.852,272Zm-.65,15.6h-3.9V273.3h3.9Z" transform="translate(-376.002 -272)"/></g><g transform="translate(0.944 13.025)"><path class="a" d="M32.958,161.609l-.012,0-4.55-1.3-.357,1.251,3.185.91L11.611,175.337l.713,1.087,19.292-12.66-1.069,3.476,1.242.382,1.6-5.2A.65.65,0,0,0,32.958,161.609Z" transform="translate(-11.611 -160.305)"/></g><g transform="translate(25.351 2.6)"><path class="a" d="M322.206,35.659a.65.65,0,0,0-.356-.177l-2.8-.428-1.259-2.681a.65.65,0,0,0-1.177,0l-1.259,2.681-2.8.428a.65.65,0,0,0-.367,1.1l2.046,2.1-.484,2.969a.65.65,0,0,0,.956.673l2.5-1.381,2.5,1.381a.65.65,0,0,0,.956-.673l-.484-2.969,2.046-2.1A.65.65,0,0,0,322.206,35.659ZM319.012,38a.649.649,0,0,0-.176.559l.321,1.972-1.641-.907a.649.649,0,0,0-.629,0l-1.641.907.321-1.972a.649.649,0,0,0-.176-.559L314,36.576l1.893-.289a.649.649,0,0,0,.49-.366l.818-1.742.818,1.742a.649.649,0,0,0,.49.366l1.894.289Z" transform="translate(-312.002 -31.998)"/></g><g transform="translate(29.093 15.492)"><path class="a" d="M360.763,190.672a7.139,7.139,0,0,1-1.238.108h-.01a7.16,7.16,0,0,1-1.235-.107l-.223,1.281a12.972,12.972,0,0,0,1.469.126,8.425,8.425,0,0,0,1.464-.128Z" transform="translate(-358.057 -190.672)"/></g><g transform="translate(31.772 0.123)"><path class="a" d="M391.246,1.508l-.22,1.281a7.088,7.088,0,0,1,2.334.841l.647-1.127A8.368,8.368,0,0,0,391.246,1.508Z" transform="translate(-391.026 -1.508)"/></g><g transform="translate(26.306 0.13)"><path class="a" d="M326.507,1.6a8.394,8.394,0,0,0-2.754,1.012l.654,1.124a7.1,7.1,0,0,1,2.329-.856Z" transform="translate(-323.753 -1.602)"/></g><g transform="translate(34.13 13.043)"><path class="a" d="M421.943,160.531a7.175,7.175,0,0,1-1.9,1.6l.652,1.125a8.461,8.461,0,0,0,2.245-1.886Z" transform="translate(-420.042 -160.531)"/></g><g transform="translate(37.273 8.426)"><path class="a" d="M460.167,103.7l-1.013.024a7.132,7.132,0,0,1-.429,2.446l1.222.444a8.455,8.455,0,0,0,.507-2.909Z" transform="translate(-458.725 -103.703)"/></g><g transform="translate(36.013 2.996)"><path class="a" d="M444.217,36.875l-.992.839a7.12,7.12,0,0,1,1.25,2.144l1.22-.449A8.407,8.407,0,0,0,444.217,36.875Z" transform="translate(-443.225 -36.875)"/></g><g transform="translate(22.603 3.033)"><path class="a" d="M279.637,37.328a8.422,8.422,0,0,0-1.463,2.544l1.223.442a7.117,7.117,0,0,1,1.238-2.151Z" transform="translate(-278.174 -37.328)"/></g><g transform="translate(24.086 13.053)"><path class="a" d="M297.426,160.656l-.994.838a8.465,8.465,0,0,0,2.248,1.883l.65-1.126A7.162,7.162,0,0,1,297.426,160.656Z" transform="translate(-296.432 -160.656)"/></g><g transform="translate(22.102 8.465)"><path class="a" d="M273.306,104.18l-1.3,0a8.415,8.415,0,0,0,.513,2.888l1.221-.447A7.123,7.123,0,0,1,273.306,104.18Z" transform="translate(-272.006 -104.18)"/></g></g></svg>