<svg xmlns="http://www.w3.org/2000/svg" width="39" height="36.706" viewBox="0 0 39 36.706"><defs><style>.a{fill:#fff;}</style></defs><g transform="translate(0 -0.038)"><g transform="translate(0 0.227)"><g transform="translate(0 0)"><path class="a" d="M38.445,11.532h0l-2.517-.338a.616.616,0,0,1-.549-.688.6.6,0,0,1,.252-.4l2.035-1.435a.585.585,0,0,0,.129-.852l-2.33-2.921a.674.674,0,0,0-.906-.122L32.523,6.208a.675.675,0,0,1-.907-.117.582.582,0,0,1-.125-.456l.36-2.368a.616.616,0,0,0-.549-.689h0l-3.841-.516a.642.642,0,0,0-.733.516h0l-.36,2.368a.642.642,0,0,1-.732.517.656.656,0,0,1-.426-.237L23.685,3.313a.674.674,0,0,0-.906-.122L20.834,4.563a13.308,13.308,0,0,0-2.647,0A11.933,11.933,0,0,0,7.346,14.932c-.017.172-.024.343-.033.514H7.119a.639.639,0,0,0-.633.487l-.447,2L4.248,16.772a.678.678,0,0,0-.825.071L1.481,18.668a.582.582,0,0,0-.075.775l1.23,1.682-2.127.421a.618.618,0,0,0-.509.6v2.435a.619.619,0,0,0,.514.6l2.127.421-1.23,1.682a.582.582,0,0,0,.075.775l1.941,1.826a.678.678,0,0,0,.825.071l1.788-1.159.447,2a.639.639,0,0,0,.633.487H9.709a.639.639,0,0,0,.634-.483l.447-2,1.788,1.156a.678.678,0,0,0,.824-.071l1-.948v1.735a2.4,2.4,0,0,0,1.294,2.1V36.14a2.515,2.515,0,0,0,2.589,2.435h2.589a2.515,2.515,0,0,0,2.589-2.435V32.759a2.4,2.4,0,0,0,1.294-2.1V28.254a2.95,2.95,0,0,1,1.5-2.484,12.369,12.369,0,0,0,1.523-1.1l-.863-.907a10.971,10.971,0,0,1-1.363.981,4.144,4.144,0,0,0-2.088,3.506v2.409a1.257,1.257,0,0,1-1.294,1.217H17A1.257,1.257,0,0,1,15.7,30.663V28.2a4.049,4.049,0,0,0-2.053-3.435A9.962,9.962,0,0,1,10.2,10.545a11.143,11.143,0,0,1,9.248-4.827.636.636,0,0,0-.025.066.582.582,0,0,0,.124.451l1.525,1.913a.567.567,0,0,1,.039.676.657.657,0,0,1-.647.293l-2.517-.338a.642.642,0,0,0-.732.516h0l-.549,3.615a.616.616,0,0,0,.549.689h0l2.517.338a.616.616,0,0,1,.549.688.6.6,0,0,1-.252.4l-2.034,1.435a.585.585,0,0,0-.129.852l2.33,2.921a.674.674,0,0,0,.906.122l2.035-1.435a.674.674,0,0,1,.906.123.582.582,0,0,1,.122.45L23.8,21.862a.616.616,0,0,0,.549.689h0l3.844.517a.762.762,0,0,0,.091.005.636.636,0,0,0,.641-.522l.359-2.368a.642.642,0,0,1,.732-.517.656.656,0,0,1,.426.237l1.526,1.913a.674.674,0,0,0,.906.122l3.106-2.191a.585.585,0,0,0,.129-.852l-1.525-1.913a.569.569,0,0,1-.039-.676.642.642,0,0,1,.647-.292l2.517.338a.642.642,0,0,0,.733-.516h0l.549-3.615A.616.616,0,0,0,38.445,11.532ZM17,33.1h5.177v1.217H17Zm0,2.435h5.177v.609a1.257,1.257,0,0,1-1.294,1.217H18.29A1.257,1.257,0,0,1,17,36.14Zm-5.152-10.5a12.232,12.232,0,0,0,1.106.758,3.008,3.008,0,0,1,1.3,1.557l-1.388,1.3-1.344-.872a1.347,1.347,0,0,0-1.8.312,1.181,1.181,0,0,0-.2.44l-.339,1.52H7.644L7.3,28.537a1.3,1.3,0,0,0-1.533-.94,1.339,1.339,0,0,0-.468.189l-1.345.869L2.78,27.548l.926-1.264a1.172,1.172,0,0,0-.33-1.693,1.337,1.337,0,0,0-.468-.189l-1.613-.32V22.636l1.613-.32a1.22,1.22,0,0,0,1-1.443,1.18,1.18,0,0,0-.2-.436L2.78,19.17l1.179-1.106,1.345.872a1.346,1.346,0,0,0,1.8-.313,1.18,1.18,0,0,0,.2-.44l.113-.506a11.014,11.014,0,0,0,.513,2.064,3.707,3.707,0,0,0-3.4,4.058,3.839,3.839,0,0,0,4.315,3.194A3.887,3.887,0,0,0,11.844,25.036Zm-1-.858a2.632,2.632,0,0,1-3.307,1.465,2.4,2.4,0,0,1-1.557-3.11,2.582,2.582,0,0,1,2.437-1.608h.025A11.542,11.542,0,0,0,10.839,24.178ZM37.251,15.06l-1.877-.252a1.926,1.926,0,0,0-2.2,1.549,1.745,1.745,0,0,0,.369,1.354l1.137,1.426L32.613,20.6l-1.138-1.425a2.023,2.023,0,0,0-2.718-.365,1.809,1.809,0,0,0-.757,1.2l-.262,1.767-2.562-.344.268-1.765A1.847,1.847,0,0,0,23.8,17.6a2.034,2.034,0,0,0-1.44.347l-1.516,1.069-1.553-1.948L20.8,16a1.755,1.755,0,0,0,.389-2.556,1.968,1.968,0,0,0-1.278-.712l-1.877-.252.366-2.41,1.877.252a1.926,1.926,0,0,0,2.2-1.549,1.745,1.745,0,0,0-.369-1.355L20.968,5.991,23.038,4.53l1.138,1.426a2.023,2.023,0,0,0,2.718.365,1.809,1.809,0,0,0,.757-1.2l.268-1.765,2.562.344-.268,1.765a1.847,1.847,0,0,0,1.647,2.066A2.034,2.034,0,0,0,33.3,7.182l1.516-1.069L36.369,8.06,34.853,9.13a1.755,1.755,0,0,0-.389,2.556,1.968,1.968,0,0,0,1.278.712l1.877.252Z" transform="translate(0 -2.057)"/></g></g><g transform="translate(22.649 5.865)"><path class="a" d="M285.177,76.171a4.878,4.878,0,1,0,5.177,4.869A5.03,5.03,0,0,0,285.177,76.171Zm0,8.521a3.659,3.659,0,1,1,3.883-3.652A3.773,3.773,0,0,1,285.177,84.692Z" transform="translate(-280 -76.171)"/></g><g transform="translate(18.938 27.006)"><rect class="a" width="1.294" height="1.826"/></g><g transform="translate(10.519 7.015)"><path class="a" d="M136.279,105.3a7.173,7.173,0,0,1-4.408-9.46,7.426,7.426,0,0,1,3.1-3.523l-.692-1.03a8.228,8.228,0,0,0-2.836,11.751,8.958,8.958,0,0,0,4.369,3.4,3.9,3.9,0,0,1,2.653,3.627h1.294A5.111,5.111,0,0,0,136.279,105.3Z" transform="translate(-130.044 -91.291)"/></g><g transform="translate(31.88 22.746)"><rect class="a" width="4.53" height="1.217"/></g><g transform="translate(30.819 25.792)"><g transform="translate(0 0)"><path class="a" d="M0,0,1.249.038,1.4,4.969.148,4.931Z" transform="matrix(0.64, -0.768, 0.768, 0.64, 0, 1.073)"/></g></g><g transform="translate(27.997 27.615)"><rect class="a" width="1.294" height="4.26"/></g><g transform="translate(0.661 9.297)"><g transform="translate(0 0)"><path class="a" d="M0,0,5.318.075,5.336,1.3.018,1.221Z" transform="translate(0 1.294) rotate(-14.035)"/></g></g><g transform="translate(1.736 3.235)"><g transform="translate(0 0)"><path class="a" d="M0,0,1.243.036,1.4,5.491.157,5.455Z" transform="matrix(0.581, -0.814, 0.814, 0.581, 0, 1.139)"/></g></g><g transform="translate(7.28 0.038)"><g transform="translate(0 0)"><path class="a" d="M0,0,1.29.018l.076,5.045L.076,5.045Z" transform="matrix(0.969, -0.248, 0.248, 0.969, 0, 0.338)"/></g></g></g></svg>