<svg xmlns="http://www.w3.org/2000/svg" width="13" height="13" viewBox="0 0 13 13"><defs><style>.a{fill:#fbbb00;}.b{fill:#518ef8;}.c{fill:#28b446;}.d{fill:#f14336;}</style></defs><path class="a" d="M2.881,142.613,2.429,144.3l-1.654.035a6.511,6.511,0,0,1-.048-6.07h0l1.472.27L2.845,140a3.879,3.879,0,0,0,.036,2.612Z" transform="translate(0 -134.757)"/><path class="b" d="M267.872,208.176a6.5,6.5,0,0,1-2.317,6.283h0l-1.855-.095-.262-1.639a3.874,3.874,0,0,0,1.667-1.978h-3.476v-2.571h6.244Z" transform="translate(-254.985 -202.89)"/><path class="c" d="M40.3,313.121h0a6.5,6.5,0,0,1-9.795-1.989l2.106-1.724a3.866,3.866,0,0,0,5.571,1.979Z" transform="translate(-29.734 -301.553)"/><path class="d" d="M38.546,1.5,36.44,3.22a3.865,3.865,0,0,0-5.7,2.024L28.624,3.511h0A6.5,6.5,0,0,1,38.546,1.5Z" transform="translate(-27.897)"/></svg>