<svg xmlns="http://www.w3.org/2000/svg" width="45" height="44.999" viewBox="0 0 45 44.999"><defs><style>.a{fill:#3fb777;}.b{fill:#bfd5de;}.c{fill:#dde8ed;}.d{fill:#d3a489;}.e{fill:#f74f4f;}.f{fill:#bf8e75;}.g{fill:#3d4159;}.h{fill:#fff;}.i{fill:#2a2f4f;}.j{fill:#66baed;}.k{fill:#2ba1cf;}.l{fill:#eab599;}.m{fill:#f6caae;}.n{fill:#e8c934;}.o{fill:#ffe152;}.p{fill:#f2f0ec;}.q{fill:#d8d5d0;}.r{fill:#dd3033;}</style></defs><path class="a" d="M45,22.5A22.483,22.483,0,0,1,24.333,44.926Q23.428,45,22.5,45c-.723,0-1.441-.034-2.148-.1a22.332,22.332,0,0,1-7.712-2.168A22.5,22.5,0,1,1,45,22.5Zm0,0" transform="translate(-0.003)"/><path class="b" d="M313.47,263.9v2.817a22.588,22.588,0,0,1-10.944,11.055,22.442,22.442,0,0,1-5.958,1.831l-.015,0V263.9a6.378,6.378,0,0,1,5.858-6.358c.173-.015.346-.021.521-.021h4.155a6.372,6.372,0,0,1,6.382,6.379Zm0,0" transform="translate(-270.49 -234.89)"/><path class="c" d="M347.283,263.9v2.817a22.588,22.588,0,0,1-10.944,11.055,22.32,22.32,0,0,1-2.715,1.061V263.9a6.38,6.38,0,0,1,6.381-6.379h.9a6.38,6.38,0,0,1,6.381,6.379Zm0,0" transform="translate(-304.302 -234.89)"/><path class="d" d="M277.8,155.5a2.116,2.116,0,1,1-1.778-2.09A2.118,2.118,0,0,1,277.8,155.5Zm0,0" transform="translate(-249.522 -139.899)"/><path class="e" d="M376.726,283.711l-1.713,2.747-1.712-2.747" transform="translate(-340.491 -258.776)"/><path class="e" d="M371.172,315.308l-2.3,2.908-2.305-2.908,2.305-8.475Zm0,0" transform="translate(-334.345 -279.865)"/><path class="f" d="M300.371,155.778a2.118,2.118,0,0,1-1.778,2.09,7.916,7.916,0,0,1,0-4.18A2.118,2.118,0,0,1,300.371,155.778Zm0,0" transform="translate(-272.093 -140.18)"/><path class="f" d="M290.557,169.612a.757.757,0,1,1-.757-.757A.757.757,0,0,1,290.557,169.612Zm0,0" transform="translate(-263.639 -154.015)"/><path class="b" d="M353.9,250.714l-2.873,1.6-.874-4.064,1.785-1.051" transform="translate(-319.38 -225.469)"/><path class="b" d="M392.781,250.714l2.872,1.6.874-4.064-1.785-1.051" transform="translate(-358.259 -225.469)"/><path class="d" d="M463.828,155.5a2.115,2.115,0,1,0,1.778-2.09A2.117,2.117,0,0,0,463.828,155.5Zm0,0" transform="translate(-423.062 -139.899)"/><g transform="translate(26.646 6.583)"><path class="f" d="M463.828,155.778a2.117,2.117,0,0,0,1.778,2.09,7.906,7.906,0,0,0,0-4.18A2.117,2.117,0,0,0,463.828,155.778Zm0,0" transform="translate(-449.707 -146.763)"/><path class="f" d="M480.818,169.612a.757.757,0,1,1-.757-.757A.757.757,0,0,1,480.818,169.612Zm0,0" transform="translate(-463.823 -160.598)"/><path class="f" d="M318.92,82.79a7.877,7.877,0,0,1-6.612,7.775,7.787,7.787,0,0,1-1.264.1,7.876,7.876,0,0,1-7.877-7.876c0-2.058.715-5.148,2.007-6.551,1.44-1.562,3.577-1.325,5.869-1.325a7.787,7.787,0,0,1,1.264.1,7.877,7.877,0,0,1,6.612,7.775Zm0,0" transform="translate(-303.167 -74.9)"/><path class="f" d="M371.436,229.555v2.794a2.276,2.276,0,0,1-4.553,0v-2.794Zm0,0" transform="translate(-361.283 -215.962)"/></g><path class="d" d="M385.6,259.328v.177a1.646,1.646,0,1,1-3.188.3q.228.014.459.014a7.88,7.88,0,0,0,2.729-.488Zm0,0" transform="translate(-348.804 -236.536)"/><path class="d" d="M345.158,83.978a7.872,7.872,0,1,1-.039-.786c.026.259.039.521.039.786Zm0,0" transform="translate(-302.759 -69.506)"/><path class="f" d="M370.971,196.833a3.983,3.983,0,0,1-1.92-.5.35.35,0,0,1,.338-.614,3.269,3.269,0,0,0,3.165,0,.35.35,0,0,1,.338.614A3.983,3.983,0,0,1,370.971,196.833Zm0,0" transform="translate(-336.448 -178.481)"/><path class="g" d="M355.154,150.174a.894.894,0,1,1-.893-.893A.893.893,0,0,1,355.154,150.174Zm0,0" transform="translate(-322.309 -136.161)"/><path class="g" d="M413.654,150.174a.893.893,0,1,1-.893-.893A.893.893,0,0,1,413.654,150.174Zm0,0" transform="translate(-375.667 -136.161)"/><path class="h" d="M363.68,153.679a.383.383,0,1,1-.383-.383A.383.383,0,0,1,363.68,153.679Zm0,0" transform="translate(-331.017 -139.824)"/><path class="h" d="M422.68,153.679a.383.383,0,1,1-.383-.383A.383.383,0,0,1,422.68,153.679Zm0,0" transform="translate(-384.832 -139.824)"/><path class="f" d="M380.406,177.044h-1.787a.385.385,0,0,1,0-.771h1.787a.385.385,0,1,1,0,.771Zm0,0" transform="translate(-344.991 -160.781)"/><path class="b" d="M422.289,327.723h3.434v1.051h-3.434Zm0,0" transform="translate(-385.174 -298.92)"/><path class="i" d="M387.539,49.317a4.774,4.774,0,0,1,4.423,4.524l.023.456h1.373l.739,4.916,1.79-.554-.24-4.817a4.774,4.774,0,0,0-4.786-4.537Zm0,0" transform="translate(-353.478 -44.971)"/><path class="g" d="M406.654,27.816a4.865,4.865,0,0,1-6.881,6.881Zm0,0" transform="translate(-364.637 -25.372)"/><path class="g" d="M311.552,54.3H305.58l-.74,4.916-1.79-.554.24-4.817a4.774,4.774,0,0,1,4.786-4.537l8.624.033,1.14,2.052" transform="translate(-276.415 -44.972)"/><path class="i" d="M311.395,49.317a4.775,4.775,0,0,0-4.423,4.524l-.023.456h-1.372l-.74,4.916-1.79-.554.241-4.817a4.774,4.774,0,0,1,4.786-4.537Zm0,0" transform="translate(-276.411 -44.971)"/><path class="g" d="M37.281,270.383v15.284a22.541,22.541,0,0,1-15.8-12.951v-2.333a5.961,5.961,0,0,1,4.416-5.758c.093-.026.186-.049.282-.069a5.82,5.82,0,0,1,.775-.114c.161-.013.323-.02.488-.02H31.32a5.976,5.976,0,0,1,1.264.134l.07.016c.069.015.137.032.2.05l.005,0a5.965,5.965,0,0,1,4.417,5.759Zm0,0" transform="translate(-19.589 -241.182)"/><path class="j" d="M78.563,265.949l-.014.068-1.9,8.842-.3.023c-.139.009-.279.017-.42.024q-.432.021-.867.021t-.889-.021c-.133-.006-.266-.014-.4-.024l-.3-.022-1.9-8.842-.014-.068Zm0,0" transform="translate(-65.273 -242.575)"/><path class="c" d="M96.38,288.895l-1.6,2.567-1.6-2.567" transform="translate(-84.99 -263.504)"/><path class="c" d="M99.31,315.513c-.139.009-1,4.544-1.287,4.544s-1.155-4.535-1.288-4.545l1.288-5.017Zm0,0" transform="translate(-88.232 -283.207)"/><path class="k" d="M75.059,258.066l-2.683,1.491-.816-3.8,1.668-.982" transform="translate(-65.269 -232.386)"/><path class="k" d="M111.379,258.066l2.684,1.491.816-3.8-1.668-.982" transform="translate(-101.59 -232.386)"/><path class="i" d="M107.555,271.07h.851l-3.652,9.453-.719,1.861-.8-1.981.734-2.519,3.462-11.873.02-.066,1.836.6Zm0,0" transform="translate(-94.164 -242.572)"/><path class="i" d="M56.6,280.523l-.719,1.862-.8-1.981-3.757-9.334h.852l-1.736-4.525,1.836-.6.02.066,3.518,11.872Zm0,0" transform="translate(-46.008 -242.572)"/><path class="l" d="M91.441,238.3v2.61a2.127,2.127,0,0,1-4.253,0V238.3Zm0,0" transform="translate(-79.524 -217.353)"/><path class="m" d="M104.674,266.113v.165a2.126,2.126,0,0,1-1.5,2.031,2.126,2.126,0,0,1-1.48-1.754q.213.013.428.013a7.358,7.358,0,0,0,2.55-.455Zm0,0" transform="translate(-92.757 -242.724)"/><path class="m" d="M3.955,169.1a1.978,1.978,0,1,1-1.978-1.978,2.007,2.007,0,0,1,.317.025A1.978,1.978,0,0,1,3.955,169.1Zm0,0" transform="translate(0 -152.437)"/><path class="l" d="M25.044,169.367a1.978,1.978,0,0,1-1.661,1.952,7.389,7.389,0,0,1,0-3.9A1.978,1.978,0,0,1,25.044,169.367Zm0,0" transform="translate(-21.089 -152.7)"/><path class="l" d="M15.875,182.293a.707.707,0,1,1-.707-.707A.707.707,0,0,1,15.875,182.293Zm0,0" transform="translate(-13.19 -165.627)"/><path class="m" d="M177.762,169.1a1.978,1.978,0,1,0,1.978-1.978,2,2,0,0,0-.317.025A1.978,1.978,0,0,0,177.762,169.1Zm0,0" transform="translate(-162.138 -152.437)"/><path class="l" d="M177.762,169.367a1.978,1.978,0,0,0,1.661,1.952,7.4,7.4,0,0,0,0-3.9A1.978,1.978,0,0,0,177.762,169.367Zm0,0" transform="translate(-162.138 -152.7)"/><path class="l" d="M42.377,69.418v2.8A7.359,7.359,0,0,1,36.2,79.483l-.036.006a7.228,7.228,0,0,1-1.145.089A7.359,7.359,0,0,1,27.66,72.22v-2.8a7.355,7.355,0,0,1,7.358-7.359h0a7.353,7.353,0,0,1,7.358,7.359Zm0,0" transform="translate(-25.229 -56.604)"/><path class="l" d="M193.636,182.293a.707.707,0,1,1-.707-.707A.707.707,0,0,1,193.636,182.293Zm0,0" transform="translate(-175.328 -165.627)"/><path class="m" d="M66.16,70.34v2.8a7.359,7.359,0,0,1-6.178,7.263l-.036.006a7.359,7.359,0,0,1-6.212-7.269v-2.8a7.361,7.361,0,0,1,6.213-7.27A7.361,7.361,0,0,1,66.16,70.34Zm0,0" transform="translate(-49.011 -57.527)"/><path class="g" d="M76.228,164.132a.835.835,0,1,1-.835-.835A.835.835,0,0,1,76.228,164.132Zm0,0" transform="translate(-68.006 -148.945)"/><path class="g" d="M130.884,164.132a.835.835,0,1,1-.835-.835A.835.835,0,0,1,130.884,164.132Zm0,0" transform="translate(-117.858 -148.945)"/><path class="h" d="M84.192,167.408a.358.358,0,1,1-.358-.358A.357.357,0,0,1,84.192,167.408Zm0,0" transform="translate(-76.14 -152.369)"/><path class="h" d="M139.317,167.408a.358.358,0,1,1-.358-.358A.358.358,0,0,1,139.317,167.408Zm0,0" transform="translate(-126.42 -152.369)"/><path class="l" d="M99.819,185.509h-1.67a.36.36,0,1,1,0-.72h1.67a.36.36,0,1,1,0,.72Zm0,0" transform="translate(-89.194 -168.548)"/><path class="l" d="M91.006,207.724a3.721,3.721,0,0,1-1.794-.463.327.327,0,0,1,.316-.574,3.056,3.056,0,0,0,2.957,0,.327.327,0,0,1,.315.574,3.721,3.721,0,0,1-1.794.463Zm0,0" transform="translate(-81.216 -188.485)"/><path class="n" d="M42.377,55.373v2.871h-1.37V56l-9.886-1.837L29.03,53.77v4.474H27.66V55.373a5.924,5.924,0,0,1,5.924-5.924h2.87c.078,0,.156,0,.234.005a5.923,5.923,0,0,1,5.69,5.919Zm0,0" transform="translate(-25.229 -45.103)"/><path class="o" d="M78.3,55.427V58.3h-1.37V56.049l-9.886-1.837A5.672,5.672,0,0,1,78.3,55.427Zm0,0" transform="translate(-61.15 -45.157)"/><path class="n" d="M163.223,394.2v1.555a22.605,22.605,0,0,1-14.359,1.606q-.934-.2-1.838-.483a22.379,22.379,0,0,1-3.214-1.272V394.2a7.323,7.323,0,0,1,5.424-7.072c.114-.03.229-.059.345-.083a7.351,7.351,0,0,1,.953-.141c.2-.016.4-.024.6-.024H155.9a7.326,7.326,0,0,1,1.553.164l.085.018c.084.019.169.041.252.064h.006a7.331,7.331,0,0,1,5.426,7.074Zm0,0" transform="translate(-131.173 -352.88)"/><path class="o" d="M196.579,394.2v1.555a22.605,22.605,0,0,1-14.359,1.606q-.934-.2-1.838-.483V394.2a7.323,7.323,0,0,1,5.424-7.073c.114-.03.229-.059.345-.083a7.346,7.346,0,0,1,.953-.141c.2-.016.4-.024.6-.024h1.553a7.326,7.326,0,0,1,1.553.164l.085.018c.084.019.169.041.252.064h.006a7.331,7.331,0,0,1,5.426,7.074Zm0,0" transform="translate(-164.529 -352.88)"/><path class="p" d="M213.911,388.754l-.019.082L211.6,399.512q-.905.073-1.83.073c-.723,0-1.441-.034-2.148-.1l-2.289-10.647-.019-.083Zm0,0" transform="translate(-187.268 -354.586)"/><path class="q" d="M209.615,379.07l-3.3,1.832-1-4.664,2.048-1.206" transform="translate(-187.271 -342.07)"/><path class="q" d="M254.223,379.07l3.3,1.832,1-4.664-2.048-1.206" transform="translate(-231.879 -342.07)"/><path class="e" d="M142.266,150.086V139.045a9.841,9.841,0,1,1,19.682,0v11.041" transform="translate(-129.762 -117.848)"/><path class="r" d="M146.31,139.487c0,3.905,2.287,8.423,3.542,10.609h-7.591V139.056a9.835,9.835,0,0,1,9.769-9.841C149.005,129.291,146.31,134.145,146.31,139.487Zm0,0" transform="translate(-129.758 -117.859)"/><path class="l" d="M229.74,354.793V358a2.612,2.612,0,0,1-5.224,0v-3.205Zm0,0" transform="translate(-204.783 -323.61)"/><path class="m" d="M245.994,388.953v.2a1.889,1.889,0,1,1-3.658.34q.262.016.526.016a9.013,9.013,0,0,0,3.132-.559Zm0,0" transform="translate(-221.037 -354.768)"/><path class="m" d="M122.3,269.816a2.43,2.43,0,0,1-2.04,2.4,2.465,2.465,0,0,1-.389.031,2.429,2.429,0,1,1,0-4.858,2.461,2.461,0,0,1,.389.031A2.429,2.429,0,0,1,122.3,269.816Zm0,0" transform="translate(-107.12 -243.887)"/><path class="l" d="M148.2,270.136a2.43,2.43,0,0,1-2.04,2.4,9.079,9.079,0,0,1,0-4.8A2.429,2.429,0,0,1,148.2,270.136Zm0,0" transform="translate(-133.022 -244.207)"/><path class="l" d="M136.939,286.013a.868.868,0,1,1-.868-.868A.868.868,0,0,1,136.939,286.013Zm0,0" transform="translate(-123.32 -260.084)"/><path class="l" d="M166.684,202.517v8.349a9,9,0,0,1-4.787,2.382l-.044.007a8.9,8.9,0,0,1-1.406.11,9.037,9.037,0,0,1-9.037-9.037v-3.441a9.089,9.089,0,0,1,.093-1.3,5.726,5.726,0,0,0,7.2-.463A5.117,5.117,0,0,0,160.058,197a5.964,5.964,0,0,0,1.865,3.723,6.669,6.669,0,0,0,4.761,1.791Zm0,0" transform="translate(-138.103 -179.689)"/><path class="m" d="M195.893,202.517v8.349a9,9,0,0,1-4.787,2.382l-.044.007a9.038,9.038,0,0,1-7.629-8.927v-3.441c0-.092,0-.182,0-.273a5.663,5.663,0,0,0,4.47-1.488A5.117,5.117,0,0,0,189.267,197a5.965,5.965,0,0,0,1.865,3.723A6.669,6.669,0,0,0,195.893,202.517Zm0,0" transform="translate(-167.311 -179.689)"/><path class="l" d="M278.3,256.075a1.5,1.5,0,1,0-3,0" transform="translate(-251.104 -232.2)"/><path class="l" d="M202.029,256.075a1.5,1.5,0,1,0-3,0" transform="translate(-181.535 -232.2)"/><path class="g" d="M206.488,268.283a1.025,1.025,0,1,1-1.025-1.025A1.025,1.025,0,0,1,206.488,268.283Zm0,0" transform="translate(-186.47 -243.769)"/><path class="g" d="M282.765,268.283a1.025,1.025,0,1,1-1.025-1.025A1.025,1.025,0,0,1,282.765,268.283Zm0,0" transform="translate(-256.042 -243.769)"/><path class="l" d="M240.035,299.111h-2.05a.442.442,0,1,1,0-.884h2.05a.442.442,0,1,1,0,.884Zm0,0" transform="translate(-216.665 -272.015)"/><path class="l" d="M229.211,326.392a4.569,4.569,0,0,1-2.2-.569.4.4,0,1,1,.387-.7,3.751,3.751,0,0,0,3.632,0,.4.4,0,0,1,.387.7A4.565,4.565,0,0,1,229.211,326.392Zm0,0" transform="translate(-206.866 -296.499)"/><path class="h" d="M216.273,272.306a.439.439,0,1,1-.439-.439A.439.439,0,0,1,216.273,272.306Zm0,0" transform="translate(-196.463 -247.973)"/><path class="h" d="M293.12,272.306a.439.439,0,1,1-.439-.439A.439.439,0,0,1,293.12,272.306Zm0,0" transform="translate(-266.556 -247.973)"/><path class="l" d="M300.857,295.649a1.126,1.126,0,1,1-1.126-1.126A1.126,1.126,0,0,1,300.857,295.649Zm0,0" transform="translate(-272.361 -268.638)"/><path class="l" d="M186.5,295.649a1.126,1.126,0,1,1-1.126-1.126A1.126,1.126,0,0,1,186.5,295.649Zm0,0" transform="translate(-168.056 -268.638)"/></svg>