<svg xmlns="http://www.w3.org/2000/svg" width="57.946" height="57.999" viewBox="0 0 57.946 57.999">
  <g id="destination" transform="translate(-0.233)">
    <g id="Group_133" data-name="Group 133" transform="translate(0.233 17.434)">
      <g id="Group_132" data-name="Group 132">
        <path id="Path_189" data-name="Path 189" d="M14.454,153.9A14.237,14.237,0,0,0,.233,168.123c0,4.868,2.316,10.1,6.883,15.558.679.811,1.355,1.562,2,2.247-2.949.8-4.72,2.251-4.72,3.939,0,2.988,5.179,4.6,10.053,4.6s10.053-1.613,10.053-4.6c0-1.687-1.77-3.133-4.717-3.939a46.3,46.3,0,0,0,3.646-4.337.85.85,0,1,0-1.369-1.009,45.665,45.665,0,0,1-4.393,5.075.85.85,0,0,0-.371.368c-1.228,1.207-2.261,2.1-2.848,2.591-.58-.484-1.6-1.368-2.81-2.559a.851.851,0,0,0-.426-.424c-3.852-3.875-9.284-10.569-9.284-17.512a12.52,12.52,0,1,1,25.039,0A19.161,19.161,0,0,1,23.92,177.8a.851.851,0,0,0,1.462.87,20.816,20.816,0,0,0,3.292-10.546A14.237,14.237,0,0,0,14.454,153.9Zm-.521,36.484a.851.851,0,0,0,1.041,0,43.228,43.228,0,0,0,3.42-3.041c2.868.585,4.411,1.711,4.411,2.522,0,.605-.83,1.32-2.166,1.864a16.956,16.956,0,0,1-6.186,1.036c-5.1,0-8.352-1.718-8.352-2.9,0-.812,1.543-1.938,4.413-2.523A43.225,43.225,0,0,0,13.933,190.386Z" transform="translate(-0.233 -153.902)" fill="#fcb300"/>
      </g>
    </g>
    <g id="Group_135" data-name="Group 135" transform="translate(8.271 25.471)">
      <g id="Group_134" data-name="Group 134">
        <path id="Path_190" data-name="Path 190" d="M77.37,224.854a6.132,6.132,0,0,0-3.7,1.228.851.851,0,0,0,1.019,1.362,4.47,4.47,0,1,1-1.628,2.354.85.85,0,1,0-1.635-.469,6.184,6.184,0,1,0,5.944-4.475Z" transform="translate(-71.187 -224.854)" fill="#fcb300"/>
      </g>
    </g>
    <g id="Group_137" data-name="Group 137" transform="translate(35.927 0)">
      <g id="Group_136" data-name="Group 136" transform="translate(0 0)">
        <path id="Path_191" data-name="Path 191" d="M330.918,24.709c.433-.464.878-.965,1.325-1.5,3.541-4.229,5.336-8.295,5.336-12.084A11.128,11.128,0,0,0,316.2,6.8a.85.85,0,1,0,1.566.663,9.427,9.427,0,0,1,18.11,3.668c0,7.028-7.379,13.762-9.426,15.494-.451-.381-1.161-1.005-1.994-1.821a.849.849,0,0,0-.378-.376c-2.937-2.957-7.053-8.039-7.053-13.3a.85.85,0,1,0-1.7,0c0,3.789,1.8,7.855,5.336,12.084.447.534.892,1.034,1.325,1.5-2.192.659-3.458,1.78-3.458,3.13,0,1.139.924,2.142,2.6,2.826a16.067,16.067,0,0,0,10.644,0c1.677-.684,2.6-1.687,2.6-2.826C334.376,26.49,333.109,25.368,330.918,24.709Zm-4.465,5.161c-4.026,0-6.222-1.342-6.222-2.032,0-.449,1-1.271,3.132-1.725a33.233,33.233,0,0,0,2.57,2.28.851.851,0,0,0,1.041,0,33.2,33.2,0,0,0,2.569-2.28,7.8,7.8,0,0,1,2.35.85c.49.3.782.625.782.875C332.675,28.528,330.479,29.87,326.453,29.87Z" transform="translate(-315.327 0)" fill="#fcb300"/>
      </g>
    </g>
    <g id="Group_139" data-name="Group 139" transform="translate(42.104 6.177)">
      <g id="Group_138" data-name="Group 138">
        <path id="Path_192" data-name="Path 192" d="M374.808,54.532a4.949,4.949,0,1,0,4.949,4.949A4.955,4.955,0,0,0,374.808,54.532Zm0,8.2a3.248,3.248,0,1,1,3.248-3.248A3.252,3.252,0,0,1,374.808,62.729Z" transform="translate(-369.859 -54.532)" fill="#fcb300"/>
      </g>
    </g>
    <g id="Group_141" data-name="Group 141" transform="translate(34.049 26.988)">
      <g id="Group_140" data-name="Group 140">
        <path id="Path_193" data-name="Path 193" d="M300.724,238.239h-.388a6.416,6.416,0,0,0-.845.056.851.851,0,1,0,.224,1.686,4.729,4.729,0,0,1,.621-.041h.388a.851.851,0,0,0,0-1.7Z" transform="translate(-298.753 -238.239)" fill="#fcb300"/>
      </g>
    </g>
    <g id="Group_143" data-name="Group 143" transform="translate(31.235 52.505)">
      <g id="Group_142" data-name="Group 142">
        <path id="Path_194" data-name="Path 194" d="M275.885,463.5h0l-1.123.005a.85.85,0,0,0,0,1.7h0l1.123-.005a.851.851,0,0,0,0-1.7Z" transform="translate(-273.911 -463.496)" fill="#fcb300"/>
      </g>
    </g>
    <g id="Group_145" data-name="Group 145" transform="translate(35.056 38.004)">
      <g id="Group_144" data-name="Group 144">
        <path id="Path_195" data-name="Path 195" d="M309.616,335.489h-1.123a.85.85,0,1,0,0,1.7h1.123a.85.85,0,1,0,0-1.7Z" transform="translate(-307.642 -335.489)" fill="#fcb300"/>
      </g>
    </g>
    <g id="Group_147" data-name="Group 147" transform="translate(30.305 28.447)">
      <g id="Group_146" data-name="Group 146">
        <path id="Path_196" data-name="Path 196" d="M267.916,251.394a.851.851,0,0,0-1.2-.048,6.4,6.4,0,0,0-.857.969.851.851,0,1,0,1.382.992,4.7,4.7,0,0,1,.629-.711A.851.851,0,0,0,267.916,251.394Z" transform="translate(-265.698 -251.12)" fill="#fcb300"/>
      </g>
    </g>
    <g id="Group_149" data-name="Group 149" transform="translate(35.729 52.484)">
      <g id="Group_148" data-name="Group 148">
        <path id="Path_197" data-name="Path 197" d="M315.552,463.314h0l-1.123.005a.851.851,0,0,0,0,1.7h0l1.123-.005a.85.85,0,0,0,0-1.7Z" transform="translate(-313.578 -463.314)" fill="#fcb300"/>
      </g>
    </g>
    <g id="Group_151" data-name="Group 151" transform="translate(26.742 52.525)">
      <g id="Group_150" data-name="Group 150">
        <path id="Path_198" data-name="Path 198" d="M236.22,463.675h0l-1.123.005a.851.851,0,0,0,0,1.7h0l1.123-.005a.85.85,0,0,0,0-1.7Z" transform="translate(-234.246 -463.675)" fill="#fcb300"/>
      </g>
    </g>
    <g id="Group_153" data-name="Group 153" transform="translate(30.965 36.467)">
      <g id="Group_152" data-name="Group 152">
        <path id="Path_199" data-name="Path 199" d="M273.71,322.741a4.7,4.7,0,0,1-.747-.585.85.85,0,1,0-1.179,1.226,6.393,6.393,0,0,0,1.018.8.85.85,0,1,0,.908-1.439Z" transform="translate(-271.523 -321.919)" fill="#fcb300"/>
      </g>
    </g>
    <g id="Group_155" data-name="Group 155" transform="translate(29.274 32.439)">
      <g id="Group_154" data-name="Group 154">
        <path id="Path_200" data-name="Path 200" d="M258.384,288.165a4.7,4.7,0,0,1-.086-.9v-.047a.85.85,0,0,0-.841-.86h-.01a.85.85,0,0,0-.85.841v.067a6.4,6.4,0,0,0,.117,1.222.851.851,0,0,0,1.67-.325Z" transform="translate(-256.597 -286.361)" fill="#fcb300"/>
      </g>
    </g>
    <g id="Group_157" data-name="Group 157" transform="translate(39.55 38.004)">
      <g id="Group_156" data-name="Group 156">
        <path id="Path_201" data-name="Path 201" d="M349.283,335.489H348.16a.85.85,0,1,0,0,1.7h1.123a.85.85,0,1,0,0-1.7Z" transform="translate(-347.309 -335.489)" fill="#fcb300"/>
      </g>
    </g>
    <g id="Group_159" data-name="Group 159" transform="translate(52.869 38.928)">
      <g id="Group_158" data-name="Group 158">
        <path id="Path_202" data-name="Path 202" d="M467.2,344.452a8.1,8.1,0,0,0-1.041-.7.85.85,0,1,0-.835,1.482,6.427,6.427,0,0,1,.822.551.851.851,0,0,0,1.054-1.335Z" transform="translate(-464.888 -343.645)" fill="#fcb300"/>
      </g>
    </g>
    <g id="Group_161" data-name="Group 161" transform="translate(49.209 52.359)">
      <g id="Group_160" data-name="Group 160">
        <path id="Path_203" data-name="Path 203" d="M435.388,462.946a.851.851,0,0,0-.959-.726,6.394,6.394,0,0,1-.848.06h-.159a.851.851,0,0,0,0,1.7h.163a8.125,8.125,0,0,0,1.073-.076A.851.851,0,0,0,435.388,462.946Z" transform="translate(-432.575 -462.211)" fill="#fcb300"/>
      </g>
    </g>
    <g id="Group_163" data-name="Group 163" transform="translate(53.439 50.438)">
      <g id="Group_162" data-name="Group 162">
        <path id="Path_204" data-name="Path 204" d="M472.254,445.514a.85.85,0,0,0-1.2-.029,6.427,6.427,0,0,1-.768.626.851.851,0,1,0,.969,1.4,8.131,8.131,0,0,0,.972-.792A.85.85,0,0,0,472.254,445.514Z" transform="translate(-469.918 -445.25)" fill="#fcb300"/>
      </g>
    </g>
    <g id="Group_165" data-name="Group 165" transform="translate(56.129 46.556)">
      <g id="Group_164" data-name="Group 164">
        <path id="Path_205" data-name="Path 205" d="M494.968,411a.851.851,0,0,0-.993.678,6.374,6.374,0,0,1-.258.955.851.851,0,1,0,1.6.571,8.059,8.059,0,0,0,.328-1.211A.851.851,0,0,0,494.968,411Z" transform="translate(-493.667 -410.987)" fill="#fcb300"/>
      </g>
    </g>
    <g id="Group_167" data-name="Group 167" transform="translate(55.874 42.17)">
      <g id="Group_166" data-name="Group 166">
        <path id="Path_206" data-name="Path 206" d="M493.474,373.932a8.033,8.033,0,0,0-.44-1.176.851.851,0,1,0-1.542.719,6.317,6.317,0,0,1,.347.926.85.85,0,1,0,1.635-.469Z" transform="translate(-491.412 -372.265)" fill="#fcb300"/>
      </g>
    </g>
    <g id="Group_169" data-name="Group 169" transform="translate(44.043 38.004)">
      <g id="Group_168" data-name="Group 168">
        <path id="Path_207" data-name="Path 207" d="M388.949,335.489h-1.123a.85.85,0,1,0,0,1.7h1.123a.85.85,0,1,0,0-1.7Z" transform="translate(-386.975 -335.489)" fill="#fcb300"/>
      </g>
    </g>
    <g id="Group_171" data-name="Group 171" transform="translate(40.222 52.464)">
      <g id="Group_170" data-name="Group 170">
        <path id="Path_208" data-name="Path 208" d="M355.217,463.134h0l-1.123.005a.85.85,0,0,0,0,1.7h0l1.123-.005a.851.851,0,0,0,0-1.7Z" transform="translate(-353.243 -463.134)" fill="#fcb300"/>
      </g>
    </g>
    <g id="Group_173" data-name="Group 173" transform="translate(48.536 38.004)">
      <g id="Group_172" data-name="Group 172">
        <path id="Path_209" data-name="Path 209" d="M428.651,335.5c-.12-.005-.242-.008-.362-.008h-.8a.85.85,0,0,0,0,1.7h.8q.144,0,.287.006h.038a.85.85,0,0,0,.037-1.7Z" transform="translate(-426.64 -335.49)" fill="#fcb300"/>
      </g>
    </g>
    <g id="Group_175" data-name="Group 175" transform="translate(44.715 52.443)">
      <g id="Group_174" data-name="Group 174">
        <path id="Path_210" data-name="Path 210" d="M394.882,462.955h0l-1.123.005a.85.85,0,0,0,0,1.7h0l1.123-.005a.851.851,0,0,0,0-1.7Z" transform="translate(-392.908 -462.955)" fill="#fcb300"/>
      </g>
    </g>
  </g>
</svg>
