<svg id="Group_131" data-name="Group 131" xmlns="http://www.w3.org/2000/svg" width="68" height="68" viewBox="0 0 68 68">
  <path id="Path_188" data-name="Path 188" d="M66.867,65.733H24.933V63.467H40.8a1.133,1.133,0,0,0,0-2.267H24.933V58.933H41.367a1.133,1.133,0,0,0,0-2.267H24.933V54.4h17a1.133,1.133,0,1,0,0-2.267h-17V49.867H42.524a1.133,1.133,0,1,0,0-2.267H24.933V45.334H42.524a1.133,1.133,0,1,0,0-2.267H24.933V40.8h17a1.133,1.133,0,1,0,0-2.267h-17V36.267h16.41a1.133,1.133,0,1,0,0-2.267H24.933V31.733H39.052a1.133,1.133,0,1,0,0-2.267H24.933V27.2H36.857a1.133,1.133,0,1,0,0-2.267H24.933V22.667h13.2c3.983,6.183,7.2,13.887,7.2,22.667,0,12.038-2.165,17.66-2.186,17.713a1.134,1.134,0,0,0,2.106.842c.1-.239,2.347-6.013,2.347-18.555a43.68,43.68,0,0,0-6.716-22.667h2.722a42.29,42.29,0,0,1,6.261,22.667c0,11.991-2.148,17.615-2.186,17.714a1.134,1.134,0,0,0,2.106.841c.1-.239,2.347-6.013,2.347-18.555a45.035,45.035,0,0,0-5.851-22.667H51A1.133,1.133,0,0,0,51,20.4H39.444A65.631,65.631,0,0,0,24.933,5.09V1.133a1.133,1.133,0,0,0-2.267,0V20.4h-3.4a1.133,1.133,0,0,0,0,2.267h3.4V65.733H1.133a1.133,1.133,0,0,0,0,2.267H66.867a1.133,1.133,0,0,0,0-2.267ZM24.933,7.979A66.233,66.233,0,0,1,36.594,20.4H24.933Z" fill="#fcb300"/>
</svg>
