<svg xmlns="http://www.w3.org/2000/svg" width="45" height="45" viewBox="0 0 45 45"><defs><style>.a{fill:#ffe152;}.b{fill:#2a2f4f;}.c{fill:#3d4159;}.d{fill:#66baed;}.e{fill:#dde8ed;}.f{fill:#dce6ea;}.g{fill:#2ba1cf;}.h{fill:#f74f4f;}.i{fill:#dd3033;}.j{fill:#f6caae;}.k{fill:#eab599;}.l{fill:#fff;}</style></defs><g transform="translate(0)"><path class="a" d="M45,22.5a22.442,22.442,0,0,1-5.886,15.171q-.7.766-1.466,1.464A22.5,22.5,0,1,1,45,22.5Zm0,0"/><path class="b" d="M376.859,343.136a22.3,22.3,0,0,1-2.289,2.964q-.7.766-1.466,1.464l-5.324-5.324,1.465-1.465,2.626-2.627Zm0,0" transform="translate(-335.456 -308.428)"/><path class="c" d="M392.062,343.136a22.3,22.3,0,0,1-2.289,2.964l-5.325-5.325,2.626-2.627Zm0,0" transform="translate(-350.659 -308.428)"/><path class="d" d="M70.692,22.573A18.491,18.491,0,1,1,52.2,4.082,18.491,18.491,0,0,1,70.692,22.573Zm0,0" transform="translate(-30.747 -3.723)"/><path class="e" d="M112.017,68.3A14.085,14.085,0,1,1,97.932,54.215,14.085,14.085,0,0,1,112.017,68.3Zm0,0" transform="translate(-76.477 -49.45)"/><path class="f" d="M237.64,58.349A14.057,14.057,0,0,0,226.1,54.313a14.084,14.084,0,0,1,0,27.99A14.084,14.084,0,0,0,237.64,58.349Zm0,0" transform="translate(-206.226 -49.459)"/><path class="g" d="M88.475,73.772a15,15,0,1,1,10.609-4.394A14.906,14.906,0,0,1,88.475,73.772Zm0-28.17a13.166,13.166,0,1,0,9.31,3.856,13.081,13.081,0,0,0-9.31-3.856Zm0,0" transform="translate(-67.02 -39.919)"/><path class="h" d="M153.941,110.727v-9.2a8.2,8.2,0,1,1,16.4,0v9.2" transform="translate(-140.411 -85.129)"/><path class="i" d="M157.31,101.9c0,3.253,1.905,7.017,2.951,8.838h-6.324v-9.2a8.193,8.193,0,0,1,8.138-8.2c-2.52.063-4.766,4.106-4.766,8.557Zm0,0" transform="translate(-140.408 -85.136)"/><path class="j" d="M137.313,210.461a2.024,2.024,0,0,1-1.7,2,2.059,2.059,0,0,1-.324.026,2.023,2.023,0,1,1,2.023-2.023Zm0,0" transform="translate(-121.553 -190.118)"/><g transform="translate(13.013 13.167)"><path class="k" d="M158.886,210.732a2.024,2.024,0,0,1-1.7,2,7.555,7.555,0,0,1,0-3.995A2.023,2.023,0,0,1,158.886,210.732Zm0,0" transform="translate(-156.14 -203.556)"/><path class="k" d="M149.505,223.957a.723.723,0,1,1-.723-.723A.723.723,0,0,1,149.505,223.957Zm0,0" transform="translate(-148.059 -216.781)"/><path class="k" d="M174.286,154.4v6.955a7.5,7.5,0,0,1-3.987,1.984l-.037.006a7.393,7.393,0,0,1-1.171.091,7.528,7.528,0,0,1-7.528-7.528v-2.866a7.583,7.583,0,0,1,.077-1.081,4.771,4.771,0,0,0,6-.386,4.262,4.262,0,0,0,1.131-1.767,4.966,4.966,0,0,0,1.554,3.1A5.556,5.556,0,0,0,174.286,154.4Zm0,0" transform="translate(-160.376 -149.812)"/></g><path class="j" d="M198.613,154.4v6.955a7.5,7.5,0,0,1-3.987,1.984l-.037.006a7.529,7.529,0,0,1-6.355-7.437v-2.866c0-.077,0-.152,0-.228a4.719,4.719,0,0,0,3.724-1.239,4.264,4.264,0,0,0,1.131-1.768,4.966,4.966,0,0,0,1.554,3.1A5.556,5.556,0,0,0,198.613,154.4Zm0,0" transform="translate(-171.69 -136.642)"/><path class="k" d="M267.263,199.019a1.25,1.25,0,0,0-2.5,0" transform="translate(-241.491 -180.387)"/><path class="k" d="M203.727,199.019a1.25,1.25,0,0,0-2.5,0" transform="translate(-183.54 -180.387)"/><path class="c" d="M207.442,209.186a.854.854,0,1,1-.854-.854A.854.854,0,0,1,207.442,209.186Zm0,0" transform="translate(-187.652 -190.022)"/><path class="c" d="M270.977,209.186a.854.854,0,1,1-.854-.854A.854.854,0,0,1,270.977,209.186Zm0,0" transform="translate(-245.603 -190.022)"/><path class="k" d="M235.389,234.87h-1.708a.368.368,0,1,1,0-.736h1.708a.368.368,0,1,1,0,.736Zm0,0" transform="translate(-212.806 -213.555)"/><path class="k" d="M226.37,257.592a3.806,3.806,0,0,1-1.835-.474.335.335,0,0,1,.323-.587,3.124,3.124,0,0,0,3.025,0,.335.335,0,0,1,.323.587,3.806,3.806,0,0,1-1.835.474Zm0,0" transform="translate(-204.642 -233.947)"/><path class="l" d="M215.592,212.538a.366.366,0,1,1-.366-.366A.366.366,0,0,1,215.592,212.538Zm0,0" transform="translate(-195.975 -193.524)"/><path class="l" d="M279.6,212.538a.366.366,0,1,1-.366-.366A.366.366,0,0,1,279.6,212.538Zm0,0" transform="translate(-254.36 -193.524)"/><path class="k" d="M286.052,231.985a.938.938,0,1,1-.938-.938A.938.938,0,0,1,286.052,231.985Zm0,0" transform="translate(-259.199 -210.74)"/><path class="k" d="M190.793,231.985a.938.938,0,1,1-.938-.938A.937.937,0,0,1,190.793,231.985Zm0,0" transform="translate(-172.313 -210.74)"/></g></svg>