<svg xmlns="http://www.w3.org/2000/svg" width="13" height="13" viewBox="0 0 13 13"><defs><style>.a{fill:#fff;}</style></defs><path class="a" d="M11.25,0h-9.5A1.752,1.752,0,0,0,0,1.752v9.5A1.752,1.752,0,0,0,1.754,13H6.437l.008-4.646H5.238a.285.285,0,0,1-.285-.284l-.006-1.5a.285.285,0,0,1,.285-.286h1.2V4.841A2.364,2.364,0,0,1,8.961,2.247H10.19a.285.285,0,0,1,.285.285V3.795a.285.285,0,0,1-.285.285H9.436c-.815,0-.972.387-.972.955V6.288h1.79a.285.285,0,0,1,.283.318l-.177,1.5a.285.285,0,0,1-.283.251h-1.6L8.463,13H11.25A1.752,1.752,0,0,0,13,11.248v-9.5A1.752,1.752,0,0,0,11.25,0Z" transform="translate(-0.002)"/></svg>