<svg xmlns="http://www.w3.org/2000/svg" width="45" height="45" viewBox="0 0 45 45"><defs><style>.a{fill:#fff;}.b{fill:#3d4159;}.c{fill:#f74f4f;}.d{fill:#dde8ed;}.e{fill:#dd3033;}.f{fill:#2a2f4f;}.g{fill:#eab599;}.h{fill:#f6caae;}.i{fill:#e8c934;}.j{fill:#ffe152;}.k{fill:#f2f0ec;}.l{fill:#d8d5d0;}.m{fill:#e9e5dc;}</style></defs><path class="a" d="M45,22.5q0,.818-.058,1.621a22.412,22.412,0,0,1-4.8,12.344,22.56,22.56,0,0,1-8.879,6.765,22.308,22.308,0,0,1-3.929,1.25,22.538,22.538,0,0,1-3.465.479Q23.194,45,22.5,45q-.552,0-1.1-.026A22.5,22.5,0,1,1,45,22.5Zm0,0" transform="translate(-0.004)"/><path class="b" d="M37.281,270.383v15.284a22.541,22.541,0,0,1-15.8-12.951v-2.333a5.961,5.961,0,0,1,4.416-5.758c.093-.026.186-.049.282-.069a5.865,5.865,0,0,1,.775-.114c.161-.013.323-.02.488-.02H31.32a5.968,5.968,0,0,1,1.264.134c.024,0,.047.01.07.016.069.015.137.032.2.05l.005,0a5.965,5.965,0,0,1,4.417,5.759Zm0,0" transform="translate(-19.589 -241.181)"/><path class="c" d="M78.563,265.945l-.014.068-1.9,8.842-.3.023c-.139.009-.279.018-.42.024q-.432.02-.867.02t-.889-.021c-.133-.006-.266-.013-.4-.023-.1-.007-.2-.014-.3-.022l-1.9-8.841-.014-.069Zm0,0" transform="translate(-65.273 -242.571)"/><path class="d" d="M96.38,288.895l-1.6,2.566-1.6-2.566" transform="translate(-84.99 -263.504)"/><path class="d" d="M99.31,315.513c-.139.009-1,4.544-1.287,4.544s-1.155-4.535-1.288-4.545l1.288-5.017Zm0,0" transform="translate(-88.232 -283.206)"/><path class="e" d="M75.059,258.066l-2.683,1.491-.816-3.8,1.668-.982" transform="translate(-65.269 -232.385)"/><path class="e" d="M111.379,258.066l2.684,1.491.816-3.8-1.668-.982" transform="translate(-101.59 -232.385)"/><path class="f" d="M107.555,271.07h.851l-3.652,9.453-.719,1.862-.8-1.981.734-2.519,3.462-11.873.02-.066,1.836.6Zm0,0" transform="translate(-94.164 -242.571)"/><path class="f" d="M56.6,280.523l-.719,1.862-.8-1.981-3.757-9.333h.852l-1.736-4.525,1.836-.6.02.066,3.518,11.873Zm0,0" transform="translate(-46.008 -242.571)"/><path class="g" d="M91.441,238.3v2.61a2.127,2.127,0,0,1-4.253,0V238.3Zm0,0" transform="translate(-79.524 -217.353)"/><path class="h" d="M104.674,266.113v.165a2.126,2.126,0,0,1-1.5,2.031,2.126,2.126,0,0,1-1.48-1.754q.213.013.428.013a7.36,7.36,0,0,0,2.55-.455Zm0,0" transform="translate(-92.757 -242.724)"/><path class="h" d="M3.955,169.1a1.978,1.978,0,1,1-1.978-1.978,2.007,2.007,0,0,1,.317.025A1.978,1.978,0,0,1,3.955,169.1Zm0,0" transform="translate(0 -152.436)"/><path class="g" d="M25.044,169.367a1.978,1.978,0,0,1-1.661,1.952,7.389,7.389,0,0,1,0-3.9A1.978,1.978,0,0,1,25.044,169.367Zm0,0" transform="translate(-21.089 -152.7)"/><path class="g" d="M15.875,182.293a.707.707,0,1,1-.707-.707.707.707,0,0,1,.707.707Zm0,0" transform="translate(-13.19 -165.626)"/><path class="h" d="M177.762,169.1a1.978,1.978,0,1,0,1.978-1.978,2,2,0,0,0-.317.025A1.978,1.978,0,0,0,177.762,169.1Zm0,0" transform="translate(-162.138 -152.436)"/><path class="g" d="M177.762,169.367a1.978,1.978,0,0,0,1.661,1.952,7.4,7.4,0,0,0,0-3.9A1.978,1.978,0,0,0,177.762,169.367Zm0,0" transform="translate(-162.138 -152.7)"/><path class="g" d="M42.377,69.418v2.8A7.359,7.359,0,0,1,36.2,79.483l-.036.006a7.228,7.228,0,0,1-1.145.089A7.358,7.358,0,0,1,27.66,72.22v-2.8a7.355,7.355,0,0,1,7.358-7.359h0a7.353,7.353,0,0,1,7.359,7.359Zm0,0" transform="translate(-25.229 -56.604)"/><path class="g" d="M193.636,182.293a.707.707,0,1,1-.707-.707A.707.707,0,0,1,193.636,182.293Zm0,0" transform="translate(-175.328 -165.626)"/><path class="h" d="M66.16,70.34v2.8a7.359,7.359,0,0,1-6.178,7.263l-.036.006a7.359,7.359,0,0,1-6.212-7.269v-2.8a7.36,7.36,0,0,1,6.213-7.27,7.361,7.361,0,0,1,6.212,7.27Zm0,0" transform="translate(-49.011 -57.527)"/><path class="b" d="M76.228,164.132a.835.835,0,1,1-.835-.835A.835.835,0,0,1,76.228,164.132Zm0,0" transform="translate(-68.006 -148.944)"/><path class="b" d="M130.884,164.132a.835.835,0,1,1-.835-.835A.835.835,0,0,1,130.884,164.132Zm0,0" transform="translate(-117.858 -148.944)"/><path class="a" d="M84.192,167.408a.358.358,0,1,1-.358-.357A.358.358,0,0,1,84.192,167.408Zm0,0" transform="translate(-76.14 -152.368)"/><path class="a" d="M139.317,167.408a.358.358,0,1,1-.358-.357A.358.358,0,0,1,139.317,167.408Zm0,0" transform="translate(-126.419 -152.368)"/><path class="g" d="M99.819,185.509h-1.67a.36.36,0,0,1,0-.72h1.67a.36.36,0,0,1,0,.72Zm0,0" transform="translate(-89.194 -168.547)"/><path class="g" d="M91.006,207.723a3.721,3.721,0,0,1-1.794-.463.328.328,0,0,1,.316-.574,3.054,3.054,0,0,0,2.957,0,.327.327,0,0,1,.315.574,3.721,3.721,0,0,1-1.794.463Zm0,0" transform="translate(-81.216 -188.483)"/><path class="i" d="M42.377,55.373v2.87h-1.37V56l-9.886-1.837-2.092-.389v4.474H27.66v-2.87a5.924,5.924,0,0,1,5.924-5.924h2.87c.078,0,.156,0,.234.005a5.923,5.923,0,0,1,5.69,5.919Zm0,0" transform="translate(-25.229 -45.103)"/><path class="j" d="M78.3,55.427V58.3h-1.37V56.049l-9.886-1.837A5.672,5.672,0,0,1,78.3,55.427Zm0,0" transform="translate(-61.15 -45.156)"/><path class="e" d="M287.855,407.689a22.577,22.577,0,0,1-8.879,6.765,22.306,22.306,0,0,1-3.929,1.25,22.53,22.53,0,0,1-3.465.479v-1.3a7.9,7.9,0,0,1,5.847-7.625c.123-.032.247-.063.373-.09a7.885,7.885,0,0,1,1.028-.151q.318-.026.646-.026h5.139a7.921,7.921,0,0,1,1.674.177l.092.02c.091.02.182.043.271.068h.007a7.794,7.794,0,0,1,1.2.427Zm0,0" transform="translate(-247.712 -371.225)"/><path class="c" d="M323.812,407.689A22.5,22.5,0,0,1,311,415.7v-.816a7.9,7.9,0,0,1,5.847-7.625c.123-.032.247-.063.373-.09a7.877,7.877,0,0,1,1.028-.151q.319-.026.645-.026h1.674a7.916,7.916,0,0,1,1.674.177l.092.02c.091.02.182.043.271.068h.007a7.8,7.8,0,0,1,1.2.427Zm0,0" transform="translate(-283.669 -371.225)"/><path class="k" d="M347.16,409.012l-.02.089-.5,2.338a22.526,22.526,0,0,1-7.181,4.854L337.91,409.1l-.019-.09Zm0,0" transform="translate(-308.193 -373.063)"/><path class="l" d="M342.525,398.576l-3.553,1.974-1.081-5.028,2.208-1.3" transform="translate(-308.193 -359.574)"/><path class="l" d="M395.248,395.527l-.522,2.426a22.63,22.63,0,0,1-2.012,1.794l-2.1-1.167,2.427-4.353Zm0,0" transform="translate(-356.282 -359.577)"/><path class="b" d="M291.13,139.809v2.155a22.351,22.351,0,0,1-3.021,9.747h-18.2v-11.9a10.61,10.61,0,0,1,21.22,0Zm0,0" transform="translate(-246.187 -117.843)"/><path class="f" d="M274.274,140.289c0,4.211,2.465,9.081,3.819,11.438H269.91v-11.9a10.6,10.6,0,0,1,10.532-10.609C277.18,129.3,274.274,134.529,274.274,140.289Zm0,0" transform="translate(-246.187 -117.858)"/><path class="g" d="M364.221,372.4v3.456a2.816,2.816,0,0,1-5.632,0V372.4Zm0,0" transform="translate(-327.073 -339.671)"/><path class="h" d="M381.744,409.23v.219a2.036,2.036,0,1,1-3.943.367q.282.017.567.018a9.739,9.739,0,0,0,3.376-.6Zm0,0" transform="translate(-344.595 -373.262)"/><path class="h" d="M248.393,280.791a2.617,2.617,0,1,1-2.2-2.585A2.618,2.618,0,0,1,248.393,280.791Zm0,0" transform="translate(-221.785 -253.723)"/><path class="g" d="M276.316,281.14a2.618,2.618,0,0,1-2.2,2.585,9.788,9.788,0,0,1,0-5.17A2.618,2.618,0,0,1,276.316,281.14Zm0,0" transform="translate(-249.707 -254.072)"/><path class="g" d="M264.173,298.252a.936.936,0,1,1-.936-.936A.936.936,0,0,1,264.173,298.252Zm0,0" transform="translate(-239.247 -271.185)"/><path class="g" d="M296.244,208.24v9a9.706,9.706,0,0,1-5.161,2.567l-.048.008a9.581,9.581,0,0,1-1.516.118,9.743,9.743,0,0,1-9.742-9.743v-3.71a9.79,9.79,0,0,1,.1-1.4,6.174,6.174,0,0,0,7.759-.5A5.521,5.521,0,0,0,289.1,202.3a6.43,6.43,0,0,0,2.011,4.013,7.189,7.189,0,0,0,5.133,1.93Zm0,0" transform="translate(-255.187 -184.516)"/><path class="h" d="M327.73,208.241v9a9.705,9.705,0,0,1-5.161,2.567l-.048.008a9.744,9.744,0,0,1-8.224-9.624v-3.71c0-.1,0-.2.005-.295a6.1,6.1,0,0,0,4.82-1.6,5.514,5.514,0,0,0,1.464-2.288,6.431,6.431,0,0,0,2.011,4.013,7.189,7.189,0,0,0,5.133,1.93Zm0,0" transform="translate(-286.673 -184.517)"/><path class="j" d="M274,228.716l.11-.29c-.037-.033-.074-.065-.11-.1Zm0,0" transform="translate(-249.914 -208.26)"/><path class="g" d="M416.572,265.981a1.618,1.618,0,0,0-3.236,0" transform="translate(-377.007 -241.128)"/><path class="g" d="M334.342,265.981a1.618,1.618,0,1,0-3.236,0" transform="translate(-302.004 -241.128)"/><path class="b" d="M339.152,279.14a1.105,1.105,0,1,1-1.105-1.105A1.105,1.105,0,0,1,339.152,279.14Zm0,0" transform="translate(-307.327 -253.598)"/><path class="b" d="M421.382,279.14a1.105,1.105,0,1,1-1.105-1.105A1.105,1.105,0,0,1,421.382,279.14Zm0,0" transform="translate(-382.33 -253.598)"/><path class="g" d="M375.32,312.376h-2.21a.477.477,0,1,1,0-.953h2.21a.477.477,0,1,1,0,.953Zm0,0" transform="translate(-339.882 -284.051)"/><path class="g" d="M363.649,341.784a4.923,4.923,0,0,1-2.375-.613.433.433,0,0,1,.418-.76,4.044,4.044,0,0,0,3.916,0,.433.433,0,0,1,.417.76A4.923,4.923,0,0,1,363.649,341.784Zm0,0" transform="translate(-329.316 -310.443)"/><path class="a" d="M349.7,283.474a.474.474,0,1,1-.473-.474A.473.473,0,0,1,349.7,283.474Zm0,0" transform="translate(-318.098 -258.127)"/><path class="a" d="M432.545,283.474a.474.474,0,1,1-.474-.474A.474.474,0,0,1,432.545,283.474Zm0,0" transform="translate(-393.664 -258.127)"/><path class="g" d="M440.888,308.643a1.213,1.213,0,1,1-1.213-1.214A1.214,1.214,0,0,1,440.888,308.643Zm0,0" transform="translate(-399.924 -280.409)"/><path class="g" d="M317.607,308.643a1.213,1.213,0,1,1-1.214-1.214A1.214,1.214,0,0,1,317.607,308.643Zm0,0" transform="translate(-287.478 -280.409)"/><path class="m" d="M52.845,345.973l-.4,14.525a21.785,21.785,0,0,1-17.974-11.15v-3.375Zm0,0" transform="translate(-31.443 -315.565)"/><path class="m" d="M227.777,429.846l3.306-5.51-4.821,1.515" transform="translate(-206.375 -387.04)"/><path class="m" d="M221.52,6.551H235.2V16.836H221.52Zm0,0" transform="translate(-202.05 -5.975)"/><path class="m" d="M237.618,114.36l-1.469,3.49,6.429-3.674Zm0,0" transform="translate(-215.393 -104.141)"/><g transform="translate(7.531 4.754)"><path class="b" d="M261.206,55.058a.964.964,0,1,1-.964-.964A.964.964,0,0,1,261.206,55.058Zm0,0" transform="translate(-244.02 -54.094)"/><path class="b" d="M290.323,55.058a.964.964,0,1,1-.964-.964A.964.964,0,0,1,290.323,55.058Zm0,0" transform="translate(-270.578 -54.094)"/><path class="b" d="M319.44,55.058a.964.964,0,1,1-.964-.964A.964.964,0,0,1,319.44,55.058Zm0,0" transform="translate(-297.136 -54.094)"/><path class="b" d="M88.072,416.444a1.194,1.194,0,1,1-1.194-1.194A1.194,1.194,0,0,1,88.072,416.444Zm0,0" transform="translate(-85.684 -383.507)"/><path class="b" d="M124.121,416.444a1.194,1.194,0,1,1-1.194-1.194A1.194,1.194,0,0,1,124.121,416.444Zm0,0" transform="translate(-118.566 -383.507)"/><path class="b" d="M160.169,416.444a1.194,1.194,0,1,1-1.194-1.194A1.194,1.194,0,0,1,160.169,416.444Zm0,0" transform="translate(-151.444 -383.507)"/></g></svg>