<svg xmlns="http://www.w3.org/2000/svg" width="50.001" height="50" viewBox="0 0 50.001 50"><g transform="translate(-0.001)"><g transform="translate(0.001)"><g transform="translate(0)"><path d="M18.045,10.218,17.06,9.37V8.963l.985-.848a.835.835,0,0,0,.272-.8,8.995,8.995,0,0,0-.649-1.934.833.833,0,0,0-.68-.479L15.7,4.783q-.131-.188-.271-.366l.277-1.21a.835.835,0,0,0-.256-.807,9.41,9.41,0,0,0-1.676-1.2.834.834,0,0,0-.825.007l-1.1.641c-.149-.051-.3-.1-.461-.143l-.51-1.2A.834.834,0,0,0,10.111,0H8.225a.833.833,0,0,0-.767.506l-.51,1.2c-.159.044-.312.092-.461.143l-1.1-.641A.838.838,0,0,0,4.558,1.2,9.442,9.442,0,0,0,2.882,2.4a.833.833,0,0,0-.256.807L2.9,4.416c-.093.119-.184.242-.271.367L1.348,4.9a.833.833,0,0,0-.68.479A8.987,8.987,0,0,0,.019,7.314a.834.834,0,0,0,.272.8l.985.848V9.37l-.985.848a.835.835,0,0,0-.272.8,8.995,8.995,0,0,0,.649,1.934.833.833,0,0,0,.68.479l1.284.117q.131.188.271.366l-.277,1.21a.833.833,0,0,0,.256.807,9.335,9.335,0,0,0,1.676,1.2.831.831,0,0,0,.824-.007l1.105-.64c.149.051.3.1.461.143l.51,1.2a.834.834,0,0,0,.767.506h1.886a.833.833,0,0,0,.767-.506l.51-1.2c.159-.044.312-.092.461-.143l1.1.641a.836.836,0,0,0,.9-.043l1.527-1.093a.834.834,0,0,0,.327-.864l-.277-1.209c.093-.119.184-.242.271-.367l1.284-.117a.833.833,0,0,0,.68-.479,8.993,8.993,0,0,0,.649-1.934A.835.835,0,0,0,18.045,10.218Zm-2.363.165.887.763q-.1.336-.228.672l-1.19.108a.835.835,0,0,0-.633.392,6.107,6.107,0,0,1-.614.831.833.833,0,0,0-.188.738l.245,1.07-.638.457-.982-.57A.838.838,0,0,0,11.6,14.8a6.216,6.216,0,0,1-1.006.314.833.833,0,0,0-.581.486l-.456,1.07H8.775L8.319,15.6a.83.83,0,0,0-.581-.486A6.24,6.24,0,0,1,6.731,14.8a.832.832,0,0,0-.737.049l-1.023.593q-.312-.2-.607-.434l.256-1.116a.834.834,0,0,0-.187-.737,6.128,6.128,0,0,1-.615-.832.835.835,0,0,0-.633-.392l-1.19-.108q-.132-.337-.228-.672l.887-.763a.835.835,0,0,0,.289-.631V8.582a.835.835,0,0,0-.289-.632l-.887-.764q.1-.335.228-.671l1.19-.108a.835.835,0,0,0,.633-.392,6.107,6.107,0,0,1,.614-.831.833.833,0,0,0,.188-.738L4.364,3.329q.295-.233.608-.435l1.022.593a.841.841,0,0,0,.738.049,6.216,6.216,0,0,1,1.006-.314.833.833,0,0,0,.581-.486l.456-1.07h.785l.456,1.07a.83.83,0,0,0,.581.486,6.229,6.229,0,0,1,1.006.314.836.836,0,0,0,.738-.049l1.022-.593q.312.2.608.435l-.256,1.116a.834.834,0,0,0,.187.737,6.128,6.128,0,0,1,.615.832.835.835,0,0,0,.633.392l1.19.108q.133.337.228.672l-.887.763a.835.835,0,0,0-.289.631v1.17A.835.835,0,0,0,15.683,10.383Z" transform="translate(-0.001)" fill="#404040"/></g></g><g transform="translate(5.001 5)"><path d="M52.169,48a4.167,4.167,0,1,0,4.167,4.167A4.167,4.167,0,0,0,52.169,48Zm0,6.667a2.5,2.5,0,1,1,2.5-2.5A2.5,2.5,0,0,1,52.169,54.667Z" transform="translate(-48.002 -48)" fill="#404040"/></g><g transform="translate(1.668 41.667)"><path d="M23.5,400H16.835a.833.833,0,0,0-.833.833h0V407.5a.833.833,0,0,0,.833.833H23.5a.833.833,0,0,0,.833-.833h0v-6.667A.833.833,0,0,0,23.5,400Zm-.834,6.667h-5v-5h5Z" transform="translate(-16.002 -400)" fill="#404040"/></g><g transform="translate(14.168 39.167)"><path d="M143.5,376h-6.667a.833.833,0,0,0-.833.833h0V386a.833.833,0,0,0,.833.833H143.5a.833.833,0,0,0,.833-.833h0v-9.167A.833.833,0,0,0,143.5,376Zm-.834,9.167h-5v-7.5h5Z" transform="translate(-136.002 -376)" fill="#404040"/></g><g transform="translate(26.668 35.833)"><path d="M263.5,344h-6.667a.833.833,0,0,0-.833.833h0v12.5a.833.833,0,0,0,.833.833H263.5a.833.833,0,0,0,.833-.833h0v-12.5A.833.833,0,0,0,263.5,344Zm-.834,12.5h-5V345.667h5Z" transform="translate(-256.002 -344)" fill="#404040"/></g><g transform="translate(39.168 28.333)"><path d="M383.5,272h-6.667a.833.833,0,0,0-.833.833h0v20a.833.833,0,0,0,.833.833H383.5a.833.833,0,0,0,.833-.833h0v-20A.833.833,0,0,0,383.5,272Zm-.834,20h-5V273.667h5Z" transform="translate(-376.002 -272)" fill="#404040"/></g><g transform="translate(1.211 16.698)"><path d="M38.979,161.976l-.015,0-5.833-1.667-.458,1.6,4.084,1.167-25.146,16.5.915,1.393,24.733-16.231-1.371,4.456,1.593.49,2.051-6.667A.834.834,0,0,0,38.979,161.976Z" transform="translate(-11.611 -160.305)" fill="#404040"/></g><g transform="translate(32.501 3.333)"><path d="M325.084,36.692a.833.833,0,0,0-.456-.227l-3.591-.549-1.614-3.437a.833.833,0,0,0-1.509,0L316.3,35.915l-3.591.549a.833.833,0,0,0-.471,1.405l2.623,2.688-.621,3.806a.833.833,0,0,0,1.225.863l3.2-1.77,3.2,1.77a.833.833,0,0,0,1.226-.863l-.621-3.806L325.1,37.87A.833.833,0,0,0,325.084,36.692Zm-4.1,3a.832.832,0,0,0-.226.716l.412,2.528-2.1-1.163a.833.833,0,0,0-.806,0l-2.1,1.163.412-2.528a.832.832,0,0,0-.226-.716l-1.784-1.829,2.427-.371a.832.832,0,0,0,.629-.47l1.048-2.233,1.048,2.233a.832.832,0,0,0,.629.47l2.428.371Z" transform="translate(-312.002 -31.998)" fill="#fcb300"/></g><g transform="translate(37.299 19.862)"><path d="M361.526,190.672a9.15,9.15,0,0,1-1.587.138h-.013a9.182,9.182,0,0,1-1.583-.137l-.286,1.642a16.612,16.612,0,0,0,1.883.161,10.8,10.8,0,0,0,1.876-.164Z" transform="translate(-358.057 -190.672)" fill="#fcb300"/></g><g transform="translate(40.733 0.157)"><path d="M391.308,1.508l-.282,1.642a9.087,9.087,0,0,1,2.992,1.078l.829-1.445A10.729,10.729,0,0,0,391.308,1.508Z" transform="translate(-391.026 -1.508)" fill="#fcb300"/></g><g transform="translate(33.725 0.167)"><path d="M327.284,1.6a10.762,10.762,0,0,0-3.531,1.3l.839,1.44a9.1,9.1,0,0,1,2.986-1.1Z" transform="translate(-323.753 -1.602)" fill="#fcb300"/></g><g transform="translate(43.755 16.722)"><path d="M422.479,160.531a9.2,9.2,0,0,1-2.437,2.048l.836,1.442a10.848,10.848,0,0,0,2.878-2.418Z" transform="translate(-420.042 -160.531)" fill="#fcb300"/></g><g transform="translate(47.785 10.802)"><path d="M460.573,103.7l-1.3.031a9.143,9.143,0,0,1-.55,3.136l1.567.57a10.837,10.837,0,0,0,.649-3.73Z" transform="translate(-458.725 -103.703)" fill="#fcb300"/></g><g transform="translate(46.17 3.841)"><path d="M444.5,36.875l-1.272,1.076a9.128,9.128,0,0,1,1.6,2.748l1.564-.576A10.779,10.779,0,0,0,444.5,36.875Z" transform="translate(-443.225 -36.875)" fill="#fcb300"/></g><g transform="translate(28.978 3.888)"><path d="M280.049,37.328a10.8,10.8,0,0,0-1.875,3.261l1.567.566a9.128,9.128,0,0,1,1.587-2.758Z" transform="translate(-278.174 -37.328)" fill="#fcb300"/></g><g transform="translate(30.879 16.735)"><path d="M297.706,160.656l-1.274,1.074a10.85,10.85,0,0,0,2.882,2.414l.833-1.444A9.185,9.185,0,0,1,297.706,160.656Z" transform="translate(-296.432 -160.656)" fill="#fcb300"/></g><g transform="translate(28.335 10.852)"><path d="M273.673,104.18l-1.667,0a10.788,10.788,0,0,0,.657,3.7l1.565-.573A9.132,9.132,0,0,1,273.673,104.18Z" transform="translate(-272.006 -104.18)" fill="#fcb300"/></g></g></svg>