<svg xmlns="http://www.w3.org/2000/svg" width="45.796" height="50" viewBox="0 0 45.796 50"><g transform="translate(-16.005)"><g transform="translate(16.005 35.288)"><g transform="translate(0)"><path d="M54.728,268.65h-5.89a7.037,7.037,0,0,0-3.473.914,7.162,7.162,0,0,0-2.286,2.054,7.058,7.058,0,0,0-1.219-.105h-5.9a7.043,7.043,0,0,0-1.219.105,7.157,7.157,0,0,0-2.286-2.054,7.037,7.037,0,0,0-3.473-.914H23.1a7.109,7.109,0,0,0-7.093,7.093v4a.762.762,0,0,0,.762.757H28.851v2.1a.762.762,0,0,0,.762.762H48.192a.762.762,0,0,0,.762-.762v-2.1H61.039a.762.762,0,0,0,.762-.762v-3.993A7.109,7.109,0,0,0,54.728,268.65Zm-25.8,9.274v1.051h-11.4v-3.231a5.585,5.585,0,0,1,5.569-5.569h5.89a5.517,5.517,0,0,1,2.722.715,5.659,5.659,0,0,1,1.476,1.2A7.13,7.13,0,0,0,28.93,277.924Zm18.484.683v3.237H30.4v-4.429l.032-.126.053-.189.037-.126a5.6,5.6,0,0,1,5.3-3.846l.152-.084h5.9a5.59,5.59,0,0,1,5.522,4.86,1.293,1.293,0,0,0,.032.347Q47.414,278.428,47.414,278.607Zm12.883.373H48.949v-2.207l-.037-.131v-.257l-.074-.2a7.151,7.151,0,0,0-3.867-4.051,5.659,5.659,0,0,1,1.14-1.24,5.517,5.517,0,0,1,2.722-.715h5.9a5.585,5.585,0,0,1,5.569,5.569Z" transform="translate(-16.005 -268.65)" fill="#404040"/></g></g><g transform="translate(38.083 9.364)"><g transform="translate(0)"><circle cx="0.862" cy="0.862" r="0.862" fill="#fcb300"/></g></g><g transform="translate(20.671 23.272)"><g transform="translate(0)"><path d="M60.692,178.746a5.364,5.364,0,1,0,1.566,3.793A5.344,5.344,0,0,0,60.692,178.746Zm-1.077,6.5a3.841,3.841,0,1,1,1.124-2.716A3.841,3.841,0,0,1,59.615,185.246Z" transform="translate(-51.529 -177.17)" fill="#404040"/></g></g><g transform="translate(43.652 9.364)"><g transform="translate(0)"><circle cx="0.862" cy="0.862" r="0.862" fill="#fcb300"/></g></g><g transform="translate(26.13 0)"><g transform="translate(0 0)"><path d="M114.843,2.986a14.985,14.985,0,0,0-17.948,0,9.494,9.494,0,0,0-3.809,7.393,8.732,8.732,0,0,0,1.088,4.2,10.614,10.614,0,0,0,2.674,3.153l-.6,4.019a.757.757,0,0,0,1.13.767l4.109-2.4a15.016,15.016,0,0,0,1.986.447,15.77,15.77,0,0,0,2.406.184,14.4,14.4,0,0,0,8.974-2.984,9.512,9.512,0,0,0,3.8-7.393A9.494,9.494,0,0,0,114.843,2.986ZM113.9,16.594a12.878,12.878,0,0,1-8.028,2.627,14.252,14.252,0,0,1-2.17-.163,13.5,13.5,0,0,1-2.1-.489.757.757,0,0,0-.609.068l-3,1.771.436-2.89a.762.762,0,0,0-.31-.73,9.222,9.222,0,0,1-2.627-2.942,7.22,7.22,0,0,1-.893-3.468,8,8,0,0,1,3.231-6.21,13.581,13.581,0,0,1,16.057,0,7.969,7.969,0,0,1,3.231,6.21A8,8,0,0,1,113.9,16.594Z" transform="translate(-93.085 0)" fill="#fcb300"/></g></g><g transform="translate(46.421 23.267)"><g transform="translate(0)"><path d="M252.931,177.13a5.365,5.365,0,1,0,5.36,5.369A5.364,5.364,0,0,0,252.931,177.13Zm2.712,8.079a3.841,3.841,0,1,1,0-5.432A3.841,3.841,0,0,1,255.643,185.209Z" transform="translate(-247.562 -177.13)" fill="#404040"/></g></g><g transform="translate(32.514 9.364)"><circle cx="0.862" cy="0.862" r="0.862" fill="#fcb300"/></g><g transform="translate(33.557 26.13)"><path d="M158.767,200.493a5.359,5.359,0,1,0,.013,7.579A5.359,5.359,0,0,0,158.767,200.493Zm-3.787,7.646a3.841,3.841,0,1,1,3.842-3.84A3.841,3.841,0,0,1,154.98,208.14Z" transform="translate(-149.625 -198.93)" fill="#404040"/></g></g></svg>