<svg xmlns="http://www.w3.org/2000/svg" width="54" height="53.952" viewBox="0 0 54 53.952"><defs><style>.a{opacity:0.12;}</style></defs><g class="a" transform="translate(0.048 -0.22)"><path d="M53.862,25.17a.867.867,0,0,0,.053-.263.9.9,0,0,0-.045-.28l-.07-.2A26.947,26.947,0,0,0,43.989,6.289c-.4-.323-.811-.615-1.225-.914-.021-.017-.032-.041-.054-.058s-.04-.015-.059-.026A27.08,27.08,0,0,0,26.923.221c-.232,0-.466,0-.64.018a26.4,26.4,0,0,0-8.8,1.694A8.1,8.1,0,0,0,4.4,8.33a8.558,8.558,0,0,0,.707,2.987A27.086,27.086,0,0,0,2.687,15.3c-.014.022-.022.045-.033.067A27.029,27.029,0,0,0,50.718,40.076a26.609,26.609,0,0,0,3.2-11.505c.028-.435.038-.878.038-1.321,0-.7-.036-1.39-.09-2.08Zm-2.618-4.624c-.114-.1-.22-.219-.34-.313a11.874,11.874,0,0,0-3.934-1.965,8.468,8.468,0,0,0-3.951-.041,7.789,7.789,0,0,1-3.365.017C37.5,17.774,35.8,17.4,34.9,15.962c-1.293-2.072-.687-4.985.677-6.01a2.056,2.056,0,0,1,1.541-.329,5.759,5.759,0,0,0,2.793-.47A7.239,7.239,0,0,0,42.34,7.3c.17.132.35.25.517.386a25.192,25.192,0,0,1,8.386,12.861ZM12.508,2.023A6.317,6.317,0,0,1,18.814,8.33c0,2.695-4.048,8.865-6.307,11.993A56.621,56.621,0,0,1,6.95,11.087,7.51,7.51,0,0,1,6.2,8.33a6.314,6.314,0,0,1,6.307-6.307ZM1.7,27.25a25.511,25.511,0,0,1,.505-5c.1,1.252.26,2.367.406,3.333.558,3.694,1.086,7.176,3.808,10.361,1.139,1.342,3.045,3.585,5.993,3.917s6.639-1.364,7.706-1.892l.409-.206a3.963,3.963,0,0,1,1.882-.6,4.444,4.444,0,0,1,2.948,1.505c1.538,1.7,1.928,4.544.835,6.082a2.767,2.767,0,0,1-1.384.962,4.209,4.209,0,0,0-2.259,1.8,5.564,5.564,0,0,0-.389,4.5A25.266,25.266,0,0,1,1.7,27.25ZM26.923,52.477a25.412,25.412,0,0,1-2.607-.134,3.19,3.19,0,0,1-.205-.3,3.834,3.834,0,0,1-.017-3.614,2.486,2.486,0,0,1,1.415-1.064,4.489,4.489,0,0,0,2.149-1.578c1.567-2.2,1.124-6.021-.964-8.33a6.187,6.187,0,0,0-4.268-2.1h-.04a5.46,5.46,0,0,0-2.684.8l-.384.194c-1.969.97-4.77,1.93-6.708,1.712-2.237-.25-3.791-2.081-4.822-3.294-2.39-2.793-2.857-5.884-3.4-9.46a25.906,25.906,0,0,1-.069-9.267,25.27,25.27,0,0,1,1.633-2.829c.03.06.063.121.09.18.058.114.117.228.18.342l.271.512q.093.173.189.347.143.257.289.513c.065.113.13.227.2.341q.15.257.3.512c.066.112.132.223.2.333.106.18.214.348.321.522.061.1.121.2.18.3.133.214.266.421.4.631.035.054.07.111.1.164q.247.383.489.748c.061.09.121.18.18.271.1.149.2.3.294.439l.214.313c.077.114.156.229.231.338l.216.311c.067.1.134.191.2.282s.136.194.2.287l.165.232.18.249.147.2.143.2.117.158.11.15.066.09.159.213a.9.9,0,0,0,1.441,0c.756-1,7.39-9.9,7.39-14.06,0-.263-.016-.524-.041-.784-.008-.08-.021-.16-.031-.24-.023-.18-.051-.361-.09-.541-.017-.09-.036-.175-.056-.261q-.063-.271-.145-.541c-.022-.072-.041-.145-.065-.216-.081-.242-.172-.48-.275-.713-.02-.044-.044-.09-.064-.131-.09-.187-.18-.373-.284-.554-.045-.081-.095-.159-.143-.239q-.13-.213-.271-.42c-.056-.08-.113-.16-.171-.239-.031-.04-.057-.082-.09-.121a24.6,24.6,0,0,1,5.79-1.2,10.39,10.39,0,0,0-1.339,7.3A9.394,9.394,0,0,0,25.5,13.371c.848,1.05,1.457,1.806,1.42,3.042-.077,2.613-3.028,4.788-4.145,5.609a15.515,15.515,0,0,1-4.838,2.337c-1.637.535-3.048,1-3.588,2.607a5.136,5.136,0,0,0,2.182,5.555,4.551,4.551,0,0,0,3.59.317,11.082,11.082,0,0,1,3.976-.19c1.712.242,3.188.45,3.888,1.431a3.238,3.238,0,0,1,.313,2.3,10.916,10.916,0,0,0,.467,4.669c.411,1.233,1.032,3.094,2.523,3.309a1.865,1.865,0,0,0,.293.023c1.055,0,1.7-.932,2.38-1.912.3-.433.631-.9,1.027-1.37,1.854,3,3.738,5.5,3.826,5.615a.9.9,0,0,0,1.442,0A74.9,74.9,0,0,0,45.591,38.5a11.839,11.839,0,0,1,3.129,1.426,25.186,25.186,0,0,1-21.8,12.548ZM43.739,27.959a6.291,6.291,0,0,1,2.1,4.7c0,.648-.263,1.933-1.512,4.372a67.153,67.153,0,0,1-4.794,7.617c-.848-1.181-2.307-3.278-3.612-5.481a33.313,33.313,0,0,1-1.946-3.751,7.51,7.51,0,0,1-.749-2.757,6.314,6.314,0,0,1,6.307-6.307q.292,0,.58.026a6.251,6.251,0,0,1,3.623,1.584Zm8.379.519a24.821,24.821,0,0,1-2.537,9.861,13.7,13.7,0,0,0-3.164-1.474,10.674,10.674,0,0,0,1.228-4.209,8.143,8.143,0,0,0-4.538-7.282l-.057-.025c-.2-.1-.406-.188-.615-.27-.143-.056-.292-.1-.439-.146-.09-.027-.171-.061-.259-.09-.232-.066-.469-.12-.706-.164h-.012c-.144-.027-.29-.041-.436-.06a8.052,8.052,0,0,0-9.156,8.037,9.276,9.276,0,0,0,.892,3.463,33.239,33.239,0,0,0,1.706,3.356,16.607,16.607,0,0,0-1.543,1.968,4.69,4.69,0,0,1-.927,1.135c-.18-.027-.514-.412-1.081-2.1a9.243,9.243,0,0,1-.379-3.969,4.819,4.819,0,0,0-.643-3.477c-1.15-1.609-3.159-1.892-5.113-2.169a12.694,12.694,0,0,0-4.557.2c-1.153.22-1.688.3-2.3-.079a3.415,3.415,0,0,1-1.424-3.453c.241-.721.962-.981,2.433-1.464a17.3,17.3,0,0,0,5.353-2.6c1.313-.963,4.775-3.519,4.88-7a6.058,6.058,0,0,0-1.819-4.222A7.792,7.792,0,0,1,25.1,9.023c-.479-2.007.114-4.361,1.723-7h.1A25.287,25.287,0,0,1,40.865,6.238a5.413,5.413,0,0,1-1.7,1.271,4.034,4.034,0,0,1-2,.312,3.779,3.779,0,0,0-2.678.688c-2.043,1.538-2.958,5.46-1.122,8.405,1.307,2.087,3.54,2.574,5.978,3.105A9.433,9.433,0,0,0,43.325,20a6.8,6.8,0,0,1,3.2.01,10.038,10.038,0,0,1,3.271,1.637,7.378,7.378,0,0,1,2.237,3.195c.074.8.12,1.594.12,2.4,0,.4-.008.811-.035,1.228Zm0,0" transform="translate(0 0)"/><path d="M83.042,39.438a3.6,3.6,0,1,0-3.6-3.6A3.6,3.6,0,0,0,83.042,39.438Zm0-5.406a1.8,1.8,0,1,1-1.8,1.8A1.8,1.8,0,0,1,83.042,34.032Zm0,0" transform="translate(-70.534 -28.406)"/><path d="M319.438,251.834a3.6,3.6,0,1,0,3.6-3.6A3.6,3.6,0,0,0,319.438,251.834Zm5.406,0a1.8,1.8,0,1,1-1.8-1.8A1.8,1.8,0,0,1,324.844,251.834Zm0,0" transform="translate(-283.505 -220.079)"/></g></svg>