<svg xmlns="http://www.w3.org/2000/svg" width="46.486" height="46.445" viewBox="0 0 46.486 46.445">
  <g id="Group_777" data-name="Group 777" transform="translate(-215 -2681)">
    <path id="Subtraction_1" data-name="Subtraction 1" d="M11683.947-9269.8h0c-.046-.053-4.621-5.281-5.775-10.567-.382-.478,0-2.494,0-2.515a12.494,12.494,0,0,1,1.569-2.06,5.735,5.735,0,0,1,3.844-2.06,3.381,3.381,0,0,1,1.2.224,10.169,10.169,0,0,1,4.128,2.345c.953,1.1,1.228,2.605.863,4.74-.767,4.5-5.779,9.839-5.829,9.893Zm.152-14.03a2,2,0,0,0-2,2,2,2,0,0,0,2,2,2,2,0,0,0,2-2A2,2,0,0,0,11684.1-9283.827Z" transform="translate(-11435.099 11989.828)" fill="#fcb300"/>
    <path id="Subtraction_2" data-name="Subtraction 2" d="M11683.947-9269.8h0c-.046-.053-4.621-5.281-5.775-10.567-.382-.478,0-2.494,0-2.515a12.494,12.494,0,0,1,1.569-2.06,5.735,5.735,0,0,1,3.844-2.06,3.381,3.381,0,0,1,1.2.224,10.169,10.169,0,0,1,4.128,2.345c.953,1.1,1.228,2.605.863,4.74-.767,4.5-5.779,9.839-5.829,9.893Zm.152-14.03a2,2,0,0,0-2,2,2,2,0,0,0,2,2,2,2,0,0,0,2-2A2,2,0,0,0,11684.1-9283.827Z" transform="translate(-11458.099 11968.828)" fill="#fcb300"/>
    <g id="location_3_" data-name="location (3)" transform="translate(215.048 2680.78)">
      <path id="Path_3583" data-name="Path 3583" d="M46.361,21.7a.746.746,0,0,0,.046-.226.776.776,0,0,0-.039-.241l-.06-.169A23.2,23.2,0,0,0,37.862,5.445c-.341-.278-.7-.529-1.055-.787-.018-.015-.027-.036-.047-.05s-.035-.012-.051-.023A23.312,23.312,0,0,0,23.17.221c-.2,0-.4,0-.551.016A22.727,22.727,0,0,0,15.04,1.694,6.972,6.972,0,0,0,3.78,7.2a7.367,7.367,0,0,0,.609,2.571A23.317,23.317,0,0,0,2.307,13.2c-.012.019-.019.039-.029.058A23.268,23.268,0,0,0,43.654,34.531a22.906,22.906,0,0,0,2.752-9.9c.024-.374.033-.756.033-1.137,0-.6-.031-1.2-.078-1.79Zm-2.254-3.98c-.1-.087-.189-.189-.292-.269a10.221,10.221,0,0,0-3.386-1.691,7.29,7.29,0,0,0-3.4-.036,6.705,6.705,0,0,1-2.9.014c-1.854-.4-3.319-.724-4.1-1.965-1.113-1.784-.591-4.292.583-5.174a1.77,1.77,0,0,1,1.327-.283,4.958,4.958,0,0,0,2.4-.4,6.232,6.232,0,0,0,2.094-1.595c.147.113.3.215.445.332a21.687,21.687,0,0,1,7.219,11.072ZM10.761,1.772A5.438,5.438,0,0,1,16.19,7.2c0,2.32-3.485,7.631-5.429,10.324A48.743,48.743,0,0,1,5.976,9.575,6.465,6.465,0,0,1,5.331,7.2a5.435,5.435,0,0,1,5.429-5.429ZM1.453,23.489a21.961,21.961,0,0,1,.435-4.3c.083,1.078.223,2.037.349,2.87.481,3.18.935,6.178,3.279,8.919.98,1.155,2.621,3.086,5.159,3.372s5.716-1.174,6.634-1.629l.352-.178a3.411,3.411,0,0,1,1.621-.519,3.826,3.826,0,0,1,2.538,1.3c1.324,1.465,1.66,3.912.719,5.235a2.382,2.382,0,0,1-1.191.828A3.623,3.623,0,0,0,19.4,40.931a4.79,4.79,0,0,0-.335,3.878A21.751,21.751,0,0,1,1.453,23.489ZM23.17,45.206a21.877,21.877,0,0,1-2.244-.116,2.747,2.747,0,0,1-.177-.254,3.3,3.3,0,0,1-.015-3.112,2.14,2.14,0,0,1,1.218-.916A3.865,3.865,0,0,0,23.8,39.45c1.349-1.9.967-5.183-.83-7.171A5.326,5.326,0,0,0,19.3,30.469h-.034a4.7,4.7,0,0,0-2.311.688l-.331.167A12.19,12.19,0,0,1,10.848,32.8c-1.926-.215-3.264-1.792-4.151-2.835-2.057-2.4-2.46-5.065-2.925-8.144a22.3,22.3,0,0,1-.059-7.977,21.754,21.754,0,0,1,1.405-2.436c.026.052.054.1.078.155.05.1.1.2.155.295l.233.441q.08.149.163.3.123.221.249.442c.056.1.112.2.169.294q.13.221.26.44c.057.1.114.192.172.287.092.155.184.3.276.45.053.085.1.171.155.254.115.184.229.362.343.543l.09.141q.213.33.421.644c.053.078.1.155.155.233.085.128.17.256.253.378l.184.269c.067.1.134.2.2.291l.186.267c.058.083.115.165.17.243s.117.167.175.247l.142.2.155.214.126.175.123.17.1.136.095.129.056.078.137.184a.775.775,0,0,0,1.241,0c.651-.863,6.362-8.519,6.362-12.1,0-.226-.014-.451-.036-.675-.007-.069-.018-.138-.027-.207-.02-.155-.044-.311-.077-.465-.015-.078-.031-.15-.048-.225q-.054-.233-.125-.465c-.019-.062-.036-.125-.056-.186-.07-.208-.148-.414-.237-.614-.017-.038-.037-.078-.055-.112-.078-.161-.155-.321-.244-.477-.039-.07-.081-.137-.123-.206q-.112-.183-.233-.361c-.048-.069-.1-.138-.147-.206-.027-.034-.049-.07-.078-.1a21.181,21.181,0,0,1,4.984-1.033,8.945,8.945,0,0,0-1.153,6.282,8.087,8.087,0,0,0,1.862,3.393,3.8,3.8,0,0,1,1.222,2.618c-.067,2.249-2.607,4.122-3.568,4.829A13.356,13.356,0,0,1,15.438,21c-1.409.46-2.624.857-3.089,2.244a4.422,4.422,0,0,0,1.878,4.782,3.918,3.918,0,0,0,3.091.273,9.54,9.54,0,0,1,3.423-.164c1.474.209,2.744.388,3.347,1.232a2.788,2.788,0,0,1,.269,1.981,9.4,9.4,0,0,0,.4,4.02c.354,1.061.888,2.663,2.172,2.848a1.605,1.605,0,0,0,.252.02c.909,0,1.464-.8,2.049-1.646.258-.373.543-.776.884-1.18,1.6,2.579,3.218,4.731,3.293,4.834a.776.776,0,0,0,1.241,0,64.479,64.479,0,0,0,4.591-7.069A10.192,10.192,0,0,1,41.934,34.4a21.682,21.682,0,0,1-18.764,10.8ZM37.647,24.1a5.416,5.416,0,0,1,1.811,4.043,9.246,9.246,0,0,1-1.3,3.764,57.809,57.809,0,0,1-4.127,6.557c-.73-1.017-1.986-2.822-3.109-4.719a28.678,28.678,0,0,1-1.675-3.229,6.465,6.465,0,0,1-.645-2.373,5.435,5.435,0,0,1,5.429-5.429q.252,0,.5.023A5.381,5.381,0,0,1,37.647,24.1Zm7.213.447a21.367,21.367,0,0,1-2.184,8.489,11.8,11.8,0,0,0-2.724-1.269,9.189,9.189,0,0,0,1.057-3.624A7.01,7.01,0,0,0,37.1,21.874l-.049-.022c-.173-.084-.35-.162-.529-.233-.123-.048-.251-.086-.378-.126-.078-.023-.147-.053-.223-.078-.2-.057-.4-.1-.608-.141h-.01c-.124-.023-.25-.036-.375-.052a6.932,6.932,0,0,0-7.882,6.919,7.985,7.985,0,0,0,.768,2.981,28.614,28.614,0,0,0,1.469,2.889,14.3,14.3,0,0,0-1.328,1.694,4.037,4.037,0,0,1-.8.977c-.155-.023-.443-.354-.931-1.806A7.957,7.957,0,0,1,25.9,31.46a4.149,4.149,0,0,0-.554-2.993c-.99-1.385-2.719-1.629-4.4-1.867a10.928,10.928,0,0,0-3.923.176c-.992.19-1.453.261-1.98-.068a2.939,2.939,0,0,1-1.226-2.973c.207-.62.828-.845,2.094-1.26a14.889,14.889,0,0,0,4.608-2.239c1.13-.829,4.111-3.029,4.2-6.03a5.215,5.215,0,0,0-1.566-3.635A6.708,6.708,0,0,1,21.6,7.8c-.412-1.728.1-3.755,1.483-6.026h.089a21.769,21.769,0,0,1,12,3.628,4.659,4.659,0,0,1-1.464,1.094,3.472,3.472,0,0,1-1.719.269,3.253,3.253,0,0,0-2.305.593c-1.759,1.324-2.547,4.7-.966,7.236,1.125,1.8,3.047,2.216,5.146,2.673a8.121,8.121,0,0,0,3.425-.015,5.851,5.851,0,0,1,2.752.009,8.642,8.642,0,0,1,2.816,1.409,6.351,6.351,0,0,1,1.926,2.75c.064.685.1,1.372.1,2.07,0,.347-.007.7-.03,1.057Zm0,0" transform="translate(0 0)"/>
      <path id="Path_3584" data-name="Path 3584" d="M82.54,38.435a3.1,3.1,0,1,0-3.1-3.1A3.1,3.1,0,0,0,82.54,38.435Zm0-4.654a1.551,1.551,0,1,1-1.551,1.551A1.551,1.551,0,0,1,82.54,33.782Zm0,0" transform="translate(-71.78 -28.907)"/>
      <path id="Path_3585" data-name="Path 3585" d="M319.438,251.332a3.1,3.1,0,1,0,3.1-3.1A3.1,3.1,0,0,0,319.438,251.332Zm4.654,0a1.551,1.551,0,1,1-1.551-1.551A1.551,1.551,0,0,1,324.092,251.332Zm0,0" transform="translate(-288.512 -223.966)"/>
    </g>
  </g>
</svg>
