<svg xmlns="http://www.w3.org/2000/svg" xmlns:xlink="http://www.w3.org/1999/xlink" width="470" height="427" viewBox="0 0 470 427"><defs><clipPath id="a"><path d="M10,0H470a0,0,0,0,1,0,0V427a0,0,0,0,1,0,0H10A10,10,0,0,1,0,417V10A10,10,0,0,1,10,0Z" transform="translate(0 148)" fill="#fcb300"/></clipPath><linearGradient id="b" x1="0.5" y1="-0.357" x2="0.5" y2="1" gradientUnits="objectBoundingBox"><stop offset="0" stop-color="#fcb300"/><stop offset="1" stop-color="#fff"/></linearGradient><linearGradient id="c" y1="0" y2="1" xlink:href="#b"/><clipPath id="d"><path d="M578.605,115.5h-36.97c-22.979,45.12-70.9,39.272-125.184,51.8-79.3,18.3-45.9,104.351-84.553,132.645-38.755,28.366-105.176-11.356-144,25.419-34.229,32.424-37.922,117.679-87.839,159.329l478.544-1.675Z" transform="translate(-100.061 -115.5)" fill="none"/></clipPath><linearGradient id="e" y1="-0.485" y2="1.398" xlink:href="#b"/><linearGradient id="h" y1="-0.489" y2="1.419" xlink:href="#b"/><linearGradient id="i" x1="0.5" y1="0.099" x2="0.5" y2="1.885" gradientUnits="objectBoundingBox"><stop offset="0" stop-color="#fcb300"/><stop offset="0" stop-color="#e8a709"/><stop offset="1" stop-color="#b28515"/></linearGradient><linearGradient id="j" x1="0.5" y1="-0.389" x2="0.5" y2="2.164" gradientUnits="objectBoundingBox"><stop offset="0" stop-color="#d83058"/><stop offset="0.009" stop-color="#fcb300"/><stop offset="1" stop-color="#8f6600"/></linearGradient><linearGradient id="k" x1="0.5" y1="-1.424" x2="0.5" y2="2.587" gradientUnits="objectBoundingBox"><stop offset="0" stop-color="#d83058"/><stop offset="0.009" stop-color="#e1ab28"/><stop offset="1" stop-color="#8e722d"/></linearGradient><linearGradient id="l" x1="0.082" y1="0.5" x2="2.004" y2="0.5" gradientUnits="objectBoundingBox"><stop offset="0" stop-color="#ef5193"/><stop offset="0" stop-color="#fcb300"/><stop offset="1" stop-color="#cb9616"/></linearGradient><linearGradient id="n" x1="-0.92" y1="0.5" x2="1.241" y2="0.5" gradientUnits="objectBoundingBox"><stop offset="0" stop-color="#ef5193"/><stop offset="0.009" stop-color="#fcb300"/><stop offset="1" stop-color="#fcb300"/></linearGradient><linearGradient id="p" x1="0.5" y1="1.022" x2="0.5" y2="-0.004" gradientUnits="objectBoundingBox"><stop offset="0.009" stop-color="#357ea8"/><stop offset="0.411" stop-color="#559eb8"/><stop offset="0.772" stop-color="#6bb5c4"/><stop offset="1" stop-color="#74bec9"/></linearGradient><linearGradient id="q" x1="0.5" y1="1.022" x2="0.5" y2="-0.004" gradientUnits="objectBoundingBox"><stop offset="0" stop-color="#74bec9"/><stop offset="0.141" stop-color="#7cc0c9"/><stop offset="0.364" stop-color="#93c8cb"/><stop offset="0.641" stop-color="#b8d5cd"/><stop offset="0.958" stop-color="#ebe7d1"/><stop offset="0.991" stop-color="#f1e9d2"/></linearGradient><linearGradient id="r" x1="0.5" y1="1.022" x2="0.5" y2="-0.004" xlink:href="#p"/><linearGradient id="s" x1="0.5" y1="-0.034" x2="0.5" y2="1.069" gradientUnits="objectBoundingBox"><stop offset="0.009" stop-color="#b5533c"/><stop offset="0.398" stop-color="#d35e47"/><stop offset="0.767" stop-color="#ea674f"/><stop offset="1" stop-color="#f36b53"/></linearGradient><linearGradient id="t" x1="0.5" y1="1.022" x2="0.5" y2="-0.004" gradientUnits="objectBoundingBox"><stop offset="0.009" stop-color="#b5533c"/><stop offset="0.369" stop-color="#d06630"/><stop offset="0.755" stop-color="#e67626"/><stop offset="1" stop-color="#ef7c23"/></linearGradient><linearGradient id="u" x1="0.5" y1="1.022" x2="0.5" y2="-0.004" gradientUnits="objectBoundingBox"><stop offset="0" stop-color="#f7a959"/><stop offset="0.285" stop-color="#f8b15d"/><stop offset="0.734" stop-color="#fbc76a"/><stop offset="0.991" stop-color="#fed873"/></linearGradient><linearGradient id="v" x1="0.5" y1="1.022" x2="0.5" y2="-0.004" xlink:href="#t"/></defs><g transform="translate(0 -148)" clip-path="url(#a)"><g transform="translate(-54.604 147.948)"><path d="M7540,9511.761s25.518-61.388,80.126-57.076,60.2-94.891,145.7-114.29,60.82-2,99.586-64.83,49.722-76.477,112.953-91.566,71.515-10.025,101.314-38.427c23.669-21.726,0,426.089,0,426.089H7540Z" transform="translate(-7540 -9144.806)" opacity="0.18" fill="url(#b)"/><path d="M577.819,115.5h-36.97c-22.979,45.12-70.9,39.272-125.184,51.8-79.3,18.3-45.9,104.351-84.553,132.645-38.755,28.366-105.176-11.356-144,25.419-34.229,32.424-42.963,122.741-92.488,153.152l483.193,4.5Z" transform="translate(-4.274 -55.683)" opacity="0.35" fill="url(#c)"/><g transform="translate(95 59.817)"><g transform="translate(0 0)" clip-path="url(#d)"><ellipse cx="48.663" cy="48.663" rx="48.663" ry="48.663" transform="translate(203.808 384.706) rotate(-80.918)" fill="#fff"/><g transform="translate(-42.4 56.512)"><path d="M516.827,282.327c-6.5-3.867-13.705-4-21.053-3.73-7.792.287-15.348.45-22.667-1.452a11.128,11.128,0,0,1-7.024-5.917,7.048,7.048,0,0,0-2.629-2.782c-2.7-1.658-5.688-1.083-8.443.062a.454.454,0,0,1-.619-.49,16.232,16.232,0,0,0-14.61-18.453c-11.677-.976-17.642,9.259-19.943,19.326a1.469,1.469,0,0,1-2.1.967,4.444,4.444,0,0,0-6.177,1.953l-.038.066a11.016,11.016,0,0,1-9.7,5.806c-3.918-.06-7.829-.163-11.678-.174a85.858,85.858,0,0,0-24.037,3.345c-.933.269-.4,1.47.37,1.566a128.735,128.735,0,0,0,16.083.778c27.222,0,35.7,4.414,62.569,6.384,3.427.251,5.484.021,8.229-1.9,1.436-1.007,1.651-1.055,3.534-.516.946.272,1.813.793,2.777,1.05a6.707,6.707,0,0,0,3.446.211c2.9-.754,3.383-3.16,2.625-4.839,16.946.367,33.846.51,50.8.528C517.631,284.11,517.637,282.81,516.827,282.327Z" transform="translate(28.815 -119.688)" fill="url(#e)"/><path d="M449.8,184.881c-5.948-3.539-12.542-3.66-19.267-3.413-7.131.262-14.047.411-20.744-1.329a10.193,10.193,0,0,1-6.429-5.415,6.457,6.457,0,0,0-2.405-2.548c-2.474-1.517-5.207-.99-7.727.058a.415.415,0,0,1-.566-.448A14.854,14.854,0,0,0,379.288,154.9c-10.687-.894-16.146,8.474-18.252,17.686a1.344,1.344,0,0,1-1.925.885,4.068,4.068,0,0,0-5.653,1.787l-.034.06a10.082,10.082,0,0,1-8.874,5.314c-3.585-.055-7.165-.149-10.688-.159a78.552,78.552,0,0,0-22,3.061c-.853.247-.362,1.345.34,1.434a117.957,117.957,0,0,0,14.719.71c24.913,0,32.673,4.04,57.262,5.843,3.136.229,5.019.018,7.531-1.743,1.314-.922,1.511-.967,3.234-.473.867.248,1.661.725,2.541.961a6.142,6.142,0,0,0,3.155.193c2.658-.69,3.1-2.892,2.4-4.429,15.507.336,30.974.468,46.494.483C450.533,186.513,450.54,185.323,449.8,184.881Z" transform="translate(8.687 -154.839)" fill="url(#e)"/><path d="M323.935,222.455c30.793-1.824,61.932-3.848,92.434,1.886a3.807,3.807,0,0,0-1.577,2.337c-1.064,4.628,4.45,6.766,8.057,6.731,9.283-.089,18.864-5.031,27.745-7.305,11.573-2.963,22.217-2.2,33.688.717,8.794,2.237,17.4,4.431,26.53,4.466,9.608.038,19.1-1.711,28.429-3.855,16.6-3.815,33.35-10.554,50.486-10.88,2.678.085,5.357.192,8.033.265,1.551.041,2.869-2.743.967-2.873-1.722-.092-54.862-1.584-76.76-2.771-5.8,0-7.356-10.9-16.888-.926a29.362,29.362,0,0,1,.308-4.934,46.978,46.978,0,0,0,.317-5.219,27.824,27.824,0,0,0-3.2-12.5c-6.559-12.2-24.263-16.64-33.421-4.711a16.751,16.751,0,0,0-3.4,7.967c-.858,6.595,3.491,12.671-4.531,17.084-2.537,1.4-7.677,3.165-6.891,6.477a55.019,55.019,0,0,0-19.768.192c-3.943.778-7.815,2.371-11.877,2.071s-6.822-2.3-9.72-4.993c-5.775-5.381-11.677-12.727-20.32-8.416-6.419,3.2-9.942,10.315-17.766,10.807-6.215.391-12.324-2.68-18.508-.908-2.686.771-4.716,2.378-7.028,3.878-4.55,2.951-8.43,2.944-13.553,1.827-4.6-1-8.733-1.4-12.252,2.142C322.963,221.527,323.07,222.506,323.935,222.455Z" transform="translate(16.473 -144.463)" fill="url(#e)"/><path d="M394.751,315.629c-27.285.544-54.615,1.205-81.906,1.145-5.96-.014-5.2-4.162-8.15-7.422a5.886,5.886,0,0,0-4.778-1.871c-2.776.182-4.2,1.737-4.608,3.677-6.777-9.617-15.459-19-27.951-19.192-12.118-.182-19.749,10.185-16.957,21.483,1.421,5.747,2.422,15.129-6.925,11-1.8-.793-3.729-1.814-5.776-1.628-2.013.184-3.43,1.37-4.794,2.725-4.069,4.043-7.013,6.005-12.965,6.613-19.934,2.038-40.127,2.489-60.118,3.917-2.544.182-.708,3.937,1.393,3.844,12.45-.548,24.908-.913,37.366-1.262,17.959.428,35.921.687,53.885.941,11.652.165,23.346.643,35,.394,10.206-.221,28.639-2.289,28.418-8.751-.155-4.535-16.785-4.278-17.5-6.068C296.549,320.585,317,324,343.713,324c17.633,0,35.228-.45,51.937-6.556C396.783,317.028,395.509,315.614,394.751,315.629Z" transform="translate(-48.063 -103.919)" fill="url(#h)"/><g transform="translate(0 194.141)"><g transform="translate(139.301 37.068)"><path d="M375.3,416.06c-12.042-7.363-16.286-15.692-29-27.321-3.723-3.405-15.093-16.163-24.546-15.511-5.045.347-11.4,2.928-14.311,2.928-2.486,0-12.175-4.679-29.013-27.008-7.5-9.95-19.99-25.707-28.506-25.707-17.18,0-71.84,74.568-82.825,92.62Z" transform="translate(-167.098 -323.44)" stroke="rgba(0,0,0,0)" stroke-width="1" fill="url(#i)"/><path d="M262.728,359.067c-12,.909-13.924-1.259-12.806-35.627l-3.243.7c-19.95,7.52-69.214,74.887-79.581,91.925H341.076c-38.91-5.9-26.947-17.179-45.69-26.779C283.431,383.159,274.732,358.158,262.728,359.067Z" transform="translate(-167.098 -323.44)" fill="url(#j)"/><path d="M313.667,387.6c-8.222-10.592-38.6-14.858-28.809-27.856-5.045.347-11.4,2.928-14.311,2.928a9.593,9.593,0,0,1-4.092-1.566h0c14.063,8.336,24.085,18.625,32.565,23.165s16.7,18.306,24.411,18.306h14.974S321.89,398.193,313.667,387.6Z" transform="translate(-130.203 -309.958)" fill="url(#k)"/></g><g transform="translate(0 12.486)"><path d="M71.754,422.716c23.235-16.581,49.756-32.731,56.195-48.736,5.126-12.744,40.826-53.681,60.977-66.189,18.1-11.231,26.283,21.6,46.909,43.654,10.271,10.98,33.041,15.193,43.223,26.287,13.768,15,27.613,29.921,41.342,44.984Z" transform="translate(-71.754 -305.515)" fill="url(#l)"/><path d="M204.789,355.456c2.193,6.27-14.719,12.908-13.779,21.391.8,7.232,8.229,21.712,44.367,45.253H71.754c23.235-16.581,49.756-32.731,56.195-48.736,5.126-12.744,40.826-53.681,60.977-66.189C177.23,321.895,202.6,349.187,204.789,355.456Z" transform="translate(-71.754 -304.898)" fill="url(#j)"/></g><g transform="translate(312.562)"><path d="M589.492,426.1c-27.081-18.347-57.994-36.218-65.5-53.928-5.975-14.1-47.587-59.4-71.074-73.24-21.091-12.428-30.633,23.9-54.675,48.3-11.97,12.151-38.51,16.811-50.379,29.087-16.047,16.6-32.184,33.11-48.187,49.777Z" transform="translate(-299.679 -296.41)" fill="url(#n)"/><path d="M407.6,351.672c-2.555,6.938,17.155,14.284,16.061,23.669-.934,8-9.591,24.026-51.712,50.074H562.657c-27.081-18.347-57.994-36.218-65.5-53.928-5.975-14.1-47.587-59.4-71.074-73.24C439.717,314.536,410.151,344.734,407.6,351.672Z" transform="translate(-272.844 -295.727)" fill="url(#j)"/></g></g></g></g></g><g transform="translate(292.186 156.385)"><g transform="translate(0)"><path d="M289.053,281.882h14.766s51.688-46.069,49.62-78.991c-1.972-31.42-25.521-57-57-57s-55.03,25.583-57,57C237.365,235.813,289.053,281.882,289.053,281.882Z" transform="translate(-239.372 -145.888)" fill="url(#p)"/><path d="M289.479,281.882h9.834s34.424-46.069,33.048-78.991c-1.314-31.42-17-57-37.965-57s-36.651,25.583-37.965,57C255.055,235.813,289.479,281.882,289.479,281.882Z" transform="translate(-237.333 -145.888)" fill="url(#q)"/><path d="M289.941,281.882h4.5s15.739-46.069,15.11-78.991c-.6-31.42-7.772-57-17.358-57s-16.757,25.583-17.358,57C274.2,235.813,289.941,281.882,289.941,281.882Z" transform="translate(-235.125 -145.888)" fill="url(#r)"/><path d="M298.5,267.331,297,272.848H285.243l-1.506-5.517Z" transform="translate(-234.056 -131.337)" fill="#357ea8"/><path d="M295.6,272.258l-2.035,10.574h-5.2l-2.036-10.574h-1.235l2.036,10.574.794,6.333H294l.794-6.333,2.035-10.574Z" transform="translate(-233.895 -130.746)" fill="url(#s)"/></g><g transform="translate(110.032 128.727)"><path d="M349.16,312.038h6.467s22.638-20.177,21.733-34.595c-.865-13.761-11.178-24.966-24.966-24.966s-24.1,11.2-24.966,24.966C326.523,291.861,349.16,312.038,349.16,312.038Z" transform="translate(-327.402 -252.477)" fill="url(#t)"/><path d="M350.166,312.038h4.307s15.077-20.177,14.474-34.595c-.576-13.761-7.445-24.966-16.628-24.966s-16.052,11.2-16.628,24.966C335.089,291.861,350.166,312.038,350.166,312.038Z" transform="translate(-327.327 -252.477)" fill="url(#u)"/><path d="M351.253,312.038h1.97s6.893-20.177,6.618-34.595c-.263-13.761-3.4-24.966-7.6-24.966s-7.339,11.2-7.6,24.966C344.36,291.861,351.253,312.038,351.253,312.038Z" transform="translate(-327.245 -252.477)" fill="url(#v)"/><path d="M355.432,311.5l-.66,2.417h-5.148l-.66-2.417Z" transform="translate(-327.206 -251.941)" fill="#b5533c"/><path d="M354.223,313.9l-.891,4.631h-2.279l-.892-4.631h-.541l.892,4.631.348,2.773h2.665l.348-2.773.891-4.631Z" transform="translate(-327.2 -251.919)" fill="url(#s)"/></g></g></g></g></svg>