<svg xmlns="http://www.w3.org/2000/svg" viewBox="0 0 162.32 46.64"><defs><style>.cls-1{fill:#6f2c8c;}.cls-2{fill:#87c13f;}.cls-3,.cls-8{fill:#f7aa17;}.cls-4{fill:#e81c24;}.cls-5{fill:#eb4e45;}.cls-6{fill:#9e2389;}.cls-7{fill:#008acf;}.cls-10,.cls-8{fill-rule:evenodd;}.cls-10,.cls-9{fill:#580202;}</style></defs><g id="Layer_2" data-name="Layer 2"><g id="Layer_1-2" data-name="Layer 1"><path class="cls-1" d="M32.24,12c.94-.84,1.67-9.55,1.88-11.4,0-.51-.95-.55-1.29-.58s-1.32-.15-1.36.38c-.08,1.19.15,11.55.77,11.6"/><path class="cls-2" d="M18.6,17.63c-.31-1-7-5-8.4-5.86-.39-.21-.85.74-1,1s-.67,1.15-.28,1.36c1,.52,9.34,4.15,9.66,3.52"/><path class="cls-3" d="M17.77,25.85c-.75-.61-7.54-.91-9.13-1-.36,0-.33,1.17-.33,1.34s-.06,1.33.29,1.32c1.08,0,9.18-1.17,9.17-1.71"/><path class="cls-4" d="M45.84,19.67c.87.83,8.58-2.73,10.21-3.3.51-.2.15-1.08,0-1.42s-.42-1.27-1-1c-1.36.58-9,4.68-9.25,5.77"/><path class="cls-5" d="M47.85,27.8c-.13.89,8.16,2.28,9.14,2.37.52,0,.57-.93.61-1.27s.17-1.32-.35-1.37c-1-.09-9.3-.39-9.4.27"/><path class="cls-6" d="M41.6,13.77c.56.24,4.68-7,5.07-7.94.21-.45-.73-.83-1-1s-1.2-.57-1.4-.13c-.4.9-3.31,8.75-2.65,9"/><path class="cls-7" d="M24,11.91c.74-.92-2.7-7.25-3.32-8.42-.31-.53-1.07-.06-1.44.15s-1.16.64-.86,1.17c.6,1,4.51,7.79,5.62,7.1"/><path class="cls-7" d="M37.76,41.7l-.32.07a28.91,28.91,0,0,1-4.8.77c-5.28.3-8-1.35-12.76-3.16A32.67,32.67,0,0,0,9.73,37.44a11.93,11.93,0,0,1-1.95-.09c-.11-.28,1.77-.49,1.87-.55,3.27-.61,7.54.17,10.73,1,4.62,1.4,7.12,2.74,12.1,2.38a28.41,28.41,0,0,0,4.4-.71l.32-.08a65.83,65.83,0,0,1,11.58-1.82A36.45,36.45,0,0,1,60,39.34c.37.11,3.45,1.1,3.49,1.58a32.66,32.66,0,0,1-3.71-.7,40.75,40.75,0,0,0-10.85-.85A95.52,95.52,0,0,0,37.76,41.7m-16.07.76,1.2.42c.85.31,1.67.57,2.54.8a19,19,0,0,0,8.61.59c3.7-.64,6.07-1.43,10-1.26.29,0,2.25.25,2.34.59a17.57,17.57,0,0,1-2.33.19c-3.77.35-6.08,1.35-9.61,2.26a18.85,18.85,0,0,1-9.58,0c-.94-.25-1.83-.54-2.74-.87l-1.19-.42a97.32,97.32,0,0,0-10-3.28,26.54,26.54,0,0,0-7.59-1c-.36,0-3.24.32-3.35.23.12-.44,2.83-1.08,3.25-1.16a24.46,24.46,0,0,1,8,.21A58.64,58.64,0,0,1,21.69,42.46Z"/><path class="cls-8" d="M22.64,30.31a10.48,10.48,0,0,0,3.89,4.37,11.91,11.91,0,0,0,2.14.76,12.2,12.2,0,0,0,7.14-.58,9.43,9.43,0,0,0,3.47-2.22,9.29,9.29,0,0,0,2.08-3.3,9.6,9.6,0,0,0,.58-3.86,10.53,10.53,0,0,0-1-4,8.56,8.56,0,0,0-4.41-4.2,8.38,8.38,0,0,0-2.15-.6,8.4,8.4,0,0,1,6,5,9.81,9.81,0,0,1,.73,3.74,8.86,8.86,0,0,1-.7,3.45,8.32,8.32,0,0,1-1.94,2.82,8.82,8.82,0,0,1-3,1.87,11.93,11.93,0,0,1-6.42.58,10.66,10.66,0,0,1-5.15-2.65,15.05,15.05,0,0,1-1.18-1.25m9.51-15.09c-11.8,0-13.75,15.72-3,18.44a11,11,0,0,0,6.15-.43,8,8,0,0,0,2.92-1.75,7.75,7.75,0,0,0,1.88-2.68,8.51,8.51,0,0,0,.68-3.3A9.47,9.47,0,0,0,40,21.9,8,8,0,0,0,33.59,17a6.91,6.91,0,0,0-2.82.26,6.45,6.45,0,0,0-2.44,1.35h0a6.56,6.56,0,0,0-1.47,2.23,6,6,0,0,0-.28.91,5.5,5.5,0,0,1,.35-.89,6.34,6.34,0,0,1,1.6-2.07,6.21,6.21,0,0,1,2.36-1.23,6.57,6.57,0,0,1,2.68-.17,7.29,7.29,0,0,1,2.5.82,7.38,7.38,0,0,1,3.42,3.9,8.88,8.88,0,0,1,.58,3.38,7.87,7.87,0,0,1-.68,3,7.23,7.23,0,0,1-1.73,2.4A7.53,7.53,0,0,1,35,32.49a10.59,10.59,0,0,1-5.71.44,9.19,9.19,0,0,1-3-1.26A7.78,7.78,0,0,1,25,30.43c-.49-.66-1.55-2.37-1.34-3.27a10.33,10.33,0,0,0,2,2.68A8.23,8.23,0,0,0,29.5,32a9.54,9.54,0,0,0,5.21-.34,6.38,6.38,0,0,0,2.36-1.34,6.3,6.3,0,0,0,1.56-2.1,7,7,0,0,0,.65-2.7,8.12,8.12,0,0,0-.5-3.09,6.71,6.71,0,0,0-5.27-4.31,5.89,5.89,0,0,0-2.4.12A5.6,5.6,0,0,0,29,19.31a5.53,5.53,0,0,0-1.46,1.83,6,6,0,0,0-.63,2.39,6.69,6.69,0,0,0,.4,2.73,5.33,5.33,0,0,0,2.46,2.87,5.42,5.42,0,0,0,1.83.61,4.78,4.78,0,0,0,2-.13h0a4.47,4.47,0,0,0,1.7-1,4.41,4.41,0,0,0,1.13-1.57,4.6,4.6,0,0,0,.38-1.94,5,5,0,0,0-.46-2.05,3,3,0,0,0-1.2-1.36A3.07,3.07,0,0,1,36.49,23a5.14,5.14,0,0,1,.6,2.1A4.82,4.82,0,0,1,35.63,29a4.72,4.72,0,0,1-1.3.9,5.12,5.12,0,0,1-.58.21,5.4,5.4,0,0,1-2.19.19,5.79,5.79,0,0,1-2-.63,5.86,5.86,0,0,1-2.78-3.14,7.24,7.24,0,0,1-.25-.79,7.24,7.24,0,0,1-.36-2.16,6.3,6.3,0,0,1,0-1,6.61,6.61,0,0,0-.09,1,7.7,7.7,0,0,0,.54,3,6,6,0,0,0,4.93,3.8,5.39,5.39,0,0,0,2.22-.2A5.14,5.14,0,0,0,37,27.31a5.46,5.46,0,0,0,.49-2.18,6.12,6.12,0,0,0-.43-2.35,4,4,0,0,0-1.92-2.08,4.14,4.14,0,0,0-1.38-.4,3.81,3.81,0,0,0-1.5.15,3.63,3.63,0,0,0-1.33.77,3.5,3.5,0,0,0-.87,1.21,3.78,3.78,0,0,0-.31,1.48,3.88,3.88,0,0,0,.3,1.54A3.85,3.85,0,0,1,30,22.4a3.6,3.6,0,0,1,.87-1.27,3.52,3.52,0,0,1,1.36-.82,3.8,3.8,0,0,1,1.57-.2,4.11,4.11,0,0,1,1.45.39,4.21,4.21,0,0,1,2.09,2.17,6.28,6.28,0,0,1,.5,2.45,5.66,5.66,0,0,1-.48,2.33A5.59,5.59,0,0,1,36,29.36a5.66,5.66,0,0,1-2.09,1.19,5.88,5.88,0,0,1-2.39.24,6,6,0,0,1-2.23-.66,6.44,6.44,0,0,1-3.11-3.39,8.25,8.25,0,0,1-.57-3.18,7.22,7.22,0,0,1,.67-2.93A7,7,0,0,1,28,18.29a6.88,6.88,0,0,1,2.61-1.43,7.27,7.27,0,0,1,2.66-.29h.33a8.17,8.17,0,0,1,2.87.74,8.52,8.52,0,0,1,4.25,4.26,10.33,10.33,0,0,1,.93,3.9,9.52,9.52,0,0,1-.61,3.74,9.13,9.13,0,0,1-2,3.17,9.48,9.48,0,0,1-3.33,2.18,13,13,0,0,1-7,.79,13.07,13.07,0,0,1-2-.56,10.54,10.54,0,1,0,5.43-19.58Z"/><path class="cls-7" d="M114.71,19.26h-5.83c-3.89,0-41.35.22-41.35.46s37.46.46,41.35.46h5.83c3.89,0,41.35-.22,41.35-.46s-37.46-.46-41.35-.46"/><path class="cls-9" d="M146.84,32.32h1.47V24.08c0-1.22-.64-1.84-2-1.89v.72c.44.09.5.36.5.91,0,.19,0,.42,0,.69Zm-11-3.74h-2.16a3.87,3.87,0,0,1,.05-.61h0a1.73,1.73,0,0,1,1.77-1.15h.35Zm.24-4.75-1.18-1.16-1.2,1.16,1.2,1.19Zm-4.87,7a1.37,1.37,0,0,1-1.33-1.43V24.68a11.4,11.4,0,0,1,.06-1.26c0-.16.15-.29.45-.3v-.8c-1.21,0-2,.53-2,1.82v5.28a3,3,0,0,0,2.82,2.9H135a2.66,2.66,0,0,0,2.34-2.58V25.38h-1.81a3.31,3.31,0,0,0-3.39,3v1.69h3.67a1.25,1.25,0,0,1-.89.79Zm-4-5.44H125.5a3.41,3.41,0,0,0-3.37,3v1.68h3.67v.38a1.38,1.38,0,0,1-1.32,1.43h-2.81a1.3,1.3,0,0,1-1.29-1.41V29.15c0-1.4-.81-1.82-2-1.82v.75c.53,0,.54.66.54,1.33v1.14a2.82,2.82,0,0,0,2.78,2.85h2.83a2.9,2.9,0,0,0,2.79-2.85Zm-1.43,3.2h-2.23a1.75,1.75,0,0,1,1.88-1.74h.35Zm.74-4.77-1.17-1.17-1.18,1.17L125.43,25Zm-2.33,0-1.18-1.17-1.17,1.17L123.09,25Zm-9,8.48h1.48V24.08c0-1.22-.65-1.84-2-1.89v.72c.44.09.5.36.5.91,0,.19,0,.42,0,.69Zm-12.13,0h7.94a2.72,2.72,0,0,0,1.8-.92h0a3.08,3.08,0,0,0,.8-2V24c0-1.31-.8-1.8-2-1.84v.77c.52,0,.52.76.52,1.47v5a1.35,1.35,0,0,1-1.3,1.47h-4.6a1.28,1.28,0,0,1-1.35-1.24,1.31,1.31,0,0,1,1.45-1.25h2c1.16,0,1.76-.75,1.77-2h-.79c0,.55-.73.54-1.43.54h-1.7a2.79,2.79,0,0,0-2.74,2.72,2.38,2.38,0,0,0,.31,1.24H101V26.36H99.55V32c0,2.66-1.58,4.38-3.42,4.38A2.76,2.76,0,0,1,95,36l-.42.75a5.58,5.58,0,0,0,2,.45,4.11,4.11,0,0,0,3.18-1.45h0A5.11,5.11,0,0,0,101,32.32Zm-8.25,1.61-1-1-1,1,1,1Zm-6,1.31-1.17-1.15,1.17-1.19L90,34.09Zm-2.36,0-1.17-1.15,1.17-1.19,1.19,1.19Zm58.77-11.49c0-1.31-.83-1.8-2-1.85v.74c.49.09.5.75.53,1.57v5.07a1.47,1.47,0,0,1-1.34,1.57h-.62V27c0-1.31-.84-1.81-2-1.86v.69c.5.1.55.83.55,1.58v3.44h-2.5v1.47h4.6a3,3,0,0,0,2.81-3Zm-2.93-1.83c-.08.52-.65.52-1.23.52h-2.15c-.92,0-1.25.63-1.25,1.66h.39c0-.51.61-.52,1.19-.52h2.16c.93,0,1.26-.63,1.31-1.66ZM91.2,30.84H89.6a1.24,1.24,0,0,1-1.16-1.24V26.79H87v2.52a1.39,1.39,0,0,1-1.22,1.54H84a1.46,1.46,0,0,1-1.21-1.06V27.72c0-.69,0-1.35.51-1.42v-.72a3.62,3.62,0,0,0-1.15.2H80.31v.12a4,4,0,0,1,0,6.23v.21a2.56,2.56,0,0,0,1.8-.78,2.82,2.82,0,0,0,2,.76h1.69a2.87,2.87,0,0,0,1.9-.87,2.41,2.41,0,0,0,1.92.87H93.3a2.75,2.75,0,0,0,2.83-2.74v-.39c0-.76,0-1.44.55-1.55V27c-1.14.06-2,.57-2,1.78v.78a1.26,1.26,0,0,1-1.34,1.33Z"/><path class="cls-10" d="M67.25,12.44l-.88,2h1.76Zm7.29,1.33a1.62,1.62,0,0,0,1.09-.26,1,1,0,0,0,.29-.82.89.89,0,0,0-.3-.78,1.92,1.92,0,0,0-1.05-.21H73.4v2.07Zm3-1.09a2.06,2.06,0,0,1-1.34,2.17L78,17.36H76l-1.55-2.24H73.4v2.24H71.84v-7h2.65a3.78,3.78,0,0,1,2.33.55A2.14,2.14,0,0,1,77.52,12.68ZM82,12.44l-.88,2h1.75Zm2.11,4.92-.65-1.51H80.52l-.65,1.51H78.21l3-7h1.51l3,7Zm4-1.32h1.07a2.34,2.34,0,0,0,1-.17.65.65,0,0,0,.34-.65.62.62,0,0,0-.36-.64,3,3,0,0,0-1.13-.16h-.92Zm0-2.85h.74a2.37,2.37,0,0,0,1-.14.58.58,0,0,0,.32-.6.64.64,0,0,0-.29-.62,2.32,2.32,0,0,0-1-.15h-.75Zm1.5,4.17H86.57v-7H89.3a4,4,0,0,1,1.22.17,1.72,1.72,0,0,1,.78.46,1.83,1.83,0,0,1,.47,1.22,1.43,1.43,0,0,1-.53,1.22,1.88,1.88,0,0,1-.25.18l-.25.11a1.89,1.89,0,0,1,1,.59,1.66,1.66,0,0,1,.38,1.11,1.92,1.92,0,0,1-.5,1.29A2.63,2.63,0,0,1,89.64,17.36Zm3.83-7H95v7H93.47Zm6.16,2.08-.88,2h1.75Zm2.11,4.92-.65-1.51H98.16l-.65,1.51H95.84l3-7h1.51l3,7Zm18.63-1a3.81,3.81,0,0,1-5.23,0,3.48,3.48,0,0,1-1.06-2.58,3.48,3.48,0,0,1,1.06-2.57,3.81,3.81,0,0,1,5.23,0,3.44,3.44,0,0,1,1.06,2.57A3.45,3.45,0,0,1,120.37,16.39Zm-.53-2.57a2.29,2.29,0,0,0-.6-1.6,2,2,0,0,0-2.95,0,2.42,2.42,0,0,0,0,3.19,2,2,0,0,0,2.95,0A2.28,2.28,0,0,0,119.84,13.82Zm5.62-.05a1.66,1.66,0,0,0,1.09-.26,1.06,1.06,0,0,0,.29-.82.89.89,0,0,0-.3-.78,1.92,1.92,0,0,0-1.05-.21h-1.18v2.07Zm3-1.09a2.06,2.06,0,0,1-1.33,2.17l1.77,2.51H127l-1.55-2.24h-1.09v2.24h-1.56v-7h2.66a3.77,3.77,0,0,1,2.32.55A2.11,2.11,0,0,1,128.43,12.68Zm1.6-2.32h1.56v7H130Zm-18.83,0h1.56v7H111.2V14.6h-2.78v2.76h-1.56v-7h1.56v2.92h2.78Zm48.32,1.21a.92.92,0,0,0-.62.19.59.59,0,0,0-.22.49.55.55,0,0,0,.27.48,5.43,5.43,0,0,0,1.27.43,3.61,3.61,0,0,1,1.55.73,1.83,1.83,0,0,1,.55,1.44,1.86,1.86,0,0,1-.71,1.52,2.79,2.79,0,0,1-1.85.59,4.32,4.32,0,0,1-3-1.23l.94-1.15a3.27,3.27,0,0,0,2.09,1,1.11,1.11,0,0,0,.67-.19.58.58,0,0,0,.25-.5.59.59,0,0,0-.26-.5,3.68,3.68,0,0,0-1-.38,4.44,4.44,0,0,1-1.79-.75,1.78,1.78,0,0,1-.57-1.46,1.81,1.81,0,0,1,.72-1.54,2.89,2.89,0,0,1,1.79-.54,4.34,4.34,0,0,1,1.4.24,3.81,3.81,0,0,1,1.22.68l-.79,1.14A3.1,3.1,0,0,0,159.52,11.57ZM138.74,16h-3.68l3.65-4.56V10.36H133v1.35h3.55l-3.67,4.58v1.07h5.83ZM154,10.36h1.56v7H154L150.65,13v4.39h-1.56v-7h1.46l3.43,4.5Zm-84.61,7-.65-1.51H65.78l-.65,1.51H63.47l3-7H68l3,7Z"/><path class="cls-8" d="M139.85,15.65a4.41,4.41,0,0,0,1.61,1.81,4.43,4.43,0,0,0,.89.31,5,5,0,0,0,3-.23,3.89,3.89,0,0,0,1.43-.93,3.82,3.82,0,0,0,.87-1.36,3.94,3.94,0,0,0,.23-1.6A4.24,4.24,0,0,0,147.4,12a3.51,3.51,0,0,0-1.82-1.74,3.36,3.36,0,0,0-.89-.25,3.28,3.28,0,0,1,.86.31,3.43,3.43,0,0,1,1.63,1.77,4.36,4.36,0,0,1,.3,1.55,3.73,3.73,0,0,1-.29,1.43,3.47,3.47,0,0,1-.81,1.16,3.4,3.4,0,0,1-1.26.77,4.89,4.89,0,0,1-2.65.25,4.54,4.54,0,0,1-2.13-1.1,5.94,5.94,0,0,1-.49-.52m3.94-6.23c-4.88,0-5.69,6.49-1.26,7.62a4.59,4.59,0,0,0,2.54-.18,3.25,3.25,0,0,0,2-1.83,3.39,3.39,0,0,0,.28-1.37,3.84,3.84,0,0,0-.29-1.49,3.35,3.35,0,0,0-2.66-2,2.85,2.85,0,0,0-1.16.11,2.58,2.58,0,0,0-1,.56h0a2.61,2.61,0,0,0-.6.93,2.29,2.29,0,0,0-.12.37,3,3,0,0,1,.14-.36,2.67,2.67,0,0,1,.66-.86,2.49,2.49,0,0,1,1-.51,2.78,2.78,0,0,1,1.11-.07,3.12,3.12,0,0,1,1,.34,3,3,0,0,1,1.42,1.61,3.93,3.93,0,0,1,.24,1.4,3.35,3.35,0,0,1-.28,1.25,3,3,0,0,1-.72,1,3,3,0,0,1-1.1.64,4.42,4.42,0,0,1-2.36.19,3.55,3.55,0,0,1-1.25-.53,2.79,2.79,0,0,1-.52-.51c-.21-.27-.65-1-.56-1.35a4.22,4.22,0,0,0,.81,1.11,3.49,3.49,0,0,0,1.61.9,4,4,0,0,0,2.15-.14,2.72,2.72,0,0,0,1.63-1.43,2.87,2.87,0,0,0,.26-1.12,3.22,3.22,0,0,0-.2-1.27,2.81,2.81,0,0,0-2.18-1.78,2.36,2.36,0,0,0-1,.05,2.15,2.15,0,0,0-.88.44,2.19,2.19,0,0,0-.6.75,2.64,2.64,0,0,0-.26,1,2.9,2.9,0,0,0,.16,1.13,2.19,2.19,0,0,0,1,1.18,2.28,2.28,0,0,0,.76.26,2.06,2.06,0,0,0,.82-.06h0a1.85,1.85,0,0,0,1.17-1,2,2,0,0,0,.16-.8,2.24,2.24,0,0,0-.19-.85,1.38,1.38,0,0,0-.5-.57,1.3,1.3,0,0,1,.54.55,2.14,2.14,0,0,1,.25.86,2.07,2.07,0,0,1-.6,1.59,2.16,2.16,0,0,1-.54.37l-.24.09a2.33,2.33,0,0,1-.91.08,2.3,2.3,0,0,1-.84-.27,2.43,2.43,0,0,1-1.15-1.29c0-.11-.07-.22-.1-.33a3,3,0,0,1-.15-.89,2.61,2.61,0,0,1,0-.4,2.85,2.85,0,0,0,0,.4,3.28,3.28,0,0,0,.22,1.24,2.5,2.5,0,0,0,1.19,1.31,2.54,2.54,0,0,0,.85.26,2.38,2.38,0,0,0,.92-.08,2.31,2.31,0,0,0,.81-.45,2.24,2.24,0,0,0,.73-1.63,2.49,2.49,0,0,0-.18-1,1.62,1.62,0,0,0-.79-.86,1.8,1.8,0,0,0-.57-.17,1.62,1.62,0,0,0-.62.07,1.43,1.43,0,0,0-.55.31,1.4,1.4,0,0,0-.36.51,1.59,1.59,0,0,0-.13.61,1.72,1.72,0,0,0,.12.63,1.74,1.74,0,0,1-.14-.63,1.51,1.51,0,0,1,.12-.63,1.43,1.43,0,0,1,.36-.52,1.34,1.34,0,0,1,.56-.34,1.44,1.44,0,0,1,.65-.08,1.62,1.62,0,0,1,.6.16,1.74,1.74,0,0,1,.86.89,2.78,2.78,0,0,1,.21,1,2.43,2.43,0,0,1-.2,1,2.2,2.2,0,0,1-.56.79,2.24,2.24,0,0,1-.86.49,2.38,2.38,0,0,1-1,.1,2.65,2.65,0,0,1-.92-.27,2.67,2.67,0,0,1-1.29-1.4,3.31,3.31,0,0,1-.23-1.32,3,3,0,0,1,.27-1.21,2.86,2.86,0,0,1,.72-1,2.92,2.92,0,0,1,1.08-.59,3.16,3.16,0,0,1,1.1-.12h.13a3.26,3.26,0,0,1,1.19.3A3.59,3.59,0,0,1,147.34,12a4.32,4.32,0,0,1,.38,1.62,3.87,3.87,0,0,1-.25,1.54,3.63,3.63,0,0,1-.84,1.31,3.67,3.67,0,0,1-1.37.9,5.25,5.25,0,0,1-2.9.33,5.7,5.7,0,0,1-.82-.23,4.29,4.29,0,0,0,2.25.62,4.36,4.36,0,1,0,0-8.71Z"/><path class="cls-8" d="M74.69,30.53A3.5,3.5,0,0,0,76,32a2.82,2.82,0,0,0,.71.25A4,4,0,0,0,79.08,32a3,3,0,0,0,1.15-.74,3,3,0,0,0,.7-1.1,3.09,3.09,0,0,0,.19-1.28,3.73,3.73,0,0,0-.34-1.32,2.83,2.83,0,0,0-1.47-1.4,2.67,2.67,0,0,0-.72-.2,2.38,2.38,0,0,1,.69.25,2.66,2.66,0,0,1,1.31,1.43,3.11,3.11,0,0,1,.24,1.24,2.85,2.85,0,0,1-.23,1.15A2.78,2.78,0,0,1,80,31a2.71,2.71,0,0,1-1,.62,4,4,0,0,1-2.14.2,3.57,3.57,0,0,1-1.71-.89,5.09,5.09,0,0,1-.4-.41m3.17-5c-3.93,0-4.58,5.24-1,6.14a3.67,3.67,0,0,0,2-.14,2.71,2.71,0,0,0,1-.58,2.75,2.75,0,0,0,.62-.89,2.83,2.83,0,0,0,.23-1.11,3.33,3.33,0,0,0-.24-1.2,2.58,2.58,0,0,0-1.25-1.35,2.49,2.49,0,0,0-.89-.27,2.23,2.23,0,0,0-1.75.53h0a2.15,2.15,0,0,0-.48.74c0,.1-.07.2-.1.3a2,2,0,0,1,.12-.29,2,2,0,0,1,1.32-1.1,2.07,2.07,0,0,1,.89-.06,2.61,2.61,0,0,1,.83.27,2.5,2.5,0,0,1,1.14,1.3,2.92,2.92,0,0,1,.19,1.13,2.43,2.43,0,0,1-.22,1,2.46,2.46,0,0,1-.58.81,2.51,2.51,0,0,1-.88.51,3.56,3.56,0,0,1-1.91.15,3.18,3.18,0,0,1-1-.42,2.65,2.65,0,0,1-.41-.41c-.17-.22-.52-.79-.45-1.09a3.57,3.57,0,0,0,.65.89,2.67,2.67,0,0,0,1.3.72A3.09,3.09,0,0,0,78.71,31a2.27,2.27,0,0,0,.79-.44,2.25,2.25,0,0,0,.73-1.61,2.69,2.69,0,0,0-.16-1,2.25,2.25,0,0,0-1.76-1.44,1.91,1.91,0,0,0-.79,0,2.05,2.05,0,0,0-.71.35,1.88,1.88,0,0,0-.48.61,2,2,0,0,0-.22.8,2.35,2.35,0,0,0,.14.91,1.71,1.71,0,0,0,.82.95,1.84,1.84,0,0,0,.61.21,1.48,1.48,0,0,0,.66-.05h0a1.4,1.4,0,0,0,.57-.32,1.52,1.52,0,0,0,.38-.52,1.55,1.55,0,0,0,.12-.64,1.65,1.65,0,0,0-.15-.69,1,1,0,0,0-.4-.45,1,1,0,0,1,.44.44,1.83,1.83,0,0,1,.2.69,1.66,1.66,0,0,1-.11.7,1.61,1.61,0,0,1-.81.88s-.17.07-.2.07a1.78,1.78,0,0,1-.73.06A1.81,1.81,0,0,1,77,30.3a1.93,1.93,0,0,1-.93-1A2.76,2.76,0,0,1,76,29a2.18,2.18,0,0,1-.12-.72c0-.11,0-.21,0-.32,0,.06,0,.28,0,.32a2.66,2.66,0,0,0,.18,1,2,2,0,0,0,1,1,1.9,1.9,0,0,0,.69.21,1.69,1.69,0,0,0,.74-.07,1.6,1.6,0,0,0,.65-.36,1.63,1.63,0,0,0,.43-.58,1.86,1.86,0,0,0,.17-.73A2.08,2.08,0,0,0,79.5,28a1.31,1.31,0,0,0-.64-.69,1.18,1.18,0,0,0-.46-.14,1.42,1.42,0,0,0-.5,0,1.17,1.17,0,0,0-.44.26,1.28,1.28,0,0,0-.29.4,1.19,1.19,0,0,0-.1.49,1.3,1.3,0,0,0,.1.52,1.32,1.32,0,0,1-.12-.52,1.47,1.47,0,0,1,.09-.5,1.37,1.37,0,0,1,.29-.42,1.19,1.19,0,0,1,.46-.27,1.29,1.29,0,0,1,1,.06,1.4,1.4,0,0,1,.7.72,2.1,2.1,0,0,1,.16.82,1.83,1.83,0,0,1-.15.77,1.94,1.94,0,0,1-.46.64,2,2,0,0,1-.69.4,2.16,2.16,0,0,1-.8.08,2.16,2.16,0,0,1-1.77-1.35,2.59,2.59,0,0,1-.19-1.06,2.38,2.38,0,0,1,.22-1,2.21,2.21,0,0,1,.58-.78,2.33,2.33,0,0,1,.86-.47,2.47,2.47,0,0,1,.89-.1h.11a2.68,2.68,0,0,1,1,.25,2.83,2.83,0,0,1,1.41,1.42,3.26,3.26,0,0,1,.31,1.3,3.08,3.08,0,0,1-.2,1.24,3,3,0,0,1-.68,1.06,3,3,0,0,1-1.1.72,4.36,4.36,0,0,1-2.34.27,3.94,3.94,0,0,1-.66-.19,3.51,3.51,0,1,0,1.81-6.52Z"/><path class="cls-3" d="M80.82,23.84l-1.13-1.13-1.14,1.13L79.69,25Zm-2.25,0-1.14-1.13L76.3,23.84,77.43,25Z"/></g></g></svg>