<svg xmlns="http://www.w3.org/2000/svg" width="45" height="44.528" viewBox="0 0 45 44.528"><g transform="translate(-815 -2712)"><path d="M-10839.854,12005.133s-5.494,7.812,0,14.76,2.653,12.707-1.347,17.107-5.333,5.624-5.333,5.624l-1.508-.323-14.274-14.49.808-1.939Z" transform="translate(11678 -9287)" fill="#fccb54"/><g transform="translate(815.001 2711.903)"><path d="M151.349,226.828l-9.542-9.543a.75.75,0,0,0-1.06,1.06l9.542,9.543a.75.75,0,0,0,1.06-1.06Zm0,0" transform="translate(-127.367 -196.645)" fill="#404040"/><path d="M107.717,251.058a.75.75,0,1,0-1.06,1.06l9.54,9.541a.749.749,0,1,0,1.06-1.06Zm0,0" transform="translate(-96.455 -227.236)" fill="#404040"/><path d="M44.283,28.8a.749.749,0,0,0-.832.657,7.523,7.523,0,0,1-8.322,6.578,7.443,7.443,0,0,1-5.7-3.879l10-10a2.249,2.249,0,0,0,.657-1.668L39.837,13.4a6.747,6.747,0,1,0-8.016-8.6L24.13,4.542a2.218,2.218,0,0,0-1.669.657L.657,27a2.252,2.252,0,0,0,0,3.181L14.44,43.966a2.249,2.249,0,0,0,3.18,0l10.7-10.7A8.992,8.992,0,0,0,44.94,29.637a.75.75,0,0,0-.657-.834ZM38.25,1.6a5.248,5.248,0,0,1,1.533,10.263l-.162-4.691A2.254,2.254,0,0,0,37.452,5L33.4,4.861A5.254,5.254,0,0,1,38.25,1.6ZM16.56,42.906a.75.75,0,0,1-1.06,0L1.718,29.123a.749.749,0,0,1,0-1.061l21.8-21.8a.758.758,0,0,1,.556-.219l7.453.257c-.015.182-.027.364-.027.55a6.739,6.739,0,0,0,.258,1.843,2.8,2.8,0,0,0-.358.289,3.1,3.1,0,1,0,1.782-.819A5.256,5.256,0,0,1,33,6.846c0-.168.01-.335.025-.5L37.4,6.5a.75.75,0,0,1,.724.724l.459,13.324a.75.75,0,0,1-.22.556ZM32.371,10.152a6.829,6.829,0,0,0,.561.846.75.75,0,1,0,1.182-.922c-.111-.143-.2-.3-.293-.45a1.5,1.5,0,0,1,.764,2.53,1.535,1.535,0,0,1-2.12,0,1.484,1.484,0,0,1-.093-2.007Zm0,0" transform="translate(0 0)" fill="#404040"/></g></g></svg>