<svg xmlns="http://www.w3.org/2000/svg" width="45" height="45.101" viewBox="0 0 45 45.101"><g transform="translate(20247 -2039)"><path d="M-20245.23,2067.83a8.856,8.856,0,0,0,.346,8.771c2.762,4.9,5.869,6.561,5.869,6.561s7.871-6.353,7.389-12.5-7.871-6.284-7.871-6.284-3.109.138-4.352,1.8S-20245.23,2067.83-20245.23,2067.83Z" fill="#fccb54"/><path d="M-20245.23,2067.83a8.856,8.856,0,0,0,.346,8.771c2.762,4.9,5.869,6.561,5.869,6.561s7.871-6.353,7.389-12.5-7.871-6.284-7.871-6.284-3.109.138-4.352,1.8S-20245.23,2067.83-20245.23,2067.83Z" transform="translate(29 -15)" fill="#fccb54"/><g transform="translate(-20247.572 2039)"><g transform="translate(0.572 24.626)"><g transform="translate(0)"><path d="M8.557,279.566A8.009,8.009,0,0,0,3.582,281.3a.659.659,0,0,0,.821,1.03,6.6,6.6,0,0,1,4.153-1.451,6.675,6.675,0,0,1,6.667,6.667c0,4.951-5.168,9.7-6.668,10.978-1.5-1.273-6.667-6.019-6.667-10.978a6.658,6.658,0,0,1,.931-3.4.659.659,0,0,0-1.133-.673,7.977,7.977,0,0,0-1.115,4.073c0,6.411,7.272,12.112,7.582,12.352a.659.659,0,0,0,.806,0c.31-.24,7.582-5.941,7.582-12.352A7.994,7.994,0,0,0,8.557,279.566Z" transform="translate(-0.572 -279.566)" fill="#404040"/></g></g><g transform="translate(4.976 29.031)"><path d="M54.148,329.564a3.581,3.581,0,1,0,3.581,3.581A3.585,3.585,0,0,0,54.148,329.564Zm0,5.844a2.263,2.263,0,1,1,2.263-2.263A2.266,2.266,0,0,1,54.148,335.408Z" transform="translate(-50.567 -329.564)" fill="#404040"/></g><g transform="translate(30.361 9.835)"><path d="M346.357,111.652a7.614,7.614,0,0,0-7.605,7.605c0,2.582,1.22,5.348,3.627,8.222A25.72,25.72,0,0,0,345.954,131a.659.659,0,0,0,.806,0,25.78,25.78,0,0,0,4.181-4.27.659.659,0,0,0-1.045-.8,25.307,25.307,0,0,1-3.538,3.7c-1.447-1.233-6.288-5.708-6.288-10.364a6.288,6.288,0,0,1,12.575,0,9.439,9.439,0,0,1-1.337,4.537.659.659,0,0,0,1.152.64,10.726,10.726,0,0,0,1.5-5.177A7.614,7.614,0,0,0,346.357,111.652Z" transform="translate(-338.752 -111.652)" fill="#404040"/></g><g transform="translate(34.537 14.011)"><path d="M389.588,159.058a3.429,3.429,0,1,0,3.429,3.429A3.433,3.433,0,0,0,389.588,159.058Zm0,5.541a2.112,2.112,0,1,1,2.112-2.112A2.114,2.114,0,0,1,389.588,164.6Z" transform="translate(-386.159 -159.058)" fill="#404040"/></g><g transform="translate(7.653 3.804)"><path d="M84.143,43.181a3.182,3.182,0,1,0,3.182,3.183A3.186,3.186,0,0,0,84.143,43.181Zm0,5.047a1.865,1.865,0,1,1,1.865-1.865A1.867,1.867,0,0,1,84.143,48.228Z" transform="translate(-80.961 -43.181)" fill="#404040"/></g><g transform="translate(3.849)"><path d="M44.765,0a6.994,6.994,0,0,0-6.986,6.986,9.177,9.177,0,0,0,.89,3.78.659.659,0,1,0,1.2-.544A7.878,7.878,0,0,1,39.1,6.986a5.669,5.669,0,1,1,11.337,0c0,4.177-4.313,8.2-5.669,9.363a22.432,22.432,0,0,1-3.628-3.942.659.659,0,1,0-1.078.757,23.324,23.324,0,0,0,4.3,4.561.659.659,0,0,0,.806,0,23.5,23.5,0,0,0,3.266-3.211c2.2-2.629,3.317-5.162,3.317-7.527A7,7,0,0,0,44.765,0Z" transform="translate(-37.779)" fill="#404040"/></g><g transform="translate(17.974 20.338)"><path d="M199.856,231.291l-.8-.352a.659.659,0,1,0-.528,1.207l.8.352a.659.659,0,1,0,.528-1.207Z" transform="translate(-198.128 -230.884)" fill="#404040"/></g><g transform="translate(30.852 25.967)"><path d="M346.049,295.2l-.8-.352a.659.659,0,1,0-.528,1.207l.8.352a.659.659,0,1,0,.528-1.207Z" transform="translate(-344.321 -294.791)" fill="#404040"/></g><g transform="translate(14.755 18.931)"><path d="M163.307,215.315l-.8-.352a.659.659,0,0,0-.528,1.207l.8.352a.659.659,0,1,0,.528-1.207Z" transform="translate(-161.579 -214.908)" fill="#404040"/></g><g transform="translate(11.535 17.523)"><g transform="translate(0)"><path d="M126.759,199.338l-.8-.352a.659.659,0,0,0-.528,1.207l.8.352a.659.659,0,1,0,.528-1.207Z" transform="translate(-125.031 -198.931)" fill="#404040"/></g></g><g transform="translate(34.071 27.375)"><path d="M382.6,311.174l-.8-.352a.659.659,0,0,0-.528,1.207l.8.352a.659.659,0,1,0,.528-1.207Z" transform="translate(-380.869 -310.767)" fill="#404040"/></g><g transform="translate(27.633 24.56)"><path d="M309.5,279.221l-.8-.352a.659.659,0,0,0-.528,1.207l.8.352a.659.659,0,1,0,.528-1.207Z" transform="translate(-307.773 -278.814)" fill="#404040"/></g><g transform="translate(24.413 23.153)"><path d="M272.951,263.245l-.8-.352a.659.659,0,1,0-.528,1.207l.8.352a.659.659,0,1,0,.528-1.207Z" transform="translate(-271.223 -262.838)" fill="#404040"/></g><g transform="translate(21.194 21.745)"><path d="M236.4,247.267l-.8-.352a.659.659,0,1,0-.528,1.207l.8.352a.659.659,0,1,0,.528-1.207Z" transform="translate(-234.675 -246.86)" fill="#404040"/></g><g transform="translate(10.521 42.908)"><path d="M115.537,487.451a.659.659,0,0,0-.891-.272l-.775.413a.659.659,0,1,0,.62,1.163l.775-.413A.659.659,0,0,0,115.537,487.451Z" transform="translate(-113.521 -487.102)" fill="#404040"/></g><g transform="translate(13.622 41.255)"><g transform="translate(0)"><path d="M150.736,468.69a.659.659,0,0,0-.891-.272l-.775.413a.659.659,0,1,0,.62,1.163l.775-.413A.659.659,0,0,0,150.736,468.69Z" transform="translate(-148.72 -468.341)" fill="#404040"/></g></g><g transform="translate(16.723 39.602)"><path d="M185.936,449.928a.659.659,0,0,0-.891-.272l-.775.413a.659.659,0,1,0,.62,1.163l.775-.413A.659.659,0,0,0,185.936,449.928Z" transform="translate(-183.92 -449.579)" fill="#404040"/></g><g transform="translate(32.226 31.339)"><path d="M361.935,356.12a.659.659,0,0,0-.891-.272l-.775.413a.659.659,0,1,0,.62,1.163l.775-.413A.659.659,0,0,0,361.935,356.12Z" transform="translate(-359.919 -355.771)" fill="#404040"/></g><g transform="translate(35.327 29.686)"><path d="M397.135,337.358a.659.659,0,0,0-.891-.272l-.775.413a.659.659,0,1,0,.62,1.163l.775-.413A.659.659,0,0,0,397.135,337.358Z" transform="translate(-395.119 -337.009)" fill="#404040"/></g><g transform="translate(29.125 32.992)"><path d="M326.736,374.881a.658.658,0,0,0-.891-.272l-.775.413a.659.659,0,1,0,.62,1.163l.775-.413A.659.659,0,0,0,326.736,374.881Z" transform="translate(-324.72 -374.531)" fill="#404040"/></g><g transform="translate(19.823 37.95)"><path d="M221.135,431.166a.659.659,0,0,0-.891-.272l-.775.413a.659.659,0,1,0,.62,1.163l.775-.413A.659.659,0,0,0,221.135,431.166Z" transform="translate(-219.119 -430.817)" fill="#404040"/></g><g transform="translate(26.025 34.644)"><path d="M291.537,393.642a.659.659,0,0,0-.891-.271l-.775.413a.659.659,0,1,0,.62,1.163l.775-.413A.659.659,0,0,0,291.537,393.642Z" transform="translate(-289.521 -393.293)" fill="#404040"/></g><g transform="translate(22.924 36.297)"><path d="M256.336,412.4a.658.658,0,0,0-.891-.272l-.775.413a.659.659,0,1,0,.62,1.163l.775-.413A.659.659,0,0,0,256.336,412.4Z" transform="translate(-254.32 -412.055)" fill="#404040"/></g></g></g></svg>