<svg xmlns="http://www.w3.org/2000/svg" width="25.296" height="25" viewBox="0 0 25.296 25"><defs><style>.a{fill:#fcb300;}</style></defs><g transform="translate(0 -3)"><g transform="translate(14.82 15.51)"><path class="a" d="M302.029,259.766a.951.951,0,1,1,1.087-.941.494.494,0,0,0,.988,0,1.966,1.966,0,0,0-1.581-1.873V256.7a.494.494,0,0,0-.988,0v.257a1.966,1.966,0,0,0-1.581,1.873,2.008,2.008,0,0,0,2.075,1.929.951.951,0,1,1-1.087.941.494.494,0,1,0-.988,0,1.966,1.966,0,0,0,1.581,1.873v.213a.494.494,0,1,0,.988,0v-.213A1.966,1.966,0,0,0,304.1,261.7,2.008,2.008,0,0,0,302.029,259.766Z" transform="translate(-299.954 -256.201)"/></g><g transform="translate(18.969 13.76)"><path class="a" d="M387.262,223.161a6.438,6.438,0,0,0-2.63-2.327.494.494,0,0,0-.428.891,5.439,5.439,0,0,1,2.45,7.45.494.494,0,1,0,.872.464,6.43,6.43,0,0,0-.264-6.478Z" transform="translate(-383.924 -220.785)"/></g><g transform="translate(17.144 13.178)"><path class="a" d="M347.527,209h-.033a.494.494,0,1,0,0,.988h.031a.494.494,0,0,0,0-.988Z" transform="translate(-347 -209.001)"/></g><g transform="translate(10.474 16.326)"><g transform="translate(0 0)"><path class="a" d="M216.073,280.888a5.439,5.439,0,0,1-2.45-7.45.494.494,0,0,0-.872-.464,6.426,6.426,0,0,0,2.894,8.8.494.494,0,1,0,.428-.891Z" transform="translate(-212.002 -272.711)"/></g></g><g transform="translate(15.631 25.035)"><g transform="translate(0 0)"><path class="a" d="M316.9,449h-.029a.494.494,0,0,0,0,.988h.033a.494.494,0,0,0,0-.988Z" transform="translate(-316.378 -448.999)"/></g></g><g transform="translate(0 3)"><g transform="translate(0 0)"><path class="a" d="M19.141,11.506a2.268,2.268,0,0,0-.22-.4h1.286a2.273,2.273,0,0,0,0-4.545H16.251A2.271,2.271,0,0,0,14.377,3H2.273a2.273,2.273,0,1,0,0,4.545H6.229a2.266,2.266,0,0,0,0,2.569H4.941a2.271,2.271,0,0,0-1.412,4.051,2.269,2.269,0,0,0,0,3.557,2.269,2.269,0,0,0,0,3.557,2.271,2.271,0,0,0,1.412,4.051h5.823a8.4,8.4,0,1,0,8.377-13.826Zm1.067-3.961a1.285,1.285,0,0,1,0,2.569H8.1a1.285,1.285,0,0,1,0-2.569ZM2.273,6.557a1.285,1.285,0,1,1,0-2.569h12.1a1.285,1.285,0,0,1,0,2.569ZM4.941,11.1h12.1a1.284,1.284,0,0,1,.561.129c-.234-.02-.47-.03-.709-.03a8.373,8.373,0,0,0-5.944,2.47H4.941a1.285,1.285,0,1,1,0-2.569Zm0,3.557h5.169a8.375,8.375,0,0,0-1.27,2.569h-3.9a1.285,1.285,0,0,1,0-2.569Zm0,3.557H8.613a8.406,8.406,0,0,0-.03,2.569H4.941a1.285,1.285,0,0,1,0-2.569Zm0,6.126a1.285,1.285,0,0,1,0-2.569H8.784a8.366,8.366,0,0,0,1.185,2.569ZM16.9,27.012A7.411,7.411,0,1,1,24.308,19.6,7.419,7.419,0,0,1,16.9,27.012Z" transform="translate(0 -3)"/></g></g></g></svg>