<svg xmlns="http://www.w3.org/2000/svg" width="40" height="36.243" viewBox="0 0 40 36.243">
  <g id="notes" transform="translate(0 -24.045)">
    <g id="Group_331" data-name="Group 331" transform="translate(0 24.045)">
      <g id="Group_330" data-name="Group 330">
        <path id="Path_3145" data-name="Path 3145" d="M22.3,48.881a3.716,3.716,0,0,0-.621.823l-2,3.6a.586.586,0,0,0,.8.8l3.6-2a3.718,3.718,0,0,0,.823-.621L39.646,36.735a1.214,1.214,0,0,0,0-1.714l-.886-.886a1.212,1.212,0,0,0-1.714,0l-8.318,8.318V27.136a3.1,3.1,0,0,0-3.091-3.091H3.091A3.094,3.094,0,0,0,0,27.136V52.187a.586.586,0,0,0,.586.586H2.5V59.7a.586.586,0,0,0,.586.586H28.142a.586.586,0,0,0,.586-.586V51.156a.586.586,0,1,0-1.172,0v7.96H6.182V58.45a.586.586,0,1,0-1.172,0v.666H3.677v-30.1a.04.04,0,0,1,.04-.04H5.01v26.97a.586.586,0,1,0,1.172,0V28.975h18.2a.586.586,0,1,0,0-1.172H6.182v-.667a3.075,3.075,0,0,0-.671-1.919H25.637a1.921,1.921,0,0,1,1.919,1.919V27.8h-.667a.586.586,0,0,0,0,1.172h.667v14.65ZM5.01,27.8H3.717a1.214,1.214,0,0,0-1.212,1.212V51.6H1.172V27.136a1.919,1.919,0,0,1,3.838,0V27.8Zm18.5,23.275L21.7,52.083,22.7,50.274a2.556,2.556,0,0,1,.167-.259l.9.9A2.547,2.547,0,0,1,23.507,51.078ZM37.874,34.964a.04.04,0,0,1,.057,0l.886.886a.04.04,0,0,1,0,.057l-.914.914-.943-.943Zm-1.743,1.743.943.943L24.617,50.106l-.943-.943Z" transform="translate(0 -24.045)" fill="#404040"/>
      </g>
    </g>
    <g id="Group_333" data-name="Group 333" transform="translate(9.394 34.065)">
      <g id="Group_332" data-name="Group 332" transform="translate(0 0)">
        <path id="Path_3146" data-name="Path 3146" d="M134.608,152.3H120.83a.586.586,0,1,0,0,1.172h13.778a.586.586,0,0,0,0-1.172Z" transform="translate(-120.244 -152.305)" fill="#fcb300"/>
      </g>
    </g>
    <g id="Group_335" data-name="Group 335" transform="translate(9.394 37.197)">
      <g id="Group_334" data-name="Group 334" transform="translate(0 0)">
        <path id="Path_3147" data-name="Path 3147" d="M134.608,192.387H120.83a.586.586,0,0,0,0,1.172h13.778a.586.586,0,0,0,0-1.172Z" transform="translate(-120.244 -192.387)" fill="#fcb300"/>
      </g>
    </g>
    <g id="Group_337" data-name="Group 337" transform="translate(9.394 40.328)">
      <g id="Group_336" data-name="Group 336" transform="translate(0 0)">
        <path id="Path_3148" data-name="Path 3148" d="M134.608,232.467H120.83a.586.586,0,1,0,0,1.172h13.778a.586.586,0,0,0,0-1.172Z" transform="translate(-120.244 -232.467)" fill="#fcb300"/>
      </g>
    </g>
    <g id="Group_339" data-name="Group 339" transform="translate(9.394 43.459)">
      <g id="Group_338" data-name="Group 338" transform="translate(0 0)">
        <path id="Path_3149" data-name="Path 3149" d="M134.608,272.549H120.83a.586.586,0,1,0,0,1.172h13.778a.586.586,0,0,0,0-1.172Z" transform="translate(-120.244 -272.549)" fill="#fcb300"/>
      </g>
    </g>
    <g id="Group_341" data-name="Group 341" transform="translate(9.394 46.591)">
      <g id="Group_340" data-name="Group 340">
        <path id="Path_3150" data-name="Path 3150" d="M130.85,312.629H120.83a.586.586,0,1,0,0,1.172h10.02a.586.586,0,0,0,0-1.172Z" transform="translate(-120.244 -312.629)" fill="#fcb300"/>
      </g>
    </g>
  </g>
</svg>
