<svg xmlns="http://www.w3.org/2000/svg" width="45" height="48.541" viewBox="0 0 45 48.541"><defs><style>.a{fill:#fcb300;}</style></defs><g transform="translate(0 0)"><path d="M41.18,26.407A3.825,3.825,0,0,0,45,22.586v-12.2a3.82,3.82,0,0,0-7.052-2.037h-2.09V4.855A1.187,1.187,0,0,0,34.673,3.67h-2.79V1.184A1.186,1.186,0,0,0,30.7,0H13.592a1.186,1.186,0,0,0-1.185,1.185V3.67H9.618A1.186,1.186,0,0,0,8.433,4.856V47.119H4.113V43.288A7.3,7.3,0,0,0,6.536,40.92a2.587,2.587,0,0,0,.049-2.182,2.09,2.09,0,0,0-1.388-1.2,2.159,2.159,0,0,0-1.795.347,2.161,2.161,0,0,0-1.795-.347,2.091,2.091,0,0,0-1.388,1.2A2.587,2.587,0,0,0,.268,40.92a7.3,7.3,0,0,0,2.423,2.368v3.83H.711a.711.711,0,0,0,0,1.422H43.579a.711.711,0,0,0,0-1.422H35.858V21.4h1.5v1.182a3.825,3.825,0,0,0,3.821,3.821ZM3.4,41.855a.71.71,0,0,0-.219.034,6.259,6.259,0,0,1-1.649-1.615,1.164,1.164,0,0,1-.018-.955.676.676,0,0,1,.452-.407.611.611,0,0,1,.156-.02.71.71,0,0,1,.607.324.759.759,0,0,0,1.339,0,.719.719,0,0,1,.763-.305.678.678,0,0,1,.453.407,1.165,1.165,0,0,1-.018.955A6.258,6.258,0,0,1,3.62,41.889a.716.716,0,0,0-.218-.034Zm18.032,5.264H18.491V38.444h2.943Zm-5.19-10.1v-.664h11.8v.664Zm9.556,10.1H22.856V38.444H25.8Zm8.636,0H27.221V38.444h1.062a1.186,1.186,0,0,0,1.185-1.185V36.121a1.186,1.186,0,0,0-1.185-1.185H16.007a1.186,1.186,0,0,0-1.185,1.185v1.138a1.186,1.186,0,0,0,1.185,1.185h1.062v8.675H9.855V5.093h5.18a.711.711,0,0,0,0-1.422H13.829V1.421H30.461V3.671H17.879a.711.711,0,0,0,0,1.422H34.436Zm1.422-27.136V9.771h1.55a3.859,3.859,0,0,0-.049.614v1.5a.711.711,0,1,0,1.422,0v-1.5a2.4,2.4,0,1,1,4.8,0v12.2a2.4,2.4,0,0,1-4.8,0V14.726a.711.711,0,1,0-1.422,0v5.257Zm0,0" transform="translate(0 0)"/><path class="a" d="M132.376,99.745v4.628h-.3a.9.9,0,0,0-.9.9v1.916a.9.9,0,0,0,.9.9h6.238a.9.9,0,0,0,.9-.9v-1.916a.9.9,0,0,0-.9-.9h-.3V99.745a.9.9,0,0,0-.9-.9h-3.838A.9.9,0,0,0,132.376,99.745Zm5.417,6.05v.873h-5.2v-.873Zm-4-5.528h2.8v4.106h-2.8Zm0,0" transform="translate(-118.739 -89.473)"/><path class="a" d="M252.077,108.09h6.238a.9.9,0,0,0,.9-.9v-1.916a.9.9,0,0,0-.9-.9h-.3V99.744a.9.9,0,0,0-.9-.9h-3.838a.9.9,0,0,0-.9.9v4.628h-.3a.9.9,0,0,0-.9.9v1.916A.9.9,0,0,0,252.077,108.09Zm1.722-7.824h2.8v4.106h-2.8Zm-1.2,5.528h5.2v.873h-5.2Zm0,0" transform="translate(-227.362 -89.473)"/><path class="a" d="M138.315,240.958h-.3V236.33a.9.9,0,0,0-.9-.9h-3.838a.9.9,0,0,0-.9.9v4.628h-.3a.9.9,0,0,0-.9.9v1.916a.9.9,0,0,0,.9.9h6.238a.9.9,0,0,0,.9-.9v-1.916A.9.9,0,0,0,138.315,240.958Zm-4.517-4.106h2.8v4.106h-2.8Zm4,6.4h-5.2v-.873h5.2Zm0,0" transform="translate(-118.74 -213.11)"/><path class="a" d="M252.077,244.675h6.238a.9.9,0,0,0,.9-.9v-1.916a.9.9,0,0,0-.9-.9h-.3V236.33a.9.9,0,0,0-.9-.9h-3.838a.9.9,0,0,0-.9.9v4.628h-.3a.9.9,0,0,0-.9.9v1.916A.9.9,0,0,0,252.077,244.675Zm1.722-7.823h2.8v4.106h-2.8Zm-1.2,5.528h5.2v.873h-5.2Zm0,0" transform="translate(-227.362 -213.11)"/></g></svg>