<svg xmlns="http://www.w3.org/2000/svg" width="55" height="40.376" viewBox="0 0 55 40.376"><defs><style>.a{fill:#fcb300;}</style></defs><g transform="translate(0 -68.066)"><g transform="translate(42.19 85.295)"><path class="a" d="M399.086,229.4c-1.871-.936-5.38-.946-5.529-.946a.806.806,0,0,0,0,1.611,13.912,13.912,0,0,1,4.808.776.806.806,0,1,0,.721-1.441Z" transform="translate(-392.751 -228.449)"/></g><g transform="translate(0 68.066)"><path class="a" d="M52.541,97.712l-3.327-.951a.338.338,0,0,1-.244-.323V95.327a6.056,6.056,0,0,0,.77-.632,5.927,5.927,0,0,0,1.814-4.288V88.875l.322-.643a5.14,5.14,0,0,0,.54-2.287V81.793a.806.806,0,0,0-.806-.806H43.857A5.119,5.119,0,0,0,38.744,86.1v.048a4.273,4.273,0,0,0,.449,1.9l.413.825v1.316a6.286,6.286,0,0,0,2.584,5.083v1.164c0,.179,0,.254-.665.444l-1.624.464-4.7-1.708a.8.8,0,0,0-.22-.617l-1.5-1.577V90.8c.159-.131.315-.265.467-.407a9.456,9.456,0,0,0,2.979-6.874V81.4a9.313,9.313,0,0,0,.861-3.916V68.872a.806.806,0,0,0-.806-.806H24.926a7.706,7.706,0,0,0-7.7,7.7v1.723A9.313,9.313,0,0,0,18.09,81.4v1.819a9.845,9.845,0,0,0,3.446,7.514v2.709l-1.5,1.577a.8.8,0,0,0-.22.617l-4.957,1.8a4.225,4.225,0,0,0-1,.522l-.778-.389a6.153,6.153,0,0,0,3.086-2.5.805.805,0,0,0,0-.721c-.581-1.162-.651-3.291-.708-5-.019-.57-.037-1.108-.071-1.587a7.008,7.008,0,0,0-6.834-6.779,7.008,7.008,0,0,0-6.834,6.779c-.034.479-.052,1.017-.071,1.587-.057,1.711-.127,3.84-.708,5a.805.805,0,0,0,0,.721,6.152,6.152,0,0,0,3.089,2.5L1.874,98.652A3.372,3.372,0,0,0,0,101.684v5.952a.806.806,0,0,0,1.611,0v-5.952a1.769,1.769,0,0,1,.983-1.591l2.692-1.346.937.89a3.388,3.388,0,0,0,4.67,0l.936-.89.878.439a4.243,4.243,0,0,0-.648,2.249v6.2a.806.806,0,0,0,1.611,0v-6.2a2.648,2.648,0,0,1,1.738-2.481l5.226-1.9,2.176,3.264a1.661,1.661,0,0,0,1.223.734q.083.008.166.008a1.661,1.661,0,0,0,1.177-.488L26.7,99.244v8.392a.806.806,0,0,0,1.611,0V99.244l1.327,1.327a1.66,1.66,0,0,0,1.177.488q.083,0,.166-.008a1.661,1.661,0,0,0,1.223-.734l2.176-3.263,5.226,1.9a2.648,2.648,0,0,1,1.738,2.481v6.2a.806.806,0,0,0,1.611,0v-6.2a4.259,4.259,0,0,0-1.192-2.948l.2-.057a4.418,4.418,0,0,0,.75-.271l2.057,2.057v7.419a.806.806,0,0,0,1.611,0v-7.419l2.043-2.043a1.917,1.917,0,0,0,.343.136l3.327.951a1.786,1.786,0,0,1,1.29,1.71v6.665a.806.806,0,0,0,1.611,0v-6.665A3.4,3.4,0,0,0,52.541,97.712ZM5.169,96.289a5.792,5.792,0,0,1-2.586-1.66A8.881,8.881,0,0,0,3.042,92.7a6.008,6.008,0,0,0,2.126,2.624Zm4.615,2.18a1.778,1.778,0,0,1-2.451,0l-.749-.712a1.667,1.667,0,0,0,.2-.787v-.859a5.991,5.991,0,0,0,3.557,0v.858a1.667,1.667,0,0,0,.2.787Zm-1.225-3.7A4.368,4.368,0,0,1,4.2,90.408a.8.8,0,0,0-.938-.794c0-.069,0-.139.007-.207.018-.554.035-1.077.067-1.526a5.981,5.981,0,0,1,1.629-3.756,5.006,5.006,0,0,1,7.2,0,5.981,5.981,0,0,1,1.629,3.756c.032.449.049.972.067,1.526l0,.144a7.239,7.239,0,0,0-3.979-2.908,10.112,10.112,0,0,0-3.064-.486.806.806,0,0,0-.558.246L4.8,87.91a.806.806,0,1,0,1.16,1.118l1.21-1.254c1.042.051,4.393.441,5.7,3.311A4.352,4.352,0,0,1,8.559,94.771Zm3.389,1.521V95.33A5.959,5.959,0,0,0,14.076,92.7a8.869,8.869,0,0,0,.459,1.925A5.819,5.819,0,0,1,11.948,96.291ZM19.7,83.221v-2a.806.806,0,0,0-.08-.35,7.728,7.728,0,0,1-.781-3.386V75.763a6.093,6.093,0,0,1,6.086-6.086H36.18v7.809a7.728,7.728,0,0,1-.781,3.386.806.806,0,0,0-.08.35v2.294a7.735,7.735,0,0,1-2.47,5.7,8.017,8.017,0,0,1-.619.524l-.014.01a7.747,7.747,0,0,1-5.228,1.56A7.98,7.98,0,0,1,19.7,83.221Zm4.536,16.211a.051.051,0,0,1-.045.016.051.051,0,0,1-.041-.025l-2.506-3.758.806-.847,3.8,2.6Zm3.272-3.109-4.363-2.982v-1.5a9.071,9.071,0,0,0,3.737,1.079q.319.021.634.021a9.332,9.332,0,0,0,4.355-1.067v1.472Zm3.358,3.1a.051.051,0,0,1-.041.025.05.05,0,0,1-.045-.016l-2.016-2.016,3.8-2.6.806.847Zm14.712-.68-1.828-1.828a2.21,2.21,0,0,0,.05-.479V96.1a5.649,5.649,0,0,0,1.6.282l.186,0a5.985,5.985,0,0,0,1.776-.269v.324a1.926,1.926,0,0,0,.058.47Zm3.038-5.205a4.33,4.33,0,0,1-3.173,1.23,4.51,4.51,0,0,1-4.228-4.578V88.685a.8.8,0,0,0-.085-.36l-.5-1a2.654,2.654,0,0,1-.279-1.181V86.1a3.505,3.505,0,0,1,3.5-3.5H50.8v3.346a3.52,3.52,0,0,1-.37,1.566l-.407.813a.805.805,0,0,0-.085.36v1.723A4.329,4.329,0,0,1,48.618,93.539Z" transform="translate(0 -68.066)"/></g><g transform="translate(49.943 101.662)"><path class="a" d="M465.729,380.814a.806.806,0,0,0-.806.806v5.169a.806.806,0,0,0,1.611,0V381.62A.806.806,0,0,0,465.729,380.814Z" transform="translate(-464.923 -380.814)"/></g><g transform="translate(3.446 102.727)"><path class="a" d="M32.883,390.728a.806.806,0,0,0-.806.806v4.1a.806.806,0,0,0,1.611,0v-4.1A.806.806,0,0,0,32.883,390.728Z" transform="translate(-32.077 -390.728)"/></g><g transform="translate(20.674 75.385)"><path class="a" d="M205.9,138.6c-3.047-3.047-9.423-2.465-12.022-2.073a1.654,1.654,0,0,0-1.413,1.648v1.856a.806.806,0,1,0,1.611,0V138.17a.053.053,0,0,1,.042-.054,25.453,25.453,0,0,1,5.234-.256c2.512.167,4.332.8,5.409,1.875A.806.806,0,1,0,205.9,138.6Z" transform="translate(-192.46 -136.203)"/></g><g transform="translate(17.229 103.385)"><path class="a" d="M161.19,396.853a.806.806,0,0,0-.806.806V401.1a.806.806,0,0,0,1.611,0v-3.446A.806.806,0,0,0,161.19,396.853Z" transform="translate(-160.384 -396.853)"/></g><g transform="translate(36.18 103.385)"><path class="a" d="M337.612,396.853a.806.806,0,0,0-.806.806V401.1a.806.806,0,0,0,1.611,0v-3.446A.806.806,0,0,0,337.612,396.853Z" transform="translate(-336.806 -396.853)"/></g></g></svg>