<svg xmlns="http://www.w3.org/2000/svg" width="44.998" height="40.43" viewBox="0 0 44.998 40.43"><g transform="translate(19895 -2045)"><path d="M-19868.732,2061.375a14.993,14.993,0,0,0,4.758.232c2.668-.29,6.672-1.1,7.6-.7s1.043,7.426-3.539,8.586-8.008-3.307-8.818-6.266S-19868.732,2061.375-19868.732,2061.375Z" fill="#fccb54"/><path d="M-19868.822,2062.154s1.162,7.363,7.588,7.319c-3.437-4.686-2.633-.4-6.828-7.631C-19869.135,2060.994-19868.822,2062.154-19868.822,2062.154Z" fill="#fff"/><g transform="matrix(0.998, -0.07, 0.07, 0.998, -19889.385, 2060.272)"><path d="M-19856.221,2061.375a14.993,14.993,0,0,1-4.758.232c-2.668-.29-6.672-1.1-7.6-.7s-1.043,7.426,3.539,8.586,8.008-3.307,8.818-6.266S-19856.221,2061.375-19856.221,2061.375Z" transform="translate(19869.092 -2060.8)" fill="#fccb54"/><path d="M-19861.279,2062.154s-1.162,7.363-7.588,7.319c3.438-4.686,2.633-.4,6.828-7.631C-19860.967,2060.994-19861.279,2062.154-19861.279,2062.154Z" transform="translate(19874.24 -2060.8)" fill="#fff"/></g><g transform="translate(-19895 2018.999)"><g transform="translate(0 31.83)"><g transform="translate(0 0)"><path d="M21.161,96.226a.879.879,0,0,0-.655-.83l-8.38-2.21h0l-3.156-.832A.879.879,0,0,0,8,92.741a25.533,25.533,0,0,0-2.875,6.6c-1.029,3.781-.855,7.024.505,9.38a6.72,6.72,0,0,0,3.368,2.933l-3.231,11.87L1.1,122.292a.879.879,0,0,0-.448,1.7l5.5,1.45,5.51,1.453a.879.879,0,0,0,.448-1.7l-4.646-1.225L10.693,112.1a6.915,6.915,0,0,0,.948.066c3.919,0,7.156-3.295,8.658-8.813A25.374,25.374,0,0,0,21.161,96.226ZM18.6,102.894c-1.281,4.707-3.884,7.517-6.962,7.517a5.327,5.327,0,0,1-1.357-.18,5.026,5.026,0,0,1-3.136-2.392,8.867,8.867,0,0,1-.832-5.547,20.641,20.641,0,0,0,3.332.265,37.81,37.81,0,0,0,4.767-.376,18.674,18.674,0,0,1,4.42-.222Q18.728,102.432,18.6,102.894Zm.552-2.664a19.615,19.615,0,0,0-4.956.207,25.774,25.774,0,0,1-7.574.126q.087-.377.191-.763a23.7,23.7,0,0,1,2.342-5.579l1.4.368c-.253.488-.487.989-.668,1.4a.879.879,0,1,0,1.606.716c.284-.638.562-1.2.81-1.652l7.107,1.874A23.927,23.927,0,0,1,19.156,100.229Z" transform="translate(0 -92.323)" fill="#404040"/></g></g><g transform="translate(23.832 31.83)"><g transform="translate(0 0)"><path d="M385.294,469.133h0l-5.465,1.441Z" transform="translate(-370.277 -436.015)" fill="#404040"/><path d="M379.373,485.533l-.044.012Z" transform="translate(-369.822 -450.973)" fill="#404040"/><path d="M292.3,122.917a.879.879,0,0,0-1.074-.626l-4.66,1.229-3.231-11.87a6.719,6.719,0,0,0,3.368-2.933c1.36-2.356,1.535-5.6.505-9.38a25.535,25.535,0,0,0-2.875-6.6.879.879,0,0,0-.972-.389l-11.538,3.043a.879.879,0,0,0-.655.83,25.49,25.49,0,0,0,.687,6.442.883.883,0,0,0,.021.086c.049.2.1.4.154.6,1.5,5.518,4.739,8.812,8.658,8.813h0a6.91,6.91,0,0,0,.948-.066l3.231,11.867-4.646,1.225a.879.879,0,1,0,.448,1.7l5.508-1.453h0l5.5-1.45A.879.879,0,0,0,292.3,122.917ZM272.92,96.923l10.25-2.7a23.7,23.7,0,0,1,2.342,5.579q.225.828.366,1.609a11.8,11.8,0,0,0-1.635-.039c-.094-.643-.233-1.314-.352-1.834a.879.879,0,1,0-1.714.39c.133.587.238,1.127.31,1.59-.4.045-.8.1-1.207.148a24.668,24.668,0,0,1-7.833.087A23.81,23.81,0,0,1,272.92,96.923Zm7.768,13.487h0c-2.92,0-5.411-2.529-6.753-6.806a20.539,20.539,0,0,0,2.8.189,36.666,36.666,0,0,0,4.767-.387,16.964,16.964,0,0,1,4.592-.2,8.267,8.267,0,0,1-.914,4.633,5.026,5.026,0,0,1-3.136,2.392A5.317,5.317,0,0,1,280.688,110.409Z" transform="translate(-271.161 -92.322)" fill="#404040"/></g></g><g transform="translate(21.621 26.001)"><g transform="translate(0 0)"><path d="M246.878,26a.879.879,0,0,0-.879.879v2.292a.879.879,0,1,0,1.758,0V26.88A.879.879,0,0,0,246.878,26Z" transform="translate(-245.999 -26.001)" fill="#404040"/></g></g><g transform="translate(16.852 27.892)"><g transform="translate(0 0)"><path d="M194.549,49.931l-1.165-1.985a.879.879,0,0,0-1.516.889l1.165,1.985a.879.879,0,0,0,1.516-.889Z" transform="translate(-191.747 -47.511)" fill="#404040"/></g></g><g transform="translate(25.224 27.892)"><g transform="translate(0 0)"><path d="M289.486,47.634a.879.879,0,0,0-1.2.313l-1.165,1.985a.879.879,0,1,0,1.516.889l1.165-1.985A.879.879,0,0,0,289.486,47.634Z" transform="translate(-286.998 -47.513)" fill="#404040"/></g></g><g transform="translate(34.189 35.99)"><path d="M390.715,140.274l0-.005a.879.879,0,0,0-1.681.516l.006.018a.879.879,0,0,0,1.677-.529Z" transform="translate(-388.995 -139.651)" fill="#404040"/></g><g transform="translate(8.789 37.251)"><g transform="translate(0 0)"><circle cx="0.879" cy="0.879" r="0.879" fill="#404040"/></g></g></g></g></svg>