<svg xmlns="http://www.w3.org/2000/svg" width="45" height="44.816" viewBox="0 0 45 44.816"><g transform="translate(-815 -2968)"><circle cx="3" cy="3" r="3" transform="translate(820 2991)" fill="#fcb300"/><g transform="translate(0 -9.999)"><path d="M-10861.2,12304.749h37.633v-4.615h-38.343v4.615Z" transform="translate(11678 -9287)" fill="#fcb300"/><g transform="translate(814.999 2977.952)"><path d="M56.946,237.2a3.746,3.746,0,0,0-2.63,1.081,3.757,3.757,0,1,0,0,5.351,3.757,3.757,0,1,0,2.63-6.433Zm-5.26,6.011a2.254,2.254,0,1,1,2.254-2.254A2.254,2.254,0,0,1,51.686,243.21Zm5.26,0a2.229,2.229,0,0,1-1.768-.891,3.634,3.634,0,0,0,0-2.726,2.231,2.231,0,0,1,1.768-.891,2.254,2.254,0,1,1,0,4.508Zm0,0" transform="translate(-43.42 -214.877)"/><path d="M44.5,30.549l-3.927-6.8V21.57a3.75,3.75,0,0,0-3.408-3.722l-9.2-15.929A3.772,3.772,0,0,0,22.835.549L5.923,10.317a3.757,3.757,0,0,0-1.381,5.131l1.369,2.365H3.758A3.761,3.761,0,0,0,0,21.57V41.106a3.761,3.761,0,0,0,3.757,3.757H36.819a3.761,3.761,0,0,0,3.757-3.757V37.158l2.548-1.473A3.774,3.774,0,0,0,44.5,30.549ZM23.587,1.851a2.263,2.263,0,0,1,3.081.822l8.744,15.14h-9.08a3.709,3.709,0,0,0,1.141-.422,3.757,3.757,0,0,0-.872-6.875A3.757,3.757,0,1,0,21.962,13.2a3.734,3.734,0,0,0,2.905,4.614H18.054L12.525,8.24Zm-2.575,8.859a2.254,2.254,0,1,1,1.369,1.052,2.254,2.254,0,0,1-1.369-1.052Zm2.514,2.585a3.728,3.728,0,0,0,2.39-1.391,2.2,2.2,0,0,1,1.63,1.106,2.255,2.255,0,0,1-3.907,2.254,2.232,2.232,0,0,1-.113-1.969ZM12.849,17.813,8.625,10.492l2.6-1.5,5.094,8.824ZM5.843,14.7a2.255,2.255,0,0,1,.827-3.077l.649-.376,3.793,6.57H7.647Zm33.229,26.41a2.254,2.254,0,0,1-2.254,2.254H3.758A2.254,2.254,0,0,1,1.5,41.106v-.751H39.073Zm0-2.254H1.5V35.846H39.073Zm0-4.508H1.5V21.57a2.254,2.254,0,0,1,2.254-2.254H36.819a2.254,2.254,0,0,1,2.254,2.254Zm3.3.041-1.8,1.038V26.755L43.2,31.3A2.269,2.269,0,0,1,42.371,34.385Zm0,0"/></g></g></g></svg>