<svg xmlns="http://www.w3.org/2000/svg" width="43.141" height="45" viewBox="0 0 43.141 45"><g transform="translate(-325 -3455)"><path d="M-492.7,3455.813v20.556l10.969-17.631,17.063,10.156v-13.081Z" transform="translate(825)" fill="#fcb300" opacity="0.65"/><g transform="translate(324.5 3455.001)"><path d="M43.318,17.519,36.6,13.486q0-.032,0-.066V.664A.664.664,0,0,0,35.939,0H33.015a.664.664,0,0,0,0,1.329h2.259V12.69L29.334,9.123H32.4a.664.664,0,1,0,0-1.329H27.228a.67.67,0,0,0-.1.008L24.611,6.289H32.4a.665.665,0,0,0,0-1.329H22.474a.667.667,0,0,0-.07,0l-3.39-2.035a.671.671,0,0,0-.912.228l-.232.386H11.135a.664.664,0,0,0-.664.664v7.087a.665.665,0,0,0,.664.664h1.684l-4.563,7.6V1.328H29.945a.664.664,0,0,0,0-1.329H7.592a.664.664,0,0,0-.665.664V21.772L.595,32.321a.664.664,0,0,0,.228.912L20.266,44.9a.672.672,0,0,0,.5.075l7.779-1.943a.672.672,0,0,0,.409-.3l4.436-7.39h2.546a.665.665,0,0,0,.665-.665V30L43.546,18.43a.664.664,0,0,0-.228-.912Zm-29.7-6.889H11.8V4.871h5.274L13.617,10.63h0ZM22,43.3l1.751-2.916,2.916,1.751-.481.12Zm13.272-9.286H34.19l1.084-1.806Zm-7.116,7.465-4.291-2.576a.664.664,0,0,0-.912.228L20.38,43.424,2.076,32.435,18.9,4.41,42.065,18.316Zm0,0" fill="#404040"/><path d="M258.084,124.764l4.861,2.918a.664.664,0,0,0,.684-1.139l-4.861-2.918a.664.664,0,0,0-.684,1.139Zm0,0" transform="translate(-234.65 -112.674)" fill="#404040"/><path d="M341.041,174.566l6.684,4.012a.664.664,0,1,0,.684-1.139l-6.684-4.012a.664.664,0,0,0-.684,1.139Zm0,0" transform="translate(-310.316 -158.098)" fill="#404040"/><path d="M184.791,137.194l5.468,3.283a.664.664,0,1,0,.684-1.139l-5.468-3.283a.664.664,0,0,0-.684,1.139Zm0,0" transform="translate(-167.799 -124.011)" fill="#404040"/><path d="M285.675,196.205,275.346,190a.664.664,0,0,0-.684,1.139l10.329,6.2a.664.664,0,1,0,.684-1.139Zm0,0" transform="translate(-249.772 -173.219)" fill="#404040"/><path d="M182.952,181.563,164.724,170.62a.664.664,0,0,0-.684,1.139L182.268,182.7a.664.664,0,1,0,.684-1.139Zm0,0" transform="translate(-148.873 -155.538)" fill="#404040"/><path d="M206.34,242.628l-13.975-8.389a.664.664,0,1,0-.684,1.139l13.975,8.389a.664.664,0,1,0,.684-1.139Zm0,0" transform="translate(-174.085 -213.565)" fill="#404040"/><path d="M122.541,240.89l10.937,6.565a.664.664,0,0,0,.684-1.139l-10.937-6.566a.664.664,0,0,0-.684,1.139Zm0,0" transform="translate(-111.02 -218.593)" fill="#404040"/><path d="M280.173,333.972l-4.861-2.918a.664.664,0,1,0-.684,1.139l4.861,2.918a.664.664,0,1,0,.684-1.139Zm0,0" transform="translate(-249.741 -301.871)" fill="#404040"/><path d="M101.791,275.456l4.253,2.553a.664.664,0,1,0,.684-1.139l-4.253-2.553a.664.664,0,1,0-.684,1.139Zm0,0" transform="translate(-92.094 -250.121)" fill="#404040"/><path d="M190.062,326.9l-11.544-6.93a.664.664,0,1,0-.684,1.139l11.545,6.93a.664.664,0,1,0,.684-1.139Zm0,0" transform="translate(-161.454 -291.761)" fill="#404040"/><path d="M99.952,319.826,81.724,308.883a.664.664,0,0,0-.684,1.139l18.228,10.943a.664.664,0,0,0,.684-1.139Zm0,0" transform="translate(-73.168 -281.649)" fill="#404040"/><path d="M68.262,347.826l-7.291-4.377a.664.664,0,1,0-.684,1.139l7.291,4.377a.664.664,0,0,0,.684-1.139Zm0,0" transform="translate(-54.238 -313.177)" fill="#404040"/><path d="M175.834,412.405l-4.253-2.553a.664.664,0,1,0-.684,1.139l4.253,2.553a.664.664,0,1,0,.684-1.139Zm0,0" transform="translate(-155.127 -373.744)" fill="#404040"/></g></g></svg>