<svg xmlns="http://www.w3.org/2000/svg" width="56.72" height="46.929" viewBox="0 0 56.72 46.929"><g transform="translate(0 -32.112)"><g transform="translate(18.914 32.112)"><g transform="translate(0 0)"><path d="M160.864,32.6a3.374,3.374,0,0,0-2.185-.468,8.7,8.7,0,0,0-3.9,1.639q-1.522,1.171-3.512,2.81L149.39,38.22c-.39.39-.781.7-1.171,1.093a1.359,1.359,0,0,1-1.171.39c-.234-.078-.546-.156-.859-.234L131.594,34c-.468-.156-.937-.312-1.483-.468a2.458,2.458,0,0,0-2.342.39,6.974,6.974,0,0,0-2.029,2.264,1.846,1.846,0,0,0,.39,2.5,5.693,5.693,0,0,0,.859.7c2.654,1.873,5.386,3.668,8.039,5.542a12.4,12.4,0,0,1,2.654,2.185c.156.234.312.39.468.624l-5.073,4.839c-.546.546-1.093,1.015-1.639,1.561-.078,0-.156-.078-.234-.078l-.859-.39c-.7-.312-1.327-.7-2.029-1.015a2.25,2.25,0,0,0-2.5.312,14.98,14.98,0,0,0-1.171,1.093,1.63,1.63,0,0,0-.156,2.342,3.4,3.4,0,0,0,.468.546l1.483,1.873c1.717,2.264,3.512,4.527,5.308,6.713a2.567,2.567,0,0,0,2.5,1.015A2.928,2.928,0,0,0,136.2,64.68a3.632,3.632,0,0,0,.078-2.576l-.156-.7-.468-1.873c2.107-1.639,4.215-3.2,6.244-4.839l1.015-.781.234.39a12.055,12.055,0,0,1,1.327,2.654l3.59,9.21c.234.546.39,1.093.624,1.561a1.967,1.967,0,0,0,1.8,1.327,2.078,2.078,0,0,0,.937-.234,1.569,1.569,0,0,0,.624-.312,4.117,4.117,0,0,0,2.342-2.654,6.463,6.463,0,0,0,.078-2.42L152.59,49.771c-.156-1.093-.312-2.264-.468-3.356a1.113,1.113,0,0,1,.468-1.171l1.639-1.4c1.327-1.093,2.576-2.185,3.9-3.278a12.677,12.677,0,0,0,2.42-2.732,8.2,8.2,0,0,0,1.171-2.5A2.334,2.334,0,0,0,160.864,32.6Zm-.624,2.42a8.785,8.785,0,0,1-1.015,2.107,9.516,9.516,0,0,1-2.107,2.342c-1.249,1.093-2.576,2.185-3.9,3.278l-1.561,1.327a2.668,2.668,0,0,0-1.093,2.654c.156,1.093.312,2.185.468,3.356L152.9,63.743a4.328,4.328,0,0,1-.078,1.8,2.76,2.76,0,0,1-1.483,1.639,3.8,3.8,0,0,1-.546.234c-.468.156-.624.078-.781-.312-.234-.468-.39-1.015-.624-1.561l-3.434-9.21a20.161,20.161,0,0,0-1.483-2.888L144,52.659l-.7-1.015-2.42,1.8c-2.185,1.639-4.371,3.356-6.478,5a.982.982,0,0,0-.39,1.171c.156.7.39,1.4.546,2.107l.156.7a2.326,2.326,0,0,1-.078,1.639,1.651,1.651,0,0,1-1.093.937.788.788,0,0,1-.39-.156.941.941,0,0,1-.39-.39c-1.8-2.264-3.512-4.449-5.23-6.713l-1.483-1.873a3.3,3.3,0,0,1-.39-.546.242.242,0,0,1-.078-.156L125.74,55a11.083,11.083,0,0,1,1.015-.937.7.7,0,0,1,.859-.078c.7.312,1.327.624,2.029,1.015l.859.39.468.234a1.074,1.074,0,0,0,1.249-.156c.624-.624,1.249-1.171,1.873-1.8l5.386-5.073.624-.624-.39-.546c-.078-.156-.156-.234-.234-.39a8.176,8.176,0,0,0-.624-.859,12.935,12.935,0,0,0-2.966-2.5c-2.654-1.8-5.386-3.668-8.039-5.542a4.289,4.289,0,0,1-.7-.546c-.234-.234-.234-.312-.078-.468a6.471,6.471,0,0,1,1.717-1.873c.156-.156.39-.234.937-.078a14.735,14.735,0,0,1,1.4.468l14.6,5.464a8.008,8.008,0,0,0,1.093.312,2.816,2.816,0,0,0,2.42-.7c.39-.39.781-.7,1.171-1.093l1.873-1.639c1.327-1.093,2.42-2.029,3.434-2.81a6.842,6.842,0,0,1,3.2-1.327,1.488,1.488,0,0,1,1.015.156C160.239,34.083,160.4,34.551,160.239,35.019Z" transform="translate(-124.068 -32.112)" fill="#404040"/></g></g><g transform="translate(0 61.812)"><g transform="translate(0 0)"><path d="M20.742,227.223a.839.839,0,0,0-1.093-.156L.292,241.819a.839.839,0,0,0-.156,1.093.71.71,0,0,0,.624.312,1.11,1.11,0,0,0,.468-.156l19.357-14.752A.754.754,0,0,0,20.742,227.223Z" transform="translate(0 -226.931)" fill="#fcb300"/></g></g><g transform="translate(10.069 65.48)"><path d="M79.3,251.287a.946.946,0,0,0-1.171-.156L66.34,260.185a.839.839,0,0,0-.156,1.093.71.71,0,0,0,.624.312,1.109,1.109,0,0,0,.468-.156l11.864-9.054A.839.839,0,0,0,79.3,251.287Z" transform="translate(-66.048 -250.995)" fill="#fcb300"/></g><g transform="translate(6.088 76.017)"><path d="M43.272,320.407a.839.839,0,0,0-1.093-.156l-1.951,1.483a.839.839,0,0,0-.156,1.093.71.71,0,0,0,.624.312,1.109,1.109,0,0,0,.468-.156l1.951-1.483A.839.839,0,0,0,43.272,320.407Z" transform="translate(-39.936 -320.115)" fill="#fcb300"/></g><g transform="translate(3.512 67.275)"><g transform="translate(0 0)"><path d="M26.376,263.063a.839.839,0,0,0-1.093-.156l-1.951,1.483a.839.839,0,0,0-.156,1.093.71.71,0,0,0,.624.312,1.11,1.11,0,0,0,.468-.156l1.951-1.483A.839.839,0,0,0,26.376,263.063Z" transform="translate(-23.04 -262.771)" fill="#fcb300"/></g></g><g transform="translate(7.493 58.768)"><g transform="translate(0 0)"><path d="M59.825,207.255a.839.839,0,0,0-1.093-.156l-9.288,7.025a.839.839,0,0,0-.156,1.093.964.964,0,0,0,.624.312,1.109,1.109,0,0,0,.468-.156l9.288-7.025A.839.839,0,0,0,59.825,207.255Z" transform="translate(-49.152 -206.963)" fill="#fcb300"/></g></g></g></svg>