<svg xmlns="http://www.w3.org/2000/svg" width="37.371" height="45" viewBox="0 0 37.371 45"><g transform="translate(-1223 -3220)"><circle cx="10.5" cy="10.5" r="10.5" transform="translate(1232 3224)" fill="#fcb300" opacity="0.65"/><g transform="translate(1183.162 3220)"><path d="M77.155,40.057,71.2,25.675a.718.718,0,0,0-1.327.55l5.386,13L70.344,37.8a.718.718,0,0,0-.829.343l-2.467,4.48L61.269,28.675A14.48,14.48,0,1,0,46.917,23.1L39.893,40.057a.718.718,0,0,0,.863.965l5.8-1.679,2.911,5.286a.718.718,0,0,0,.629.372h.04a.718.718,0,0,0,.624-.442l5.566-13.438a.718.718,0,1,0-1.327-.55L50,42.627l-2.467-4.48A.718.718,0,0,0,46.7,37.8l-4.912,1.423,6.166-14.885a14.431,14.431,0,0,0,10.567,4.6c.43,0,.855-.02,1.276-.057l6.493,15.676a.718.718,0,0,0,.624.442h.04a.718.718,0,0,0,.629-.372L70.5,39.343l5.8,1.679a.718.718,0,0,0,.863-.965ZM45.491,14.469A13.033,13.033,0,1,1,58.524,27.5,13.047,13.047,0,0,1,45.491,14.469Z" fill="#404040"/><path d="M164.6,66.028a.718.718,0,0,0-.564-.486l-4.832-.811-2.264-4.345a.718.718,0,0,0-1.274,0L153.4,64.731l-4.832.811a.718.718,0,0,0-.394,1.211l3.432,3.5L150.89,75.1a.718.718,0,0,0,1.03.749l4.386-2.184,4.386,2.184a.718.718,0,0,0,1.03-.749L161,70.249l3.432-3.5A.718.718,0,0,0,164.6,66.028Zm-4.878,3.47a.718.718,0,0,0-.2.609l.572,3.837-3.472-1.729a.718.718,0,0,0-.64,0l-3.472,1.729.572-3.837a.718.718,0,0,0-.2-.609l-2.718-2.768L154,66.088a.718.718,0,0,0,.518-.376l1.793-3.44,1.793,3.44a.718.718,0,0,0,.518.376l3.826.642Z" transform="translate(-97.782 -54.255)" fill="#404040"/><path d="M136.355,42.321a.718.718,0,0,0-.806.618,10.16,10.16,0,1,1,0-2.684.718.718,0,1,0,1.424-.189,11.6,11.6,0,1,0,0,3.061.718.718,0,0,0-.618-.806Z" transform="translate(-66.954 -27.128)" fill="#404040"/></g></g></svg>