<svg xmlns="http://www.w3.org/2000/svg" width="36" height="45" viewBox="0 0 36 45"><g transform="translate(-333 -3219)"><path d="M-461.091,3119.636l-7.137-6.868s-2.517-1.663-4.274.207a3.568,3.568,0,0,0-.307,4.464c.307.335,5.8,5.552,5.8,5.552s-2.288,1.451-3.515,9.011a8.733,8.733,0,0,0,.251,1.813l13.894-.39-.335-16.461s.53-3.208-1.423-5.245-7.031-6.532-7.031-6.532v9.936Z" transform="translate(825 130)" fill="#fcb300" opacity="0.65"/><g transform="translate(332.75 3219)"><path d="M588.761,363.484l-1.011,1.106,4.6,4.216a5.262,5.262,0,0,1,1.7,3.871v18.36h1.5v-18.36a6.768,6.768,0,0,0-2.188-4.976Zm0,0" transform="translate(-559.3 -346.037)" fill="#404040"/><path d="M23.5,0H4A3.755,3.755,0,0,0,.25,3.75v37.5A3.755,3.755,0,0,0,4,45H22.75V43.658a17.051,17.051,0,0,1,2.874-9.492.75.75,0,0,0-.094-.947l-5.25-5.25a2.432,2.432,0,0,1,.179-3.6,2.526,2.526,0,0,1,3.358.259l7.4,7.4,1.061-1.061-5.03-5.032V3.75A3.755,3.755,0,0,0,23.5,0Zm2.25,24.439-.873-.873a4.037,4.037,0,0,0-5.373-.355,3.933,3.933,0,0,0-.284,5.819l4.823,4.823A18.544,18.544,0,0,0,21.255,43.5H4a2.25,2.25,0,0,1-2.25-2.25V39H20.5V37.5H1.75V6h24Zm0-19.939h-24V3.75A2.25,2.25,0,0,1,4,1.5H23.5a2.25,2.25,0,0,1,2.25,2.25Zm0,0" fill="#404040"/><path d="M64.25,162.25h3a1.5,1.5,0,0,0,1.5-1.5v-3a1.5,1.5,0,0,0-1.5-1.5h-3a1.5,1.5,0,0,0-1.5,1.5v3A1.5,1.5,0,0,0,64.25,162.25Zm0-4.5h3v3h-3Zm0,0" transform="translate(-59.5 -148.75)" fill="#404040"/><path d="M220.5,162.25h3a1.5,1.5,0,0,0,1.5-1.5v-3a1.5,1.5,0,0,0-1.5-1.5h-3a1.5,1.5,0,0,0-1.5,1.5v3A1.5,1.5,0,0,0,220.5,162.25Zm0-4.5h3v3h-3Zm0,0" transform="translate(-208.25 -148.75)" fill="#404040"/><path d="M376.75,162.25h3a1.5,1.5,0,0,0,1.5-1.5v-3a1.5,1.5,0,0,0-1.5-1.5h-3a1.5,1.5,0,0,0-1.5,1.5v3A1.5,1.5,0,0,0,376.75,162.25Zm0-4.5h3v3h-3Zm0,0" transform="translate(-357 -148.75)" fill="#404040"/><path d="M64.25,318.5h3a1.5,1.5,0,0,0,1.5-1.5v-3a1.5,1.5,0,0,0-1.5-1.5h-3a1.5,1.5,0,0,0-1.5,1.5v3A1.5,1.5,0,0,0,64.25,318.5Zm0-4.5h3v3h-3Zm0,0" transform="translate(-59.5 -297.5)" fill="#404040"/><path d="M64.25,474.75h3a1.5,1.5,0,0,0,1.5-1.5v-3a1.5,1.5,0,0,0-1.5-1.5h-3a1.5,1.5,0,0,0-1.5,1.5v3A1.5,1.5,0,0,0,64.25,474.75Zm0-4.5h3v3h-3Zm0,0" transform="translate(-59.5 -446.25)" fill="#404040"/><path d="M220.5,318.5h3A1.5,1.5,0,0,0,225,317v-3a1.5,1.5,0,0,0-1.5-1.5h-3A1.5,1.5,0,0,0,219,314v3A1.5,1.5,0,0,0,220.5,318.5Zm0-4.5h3v3h-3Zm0,0" transform="translate(-208.25 -297.5)" fill="#404040"/><path d="M376.75,318.5h3a1.5,1.5,0,0,0,1.5-1.5v-3a1.5,1.5,0,0,0-1.5-1.5h-3a1.5,1.5,0,0,0-1.5,1.5v3A1.5,1.5,0,0,0,376.75,318.5Zm0-4.5h3v3h-3Zm0,0" transform="translate(-357 -297.5)" fill="#404040"/><path d="M220.5,474.75h3a1.5,1.5,0,0,0,1.5-1.5v-3a1.5,1.5,0,0,0-1.5-1.5h-3a1.5,1.5,0,0,0-1.5,1.5v3A1.5,1.5,0,0,0,220.5,474.75Zm0-4.5h3v3h-3Zm0,0" transform="translate(-208.25 -446.25)" fill="#404040"/><path d="M64.25,631h3a1.5,1.5,0,0,0,1.5-1.5v-3a1.5,1.5,0,0,0-1.5-1.5h-3a1.5,1.5,0,0,0-1.5,1.5v3A1.5,1.5,0,0,0,64.25,631Zm0-4.5h3v3h-3Zm0,0" transform="translate(-59.5 -595)" fill="#404040"/><path d="M220.5,631h3a1.5,1.5,0,0,0,1.5-1.5v-3a1.5,1.5,0,0,0-1.5-1.5h-3a1.5,1.5,0,0,0-1.5,1.5v3A1.5,1.5,0,0,0,220.5,631Zm0-4.5h3v3h-3Zm0,0" transform="translate(-208.25 -595)" fill="#404040"/><path d="M265.875,843.75h1.5v1.5h-1.5Zm0,0" transform="translate(-252.875 -803.25)" fill="#404040"/></g></g></svg>