<svg xmlns="http://www.w3.org/2000/svg" width="45.738" height="45" viewBox="0 0 45.738 45"><g transform="translate(0 -2.381)"><g transform="translate(0 2.381)"><path d="M43.524,14.184H32.459V10.5A2.2,2.2,0,0,0,31.315,8.57a2.55,2.55,0,0,0-1.01-3.664L28.77,4.138V2.381H27.295V5.05l2.351,1.175a1.083,1.083,0,0,1-.138,2V6.807H28.032V10.5a.738.738,0,1,1-1.475,0H25.081a.738.738,0,1,1-1.475,0H22.131a.738.738,0,1,1-1.475,0H19.18a.738.738,0,1,1-1.475,0V6.927l.738-2.213V2.381H16.967V4.475l-.738,2.213V8.283h-.737A2.216,2.216,0,0,0,13.279,10.5v3.689H2.213A2.216,2.216,0,0,0,0,16.4V42.955a2.21,2.21,0,0,0,1.475,2.077v.873a1.477,1.477,0,0,0,1.475,1.475H5.9a1.477,1.477,0,0,0,1.475-1.475v-.738H38.361v.738a1.477,1.477,0,0,0,1.475,1.475h2.951a1.477,1.477,0,0,0,1.475-1.475v-.873a2.21,2.21,0,0,0,1.475-2.077V16.4A2.216,2.216,0,0,0,43.524,14.184ZM29.508,10.5V9.758h.738a.738.738,0,0,1,.738.738v.738H29.372A2.19,2.19,0,0,0,29.508,10.5ZM15.492,9.758h.738V10.5a2.19,2.19,0,0,0,.136.738H14.754V10.5A.738.738,0,0,1,15.492,9.758Zm-.738,2.951h3.689a2.2,2.2,0,0,0,1.475-.565,2.209,2.209,0,0,0,2.951,0,2.209,2.209,0,0,0,2.951,0,2.2,2.2,0,0,0,1.475.565h3.688v1.475H14.754ZM5.9,45.905H2.951v-.738H5.9v.738Zm36.885,0H39.836v-.738h2.951Zm1.475-2.951a.738.738,0,0,1-.738.738H2.213a.738.738,0,0,1-.738-.738V16.4a.738.738,0,0,1,.738-.738H43.525a.738.738,0,0,1,.738.738V42.955Z" transform="translate(0 -2.381)" fill="#333"/><path d="M87.429,100.567l-8.271,3.1,9.3,5.17Zm-4.764,3.362,3.532-1.324.442,3.532Z" transform="translate(-66.895 -85.356)" fill="#333"/><path d="M145.795,213.907l2.972,4.954,6.445-3.683-2.972-4.954Zm3.494,2.956-1.454-2.423,3.883-2.219,1.454,2.423Z" transform="translate(-123.209 -178.025)" fill="#333"/><path d="M103.32,173.809a3.32,3.32,0,1,0,3.32,3.32A3.324,3.324,0,0,0,103.32,173.809Zm0,5.164a1.844,1.844,0,1,1,1.844-1.844A1.846,1.846,0,0,1,103.32,178.973Z" transform="translate(-84.508 -147.252)" fill="#333"/><path d="M165.224,99.5a3.32,3.32,0,1,0-3.32-3.32A3.324,3.324,0,0,0,165.224,99.5Zm0-5.164a1.844,1.844,0,1,1-1.844,1.844A1.846,1.846,0,0,1,165.224,94.332Z" transform="translate(-136.822 -78.84)" fill="#333"/><path d="M52.045,109.556H47.619V78.572h4.426Z" transform="translate(-40.242 -66.769)" fill="#fcb300"/><path d="M223.474,109.556h-4.426V78.572h4.426Z" transform="translate(-185.114 -66.769)" fill="#fcb300"/><path d="M40.71,169.048h-5.9a1.477,1.477,0,0,0-1.475,1.475v4.426a1.477,1.477,0,0,0,1.475,1.475h5.9a1.477,1.477,0,0,0,1.475-1.475v-4.426A1.477,1.477,0,0,0,40.71,169.048Zm-5.9,5.9v-4.426h5.9l0,4.426Z" transform="translate(-28.169 -143.228)" fill="#333"/><path d="M212.139,169.048h-5.9a1.477,1.477,0,0,0-1.475,1.475v4.426a1.477,1.477,0,0,0,1.475,1.475h5.9a1.477,1.477,0,0,0,1.475-1.475v-4.426A1.477,1.477,0,0,0,212.139,169.048Zm-5.9,5.9v-4.426h5.9l0,4.426Z" transform="translate(-173.041 -143.228)" fill="#333"/></g></g></svg>