<svg xmlns="http://www.w3.org/2000/svg" width="46.408" height="50" viewBox="0 0 46.408 50"><g transform="translate(-777 -2567)"><g transform="translate(776.5 2566.999)"><path d="M46.5,8.566,29.852.082A.739.739,0,0,0,28.857.4L26.634,4.768a3.532,3.532,0,0,0-.542-.042H4.022A3.527,3.527,0,0,0,.5,8.249v5.22a.74.74,0,0,0,1.479,0V8.249A2.046,2.046,0,0,1,4.023,6.206H26.092a2.046,2.046,0,0,1,2.044,2.044V37.873a2.046,2.046,0,0,1-2.044,2.044H4.022a2.046,2.046,0,0,1-2.044-2.044V16.92a.739.739,0,1,0-1.479,0V37.873A3.527,3.527,0,0,0,4.022,41.4H8.714a.7.7,0,0,0,.068.039L25.434,49.92a.739.739,0,0,0,.994-.323L39.44,24.059a.739.739,0,0,0-1.318-.671L25.446,48.267,11.962,41.4H26.091a3.527,3.527,0,0,0,3.523-3.523V33.71L37.65,17.939a.739.739,0,1,0-1.318-.671L29.614,30.452V22.761l3.652-7.167a.74.74,0,1,0-1.318-.671L29.614,19.5V11.216l11.678,5.951L39.83,20.036a.74.74,0,1,0,1.318.671l1.8-3.528,3.881-7.618a.739.739,0,0,0-.323-.994Zm-4.54,7.282L29.614,9.556V8.249A3.522,3.522,0,0,0,28.021,5.3l1.818-3.568L45.173,9.548Zm0,0" transform="translate(0 0)" fill="#404040"/><path d="M67.315,128.067a8.829,8.829,0,0,0,.979-.055h0a8.788,8.788,0,0,0,6.686-13.034.762.762,0,0,0-.069-.121,8.791,8.791,0,1,0-7.6,13.21Zm-7.275-8.052h2.576a13.454,13.454,0,0,0,1.224,5.282q.149.3.311.571A7.33,7.33,0,0,1,60.04,120.015Zm8.015,6.349v-6.349h2.48C70.384,123.262,69.258,125.648,68.055,126.365Zm0-7.828v-6.349c1.2.716,2.329,3.1,2.48,6.349Zm-1.479-6.349v6.349H64.1C64.247,115.29,65.373,112.9,66.576,112.187Zm0,7.828v6.349c-1.2-.716-2.329-3.1-2.48-6.349Zm3.9,5.852q.161-.27.311-.571a13.457,13.457,0,0,0,1.224-5.281h2.576A7.328,7.328,0,0,1,70.48,125.867Zm4.111-7.331H72.014a13.452,13.452,0,0,0-1.225-5.282q-.148-.3-.31-.571A7.33,7.33,0,0,1,74.591,118.536Zm-10.44-5.853q-.162.27-.311.571a13.459,13.459,0,0,0-1.225,5.282H60.04A7.33,7.33,0,0,1,64.151,112.684Zm0,0" transform="translate(-52.358 -99.694)" fill="#fcb300"/><path d="M59.263,325.729h16.1a.74.74,0,1,0,0-1.479h-16.1a.74.74,0,0,0,0,1.479Zm0,0" transform="translate(-52.358 -292.584)" fill="#fcb300"/></g></g></svg>