<svg xmlns="http://www.w3.org/2000/svg" width="45" height="45" viewBox="0 0 45 45"><g transform="translate(-1220 -3584)"><circle cx="20" cy="20" r="20" transform="translate(1220 3584)" fill="#fcb300" opacity="0.58"/><g transform="translate(1220 3584)"><path d="M334.253,287.005H332v-14.25a.75.75,0,0,0-1.364-.43l-10.5,15a.75.75,0,0,0,.614,1.18h9.75v2.25a.75.75,0,0,0,1.5,0v-2.25h2.25a.75.75,0,0,0,0-1.5Zm-3.75,0h-8.31l8.31-11.871Z" transform="translate(-290.003 -246.505)" fill="#404040"/><path d="M219.25,289.987h-8.879l8.255-9.721a.807.807,0,0,0,.052-.07,5.217,5.217,0,0,0-1.177-7.083,6,6,0,0,0-9.5,4.874.75.75,0,0,0,1.5,0,4.5,4.5,0,0,1,7.125-3.656,3.7,3.7,0,0,1,.825,5l-9.271,10.922a.75.75,0,0,0,.572,1.235h10.5a.75.75,0,0,0,0-1.5Z" transform="translate(-188.5 -246.487)" fill="#404040"/><path d="M20.267,39.764a.75.75,0,0,0-.721-.778h0A18.728,18.728,0,0,1,1.526,21H4.5a.75.75,0,0,0,0-1.5H1.526A18.7,18.7,0,0,1,19.5,1.527V3.75a.75.75,0,1,0,1.5,0V1.527A18.718,18.718,0,0,1,38.964,19.152l-2.925-2.925a.75.75,0,0,0-1.061,1.06l4.187,4.187a.737.737,0,0,0,.3.215.86.86,0,0,0,.089.022.742.742,0,0,0,.159.038h.043a.723.723,0,0,0,.168-.033.705.705,0,0,0,.091-.017.739.739,0,0,0,.271-.17l4.243-4.242a.75.75,0,0,0-1.061-1.06l-3,3A20.219,20.219,0,0,0,20.3.011C20.285.01,20.269,0,20.25,0s-.035.01-.053.011A20.214,20.214,0,0,0,.011,20.2c0,.019-.011.035-.011.053s.01.035.011.053A20.231,20.231,0,0,0,19.49,40.486h.028A.75.75,0,0,0,20.267,39.764Z" fill="#404040"/><path d="M167.651,106.4a.75.75,0,0,0-1.061,0l-8.059,8.059a2.349,2.349,0,0,0-1.913,0L152.8,110.64a.75.75,0,0,0-1.061,1.061l3.809,3.808a2.246,2.246,0,1,0,4.049,0l8.052-8.052A.75.75,0,0,0,167.651,106.4ZM158.1,117h0a.767.767,0,0,1-1.061,0,.75.75,0,1,1,1.061,0Z" transform="translate(-137.325 -96.224)" fill="#404040"/></g></g></svg>