<svg xmlns="http://www.w3.org/2000/svg" width="45" height="40.711" viewBox="0 0 45 40.711"><g transform="translate(-626 -3587)"><path d="M-170.891,3480.614l6.632-2.506,9.58,3.464a20.823,20.823,0,0,1-9.58,15.475c-3.316-2.137-8.253-5.969-9.506-15.917C-173.176,3480.467-170.891,3480.614-170.891,3480.614Z" transform="translate(825 130)" fill="#fcb300" opacity="0.65"/><g transform="translate(626 3562.6)"><g transform="translate(0 24.4)"><path d="M36.535,24.4H2.77A2.773,2.773,0,0,0,0,27.17V55.307a2.773,2.773,0,0,0,2.77,2.769H24.884a.659.659,0,1,0,0-1.318H22.421V52.493a2.762,2.762,0,0,0-1.7-2.556l-3.463-1.443a.746.746,0,0,1-.46-.69V46.775A4.9,4.9,0,0,0,18.2,43.349V40.535c0-2.3-2.189-4.176-4.88-4.176s-4.88,1.873-4.88,4.176v2.814a4.9,4.9,0,0,0,1.407,3.426V47.8a.746.746,0,0,1-.46.69L5.925,49.937a2.762,2.762,0,0,0-1.7,2.556v4.265H2.77a1.453,1.453,0,0,1-1.451-1.451V32.753H37.986V43.7a.659.659,0,0,0,1.318,0V27.17A2.773,2.773,0,0,0,36.535,24.4Zm-31,28.093a1.447,1.447,0,0,1,.893-1.34L9.9,49.711A2.06,2.06,0,0,0,11.166,47.8v-.143a.659.659,0,0,0,.373-1.228,3.576,3.576,0,0,1-1.78-3.085V40.535c0-1.576,1.6-2.858,3.561-2.858s3.561,1.282,3.561,2.858v2.814A3.576,3.576,0,0,1,15.1,46.434a.659.659,0,0,0,.331,1.23l.044,0V47.8a2.06,2.06,0,0,0,1.271,1.907l3.463,1.443a1.447,1.447,0,0,1,.893,1.339v4.265H5.539ZM37.986,31.434H1.318V27.17A1.453,1.453,0,0,1,2.77,25.718H36.535a1.453,1.453,0,0,1,1.451,1.451Z" transform="translate(0 -24.4)" fill="#404040"/></g><g transform="translate(2.817 27.917)"><g transform="translate(0 0)"><path d="M32.717,64.418H32.71a.663.663,0,1,0,.007,0Z" transform="translate(-32.054 -64.418)" fill="#404040"/></g></g><g transform="translate(7.031 27.917)"><g transform="translate(0 0)"><path d="M80.658,64.418h-.007a.663.663,0,1,0,.007,0Z" transform="translate(-79.995 -64.418)" fill="#404040"/></g></g><g transform="translate(4.92 27.917)"><g transform="translate(0 0)"><path d="M56.647,64.418H56.64a.663.663,0,1,0,.007,0Z" transform="translate(-55.984 -64.418)" fill="#404040"/></g></g><g transform="translate(9.848 27.917)"><g transform="translate(0 0)"><path d="M138.032,64.418H112.708a.659.659,0,1,0,0,1.318h25.324a.659.659,0,0,0,0-1.318Z" transform="translate(-112.049 -64.418)" fill="#404040"/></g></g><g transform="translate(24.689 44.8)"><g transform="translate(0 0)"><path d="M300.772,259.841l-9.5-3.3a.658.658,0,0,0-.433,0l-6.829,2.375a.659.659,0,0,0,.433,1.245l6.612-2.3,8.806,3.063a19.74,19.74,0,0,1-8.806,14.451,19.445,19.445,0,0,1-7.6-9.417,18.461,18.461,0,0,1-1.241-5.506.659.659,0,0,0-1.318.029,19.374,19.374,0,0,0,1.308,5.9,20.756,20.756,0,0,0,8.5,10.338.659.659,0,0,0,.7,0,20.756,20.756,0,0,0,8.5-10.338,19.369,19.369,0,0,0,1.308-5.9A.658.658,0,0,0,300.772,259.841Z" transform="translate(-280.903 -256.501)" fill="#404040"/></g></g><g transform="translate(30.573 51.664)"><path d="M356.406,334.794a.659.659,0,0,0-.932,0L351.4,338.87l-2.424-2.424a.659.659,0,0,0-.932.932l2.89,2.89a.659.659,0,0,0,.932,0l4.542-4.542A.659.659,0,0,0,356.406,334.794Z" transform="translate(-347.848 -334.601)" fill="#404040"/></g><g transform="translate(21.103 35.655)"><g transform="translate(0 0)"><path d="M252.723,152.456H241.468a1.364,1.364,0,0,0-1.363,1.363v2.11a1.364,1.364,0,0,0,1.363,1.363h11.255a1.364,1.364,0,0,0,1.363-1.363v-2.11A1.364,1.364,0,0,0,252.723,152.456Zm.044,3.473a.044.044,0,0,1-.044.044H241.468a.044.044,0,0,1-.044-.044v-2.11a.044.044,0,0,1,.044-.044h11.255a.044.044,0,0,1,.044.044Z" transform="translate(-240.105 -152.456)" fill="#404040"/></g></g><g transform="translate(21.807 41.986)"><path d="M257.208,224.487h-8.441a.659.659,0,0,0,0,1.318h8.441a.659.659,0,0,0,0-1.318Z" transform="translate(-248.108 -224.487)" fill="#404040"/></g><g transform="translate(21.807 44.8)"><path d="M253.691,256.5h-4.924a.659.659,0,0,0,0,1.318h4.924a.659.659,0,0,0,0-1.318Z" transform="translate(-248.108 -256.502)" fill="#404040"/></g></g></g></svg>