<svg xmlns="http://www.w3.org/2000/svg" width="45.334" height="45" viewBox="0 0 45.334 45"><g transform="translate(-914 -3452)"><path d="M115.142,3480.618l-3.251-1.25-3.851-1.05-2.5-2.9-2.051-3.1s-1-3.751-1-3.9v-4.2l1-2.7,2.751-3.7,2.151-2.251,4.9-1.75,3.751-1,3.4,1.4,3.351.4,2.3,2.851,3,2.151.65,4.251,1.35,2.6-1.35,3.5-.85,4.3-3.151,2.151-1.951,2.651-2.9.3-2.2.65-2.1,1Z" transform="translate(825)" fill="#fcb300" opacity="0.65"/><g transform="translate(914 3451.655)"><path d="M115.506,19.835l0,.029a4.893,4.893,0,0,0,2.793,4.668l.019.009a3.29,3.29,0,0,1,1.49,1.433l.007.014a5.112,5.112,0,0,0,4.8,2.681l.031,0a3.5,3.5,0,0,1,2.068.538,5.244,5.244,0,0,0,5.562,0,3.5,3.5,0,0,1,2.068-.538l.03,0a5.116,5.116,0,0,0,4.806-2.684l0-.009a3.3,3.3,0,0,1,1.494-1.436l.015-.007a4.893,4.893,0,0,0,2.793-4.668l0-.027a3.131,3.131,0,0,1,.545-1.94,4.814,4.814,0,0,0,0-5.444,3.131,3.131,0,0,1-.545-1.939l0-.029A4.893,4.893,0,0,0,140.7,5.816l-.016-.008a3.287,3.287,0,0,1-1.488-1.428l-.009-.019a5.116,5.116,0,0,0-4.8-2.681l-.031,0a3.5,3.5,0,0,1-2.068-.538h0a5.244,5.244,0,0,0-5.562,0,3.5,3.5,0,0,1-2.068.537l-.031,0a5.113,5.113,0,0,0-4.8,2.681l-.007.013a3.292,3.292,0,0,1-1.491,1.435l-.017.008a4.893,4.893,0,0,0-2.793,4.668l0,.027a3.129,3.129,0,0,1-.545,1.94,4.814,4.814,0,0,0,0,5.444,3.128,3.128,0,0,1,.544,1.94Zm.845-6.425a4.826,4.826,0,0,0,.841-2.994l0-.029a3.209,3.209,0,0,1,1.843-3.052l.014-.007A4.97,4.97,0,0,0,121.3,5.162l.008-.016a3.423,3.423,0,0,1,3.22-1.78h.03a5.171,5.171,0,0,0,3.059-.795,3.547,3.547,0,0,1,3.763,0,5.183,5.183,0,0,0,3.058.8l.03,0a3.417,3.417,0,0,1,3.219,1.777l.011.021a4.969,4.969,0,0,0,2.249,2.164l.014.007a3.21,3.21,0,0,1,1.845,3.053l0,.03a4.825,4.825,0,0,0,.841,2.993,3.117,3.117,0,0,1,0,3.527,4.83,4.83,0,0,0-.84,2.994l0,.028a3.211,3.211,0,0,1-1.845,3.054l-.012.006a4.975,4.975,0,0,0-2.253,2.17l-.006.012a3.421,3.421,0,0,1-3.221,1.78l-.029,0a5.181,5.181,0,0,0-3.06.8,3.548,3.548,0,0,1-3.762,0,5.172,5.172,0,0,0-2.773-.8q-.143,0-.286.008h-.03a3.419,3.419,0,0,1-3.222-1.782l-.009-.016a4.964,4.964,0,0,0-2.247-2.163l-.016-.008a3.209,3.209,0,0,1-1.845-3.053l0-.03a4.829,4.829,0,0,0-.841-2.993,3.117,3.117,0,0,1,0-3.526Zm0,0" transform="translate(-102.078)" fill="#404040"/><path d="M204.9,74.511a.844.844,0,0,0,1.163-.269l10-16.018a.844.844,0,1,0-1.432-.894l-10,16.018A.844.844,0,0,0,204.9,74.511Zm0,0" transform="translate(-182.928 -50.612)" fill="#404040"/><path d="M185.161,69.22a4.287,4.287,0,1,0-3.727-4.251A4.02,4.02,0,0,0,185.161,69.22Zm0-6.813a2.629,2.629,0,1,1-2.039,2.562A2.349,2.349,0,0,1,185.161,62.407Zm0,0" transform="translate(-162.292 -54.004)" fill="#404040"/><path d="M267.684,144.766a3.76,3.76,0,1,0,3.728-4.25A4.019,4.019,0,0,0,267.684,144.766Zm5.767,0a2.093,2.093,0,1,1-2.04-2.562A2.349,2.349,0,0,1,273.451,144.766Zm0,0" transform="translate(-239.442 -125.382)" fill="#404040"/><path d="M45.225,270.584a4.263,4.263,0,0,0-5.63-1.716l-6.612,3.124a5.386,5.386,0,0,0-4.591-2.833l-6.1-.168a6.452,6.452,0,0,1-2.774-.716l-.621-.322a10.955,10.955,0,0,0-10.147.011l.039-1.407a.844.844,0,0,0-.821-.867l-6.693-.184a.844.844,0,0,0-.867.821L0,281.014a.844.844,0,0,0,.821.867l6.693.184h.023a.845.845,0,0,0,.844-.821l.019-.7,1.739-.931a2.984,2.984,0,0,1,2.226-.244l10.383,2.914.055.014a11.117,11.117,0,0,0,2.282.235,11.261,11.261,0,0,0,4.7-1.027.828.828,0,0,0,.1-.057l15.054-9.738a.844.844,0,0,0,.277-1.124ZM1.711,280.216l.358-13,5.006.138-.358,13Zm27.317-.221a9.567,9.567,0,0,1-5.852.653l-10.355-2.906a4.665,4.665,0,0,0-3.479.38l-.889.476.238-8.643a9.277,9.277,0,0,1,9.425-.5l.621.322a8.148,8.148,0,0,0,3.5.905l6.1.168a3.7,3.7,0,0,1,3.518,2.95l-9.091-.25a.844.844,0,0,0-.046,1.688l10.033.276h.024a.845.845,0,0,0,.843-.821,5.386,5.386,0,0,0-.082-1.1l6.78-3.2.02-.009a2.578,2.578,0,0,1,2.916.408Zm0,0" transform="translate(0 -237.184)" fill="#404040"/></g></g></svg>