<svg xmlns="http://www.w3.org/2000/svg" width="45" height="44.561" viewBox="0 0 45 44.561"><g transform="translate(-625 -3272)"><path d="M-184.844,3297.619l-6.241-.219s-1.195.37-1.138-2.162,0-4.1,0-4.1.228-.967-2.219.683-5.263-.512-4.978-4.1,3.414-3.585,3.926-3.329,3.3,2.532,3.414,1.821,0-5.064,0-5.064-.569-1.565,2.162-1.508,5.121.285,5.348.2.626-.512,0-1.508-2.731-6.315,2.816-5.661,3.67,4.722,2.3,6.657,6.828-.654,7.4.654.711,5.832.142,6.23-1.963-2.617-4.381-1.678-3.414,2.674-2.3,6.344a5.335,5.335,0,0,0,3.158,1.593c.569.142,1.878,2.76,1.878,2.76l-6.344.37a7.057,7.057,0,0,0-.74,1.792C-180.644,3297.855-184.844,3297.619-184.844,3297.619Z" transform="translate(825)" fill="#fcb300" opacity="0.65"/><path d="M45,33.5c-.1-2.714-1.392-4.319-3.536-4.4a4.564,4.564,0,0,0-3.183,1.112,2.866,2.866,0,0,1-.479.336V28.471a.66.66,0,0,0-1.32,0v2.718a.89.89,0,0,0,1.15.851,4.152,4.152,0,0,0,1.512-.835,3.257,3.257,0,0,1,2.267-.791c1.429.057,2.193,1.112,2.27,3.136a3.786,3.786,0,0,1-.79,2.777,2.144,2.144,0,0,1-1.614.617,3.259,3.259,0,0,1-2.154-.812,3.971,3.971,0,0,0-1.5-.823.89.89,0,0,0-1.144.854v6.513a.566.566,0,0,1-.565.565H31.748a2.582,2.582,0,0,1,.336-.484,4.58,4.58,0,0,0,1.141-3.025A3.46,3.46,0,0,0,32.2,37.168a5.053,5.053,0,0,0-3.744-1.158c-2.714.1-4.319,1.393-4.4,3.537a4.573,4.573,0,0,0,1.112,3.183,2.829,2.829,0,0,1,.353.513H20.85a.566.566,0,0,1-.565-.565V36.161a.891.891,0,0,0-1.144-.853,4.148,4.148,0,0,0-1.542.844,3.263,3.263,0,0,1-2.267.791c-1.429-.057-2.193-1.112-2.27-3.136a3.785,3.785,0,0,1,.79-2.778,2.143,2.143,0,0,1,1.613-.617,3.26,3.26,0,0,1,2.154.812,3.963,3.963,0,0,0,1.527.832.89.89,0,0,0,1.138-.855V24.68a.566.566,0,0,1,.565-.565h5.3A.89.89,0,0,0,27,22.966a4.153,4.153,0,0,0-.837-1.519,3.257,3.257,0,0,1-.791-2.267c.057-1.429,1.112-2.193,3.136-2.27a3.788,3.788,0,0,1,2.778.79,2.143,2.143,0,0,1,.617,1.613,3.261,3.261,0,0,1-.812,2.154,3.966,3.966,0,0,0-.825,1.5.89.89,0,0,0,.854,1.143h4.791a.566.566,0,0,1,.565.565v.667a.66.66,0,1,0,1.32,0V24.68a1.888,1.888,0,0,0-1.886-1.886H31.763a2.59,2.59,0,0,1,.321-.455,4.581,4.581,0,0,0,1.141-3.025A3.46,3.46,0,0,0,32.2,16.749a5.052,5.052,0,0,0-3.744-1.158c-2.714.1-4.319,1.392-4.4,3.537a4.705,4.705,0,0,0,.008.5h-.047c-1.429-.057-2.193-1.112-2.27-3.136a3.786,3.786,0,0,1,.79-2.778,2.144,2.144,0,0,1,1.613-.617,3.262,3.262,0,0,1,2.154.812,3.942,3.942,0,0,0,1.139.7,1.117,1.117,0,0,0,1.536-1.034V9.091a1.887,1.887,0,0,0-1.885-1.885h-5.87a2.6,2.6,0,0,1,.318-.451,4.579,4.579,0,0,0,1.141-3.025,3.458,3.458,0,0,0-1.022-2.564A5.052,5.052,0,0,0,17.916.007C15.2.11,13.6,1.4,13.511,3.543a4.572,4.572,0,0,0,1.112,3.183,2.844,2.844,0,0,1,.335.479H9.1A1.888,1.888,0,0,0,7.211,9.091V13.24a2.587,2.587,0,0,1-.456-.321,4.579,4.579,0,0,0-3.025-1.14A3.459,3.459,0,0,0,1.165,12.8,5.055,5.055,0,0,0,.007,16.544c.1,2.714,1.392,4.319,3.537,4.4a4.57,4.57,0,0,0,3.183-1.112,2.888,2.888,0,0,1,.484-.339v4.655A1.887,1.887,0,0,0,9.1,26.038h5.883a2.585,2.585,0,0,1-.15.243.66.66,0,1,0,1.084.753,4.031,4.031,0,0,0,.559-1.178.89.89,0,0,0-.855-1.138H9.1a.566.566,0,0,1-.565-.565v-5.3A.89.89,0,0,0,7.382,18a4.153,4.153,0,0,0-1.519.837,3.256,3.256,0,0,1-2.267.791c-1.429-.057-2.193-1.112-2.27-3.136a3.786,3.786,0,0,1,.79-2.778A2.143,2.143,0,0,1,3.73,13.1a3.261,3.261,0,0,1,2.154.812,3.959,3.959,0,0,0,1.5.825.89.89,0,0,0,1.143-.854V9.091A.566.566,0,0,1,9.1,8.525h6.509a.89.89,0,0,0,.851-1.15,4.148,4.148,0,0,0-.835-1.513A3.255,3.255,0,0,1,14.83,3.6c.057-1.429,1.112-2.193,3.136-2.27a3.79,3.79,0,0,1,2.778.79,2.146,2.146,0,0,1,.617,1.614,3.262,3.262,0,0,1-.812,2.154,3.96,3.96,0,0,0-.823,1.5.89.89,0,0,0,.853,1.144h6.514a.566.566,0,0,1,.565.565v4.164a2.58,2.58,0,0,1-.483-.336,4.581,4.581,0,0,0-3.026-1.14A3.459,3.459,0,0,0,21.584,12.8a5.055,5.055,0,0,0-1.158,3.744c.1,2.714,1.392,4.319,3.537,4.4.13.005.26,0,.389,0a4.57,4.57,0,0,0,.815,1.364,2.874,2.874,0,0,1,.339.484H20.849a1.887,1.887,0,0,0-1.885,1.885v5.883a2.6,2.6,0,0,1-.474-.331,4.579,4.579,0,0,0-3.026-1.141A3.459,3.459,0,0,0,12.9,30.113a5.055,5.055,0,0,0-1.158,3.744c.1,2.714,1.392,4.319,3.537,4.4a4.566,4.566,0,0,0,3.183-1.112,2.833,2.833,0,0,1,.5-.348v5.875a1.888,1.888,0,0,0,1.885,1.886h4.99a1.118,1.118,0,0,0,1.031-1.543,4.164,4.164,0,0,0-.707-1.153,3.255,3.255,0,0,1-.791-2.267c.057-1.429,1.112-2.193,3.136-2.27a3.786,3.786,0,0,1,2.778.79,2.144,2.144,0,0,1,.617,1.613,3.261,3.261,0,0,1-.812,2.154,3.942,3.942,0,0,0-.7,1.139,1.117,1.117,0,0,0,1.034,1.537h4.483A1.888,1.888,0,0,0,37.8,42.676v-5.87a2.569,2.569,0,0,1,.45.318,4.58,4.58,0,0,0,3.026,1.14,3.459,3.459,0,0,0,2.564-1.021A5.053,5.053,0,0,0,45,33.5Zm0,0" transform="translate(624.999 3271.999)" fill="#404040"/></g></svg>