<svg xmlns="http://www.w3.org/2000/svg" width="45" height="45" viewBox="0 0 45 45"><g transform="translate(21.724 12.414)"><path d="M234.086,131.1h-2.328v-2.328a.775.775,0,0,0-.776-.776h-3.1a.775.775,0,0,0-.776.776V131.1h-2.328a.776.776,0,0,0-.776.776v2.328a1.553,1.553,0,0,0,1.552,1.552h7.759a1.553,1.553,0,0,0,1.552-1.552v-2.328A.775.775,0,0,0,234.086,131.1Zm-5.431-1.552h1.552V131.1h-1.552Zm4.655,4.655h-7.759v-1.552h7.759Z" transform="translate(-224 -128)" fill="#fcb300"/></g><g transform="translate(21.724 21.724)"><path d="M234.086,227.1h-2.328v-2.328a.775.775,0,0,0-.776-.776h-3.1a.775.775,0,0,0-.776.776V227.1h-2.328a.776.776,0,0,0-.776.776v2.328a1.553,1.553,0,0,0,1.552,1.552h7.759a1.553,1.553,0,0,0,1.552-1.552v-2.328A.775.775,0,0,0,234.086,227.1Zm-5.431-1.552h1.552V227.1h-1.552Zm4.655,4.655h-7.759v-1.552h7.759Z" transform="translate(-224 -224)" fill="#fcb300"/></g><path d="M44.224,43.448H41.9V35.611a3.887,3.887,0,0,0,3.1-3.8c0-.689-1.08-10.086-3.879-10.086s-3.879,9.4-3.879,10.086a3.887,3.887,0,0,0,3.1,3.8v7.837H35.69V11.638A2.33,2.33,0,0,0,33.362,9.31H29.483V7.759h.776a2.33,2.33,0,0,0,2.328-2.328v-3.1A2.33,2.33,0,0,0,30.259,0H14.741a2.33,2.33,0,0,0-2.328,2.328v3.1a2.33,2.33,0,0,0,2.328,2.328h.776V9.31H11.638A2.33,2.33,0,0,0,9.31,11.638v31.81H4.655V35.611a3.886,3.886,0,0,0,3.1-3.8c0-.689-1.08-10.086-3.879-10.086S0,31.121,0,31.81a3.887,3.887,0,0,0,3.1,3.8v7.837H.776A.776.776,0,0,0,.776,45H44.224a.776.776,0,0,0,0-1.552ZM1.552,31.81c0-2.135,1.382-7.908,2.328-8.514.946.605,2.328,6.379,2.328,8.514a2.328,2.328,0,1,1-4.655,0Zm13.19-25.6a.777.777,0,0,1-.776-.776v-3.1a.777.777,0,0,1,.776-.776H30.259a.776.776,0,0,1,.776.776v3.1a.776.776,0,0,1-.776.776Zm13.19,1.552V9.31H17.069V7.759Zm-6.207,35.69H20.172V38.793h1.552Zm3.1,0H23.276V38.793h1.552Zm9.31,0H32.586V34.914a.776.776,0,1,0-1.552,0v8.534H26.379V38.017a.775.775,0,0,0-.776-.776H19.4a.776.776,0,0,0-.776.776v5.431H13.966V34.914a.776.776,0,1,0-1.552,0v8.534H10.862V11.638a.777.777,0,0,1,.776-.776H33.362a.776.776,0,0,1,.776.776ZM38.793,31.81c0-2.135,1.381-7.908,2.328-8.514.947.605,2.328,6.379,2.328,8.514a2.328,2.328,0,1,1-4.655,0Z" fill="#404040"/><g transform="translate(12.414 12.414)"><path d="M134.983,128h-3.1a.776.776,0,0,0-.776.776V131.1h-2.328a.776.776,0,0,0-.776.776v2.328a1.553,1.553,0,0,0,1.552,1.552h4.655a1.553,1.553,0,0,0,1.552-1.552v-5.431A.776.776,0,0,0,134.983,128Zm-.776,6.207h-4.655v-1.552h4.655Zm0-3.1h-1.552v-1.552h1.552Z" transform="translate(-128 -128)" fill="#fcb300"/></g><g transform="translate(12.414 21.724)"><path d="M134.983,224h-3.1a.776.776,0,0,0-.776.776V227.1h-2.328a.776.776,0,0,0-.776.776v2.328a1.553,1.553,0,0,0,1.552,1.552h4.655a1.553,1.553,0,0,0,1.552-1.552v-5.431A.776.776,0,0,0,134.983,224Zm-.776,6.207h-4.655v-1.552h4.655Zm0-3.1h-1.552v-1.552h1.552Z" transform="translate(-128 -224)" fill="#fcb300"/></g></svg>