<svg xmlns="http://www.w3.org/2000/svg" width="54" height="62.35" viewBox="0 0 54 62.35">
  <g id="story" transform="translate(-0.219 0)" opacity="0.12">
    <path id="Path_10894" data-name="Path 10894" d="M52.378,51.643,46.2,45.46V1.045A1.045,1.045,0,0,0,45.152,0H13.81c-.02,0-.039.01-.059.012a.979.979,0,0,0-.281.056A.838.838,0,0,0,13.379.1a1.045,1.045,0,0,0-.313.209L.53,12.846a1.03,1.03,0,0,0-.209.306c-.015.033-.023.065-.035.1a.986.986,0,0,0-.053.268c0,.023-.014.043-.014.066v39.7a1.045,1.045,0,0,0,1.045,1.045H37.33l6.183,6.18a6.268,6.268,0,1,0,8.865-8.862Zm-8.856,5.921L27.261,41.309l5.918-5.919L49.435,51.652ZM26.377,39.237,24.96,33.091l6.147,1.416ZM12.765,3.567v8.97H3.8ZM2.318,52.237V14.626H13.81a1.045,1.045,0,0,0,1.045-1.045V2.09H44.107v41.28l-10.188-10.2-.012-.007a1.042,1.042,0,0,0-.294-.2c-.03-.013-.058-.022-.087-.033a1.1,1.1,0,0,0-.112-.043L23.8,30.679a1.044,1.044,0,0,0-1.254,1.253l2.215,9.612a1.112,1.112,0,0,0,.043.113c.011.028.019.056.033.085a1,1,0,0,0,.2.3l.005.009,10.2,10.189Zm48.58,6.8a4.164,4.164,0,0,1-5.9,0l.492-.493,5.417-5.416a4.164,4.164,0,0,1-.009,5.9Zm0,0" transform="translate(0)"/>
    <path id="Path_10895" data-name="Path 10895" d="M65.338,146.089H92.5a1.045,1.045,0,0,0,0-2.089H65.338a1.045,1.045,0,0,0,0,2.089Zm0,0" transform="translate(-55.707 -125.195)"/>
    <path id="Path_10896" data-name="Path 10896" d="M65.338,194.089H92.5a1.045,1.045,0,0,0,0-2.089H65.338a1.045,1.045,0,0,0,0,2.089Zm0,0" transform="translate(-55.707 -166.926)"/>
    <path id="Path_10897" data-name="Path 10897" d="M72.651,240H65.338a1.045,1.045,0,0,0,0,2.089h7.313a1.045,1.045,0,0,0,0-2.089Zm0,0" transform="translate(-55.707 -208.658)"/>
  </g>
</svg>
