<svg xmlns="http://www.w3.org/2000/svg" width="54" height="54.001" viewBox="0 0 54 54.001">
  <g id="money" transform="translate(-0.007)" opacity="0.12">
    <g id="Group_1271" data-name="Group 1271" transform="translate(7.179 47.673)">
      <g id="Group_1270" data-name="Group 1270">
        <path id="Path_10997" data-name="Path 10997" d="M69.8,452.31a1.054,1.054,0,1,0,.309.746A1.062,1.062,0,0,0,69.8,452.31Z" transform="translate(-68.003 -452.001)"/>
      </g>
    </g>
    <g id="Group_1273" data-name="Group 1273" transform="translate(47.727 18.986)">
      <g id="Group_1272" data-name="Group 1272">
        <path id="Path_10998" data-name="Path 10998" d="M454.254,180.317a1.052,1.052,0,1,0,.31.746A1.06,1.06,0,0,0,454.254,180.317Z" transform="translate(-452.454 -180.008)"/>
      </g>
    </g>
    <g id="Group_1275" data-name="Group 1275" transform="translate(0.007)">
      <g id="Group_1274" data-name="Group 1274" transform="translate(0)">
        <path id="Path_10999" data-name="Path 10999" d="M53.7.309A1.055,1.055,0,0,0,52.952,0H27.007a1.055,1.055,0,0,0-1.055,1.055V4.072l-10,2.679a1.055,1.055,0,0,0-.746,1.292L20.39,27.38l-4.482,4.482A3.163,3.163,0,0,0,13.3,30.482H3.171A3.168,3.168,0,0,0,.007,33.646V50.837A3.168,3.168,0,0,0,3.171,54H13.3a3.169,3.169,0,0,0,3.071-2.4l1.254,1.094A5.314,5.314,0,0,0,21.114,54H52.952a1.055,1.055,0,0,0,1.055-1.055V1.055A1.056,1.056,0,0,0,53.7.309ZM14.351,50.837A1.056,1.056,0,0,1,13.3,51.892H3.171a1.056,1.056,0,0,1-1.055-1.055V33.646a1.056,1.056,0,0,1,1.055-1.055H7.179v12.15a1.055,1.055,0,1,0,2.109,0V32.591H13.3a1.056,1.056,0,0,1,1.055,1.055V50.837ZM17.519,8.516l8.433-2.26v3.908l-.707.189a1.055,1.055,0,0,0-.746,1.292,2.843,2.843,0,0,1-2.008,3.478,1.055,1.055,0,0,0-.745,1.294l4.111,15.224H23.74L22.65,27.373a1.053,1.053,0,0,0-.177-.37ZM25.952,15v8.9l-1.924-7.123A4.941,4.941,0,0,0,25.952,15ZM41.1,51.892H21.114a3.205,3.205,0,0,1-2.107-.789L16.46,48.881V34.294l4.6-4.6.835,3.268a1.055,1.055,0,0,0,1.022.793H43.658a1.477,1.477,0,1,1,0,2.953H33.033a1.055,1.055,0,0,0,0,2.109H46.959a1.477,1.477,0,1,1,0,2.953H33.033a1.055,1.055,0,0,0,0,2.109H44.7a1.477,1.477,0,0,1,0,2.953H33.033a1.055,1.055,0,0,0,0,2.109H41.1a1.476,1.476,0,1,1,0,2.953Zm10.793,0H44.371a3.573,3.573,0,0,0,0-2.953H44.7a3.584,3.584,0,0,0,3.205-5.191,3.583,3.583,0,0,0,1.929-5.594V24.787a1.055,1.055,0,0,0-2.109,0v12a3.587,3.587,0,0,0-.769-.084h-.035a3.584,3.584,0,0,0-3.267-5.063h-1.7a5.048,5.048,0,1,0-3.966,0H32.231V11.587a4.965,4.965,0,0,0,3.781-3.781h7.934a4.965,4.965,0,0,0,3.781,3.781v3.279a1.055,1.055,0,0,0,2.109,0V10.646a1.055,1.055,0,0,0-1.055-1.055,2.843,2.843,0,0,1-2.84-2.84A1.055,1.055,0,0,0,44.888,5.7H35.071a1.055,1.055,0,0,0-1.055,1.055,2.843,2.843,0,0,1-2.84,2.84,1.055,1.055,0,0,0-1.055,1.055v21h-2.06V2.111H51.9ZM39.98,29.939A2.938,2.938,0,1,1,42.918,27,2.941,2.941,0,0,1,39.98,29.939Z" transform="translate(-0.007)"/>
      </g>
    </g>
  </g>
</svg>
