<svg xmlns="http://www.w3.org/2000/svg" width="50.12" height="54" viewBox="0 0 50.12 54">
  <g id="Group_1111" data-name="Group 1111" transform="translate(-777 -2567)" opacity="0.12">
    <g id="passport" transform="translate(777 2567)">
      <path id="Path_3297" data-name="Path 3297" d="M50.184,9.252,32.2.088a.8.8,0,0,0-1.074.349l-2.4,4.712a3.815,3.815,0,0,0-.586-.045H4.3A3.809,3.809,0,0,0,.5,8.909v5.637a.8.8,0,0,0,1.6,0V8.909A2.21,2.21,0,0,1,4.3,6.7H28.139a2.21,2.21,0,0,1,2.207,2.207V40.9a2.21,2.21,0,0,1-2.207,2.207H4.3A2.21,2.21,0,0,1,2.1,40.9V18.274a.8.8,0,1,0-1.6,0V40.9a3.809,3.809,0,0,0,3.8,3.8H9.371a.755.755,0,0,0,.073.042l17.984,9.163a.8.8,0,0,0,1.074-.349L42.556,25.984a.8.8,0,0,0-1.423-.725L27.442,52.128l-14.563-7.42H28.139a3.809,3.809,0,0,0,3.8-3.8v-4.5l8.679-17.032a.8.8,0,1,0-1.423-.725L31.943,32.888V24.582l3.944-7.741a.8.8,0,1,0-1.423-.725l-2.521,4.948v-8.95L44.556,18.54l-1.579,3.1a.8.8,0,1,0,1.423.725l1.941-3.81,4.191-8.227a.8.8,0,0,0-.349-1.074Zm-4.9,7.865-13.338-6.8V8.909a3.8,3.8,0,0,0-1.721-3.181l1.964-3.854,16.561,8.438Zm0,0" transform="translate(-0.5 -0.001)"/>
      <path id="Path_3298" data-name="Path 3298" d="M68.019,129.474a9.536,9.536,0,0,0,1.057-.059h0A9.491,9.491,0,0,0,76.3,115.338a.824.824,0,0,0-.075-.131,9.494,9.494,0,1,0-8.206,14.267Zm-7.857-8.7h2.783a14.53,14.53,0,0,0,1.322,5.7q.161.324.335.616A7.916,7.916,0,0,1,60.161,120.778Zm8.656,6.857v-6.857H71.5C71.333,124.284,70.117,126.861,68.817,127.635Zm0-8.454v-6.857c1.3.774,2.516,3.351,2.678,6.857Zm-1.6-6.857v6.857H64.542C64.7,115.674,65.921,113.1,67.22,112.323Zm0,8.454v6.857c-1.3-.774-2.516-3.351-2.678-6.857Zm4.216,6.32q.174-.292.335-.616a14.533,14.533,0,0,0,1.322-5.7h2.783A7.915,7.915,0,0,1,71.436,127.1Zm4.44-7.918H73.094a14.528,14.528,0,0,0-1.322-5.7q-.16-.325-.335-.616A7.916,7.916,0,0,1,75.876,119.181ZM64.6,112.86q-.175.292-.335.616a14.535,14.535,0,0,0-1.322,5.7H60.161A7.916,7.916,0,0,1,64.6,112.86Zm0,0" transform="translate(-52.404 -98.832)"/>
      <path id="Path_3299" data-name="Path 3299" d="M59.322,325.847H76.715a.8.8,0,1,0,0-1.6H59.322a.8.8,0,0,0,0,1.6Zm0,0" transform="translate(-52.404 -290.051)"/>
    </g>
  </g>
</svg>
