<svg xmlns="http://www.w3.org/2000/svg" width="54.287" height="54.287" viewBox="0 0 54.287 54.287"><defs><style>.a{fill:#22ac38;}.b{fill:#fff;}.c{fill:#188b2a;}</style></defs><path class="a" d="M54.287,27.144A27.144,27.144,0,1,1,27.144,0,27.143,27.143,0,0,1,54.287,27.144Zm0,0"/><path class="b" d="M100.766,118.152l-11.711-11.4,7.28-7.085,4.431,4.312,14.715-14.318,7.28,7.085Zm0,0" transform="translate(-79.613 -80.157)"/><g transform="translate(13.572 40.715)"><path class="c" d="M129.7,384h10.179a1.7,1.7,0,0,1,0,3.393H129.7a1.7,1.7,0,0,1,0-3.393Zm0,0" transform="translate(-128 -384)"/><path class="c" d="M288,384h3.393v3.393H288Zm0,0" transform="translate(-271.035 -384)"/><path class="c" d="M352,384h3.393v3.393H352Zm0,0" transform="translate(-328.249 -384)"/></g></svg>