<svg xmlns="http://www.w3.org/2000/svg" width="42" height="49.422" viewBox="0 0 42 49.422"><g transform="translate(-36.762)"><g transform="translate(36.762)"><path d="M213.163,18.184h.02c4.078-.04,3.483-5.491,3.483-5.491-.161-3.644-3.2-3.614-3.5-3.6-.3-.01-3.341-.04-3.513,3.594,0,0-.6,5.451,3.493,5.491h0C213.143,18.184,213.153,18.184,213.163,18.184Z" transform="translate(-192.171 -8.17)" fill="#fccb54"/><path d="M178.462,133.934,181.1,130.3a17.5,17.5,0,0,1,3.372,1.867,7.087,7.087,0,0,1,.929.818c.838.838.485,5.693,0,7.47a25.136,25.136,0,0,1-1.908,4.33,6.84,6.84,0,0,0-.535,2.039l-1.817,17.816a1.114,1.114,0,0,1-1.1,1h-3.149a1.107,1.107,0,0,1-1.1-1l-1.817-17.816a6.762,6.762,0,0,0-.535-2.039,24.746,24.746,0,0,1-1.908-4.33c-.485-1.777-.838-6.632,0-7.47a7.088,7.088,0,0,1,.929-.818,18.154,18.154,0,0,1,3.371-1.867Z" transform="translate(-157.47 -117.147)" fill="#fccb54"/><path d="M37.262,153.679a24.661,24.661,0,0,0,1.847,4.23,5.229,5.229,0,0,1,.414,1.6l1.706,16.716a1.951,1.951,0,0,0,1.948,1.756h2.948a1.951,1.951,0,0,0,1.948-1.756l1.706-16.716a5.37,5.37,0,0,1,.434-1.635.911.911,0,1,0-1.666-.737,7.171,7.171,0,0,0-.575,2.19l-1.706,16.716a.129.129,0,0,1-.121.111H43.2a.121.121,0,0,1-.121-.111l-1.726-16.726a7.471,7.471,0,0,0-.575-2.19.3.3,0,0,0-.04-.081,23.013,23.013,0,0,1-1.706-3.856c-.464-1.726-.6-5.481-.212-6.147a5.522,5.522,0,0,1,.747-.656,14.749,14.749,0,0,1,2.312-1.343l2.039,2.806a.914.914,0,0,0,1.474,0l2.473-3.4a.918.918,0,1,0-1.484-1.08l-1.736,2.382-1.716-2.372a.916.916,0,0,0-1.08-.313,17.52,17.52,0,0,0-3.361,1.857,7.355,7.355,0,0,0-.979.858C36.213,147.077,36.929,152.447,37.262,153.679Z" transform="translate(-36.762 -128.564)" fill="#404040"/><path d="M77.092,39.747h.172a3.833,3.833,0,0,0,2.867-1.252c1.5-1.7,1.292-4.522,1.252-4.876A4.039,4.039,0,0,0,77.253,29.4h-.162a4.051,4.051,0,0,0-4.129,4.219c-.03.353-.252,3.18,1.252,4.876A3.836,3.836,0,0,0,77.092,39.747Zm-2.3-5.966V33.72c.1-2.18,1.484-2.5,2.3-2.5h.151c.818,0,2.2.323,2.3,2.5v.05a5.273,5.273,0,0,1-.808,3.5,1.966,1.966,0,0,1-1.565.636h-.02a2,2,0,0,1-1.565-.636A5.34,5.34,0,0,1,74.79,33.781Z" transform="translate(-69.283 -26.432)" fill="#404040"/><path d="M319.25,156.6a.9.9,0,0,0-.464,1.2,5.449,5.449,0,0,1,.434,1.635l1.706,16.716a1.951,1.951,0,0,0,1.948,1.756h2.948a1.951,1.951,0,0,0,1.948-1.756l1.706-16.716a5.532,5.532,0,0,1,.414-1.6,23.185,23.185,0,0,0,1.847-4.23c.333-1.232,1.06-6.6-.232-7.894a7.357,7.357,0,0,0-.979-.858,17.206,17.206,0,0,0-3.361-1.857.9.9,0,0,0-1.08.313l-1.736,2.382-1.746-2.372a.918.918,0,0,0-1.484,1.08l2.473,3.4a.914.914,0,0,0,1.474,0l2.039-2.806a14.749,14.749,0,0,1,2.312,1.343,6.1,6.1,0,0,1,.747.656c.384.666.252,4.421-.212,6.147a23.012,23.012,0,0,1-1.706,3.856.6.6,0,0,0-.04.081,7.17,7.17,0,0,0-.575,2.19l-1.706,16.716a.129.129,0,0,1-.121.111h-2.948a.121.121,0,0,1-.121-.111l-1.706-16.716a7.471,7.471,0,0,0-.575-2.19A.9.9,0,0,0,319.25,156.6Z" transform="translate(-290.244 -128.493)" fill="#404040"/><path d="M336.682,39.747h.172a3.836,3.836,0,0,0,2.877-1.252c1.5-1.7,1.292-4.522,1.252-4.876a4.034,4.034,0,0,0-4.129-4.219h-.161a4.051,4.051,0,0,0-4.129,4.219c-.03.353-.252,3.18,1.252,4.876A3.833,3.833,0,0,0,336.682,39.747Zm-2.3-5.966V33.72c.1-2.18,1.484-2.5,2.3-2.5h.151c.818,0,2.2.323,2.3,2.5v.05a5.272,5.272,0,0,1-.808,3.5,2,2,0,0,1-1.565.636h-.02a2,2,0,0,1-1.565-.636A5.34,5.34,0,0,1,334.38,33.781Z" transform="translate(-302.678 -26.432)" fill="#404040"/><path d="M162.691,124.176c-1.363,1.363-.6,7.046-.232,8.358a25.262,25.262,0,0,0,1.968,4.492,5.745,5.745,0,0,1,.454,1.726l1.817,17.816a2.011,2.011,0,0,0,2.019,1.817h3.139a2.033,2.033,0,0,0,2.019-1.817l1.817-17.816a5.668,5.668,0,0,1,.454-1.726,25.617,25.617,0,0,0,1.968-4.492c.353-1.312,1.131-7-.232-8.358a8.173,8.173,0,0,0-1.03-.908,18.908,18.908,0,0,0-3.573-1.978.9.9,0,0,0-1.08.313l-1.928,2.614-1.9-2.614a.916.916,0,0,0-1.08-.313,18.591,18.591,0,0,0-3.573,1.978A7.523,7.523,0,0,0,162.691,124.176ZM164,125.448a5.616,5.616,0,0,1,.808-.707,15.2,15.2,0,0,1,2.524-1.464l2.2,3.028a.914.914,0,0,0,1.474,0l2.2-3.028a16.058,16.058,0,0,1,2.524,1.464,5.617,5.617,0,0,1,.808.707c.424.686.293,4.734-.222,6.6a23.5,23.5,0,0,1-1.827,4.118.6.6,0,0,0-.04.081,7.67,7.67,0,0,0-.616,2.322l-1.817,17.816a.188.188,0,0,1-.192.172h-3.139a.188.188,0,0,1-.192-.172l-1.817-17.816a7.461,7.461,0,0,0-.616-2.322.3.3,0,0,0-.04-.081,24.578,24.578,0,0,1-1.827-4.129C163.711,130.182,163.58,126.134,164,125.448Z" transform="translate(-149.28 -108.984)" fill="#404040"/><path d="M204.888,10.922h.182A3.926,3.926,0,0,0,208.088,9.6c1.595-1.787,1.353-4.795,1.322-5.158C209.249,1.161,206.978,0,205.07,0h-.182a4.253,4.253,0,0,0-4.341,4.441c-.03.363-.273,3.361,1.322,5.148A3.984,3.984,0,0,0,204.888,10.922Zm-2.513-6.309V4.553c.111-2.463,1.8-2.725,2.513-2.725h.172c.717,0,2.4.262,2.513,2.725V4.6c.071.7.061,2.736-.868,3.775a2.171,2.171,0,0,1-1.716.7h-.03a2.2,2.2,0,0,1-1.716-.7C202.314,7.349,202.3,5.31,202.375,4.613Z" transform="translate(-183.987)" fill="#404040"/></g></g></svg>