<svg xmlns="http://www.w3.org/2000/svg" xmlns:xlink="http://www.w3.org/1999/xlink" width="221" height="176" viewBox="0 0 221 176">
  <defs>
    <clipPath id="clip-path">
      <rect width="221" height="176" fill="none"/>
    </clipPath>
  </defs>
  <g id="Repeat_Grid_55" data-name="Repeat Grid 55" opacity="0.25" clip-path="url(#clip-path)">
    <g transform="translate(10056 -10110)">
      <circle id="Ellipse_232" data-name="Ellipse 232" cx="2" cy="2" r="2" transform="translate(-10056 10110)" fill="#404040"/>
    </g>
    <g transform="translate(10070 -10110)">
      <circle id="Ellipse_232-2" data-name="Ellipse 232" cx="2" cy="2" r="2" transform="translate(-10056 10110)" fill="#404040"/>
    </g>
    <g transform="translate(10084 -10110)">
      <circle id="Ellipse_232-3" data-name="Ellipse 232" cx="2" cy="2" r="2" transform="translate(-10056 10110)" fill="#404040"/>
    </g>
    <g transform="translate(10098 -10110)">
      <circle id="Ellipse_232-4" data-name="Ellipse 232" cx="2" cy="2" r="2" transform="translate(-10056 10110)" fill="#404040"/>
    </g>
    <g transform="translate(10112 -10110)">
      <circle id="Ellipse_232-5" data-name="Ellipse 232" cx="2" cy="2" r="2" transform="translate(-10056 10110)" fill="#404040"/>
    </g>
    <g transform="translate(10126 -10110)">
      <circle id="Ellipse_232-6" data-name="Ellipse 232" cx="2" cy="2" r="2" transform="translate(-10056 10110)" fill="#404040"/>
    </g>
    <g transform="translate(10140 -10110)">
      <circle id="Ellipse_232-7" data-name="Ellipse 232" cx="2" cy="2" r="2" transform="translate(-10056 10110)" fill="#404040"/>
    </g>
    <g transform="translate(10154 -10110)">
      <circle id="Ellipse_232-8" data-name="Ellipse 232" cx="2" cy="2" r="2" transform="translate(-10056 10110)" fill="#404040"/>
    </g>
    <g transform="translate(10168 -10110)">
      <circle id="Ellipse_232-9" data-name="Ellipse 232" cx="2" cy="2" r="2" transform="translate(-10056 10110)" fill="#404040"/>
    </g>
    <g transform="translate(10182 -10110)">
      <circle id="Ellipse_232-10" data-name="Ellipse 232" cx="2" cy="2" r="2" transform="translate(-10056 10110)" fill="#404040"/>
    </g>
    <g transform="translate(10196 -10110)">
      <circle id="Ellipse_232-11" data-name="Ellipse 232" cx="2" cy="2" r="2" transform="translate(-10056 10110)" fill="#404040"/>
    </g>
    <g transform="translate(10210 -10110)">
      <circle id="Ellipse_232-12" data-name="Ellipse 232" cx="2" cy="2" r="2" transform="translate(-10056 10110)" fill="#404040"/>
    </g>
    <g transform="translate(10224 -10110)">
      <circle id="Ellipse_232-13" data-name="Ellipse 232" cx="2" cy="2" r="2" transform="translate(-10056 10110)" fill="#404040"/>
    </g>
    <g transform="translate(10238 -10110)">
      <circle id="Ellipse_232-14" data-name="Ellipse 232" cx="2" cy="2" r="2" transform="translate(-10056 10110)" fill="#404040"/>
    </g>
    <g transform="translate(10252 -10110)">
      <circle id="Ellipse_232-15" data-name="Ellipse 232" cx="2" cy="2" r="2" transform="translate(-10056 10110)" fill="#404040"/>
    </g>
    <g transform="translate(10266 -10110)">
      <circle id="Ellipse_232-16" data-name="Ellipse 232" cx="2" cy="2" r="2" transform="translate(-10056 10110)" fill="#404040"/>
    </g>
    <g transform="translate(10056 -10096)">
      <circle id="Ellipse_232-17" data-name="Ellipse 232" cx="2" cy="2" r="2" transform="translate(-10056 10110)" fill="#404040"/>
    </g>
    <g transform="translate(10070 -10096)">
      <circle id="Ellipse_232-18" data-name="Ellipse 232" cx="2" cy="2" r="2" transform="translate(-10056 10110)" fill="#404040"/>
    </g>
    <g transform="translate(10084 -10096)">
      <circle id="Ellipse_232-19" data-name="Ellipse 232" cx="2" cy="2" r="2" transform="translate(-10056 10110)" fill="#404040"/>
    </g>
    <g transform="translate(10098 -10096)">
      <circle id="Ellipse_232-20" data-name="Ellipse 232" cx="2" cy="2" r="2" transform="translate(-10056 10110)" fill="#404040"/>
    </g>
    <g transform="translate(10112 -10096)">
      <circle id="Ellipse_232-21" data-name="Ellipse 232" cx="2" cy="2" r="2" transform="translate(-10056 10110)" fill="#404040"/>
    </g>
    <g transform="translate(10126 -10096)">
      <circle id="Ellipse_232-22" data-name="Ellipse 232" cx="2" cy="2" r="2" transform="translate(-10056 10110)" fill="#404040"/>
    </g>
    <g transform="translate(10140 -10096)">
      <circle id="Ellipse_232-23" data-name="Ellipse 232" cx="2" cy="2" r="2" transform="translate(-10056 10110)" fill="#404040"/>
    </g>
    <g transform="translate(10154 -10096)">
      <circle id="Ellipse_232-24" data-name="Ellipse 232" cx="2" cy="2" r="2" transform="translate(-10056 10110)" fill="#404040"/>
    </g>
    <g transform="translate(10168 -10096)">
      <circle id="Ellipse_232-25" data-name="Ellipse 232" cx="2" cy="2" r="2" transform="translate(-10056 10110)" fill="#404040"/>
    </g>
    <g transform="translate(10182 -10096)">
      <circle id="Ellipse_232-26" data-name="Ellipse 232" cx="2" cy="2" r="2" transform="translate(-10056 10110)" fill="#404040"/>
    </g>
    <g transform="translate(10196 -10096)">
      <circle id="Ellipse_232-27" data-name="Ellipse 232" cx="2" cy="2" r="2" transform="translate(-10056 10110)" fill="#404040"/>
    </g>
    <g transform="translate(10210 -10096)">
      <circle id="Ellipse_232-28" data-name="Ellipse 232" cx="2" cy="2" r="2" transform="translate(-10056 10110)" fill="#404040"/>
    </g>
    <g transform="translate(10224 -10096)">
      <circle id="Ellipse_232-29" data-name="Ellipse 232" cx="2" cy="2" r="2" transform="translate(-10056 10110)" fill="#404040"/>
    </g>
    <g transform="translate(10238 -10096)">
      <circle id="Ellipse_232-30" data-name="Ellipse 232" cx="2" cy="2" r="2" transform="translate(-10056 10110)" fill="#404040"/>
    </g>
    <g transform="translate(10252 -10096)">
      <circle id="Ellipse_232-31" data-name="Ellipse 232" cx="2" cy="2" r="2" transform="translate(-10056 10110)" fill="#404040"/>
    </g>
    <g transform="translate(10266 -10096)">
      <circle id="Ellipse_232-32" data-name="Ellipse 232" cx="2" cy="2" r="2" transform="translate(-10056 10110)" fill="#404040"/>
    </g>
    <g transform="translate(10056 -10082)">
      <circle id="Ellipse_232-33" data-name="Ellipse 232" cx="2" cy="2" r="2" transform="translate(-10056 10110)" fill="#404040"/>
    </g>
    <g transform="translate(10070 -10082)">
      <circle id="Ellipse_232-34" data-name="Ellipse 232" cx="2" cy="2" r="2" transform="translate(-10056 10110)" fill="#404040"/>
    </g>
    <g transform="translate(10084 -10082)">
      <circle id="Ellipse_232-35" data-name="Ellipse 232" cx="2" cy="2" r="2" transform="translate(-10056 10110)" fill="#404040"/>
    </g>
    <g transform="translate(10098 -10082)">
      <circle id="Ellipse_232-36" data-name="Ellipse 232" cx="2" cy="2" r="2" transform="translate(-10056 10110)" fill="#404040"/>
    </g>
    <g transform="translate(10112 -10082)">
      <circle id="Ellipse_232-37" data-name="Ellipse 232" cx="2" cy="2" r="2" transform="translate(-10056 10110)" fill="#404040"/>
    </g>
    <g transform="translate(10126 -10082)">
      <circle id="Ellipse_232-38" data-name="Ellipse 232" cx="2" cy="2" r="2" transform="translate(-10056 10110)" fill="#404040"/>
    </g>
    <g transform="translate(10140 -10082)">
      <circle id="Ellipse_232-39" data-name="Ellipse 232" cx="2" cy="2" r="2" transform="translate(-10056 10110)" fill="#404040"/>
    </g>
    <g transform="translate(10154 -10082)">
      <circle id="Ellipse_232-40" data-name="Ellipse 232" cx="2" cy="2" r="2" transform="translate(-10056 10110)" fill="#404040"/>
    </g>
    <g transform="translate(10168 -10082)">
      <circle id="Ellipse_232-41" data-name="Ellipse 232" cx="2" cy="2" r="2" transform="translate(-10056 10110)" fill="#404040"/>
    </g>
    <g transform="translate(10182 -10082)">
      <circle id="Ellipse_232-42" data-name="Ellipse 232" cx="2" cy="2" r="2" transform="translate(-10056 10110)" fill="#404040"/>
    </g>
    <g transform="translate(10196 -10082)">
      <circle id="Ellipse_232-43" data-name="Ellipse 232" cx="2" cy="2" r="2" transform="translate(-10056 10110)" fill="#404040"/>
    </g>
    <g transform="translate(10210 -10082)">
      <circle id="Ellipse_232-44" data-name="Ellipse 232" cx="2" cy="2" r="2" transform="translate(-10056 10110)" fill="#404040"/>
    </g>
    <g transform="translate(10224 -10082)">
      <circle id="Ellipse_232-45" data-name="Ellipse 232" cx="2" cy="2" r="2" transform="translate(-10056 10110)" fill="#404040"/>
    </g>
    <g transform="translate(10238 -10082)">
      <circle id="Ellipse_232-46" data-name="Ellipse 232" cx="2" cy="2" r="2" transform="translate(-10056 10110)" fill="#404040"/>
    </g>
    <g transform="translate(10252 -10082)">
      <circle id="Ellipse_232-47" data-name="Ellipse 232" cx="2" cy="2" r="2" transform="translate(-10056 10110)" fill="#404040"/>
    </g>
    <g transform="translate(10266 -10082)">
      <circle id="Ellipse_232-48" data-name="Ellipse 232" cx="2" cy="2" r="2" transform="translate(-10056 10110)" fill="#404040"/>
    </g>
    <g transform="translate(10056 -10068)">
      <circle id="Ellipse_232-49" data-name="Ellipse 232" cx="2" cy="2" r="2" transform="translate(-10056 10110)" fill="#404040"/>
    </g>
    <g transform="translate(10070 -10068)">
      <circle id="Ellipse_232-50" data-name="Ellipse 232" cx="2" cy="2" r="2" transform="translate(-10056 10110)" fill="#404040"/>
    </g>
    <g transform="translate(10084 -10068)">
      <circle id="Ellipse_232-51" data-name="Ellipse 232" cx="2" cy="2" r="2" transform="translate(-10056 10110)" fill="#404040"/>
    </g>
    <g transform="translate(10098 -10068)">
      <circle id="Ellipse_232-52" data-name="Ellipse 232" cx="2" cy="2" r="2" transform="translate(-10056 10110)" fill="#404040"/>
    </g>
    <g transform="translate(10112 -10068)">
      <circle id="Ellipse_232-53" data-name="Ellipse 232" cx="2" cy="2" r="2" transform="translate(-10056 10110)" fill="#404040"/>
    </g>
    <g transform="translate(10126 -10068)">
      <circle id="Ellipse_232-54" data-name="Ellipse 232" cx="2" cy="2" r="2" transform="translate(-10056 10110)" fill="#404040"/>
    </g>
    <g transform="translate(10140 -10068)">
      <circle id="Ellipse_232-55" data-name="Ellipse 232" cx="2" cy="2" r="2" transform="translate(-10056 10110)" fill="#404040"/>
    </g>
    <g transform="translate(10154 -10068)">
      <circle id="Ellipse_232-56" data-name="Ellipse 232" cx="2" cy="2" r="2" transform="translate(-10056 10110)" fill="#404040"/>
    </g>
    <g transform="translate(10168 -10068)">
      <circle id="Ellipse_232-57" data-name="Ellipse 232" cx="2" cy="2" r="2" transform="translate(-10056 10110)" fill="#404040"/>
    </g>
    <g transform="translate(10182 -10068)">
      <circle id="Ellipse_232-58" data-name="Ellipse 232" cx="2" cy="2" r="2" transform="translate(-10056 10110)" fill="#404040"/>
    </g>
    <g transform="translate(10196 -10068)">
      <circle id="Ellipse_232-59" data-name="Ellipse 232" cx="2" cy="2" r="2" transform="translate(-10056 10110)" fill="#404040"/>
    </g>
    <g transform="translate(10210 -10068)">
      <circle id="Ellipse_232-60" data-name="Ellipse 232" cx="2" cy="2" r="2" transform="translate(-10056 10110)" fill="#404040"/>
    </g>
    <g transform="translate(10224 -10068)">
      <circle id="Ellipse_232-61" data-name="Ellipse 232" cx="2" cy="2" r="2" transform="translate(-10056 10110)" fill="#404040"/>
    </g>
    <g transform="translate(10238 -10068)">
      <circle id="Ellipse_232-62" data-name="Ellipse 232" cx="2" cy="2" r="2" transform="translate(-10056 10110)" fill="#404040"/>
    </g>
    <g transform="translate(10252 -10068)">
      <circle id="Ellipse_232-63" data-name="Ellipse 232" cx="2" cy="2" r="2" transform="translate(-10056 10110)" fill="#404040"/>
    </g>
    <g transform="translate(10266 -10068)">
      <circle id="Ellipse_232-64" data-name="Ellipse 232" cx="2" cy="2" r="2" transform="translate(-10056 10110)" fill="#404040"/>
    </g>
    <g transform="translate(10056 -10054)">
      <circle id="Ellipse_232-65" data-name="Ellipse 232" cx="2" cy="2" r="2" transform="translate(-10056 10110)" fill="#404040"/>
    </g>
    <g transform="translate(10070 -10054)">
      <circle id="Ellipse_232-66" data-name="Ellipse 232" cx="2" cy="2" r="2" transform="translate(-10056 10110)" fill="#404040"/>
    </g>
    <g transform="translate(10084 -10054)">
      <circle id="Ellipse_232-67" data-name="Ellipse 232" cx="2" cy="2" r="2" transform="translate(-10056 10110)" fill="#404040"/>
    </g>
    <g transform="translate(10098 -10054)">
      <circle id="Ellipse_232-68" data-name="Ellipse 232" cx="2" cy="2" r="2" transform="translate(-10056 10110)" fill="#404040"/>
    </g>
    <g transform="translate(10112 -10054)">
      <circle id="Ellipse_232-69" data-name="Ellipse 232" cx="2" cy="2" r="2" transform="translate(-10056 10110)" fill="#404040"/>
    </g>
    <g transform="translate(10126 -10054)">
      <circle id="Ellipse_232-70" data-name="Ellipse 232" cx="2" cy="2" r="2" transform="translate(-10056 10110)" fill="#404040"/>
    </g>
    <g transform="translate(10140 -10054)">
      <circle id="Ellipse_232-71" data-name="Ellipse 232" cx="2" cy="2" r="2" transform="translate(-10056 10110)" fill="#404040"/>
    </g>
    <g transform="translate(10154 -10054)">
      <circle id="Ellipse_232-72" data-name="Ellipse 232" cx="2" cy="2" r="2" transform="translate(-10056 10110)" fill="#404040"/>
    </g>
    <g transform="translate(10168 -10054)">
      <circle id="Ellipse_232-73" data-name="Ellipse 232" cx="2" cy="2" r="2" transform="translate(-10056 10110)" fill="#404040"/>
    </g>
    <g transform="translate(10182 -10054)">
      <circle id="Ellipse_232-74" data-name="Ellipse 232" cx="2" cy="2" r="2" transform="translate(-10056 10110)" fill="#404040"/>
    </g>
    <g transform="translate(10196 -10054)">
      <circle id="Ellipse_232-75" data-name="Ellipse 232" cx="2" cy="2" r="2" transform="translate(-10056 10110)" fill="#404040"/>
    </g>
    <g transform="translate(10210 -10054)">
      <circle id="Ellipse_232-76" data-name="Ellipse 232" cx="2" cy="2" r="2" transform="translate(-10056 10110)" fill="#404040"/>
    </g>
    <g transform="translate(10224 -10054)">
      <circle id="Ellipse_232-77" data-name="Ellipse 232" cx="2" cy="2" r="2" transform="translate(-10056 10110)" fill="#404040"/>
    </g>
    <g transform="translate(10238 -10054)">
      <circle id="Ellipse_232-78" data-name="Ellipse 232" cx="2" cy="2" r="2" transform="translate(-10056 10110)" fill="#404040"/>
    </g>
    <g transform="translate(10252 -10054)">
      <circle id="Ellipse_232-79" data-name="Ellipse 232" cx="2" cy="2" r="2" transform="translate(-10056 10110)" fill="#404040"/>
    </g>
    <g transform="translate(10266 -10054)">
      <circle id="Ellipse_232-80" data-name="Ellipse 232" cx="2" cy="2" r="2" transform="translate(-10056 10110)" fill="#404040"/>
    </g>
    <g transform="translate(10056 -10040)">
      <circle id="Ellipse_232-81" data-name="Ellipse 232" cx="2" cy="2" r="2" transform="translate(-10056 10110)" fill="#404040"/>
    </g>
    <g transform="translate(10070 -10040)">
      <circle id="Ellipse_232-82" data-name="Ellipse 232" cx="2" cy="2" r="2" transform="translate(-10056 10110)" fill="#404040"/>
    </g>
    <g transform="translate(10084 -10040)">
      <circle id="Ellipse_232-83" data-name="Ellipse 232" cx="2" cy="2" r="2" transform="translate(-10056 10110)" fill="#404040"/>
    </g>
    <g transform="translate(10098 -10040)">
      <circle id="Ellipse_232-84" data-name="Ellipse 232" cx="2" cy="2" r="2" transform="translate(-10056 10110)" fill="#404040"/>
    </g>
    <g transform="translate(10112 -10040)">
      <circle id="Ellipse_232-85" data-name="Ellipse 232" cx="2" cy="2" r="2" transform="translate(-10056 10110)" fill="#404040"/>
    </g>
    <g transform="translate(10126 -10040)">
      <circle id="Ellipse_232-86" data-name="Ellipse 232" cx="2" cy="2" r="2" transform="translate(-10056 10110)" fill="#404040"/>
    </g>
    <g transform="translate(10140 -10040)">
      <circle id="Ellipse_232-87" data-name="Ellipse 232" cx="2" cy="2" r="2" transform="translate(-10056 10110)" fill="#404040"/>
    </g>
    <g transform="translate(10154 -10040)">
      <circle id="Ellipse_232-88" data-name="Ellipse 232" cx="2" cy="2" r="2" transform="translate(-10056 10110)" fill="#404040"/>
    </g>
    <g transform="translate(10168 -10040)">
      <circle id="Ellipse_232-89" data-name="Ellipse 232" cx="2" cy="2" r="2" transform="translate(-10056 10110)" fill="#404040"/>
    </g>
    <g transform="translate(10182 -10040)">
      <circle id="Ellipse_232-90" data-name="Ellipse 232" cx="2" cy="2" r="2" transform="translate(-10056 10110)" fill="#404040"/>
    </g>
    <g transform="translate(10196 -10040)">
      <circle id="Ellipse_232-91" data-name="Ellipse 232" cx="2" cy="2" r="2" transform="translate(-10056 10110)" fill="#404040"/>
    </g>
    <g transform="translate(10210 -10040)">
      <circle id="Ellipse_232-92" data-name="Ellipse 232" cx="2" cy="2" r="2" transform="translate(-10056 10110)" fill="#404040"/>
    </g>
    <g transform="translate(10224 -10040)">
      <circle id="Ellipse_232-93" data-name="Ellipse 232" cx="2" cy="2" r="2" transform="translate(-10056 10110)" fill="#404040"/>
    </g>
    <g transform="translate(10238 -10040)">
      <circle id="Ellipse_232-94" data-name="Ellipse 232" cx="2" cy="2" r="2" transform="translate(-10056 10110)" fill="#404040"/>
    </g>
    <g transform="translate(10252 -10040)">
      <circle id="Ellipse_232-95" data-name="Ellipse 232" cx="2" cy="2" r="2" transform="translate(-10056 10110)" fill="#404040"/>
    </g>
    <g transform="translate(10266 -10040)">
      <circle id="Ellipse_232-96" data-name="Ellipse 232" cx="2" cy="2" r="2" transform="translate(-10056 10110)" fill="#404040"/>
    </g>
    <g transform="translate(10056 -10026)">
      <circle id="Ellipse_232-97" data-name="Ellipse 232" cx="2" cy="2" r="2" transform="translate(-10056 10110)" fill="#404040"/>
    </g>
    <g transform="translate(10070 -10026)">
      <circle id="Ellipse_232-98" data-name="Ellipse 232" cx="2" cy="2" r="2" transform="translate(-10056 10110)" fill="#404040"/>
    </g>
    <g transform="translate(10084 -10026)">
      <circle id="Ellipse_232-99" data-name="Ellipse 232" cx="2" cy="2" r="2" transform="translate(-10056 10110)" fill="#404040"/>
    </g>
    <g transform="translate(10098 -10026)">
      <circle id="Ellipse_232-100" data-name="Ellipse 232" cx="2" cy="2" r="2" transform="translate(-10056 10110)" fill="#404040"/>
    </g>
    <g transform="translate(10112 -10026)">
      <circle id="Ellipse_232-101" data-name="Ellipse 232" cx="2" cy="2" r="2" transform="translate(-10056 10110)" fill="#404040"/>
    </g>
    <g transform="translate(10126 -10026)">
      <circle id="Ellipse_232-102" data-name="Ellipse 232" cx="2" cy="2" r="2" transform="translate(-10056 10110)" fill="#404040"/>
    </g>
    <g transform="translate(10140 -10026)">
      <circle id="Ellipse_232-103" data-name="Ellipse 232" cx="2" cy="2" r="2" transform="translate(-10056 10110)" fill="#404040"/>
    </g>
    <g transform="translate(10154 -10026)">
      <circle id="Ellipse_232-104" data-name="Ellipse 232" cx="2" cy="2" r="2" transform="translate(-10056 10110)" fill="#404040"/>
    </g>
    <g transform="translate(10168 -10026)">
      <circle id="Ellipse_232-105" data-name="Ellipse 232" cx="2" cy="2" r="2" transform="translate(-10056 10110)" fill="#404040"/>
    </g>
    <g transform="translate(10182 -10026)">
      <circle id="Ellipse_232-106" data-name="Ellipse 232" cx="2" cy="2" r="2" transform="translate(-10056 10110)" fill="#404040"/>
    </g>
    <g transform="translate(10196 -10026)">
      <circle id="Ellipse_232-107" data-name="Ellipse 232" cx="2" cy="2" r="2" transform="translate(-10056 10110)" fill="#404040"/>
    </g>
    <g transform="translate(10210 -10026)">
      <circle id="Ellipse_232-108" data-name="Ellipse 232" cx="2" cy="2" r="2" transform="translate(-10056 10110)" fill="#404040"/>
    </g>
    <g transform="translate(10224 -10026)">
      <circle id="Ellipse_232-109" data-name="Ellipse 232" cx="2" cy="2" r="2" transform="translate(-10056 10110)" fill="#404040"/>
    </g>
    <g transform="translate(10238 -10026)">
      <circle id="Ellipse_232-110" data-name="Ellipse 232" cx="2" cy="2" r="2" transform="translate(-10056 10110)" fill="#404040"/>
    </g>
    <g transform="translate(10252 -10026)">
      <circle id="Ellipse_232-111" data-name="Ellipse 232" cx="2" cy="2" r="2" transform="translate(-10056 10110)" fill="#404040"/>
    </g>
    <g transform="translate(10266 -10026)">
      <circle id="Ellipse_232-112" data-name="Ellipse 232" cx="2" cy="2" r="2" transform="translate(-10056 10110)" fill="#404040"/>
    </g>
    <g transform="translate(10056 -10012)">
      <circle id="Ellipse_232-113" data-name="Ellipse 232" cx="2" cy="2" r="2" transform="translate(-10056 10110)" fill="#404040"/>
    </g>
    <g transform="translate(10070 -10012)">
      <circle id="Ellipse_232-114" data-name="Ellipse 232" cx="2" cy="2" r="2" transform="translate(-10056 10110)" fill="#404040"/>
    </g>
    <g transform="translate(10084 -10012)">
      <circle id="Ellipse_232-115" data-name="Ellipse 232" cx="2" cy="2" r="2" transform="translate(-10056 10110)" fill="#404040"/>
    </g>
    <g transform="translate(10098 -10012)">
      <circle id="Ellipse_232-116" data-name="Ellipse 232" cx="2" cy="2" r="2" transform="translate(-10056 10110)" fill="#404040"/>
    </g>
    <g transform="translate(10112 -10012)">
      <circle id="Ellipse_232-117" data-name="Ellipse 232" cx="2" cy="2" r="2" transform="translate(-10056 10110)" fill="#404040"/>
    </g>
    <g transform="translate(10126 -10012)">
      <circle id="Ellipse_232-118" data-name="Ellipse 232" cx="2" cy="2" r="2" transform="translate(-10056 10110)" fill="#404040"/>
    </g>
    <g transform="translate(10140 -10012)">
      <circle id="Ellipse_232-119" data-name="Ellipse 232" cx="2" cy="2" r="2" transform="translate(-10056 10110)" fill="#404040"/>
    </g>
    <g transform="translate(10154 -10012)">
      <circle id="Ellipse_232-120" data-name="Ellipse 232" cx="2" cy="2" r="2" transform="translate(-10056 10110)" fill="#404040"/>
    </g>
    <g transform="translate(10168 -10012)">
      <circle id="Ellipse_232-121" data-name="Ellipse 232" cx="2" cy="2" r="2" transform="translate(-10056 10110)" fill="#404040"/>
    </g>
    <g transform="translate(10182 -10012)">
      <circle id="Ellipse_232-122" data-name="Ellipse 232" cx="2" cy="2" r="2" transform="translate(-10056 10110)" fill="#404040"/>
    </g>
    <g transform="translate(10196 -10012)">
      <circle id="Ellipse_232-123" data-name="Ellipse 232" cx="2" cy="2" r="2" transform="translate(-10056 10110)" fill="#404040"/>
    </g>
    <g transform="translate(10210 -10012)">
      <circle id="Ellipse_232-124" data-name="Ellipse 232" cx="2" cy="2" r="2" transform="translate(-10056 10110)" fill="#404040"/>
    </g>
    <g transform="translate(10224 -10012)">
      <circle id="Ellipse_232-125" data-name="Ellipse 232" cx="2" cy="2" r="2" transform="translate(-10056 10110)" fill="#404040"/>
    </g>
    <g transform="translate(10238 -10012)">
      <circle id="Ellipse_232-126" data-name="Ellipse 232" cx="2" cy="2" r="2" transform="translate(-10056 10110)" fill="#404040"/>
    </g>
    <g transform="translate(10252 -10012)">
      <circle id="Ellipse_232-127" data-name="Ellipse 232" cx="2" cy="2" r="2" transform="translate(-10056 10110)" fill="#404040"/>
    </g>
    <g transform="translate(10266 -10012)">
      <circle id="Ellipse_232-128" data-name="Ellipse 232" cx="2" cy="2" r="2" transform="translate(-10056 10110)" fill="#404040"/>
    </g>
    <g transform="translate(10056 -9998)">
      <circle id="Ellipse_232-129" data-name="Ellipse 232" cx="2" cy="2" r="2" transform="translate(-10056 10110)" fill="#404040"/>
    </g>
    <g transform="translate(10070 -9998)">
      <circle id="Ellipse_232-130" data-name="Ellipse 232" cx="2" cy="2" r="2" transform="translate(-10056 10110)" fill="#404040"/>
    </g>
    <g transform="translate(10084 -9998)">
      <circle id="Ellipse_232-131" data-name="Ellipse 232" cx="2" cy="2" r="2" transform="translate(-10056 10110)" fill="#404040"/>
    </g>
    <g transform="translate(10098 -9998)">
      <circle id="Ellipse_232-132" data-name="Ellipse 232" cx="2" cy="2" r="2" transform="translate(-10056 10110)" fill="#404040"/>
    </g>
    <g transform="translate(10112 -9998)">
      <circle id="Ellipse_232-133" data-name="Ellipse 232" cx="2" cy="2" r="2" transform="translate(-10056 10110)" fill="#404040"/>
    </g>
    <g transform="translate(10126 -9998)">
      <circle id="Ellipse_232-134" data-name="Ellipse 232" cx="2" cy="2" r="2" transform="translate(-10056 10110)" fill="#404040"/>
    </g>
    <g transform="translate(10140 -9998)">
      <circle id="Ellipse_232-135" data-name="Ellipse 232" cx="2" cy="2" r="2" transform="translate(-10056 10110)" fill="#404040"/>
    </g>
    <g transform="translate(10154 -9998)">
      <circle id="Ellipse_232-136" data-name="Ellipse 232" cx="2" cy="2" r="2" transform="translate(-10056 10110)" fill="#404040"/>
    </g>
    <g transform="translate(10168 -9998)">
      <circle id="Ellipse_232-137" data-name="Ellipse 232" cx="2" cy="2" r="2" transform="translate(-10056 10110)" fill="#404040"/>
    </g>
    <g transform="translate(10182 -9998)">
      <circle id="Ellipse_232-138" data-name="Ellipse 232" cx="2" cy="2" r="2" transform="translate(-10056 10110)" fill="#404040"/>
    </g>
    <g transform="translate(10196 -9998)">
      <circle id="Ellipse_232-139" data-name="Ellipse 232" cx="2" cy="2" r="2" transform="translate(-10056 10110)" fill="#404040"/>
    </g>
    <g transform="translate(10210 -9998)">
      <circle id="Ellipse_232-140" data-name="Ellipse 232" cx="2" cy="2" r="2" transform="translate(-10056 10110)" fill="#404040"/>
    </g>
    <g transform="translate(10224 -9998)">
      <circle id="Ellipse_232-141" data-name="Ellipse 232" cx="2" cy="2" r="2" transform="translate(-10056 10110)" fill="#404040"/>
    </g>
    <g transform="translate(10238 -9998)">
      <circle id="Ellipse_232-142" data-name="Ellipse 232" cx="2" cy="2" r="2" transform="translate(-10056 10110)" fill="#404040"/>
    </g>
    <g transform="translate(10252 -9998)">
      <circle id="Ellipse_232-143" data-name="Ellipse 232" cx="2" cy="2" r="2" transform="translate(-10056 10110)" fill="#404040"/>
    </g>
    <g transform="translate(10266 -9998)">
      <circle id="Ellipse_232-144" data-name="Ellipse 232" cx="2" cy="2" r="2" transform="translate(-10056 10110)" fill="#404040"/>
    </g>
    <g transform="translate(10056 -9984)">
      <circle id="Ellipse_232-145" data-name="Ellipse 232" cx="2" cy="2" r="2" transform="translate(-10056 10110)" fill="#404040"/>
    </g>
    <g transform="translate(10070 -9984)">
      <circle id="Ellipse_232-146" data-name="Ellipse 232" cx="2" cy="2" r="2" transform="translate(-10056 10110)" fill="#404040"/>
    </g>
    <g transform="translate(10084 -9984)">
      <circle id="Ellipse_232-147" data-name="Ellipse 232" cx="2" cy="2" r="2" transform="translate(-10056 10110)" fill="#404040"/>
    </g>
    <g transform="translate(10098 -9984)">
      <circle id="Ellipse_232-148" data-name="Ellipse 232" cx="2" cy="2" r="2" transform="translate(-10056 10110)" fill="#404040"/>
    </g>
    <g transform="translate(10112 -9984)">
      <circle id="Ellipse_232-149" data-name="Ellipse 232" cx="2" cy="2" r="2" transform="translate(-10056 10110)" fill="#404040"/>
    </g>
    <g transform="translate(10126 -9984)">
      <circle id="Ellipse_232-150" data-name="Ellipse 232" cx="2" cy="2" r="2" transform="translate(-10056 10110)" fill="#404040"/>
    </g>
    <g transform="translate(10140 -9984)">
      <circle id="Ellipse_232-151" data-name="Ellipse 232" cx="2" cy="2" r="2" transform="translate(-10056 10110)" fill="#404040"/>
    </g>
    <g transform="translate(10154 -9984)">
      <circle id="Ellipse_232-152" data-name="Ellipse 232" cx="2" cy="2" r="2" transform="translate(-10056 10110)" fill="#404040"/>
    </g>
    <g transform="translate(10168 -9984)">
      <circle id="Ellipse_232-153" data-name="Ellipse 232" cx="2" cy="2" r="2" transform="translate(-10056 10110)" fill="#404040"/>
    </g>
    <g transform="translate(10182 -9984)">
      <circle id="Ellipse_232-154" data-name="Ellipse 232" cx="2" cy="2" r="2" transform="translate(-10056 10110)" fill="#404040"/>
    </g>
    <g transform="translate(10196 -9984)">
      <circle id="Ellipse_232-155" data-name="Ellipse 232" cx="2" cy="2" r="2" transform="translate(-10056 10110)" fill="#404040"/>
    </g>
    <g transform="translate(10210 -9984)">
      <circle id="Ellipse_232-156" data-name="Ellipse 232" cx="2" cy="2" r="2" transform="translate(-10056 10110)" fill="#404040"/>
    </g>
    <g transform="translate(10224 -9984)">
      <circle id="Ellipse_232-157" data-name="Ellipse 232" cx="2" cy="2" r="2" transform="translate(-10056 10110)" fill="#404040"/>
    </g>
    <g transform="translate(10238 -9984)">
      <circle id="Ellipse_232-158" data-name="Ellipse 232" cx="2" cy="2" r="2" transform="translate(-10056 10110)" fill="#404040"/>
    </g>
    <g transform="translate(10252 -9984)">
      <circle id="Ellipse_232-159" data-name="Ellipse 232" cx="2" cy="2" r="2" transform="translate(-10056 10110)" fill="#404040"/>
    </g>
    <g transform="translate(10266 -9984)">
      <circle id="Ellipse_232-160" data-name="Ellipse 232" cx="2" cy="2" r="2" transform="translate(-10056 10110)" fill="#404040"/>
    </g>
    <g transform="translate(10056 -9970)">
      <circle id="Ellipse_232-161" data-name="Ellipse 232" cx="2" cy="2" r="2" transform="translate(-10056 10110)" fill="#404040"/>
    </g>
    <g transform="translate(10070 -9970)">
      <circle id="Ellipse_232-162" data-name="Ellipse 232" cx="2" cy="2" r="2" transform="translate(-10056 10110)" fill="#404040"/>
    </g>
    <g transform="translate(10084 -9970)">
      <circle id="Ellipse_232-163" data-name="Ellipse 232" cx="2" cy="2" r="2" transform="translate(-10056 10110)" fill="#404040"/>
    </g>
    <g transform="translate(10098 -9970)">
      <circle id="Ellipse_232-164" data-name="Ellipse 232" cx="2" cy="2" r="2" transform="translate(-10056 10110)" fill="#404040"/>
    </g>
    <g transform="translate(10112 -9970)">
      <circle id="Ellipse_232-165" data-name="Ellipse 232" cx="2" cy="2" r="2" transform="translate(-10056 10110)" fill="#404040"/>
    </g>
    <g transform="translate(10126 -9970)">
      <circle id="Ellipse_232-166" data-name="Ellipse 232" cx="2" cy="2" r="2" transform="translate(-10056 10110)" fill="#404040"/>
    </g>
    <g transform="translate(10140 -9970)">
      <circle id="Ellipse_232-167" data-name="Ellipse 232" cx="2" cy="2" r="2" transform="translate(-10056 10110)" fill="#404040"/>
    </g>
    <g transform="translate(10154 -9970)">
      <circle id="Ellipse_232-168" data-name="Ellipse 232" cx="2" cy="2" r="2" transform="translate(-10056 10110)" fill="#404040"/>
    </g>
    <g transform="translate(10168 -9970)">
      <circle id="Ellipse_232-169" data-name="Ellipse 232" cx="2" cy="2" r="2" transform="translate(-10056 10110)" fill="#404040"/>
    </g>
    <g transform="translate(10182 -9970)">
      <circle id="Ellipse_232-170" data-name="Ellipse 232" cx="2" cy="2" r="2" transform="translate(-10056 10110)" fill="#404040"/>
    </g>
    <g transform="translate(10196 -9970)">
      <circle id="Ellipse_232-171" data-name="Ellipse 232" cx="2" cy="2" r="2" transform="translate(-10056 10110)" fill="#404040"/>
    </g>
    <g transform="translate(10210 -9970)">
      <circle id="Ellipse_232-172" data-name="Ellipse 232" cx="2" cy="2" r="2" transform="translate(-10056 10110)" fill="#404040"/>
    </g>
    <g transform="translate(10224 -9970)">
      <circle id="Ellipse_232-173" data-name="Ellipse 232" cx="2" cy="2" r="2" transform="translate(-10056 10110)" fill="#404040"/>
    </g>
    <g transform="translate(10238 -9970)">
      <circle id="Ellipse_232-174" data-name="Ellipse 232" cx="2" cy="2" r="2" transform="translate(-10056 10110)" fill="#404040"/>
    </g>
    <g transform="translate(10252 -9970)">
      <circle id="Ellipse_232-175" data-name="Ellipse 232" cx="2" cy="2" r="2" transform="translate(-10056 10110)" fill="#404040"/>
    </g>
    <g transform="translate(10266 -9970)">
      <circle id="Ellipse_232-176" data-name="Ellipse 232" cx="2" cy="2" r="2" transform="translate(-10056 10110)" fill="#404040"/>
    </g>
    <g transform="translate(10056 -9956)">
      <circle id="Ellipse_232-177" data-name="Ellipse 232" cx="2" cy="2" r="2" transform="translate(-10056 10110)" fill="#404040"/>
    </g>
    <g transform="translate(10070 -9956)">
      <circle id="Ellipse_232-178" data-name="Ellipse 232" cx="2" cy="2" r="2" transform="translate(-10056 10110)" fill="#404040"/>
    </g>
    <g transform="translate(10084 -9956)">
      <circle id="Ellipse_232-179" data-name="Ellipse 232" cx="2" cy="2" r="2" transform="translate(-10056 10110)" fill="#404040"/>
    </g>
    <g transform="translate(10098 -9956)">
      <circle id="Ellipse_232-180" data-name="Ellipse 232" cx="2" cy="2" r="2" transform="translate(-10056 10110)" fill="#404040"/>
    </g>
    <g transform="translate(10112 -9956)">
      <circle id="Ellipse_232-181" data-name="Ellipse 232" cx="2" cy="2" r="2" transform="translate(-10056 10110)" fill="#404040"/>
    </g>
    <g transform="translate(10126 -9956)">
      <circle id="Ellipse_232-182" data-name="Ellipse 232" cx="2" cy="2" r="2" transform="translate(-10056 10110)" fill="#404040"/>
    </g>
    <g transform="translate(10140 -9956)">
      <circle id="Ellipse_232-183" data-name="Ellipse 232" cx="2" cy="2" r="2" transform="translate(-10056 10110)" fill="#404040"/>
    </g>
    <g transform="translate(10154 -9956)">
      <circle id="Ellipse_232-184" data-name="Ellipse 232" cx="2" cy="2" r="2" transform="translate(-10056 10110)" fill="#404040"/>
    </g>
    <g transform="translate(10168 -9956)">
      <circle id="Ellipse_232-185" data-name="Ellipse 232" cx="2" cy="2" r="2" transform="translate(-10056 10110)" fill="#404040"/>
    </g>
    <g transform="translate(10182 -9956)">
      <circle id="Ellipse_232-186" data-name="Ellipse 232" cx="2" cy="2" r="2" transform="translate(-10056 10110)" fill="#404040"/>
    </g>
    <g transform="translate(10196 -9956)">
      <circle id="Ellipse_232-187" data-name="Ellipse 232" cx="2" cy="2" r="2" transform="translate(-10056 10110)" fill="#404040"/>
    </g>
    <g transform="translate(10210 -9956)">
      <circle id="Ellipse_232-188" data-name="Ellipse 232" cx="2" cy="2" r="2" transform="translate(-10056 10110)" fill="#404040"/>
    </g>
    <g transform="translate(10224 -9956)">
      <circle id="Ellipse_232-189" data-name="Ellipse 232" cx="2" cy="2" r="2" transform="translate(-10056 10110)" fill="#404040"/>
    </g>
    <g transform="translate(10238 -9956)">
      <circle id="Ellipse_232-190" data-name="Ellipse 232" cx="2" cy="2" r="2" transform="translate(-10056 10110)" fill="#404040"/>
    </g>
    <g transform="translate(10252 -9956)">
      <circle id="Ellipse_232-191" data-name="Ellipse 232" cx="2" cy="2" r="2" transform="translate(-10056 10110)" fill="#404040"/>
    </g>
    <g transform="translate(10266 -9956)">
      <circle id="Ellipse_232-192" data-name="Ellipse 232" cx="2" cy="2" r="2" transform="translate(-10056 10110)" fill="#404040"/>
    </g>
    <g transform="translate(10056 -9942)">
      <circle id="Ellipse_232-193" data-name="Ellipse 232" cx="2" cy="2" r="2" transform="translate(-10056 10110)" fill="#404040"/>
    </g>
    <g transform="translate(10070 -9942)">
      <circle id="Ellipse_232-194" data-name="Ellipse 232" cx="2" cy="2" r="2" transform="translate(-10056 10110)" fill="#404040"/>
    </g>
    <g transform="translate(10084 -9942)">
      <circle id="Ellipse_232-195" data-name="Ellipse 232" cx="2" cy="2" r="2" transform="translate(-10056 10110)" fill="#404040"/>
    </g>
    <g transform="translate(10098 -9942)">
      <circle id="Ellipse_232-196" data-name="Ellipse 232" cx="2" cy="2" r="2" transform="translate(-10056 10110)" fill="#404040"/>
    </g>
    <g transform="translate(10112 -9942)">
      <circle id="Ellipse_232-197" data-name="Ellipse 232" cx="2" cy="2" r="2" transform="translate(-10056 10110)" fill="#404040"/>
    </g>
    <g transform="translate(10126 -9942)">
      <circle id="Ellipse_232-198" data-name="Ellipse 232" cx="2" cy="2" r="2" transform="translate(-10056 10110)" fill="#404040"/>
    </g>
    <g transform="translate(10140 -9942)">
      <circle id="Ellipse_232-199" data-name="Ellipse 232" cx="2" cy="2" r="2" transform="translate(-10056 10110)" fill="#404040"/>
    </g>
    <g transform="translate(10154 -9942)">
      <circle id="Ellipse_232-200" data-name="Ellipse 232" cx="2" cy="2" r="2" transform="translate(-10056 10110)" fill="#404040"/>
    </g>
    <g transform="translate(10168 -9942)">
      <circle id="Ellipse_232-201" data-name="Ellipse 232" cx="2" cy="2" r="2" transform="translate(-10056 10110)" fill="#404040"/>
    </g>
    <g transform="translate(10182 -9942)">
      <circle id="Ellipse_232-202" data-name="Ellipse 232" cx="2" cy="2" r="2" transform="translate(-10056 10110)" fill="#404040"/>
    </g>
    <g transform="translate(10196 -9942)">
      <circle id="Ellipse_232-203" data-name="Ellipse 232" cx="2" cy="2" r="2" transform="translate(-10056 10110)" fill="#404040"/>
    </g>
    <g transform="translate(10210 -9942)">
      <circle id="Ellipse_232-204" data-name="Ellipse 232" cx="2" cy="2" r="2" transform="translate(-10056 10110)" fill="#404040"/>
    </g>
    <g transform="translate(10224 -9942)">
      <circle id="Ellipse_232-205" data-name="Ellipse 232" cx="2" cy="2" r="2" transform="translate(-10056 10110)" fill="#404040"/>
    </g>
    <g transform="translate(10238 -9942)">
      <circle id="Ellipse_232-206" data-name="Ellipse 232" cx="2" cy="2" r="2" transform="translate(-10056 10110)" fill="#404040"/>
    </g>
    <g transform="translate(10252 -9942)">
      <circle id="Ellipse_232-207" data-name="Ellipse 232" cx="2" cy="2" r="2" transform="translate(-10056 10110)" fill="#404040"/>
    </g>
    <g transform="translate(10266 -9942)">
      <circle id="Ellipse_232-208" data-name="Ellipse 232" cx="2" cy="2" r="2" transform="translate(-10056 10110)" fill="#404040"/>
    </g>
  </g>
</svg>
