<svg xmlns="http://www.w3.org/2000/svg" width="42" height="44.655" viewBox="0 0 42 44.655"><g transform="translate(-1236 -1403)"><path d="M-13612.485,1417.289v12.09h5.031s4.061-.677,3.771-6.384-3.965-6.19-5.609-6.19A12.168,12.168,0,0,0-13612.485,1417.289Z" transform="translate(14880.662 4.314)" fill="#fccb54"/><g transform="translate(1236 1403)"><path d="M50.427,16.98V15.263A15.684,15.684,0,0,0,46.337,4.5,14.108,14.108,0,0,0,35.868,0H34.451a14.108,14.108,0,0,0-10.47,4.5,15.684,15.684,0,0,0-4.09,10.76V16.98a6.161,6.161,0,0,0-5.741,6.135V25.8a6.154,6.154,0,0,0,6.145,6.145h3.462a1.129,1.129,0,0,0,1.126-1.126V18.087a1.129,1.129,0,0,0-1.126-1.126H22.143v-1.7c0-7.421,5.291-13.012,12.3-13.012h1.417c7.017,0,12.3,5.591,12.3,13.012v1.7H46.544a1.129,1.129,0,0,0-1.126,1.126V30.808a1.129,1.129,0,0,0,1.126,1.126H48.12c-.46,5.873-4.5,7.233-6.379,7.543a3.959,3.959,0,0,0-3.762-2.73H35.164a3.954,3.954,0,0,0,0,7.908h2.824A3.959,3.959,0,0,0,41.8,41.747a10.648,10.648,0,0,0,3.818-1.3c2.036-1.191,4.447-3.621,4.766-8.518a6.152,6.152,0,0,0,5.769-6.135V23.106A6.129,6.129,0,0,0,50.427,16.98Zm-27.778,12.7H20.313a3.9,3.9,0,0,1-3.893-3.893V23.106a3.9,3.9,0,0,1,3.893-3.893h2.336ZM37.988,42.4H35.164a1.7,1.7,0,0,1,0-3.4h2.824a1.7,1.7,0,0,1,0,3.4Zm15.92-16.614a3.9,3.9,0,0,1-3.893,3.893H47.679V19.213h2.336a3.9,3.9,0,0,1,3.893,3.893Z" transform="translate(-14.15)" fill="#404040"/></g></g></svg>