<svg xmlns="http://www.w3.org/2000/svg" width="43.47" height="41.998" viewBox="0 0 43.47 41.998"><g transform="translate(-1155.196 -1445)"><rect width="7.493" height="11.24" transform="translate(1158.698 1474.972)" fill="#fccb54"/><rect width="7.493" height="27.475" transform="translate(1179.928 1458.737)" fill="#fccb54"/><g transform="translate(1155.197 1445)"><path d="M71586.609,24936h7.242a.614.614,0,0,1,.617.613v35.172a.614.614,0,0,1-.617.613h-7.242a.612.612,0,0,1-.609-.613v-35.172A.612.612,0,0,1,71586.609,24936Zm6.625,1.229h-6.008v33.941h6.008Z" transform="translate(-71551 -24930.4)"/><path d="M54468.617,37564h7.234a.613.613,0,0,1,.617.613v27.41a.616.616,0,0,1-.617.617h-7.234a.616.616,0,0,1-.617-.617v-27.41A.613.613,0,0,1,54468.617,37564Zm6.625,1.227h-6.016v26.184h6.016Z" transform="translate(-54443.527 -37550.645)"/><path d="M37351.613,51313h7.238a.613.613,0,0,1,.613.617v18.961a.614.614,0,0,1-.613.613h-7.238a.618.618,0,0,1-.617-.613v-18.961A.616.616,0,0,1,37351.613,51313Zm6.625,1.23h-6.012v17.734h6.012Z" transform="translate(-37337.035 -51291.191)"/><path d="M20234.613,64503h7.238a.614.614,0,0,1,.617.609v10.859a.621.621,0,0,1-.617.617h-7.238a.618.618,0,0,1-.613-.617v-10.859A.611.611,0,0,1,20234.613,64503Zm6.625,1.227h-6.012v9.633h6.012Z" transform="translate(-20230.557 -64473.09)"/><path d="M14659.459,15825.6a.612.612,0,1,1-1.2.225l-.293-1.543c-6.32,10.656-17.076,17.229-28.463,21.4a.614.614,0,0,1-.422-1.152c11.111-4.072,21.658-10.469,27.83-20.873l-1.551.561a.612.612,0,1,1-.412-1.152l3.068-1.107.127-.039a.615.615,0,0,1,.715.49Z" transform="translate(-14628.679 -15821.907)"/></g></g></svg>