<svg xmlns="http://www.w3.org/2000/svg" width="42" height="51.2" viewBox="0 0 42 51.2"><g transform="translate(-46)"><g transform="translate(46)"><g transform="translate(0)"><path d="M87,6a5.006,5.006,0,0,1-5-5,1,1,0,0,0-1-1H53a1,1,0,0,0-1,1,5.006,5.006,0,0,1-5,5,1,1,0,0,0-1,1V23.319A29.047,29.047,0,0,0,66.713,51.158a1,1,0,0,0,.575,0A29.05,29.05,0,0,0,88,23.319V7A1,1,0,0,0,87,6ZM86,23.319A26.893,26.893,0,0,1,67,49.154,27.039,27.039,0,0,1,48,23.319V7.929A7.016,7.016,0,0,0,53.929,2H80.071A7.016,7.016,0,0,0,86,7.929Z" transform="translate(-46)" fill="#404040"/></g></g><circle cx="8.5" cy="8.5" r="8.5" transform="translate(58.5 15)" fill="#fccb54"/><g transform="translate(58 14.6)"><path d="M175,146a9,9,0,1,0,9,9A9.01,9.01,0,0,0,175,146Zm0,16a7,7,0,1,1,7-7A7.008,7.008,0,0,1,175,162Z" transform="translate(-166 -146)" fill="#404040"/></g><g transform="translate(63 20.6)"><path d="M224.706,206.293a1,1,0,0,0-1.414,0L219,210.586l-1.293-1.293a1,1,0,0,0-1.414,1.414l2,2a1,1,0,0,0,1.414,0l5-5A1,1,0,0,0,224.706,206.293Z" transform="translate(-215.999 -206)" fill="#404040"/></g></g></svg>