<svg id="work-team" xmlns="http://www.w3.org/2000/svg" width="58" height="58" viewBox="0 0 58 58">
  <g id="Group_177" data-name="Group 177" transform="translate(5.8 0)">
    <g id="Group_176" data-name="Group 176">
      <path id="Path_211" data-name="Path 211" d="M94.122,10.912,89.288,6.078a.967.967,0,0,0-1.213-.126L82.7,9.473,76.913,7.057,76.025.829A.967.967,0,0,0,75.068,0H67.334a.967.967,0,0,0-.957.829l-.889,6.227L59.7,9.473,54.331,5.955a.967.967,0,0,0-1.213.126l-4.833,4.833a.967.967,0,0,0-.124,1.215l3.577,5.433-.6,1.385,1.775.768.807-1.864a.967.967,0,0,0-.08-.916l-3.434-5.21L53.927,8l5.145,3.37a.977.977,0,0,0,.9.083l6.767-2.833a.966.966,0,0,0,.58-.755l.851-5.934H74.23l.848,5.937a.966.966,0,0,0,.58.755l6.767,2.831a.975.975,0,0,0,.9-.083l5.147-3.368,3.747,3.747-2.513,4.253a.967.967,0,0,0-.073.833l1.072,2.831,1.809-.684-.908-2.4,2.663-4.5A.967.967,0,0,0,94.122,10.912Z" transform="translate(-48.001 0)" fill="#fcb300"/>
    </g>
  </g>
  <g id="Group_179" data-name="Group 179" transform="translate(18.367 33.833)">
    <g id="Group_178" data-name="Group 178">
      <path id="Path_212" data-name="Path 212" d="M172.983,283.183l-2.9-2.9A.967.967,0,0,0,169.4,280H155.867a.967.967,0,0,0-.683.283l-2.9,2.9a.967.967,0,0,0-.283.683V303.2a.967.967,0,0,0,.967.967H172.3a.967.967,0,0,0,.967-.967V283.867A.967.967,0,0,0,172.983,283.183Zm-7.05-1.25H169l-3.466,3.466L164,283.867Zm-1.767,4.833-1.25,1.25a.961.961,0,0,0-.283.683.966.966,0,0,0-.283-.677l-1.25-1.257,1.533-1.533Zm-.967-4.833-.566.566-.566-.566Zm-3.867,0,1.933,1.933-1.533,1.533-3.466-3.466Zm-.446,20.3h-4.954V284.267l.967-.967,4.15,4.15,1.6,1.6Zm1.951,0,1.786-13.406a.871.871,0,0,0,.009-.123.922.922,0,0,0,.019.185l2.668,13.344Zm10.5,0h-4.041l-2.643-13.215,1.567-1.568,4.15-4.15.967.967Z" transform="translate(-152 -280)" fill="#fcb300"/>
    </g>
  </g>
  <g id="Group_181" data-name="Group 181" transform="translate(21.267 12.567)">
    <g id="Group_180" data-name="Group 180">
      <path id="Path_213" data-name="Path 213" d="M190.5,104h-8.7a5.806,5.806,0,0,0-5.8,5.8v5.8a7.733,7.733,0,1,0,15.467,0V104.967A.967.967,0,0,0,190.5,104Zm-.967,11.6a5.8,5.8,0,1,1-11.6,0v-3.867h7.733a5.77,5.77,0,0,0,3.867-1.489Zm-3.867-5.8h-7.733a3.867,3.867,0,0,1,3.867-3.867h7.733A3.867,3.867,0,0,1,185.667,109.8Z" transform="translate(-176 -104)" fill="#fcb300"/>
    </g>
  </g>
  <g id="Group_183" data-name="Group 183" transform="translate(42.533 37.7)">
    <g id="Group_182" data-name="Group 182">
      <path id="Path_214" data-name="Path 214" d="M367.183,315.183l-2.9-2.9A.967.967,0,0,0,363.6,312h-7.733a.967.967,0,0,0-.683.283l-2.9,2.9a.967.967,0,0,0-.283.683v15.467a.967.967,0,0,0,.967.967H366.5a.967.967,0,0,0,.967-.967V315.867A.967.967,0,0,0,367.183,315.183Zm-1.65,15.183H360.7v-14.5h-1.933v14.5h-4.833v-14.1l1.933-1.933,2.217,2.217.683-.683.683-.683-1.25-1.25h3.143l-1.306,1.229.663.7.663.7,2.3-2.17,1.866,1.866Z" transform="translate(-352 -312)" fill="#fcb300"/>
    </g>
  </g>
  <g id="Group_185" data-name="Group 185" transform="translate(44.483 21.267)">
    <g id="Group_184" data-name="Group 184">
      <path id="Path_215" data-name="Path 215" d="M374.886,176h-1.9a4.843,4.843,0,0,0-4.833,4.817l-.016,4.84a5.79,5.79,0,0,0,5.771,5.81h.019a5.8,5.8,0,0,0,5.793-5.79v-4.843A4.839,4.839,0,0,0,374.886,176Zm-4.8,4.824a2.9,2.9,0,0,1,2.868-2.89,2.9,2.9,0,0,1-2.868,2.9Zm7.7,4.85a3.857,3.857,0,1,1-7.714,0v-.01l.01-2.9a4.833,4.833,0,0,0,3.838-1.933,4.833,4.833,0,0,0,3.867,1.933Zm-2.9-7.74a2.9,2.9,0,0,1,2.9,2.9A2.9,2.9,0,0,1,374.886,177.933Z" transform="translate(-368.136 -176)" fill="#fcb300"/>
    </g>
  </g>
  <g id="Group_187" data-name="Group 187" transform="translate(0 37.7)">
    <g id="Group_186" data-name="Group 186">
      <path id="Path_216" data-name="Path 216" d="M15.183,315.183l-2.9-2.9A.967.967,0,0,0,11.6,312H3.867a.967.967,0,0,0-.683.283l-2.9,2.9a.967.967,0,0,0-.283.683v15.467a.967.967,0,0,0,.967.967H14.5a.967.967,0,0,0,.967-.967V315.867A.967.967,0,0,0,15.183,315.183Zm-1.65,15.183H8.7v-14.5H6.767v14.5H1.933v-14.1l1.933-1.933,2.217,2.217.683-.683.683-.683-1.25-1.25H9.343l-1.306,1.229.663.7.663.7,2.3-2.17,1.866,1.866Z" transform="translate(0 -312)" fill="#fcb300"/>
    </g>
  </g>
  <g id="Group_189" data-name="Group 189" transform="translate(1.95 21.267)">
    <g id="Group_188" data-name="Group 188">
      <path id="Path_217" data-name="Path 217" d="M22.886,176h-1.9a4.843,4.843,0,0,0-4.833,4.817l-.015,4.84a5.79,5.79,0,0,0,5.771,5.81h.019a5.8,5.8,0,0,0,5.793-5.79v-4.843A4.839,4.839,0,0,0,22.886,176Zm0,1.933a2.9,2.9,0,0,1,2.722,1.933H23.853a2.9,2.9,0,0,1-2.722-1.933Zm-3.867.781v.177a.953.953,0,0,1-.285.684.92.92,0,0,1-.455.242A2.9,2.9,0,0,1,19.019,178.714Zm6.767,6.962a3.857,3.857,0,0,1-7.714,0v-.01l.013-3.874a2.874,2.874,0,0,0,2.016-.842,2.947,2.947,0,0,0,.4-.51,4.811,4.811,0,0,0,3.349,1.36h1.933Z" transform="translate(-16.136 -176)" fill="#fcb300"/>
    </g>
  </g>
</svg>
